<svg xmlns="http://www.w3.org/2000/svg" width="339.489" height="20.405" viewBox="0 0 339.489 20.405">
  <path id="パス_1144" data-name="パス 1144" d="M-164.364.25a7.293,7.293,0,0,1-3.094-.641A6.221,6.221,0,0,1-169.8-2.256L-168.2-3.85a4.013,4.013,0,0,0,1.584,1.384,4.847,4.847,0,0,0,2.216.509,4.292,4.292,0,0,0,2-.438,3.257,3.257,0,0,0,1.322-1.234,3.508,3.508,0,0,0,.478-1.841,3.5,3.5,0,0,0-.478-1.866,3.213,3.213,0,0,0-1.353-1.209,4.693,4.693,0,0,0-2.094-.431,6.922,6.922,0,0,0-.894.059,5.219,5.219,0,0,0-.862.184l.994-1.337a5.345,5.345,0,0,1,1.016-.35,4.764,4.764,0,0,1,1.116-.131,4.856,4.856,0,0,1,2.509.656,4.78,4.78,0,0,1,1.769,1.822,5.463,5.463,0,0,1,.653,2.716,5.465,5.465,0,0,1-.778,2.922,5.344,5.344,0,0,1-2.156,1.975A6.905,6.905,0,0,1-164.364.25Zm-1.919-8.981v-1.413l5.063-5.788,2.794-.006-5.219,5.906Zm-2.694-6.512V-17.35h10.55v1.413l-2.031.694ZM-154,1l6.931-19.312h2.112L-151.883,1Zm16.481-1V-17.35h2.313V0Zm-3.562-15.244V-17.35h5.625v2.106ZM-124.246.25A7.453,7.453,0,0,1-127.4-.391a6.214,6.214,0,0,1-2.341-1.866l1.594-1.594a4.008,4.008,0,0,0,1.587,1.384,4.991,4.991,0,0,0,2.275.509,4.536,4.536,0,0,0,2.059-.444,3.4,3.4,0,0,0,1.394-1.263,3.581,3.581,0,0,0,.509-1.931,3.64,3.64,0,0,0-.494-1.953,3.249,3.249,0,0,0-1.328-1.216,4.031,4.031,0,0,0-1.834-.419,6.4,6.4,0,0,0-1.872.256,4.684,4.684,0,0,0-1.578.85l.019-1.494a3.771,3.771,0,0,1,.975-.85,4.47,4.47,0,0,1,1.253-.5,6.838,6.838,0,0,1,1.616-.172,5.813,5.813,0,0,1,3.047.753,5.027,5.027,0,0,1,1.912,2.022,6.074,6.074,0,0,1,.659,2.844,5.441,5.441,0,0,1-.809,2.953,5.665,5.665,0,0,1-2.228,2.031A6.948,6.948,0,0,1-124.246.25Zm-3.181-8.325L-128.7-9.356l.763-7.994h2.156l-.869,8.238Zm-.031-7.169-.481-2.106h9.119v2.106Zm17.28,17.336A7.711,7.711,0,0,1-111.87.043a10.61,10.61,0,0,1-1.078-2.655,11.8,11.8,0,0,1-.376-2.986,11.8,11.8,0,0,1,.376-2.986,10.61,10.61,0,0,1,1.078-2.655,7.711,7.711,0,0,1,1.692-2.05l.94.846a7.287,7.287,0,0,0-1.971,2.891A10.807,10.807,0,0,0-111.9-5.6a10.8,10.8,0,0,0,.688,3.944,7.319,7.319,0,0,0,1.971,2.9ZM-101.948,0V-12.137h1.7V0Zm-4.234-10.944v-1.548h10.165v1.548ZM-90.621.18a3.741,3.741,0,0,1-1.9-.479,3.382,3.382,0,0,1-1.3-1.323,3.984,3.984,0,0,1-.466-1.957V-8.55h1.624v4.9a2.784,2.784,0,0,0,.243,1.211,1.789,1.789,0,0,0,.706.785,2.093,2.093,0,0,0,1.094.277,1.9,1.9,0,0,0,1.5-.605,2.422,2.422,0,0,0,.538-1.667v-4.9h1.624v4.973a4.016,4.016,0,0,1-.466,1.964A3.346,3.346,0,0,1-88.715-.292,3.769,3.769,0,0,1-90.621.18Zm11.772,0a4.58,4.58,0,0,1-2.3-.58A4.306,4.306,0,0,1-82.769-2a4.436,4.436,0,0,1-.594-2.284,4.445,4.445,0,0,1,.583-2.27,4.332,4.332,0,0,1,1.586-1.593,4.346,4.346,0,0,1,2.236-.587,4.005,4.005,0,0,1,2.092.542A3.861,3.861,0,0,1-75.436-6.7a4.443,4.443,0,0,1,.52,2.169,3.594,3.594,0,0,1-.022.387q-.022.207-.072.468h-7.214V-5.017h6.354l-.594.517a3.353,3.353,0,0,0-.311-1.467,2.2,2.2,0,0,0-.86-.938,2.612,2.612,0,0,0-1.354-.331,2.854,2.854,0,0,0-1.46.362,2.5,2.5,0,0,0-.967,1.01,3.227,3.227,0,0,0-.344,1.534A3.272,3.272,0,0,0-81.4-2.758a2.566,2.566,0,0,0,1.024,1.046,3.073,3.073,0,0,0,1.53.371A3.367,3.367,0,0,0-77.522-1.6a2.715,2.715,0,0,0,1.031-.756L-75.452-1.3a4.011,4.011,0,0,1-1.5,1.1A4.771,4.771,0,0,1-78.849.18Zm7.956,1.912-.94-.846a7.319,7.319,0,0,0,1.971-2.9A10.8,10.8,0,0,0-69.174-5.6a10.807,10.807,0,0,0-.688-3.953,7.287,7.287,0,0,0-1.971-2.891l.94-.846a7.711,7.711,0,0,1,1.692,2.05,10.61,10.61,0,0,1,1.078,2.655A11.8,11.8,0,0,1-67.748-5.6a11.8,11.8,0,0,1-.376,2.986A10.61,10.61,0,0,1-69.2.043,7.711,7.711,0,0,1-70.893,2.092ZM-61.826,0V-12.492h1.665V0Zm-2.565-10.975v-1.517h4.05v1.517ZM-54.329,0l4.676-11.493,1.665.045L-52.56,0ZM-56.3-10.975v-1.517h8.311v1.044l-.729.473ZM-43,.18a1.1,1.1,0,0,1-.835-.346A1.166,1.166,0,0,1-44.163-1a1.165,1.165,0,0,1,.328-.85A1.118,1.118,0,0,1-43-2.183a1.127,1.127,0,0,1,.838.335,1.16,1.16,0,0,1,.331.85,1.161,1.161,0,0,1-.331.831A1.108,1.108,0,0,1-43,.18Zm0-5.611a1.1,1.1,0,0,1-.835-.347,1.166,1.166,0,0,1-.328-.831,1.165,1.165,0,0,1,.328-.85A1.118,1.118,0,0,1-43-7.794a1.127,1.127,0,0,1,.838.335,1.16,1.16,0,0,1,.331.85,1.161,1.161,0,0,1-.331.831A1.108,1.108,0,0,1-43-5.431ZM-32.647.18A4.413,4.413,0,0,1-35.2-.614a5.512,5.512,0,0,1-1.845-2.243,7.866,7.866,0,0,1-.688-3.407,7.884,7.884,0,0,1,.679-3.4,5.435,5.435,0,0,1,1.826-2.221,4.4,4.4,0,0,1,2.543-.787,4.436,4.436,0,0,1,2.563.785A5.418,5.418,0,0,1-28.3-9.66a7.953,7.953,0,0,1,.679,3.418A7.953,7.953,0,0,1-28.3-2.836,5.432,5.432,0,0,1-30.113-.6,4.366,4.366,0,0,1-32.647.18Zm-.036-1.593a2.868,2.868,0,0,0,1.747-.551,3.621,3.621,0,0,0,1.179-1.629,7.242,7.242,0,0,0,.43-2.67,7.172,7.172,0,0,0-.43-2.651,3.554,3.554,0,0,0-1.186-1.62,2.912,2.912,0,0,0-1.747-.544,2.888,2.888,0,0,0-1.732.544A3.514,3.514,0,0,0-35.6-8.921a7.242,7.242,0,0,0-.423,2.651A7.368,7.368,0,0,0-35.6-3.593a3.556,3.556,0,0,0,1.179,1.629A2.874,2.874,0,0,0-32.682-1.413ZM-18.859.18a4.413,4.413,0,0,1-2.553-.794,5.512,5.512,0,0,1-1.845-2.243,7.866,7.866,0,0,1-.688-3.407,7.884,7.884,0,0,1,.679-3.4,5.435,5.435,0,0,1,1.826-2.221,4.4,4.4,0,0,1,2.543-.787,4.436,4.436,0,0,1,2.563.785A5.418,5.418,0,0,1-14.508-9.66a7.953,7.953,0,0,1,.679,3.418,7.953,7.953,0,0,1-.679,3.406A5.432,5.432,0,0,1-16.325-.6,4.366,4.366,0,0,1-18.859.18Zm-.036-1.593a2.868,2.868,0,0,0,1.747-.551,3.621,3.621,0,0,0,1.179-1.629,7.242,7.242,0,0,0,.43-2.67,7.172,7.172,0,0,0-.43-2.651,3.554,3.554,0,0,0-1.186-1.62,2.912,2.912,0,0,0-1.747-.544,2.888,2.888,0,0,0-1.732.544,3.514,3.514,0,0,0-1.179,1.613,7.242,7.242,0,0,0-.423,2.651,7.369,7.369,0,0,0,.423,2.677,3.556,3.556,0,0,0,1.179,1.629A2.874,2.874,0,0,0-18.894-1.413ZM-4.1-3.807V-5.346H1.818v1.539ZM16.871.25a7.293,7.293,0,0,1-3.094-.641A6.22,6.22,0,0,1,11.44-2.256L13.034-3.85a4.013,4.013,0,0,0,1.584,1.384,4.847,4.847,0,0,0,2.216.509,4.292,4.292,0,0,0,2-.438,3.257,3.257,0,0,0,1.322-1.234,3.508,3.508,0,0,0,.478-1.841,3.5,3.5,0,0,0-.478-1.866A3.212,3.212,0,0,0,18.8-8.544a4.693,4.693,0,0,0-2.094-.431,6.922,6.922,0,0,0-.894.059,5.219,5.219,0,0,0-.862.184l.994-1.337a5.345,5.345,0,0,1,1.016-.35,4.764,4.764,0,0,1,1.116-.131,4.856,4.856,0,0,1,2.509.656,4.781,4.781,0,0,1,1.769,1.822,5.463,5.463,0,0,1,.653,2.716,5.465,5.465,0,0,1-.778,2.922A5.344,5.344,0,0,1,20.074-.459,6.905,6.905,0,0,1,16.871.25ZM14.952-8.731v-1.413l5.062-5.788,2.794-.006L17.59-10.031Zm-2.694-6.512V-17.35h10.55v1.413l-2.031.694ZM27.24,1l6.931-19.312h2.113L29.352,1ZM45.565.25a7.293,7.293,0,0,1-3.094-.641,6.22,6.22,0,0,1-2.337-1.866L41.727-3.85a4.013,4.013,0,0,0,1.584,1.384,4.847,4.847,0,0,0,2.216.509,4.292,4.292,0,0,0,2-.438,3.257,3.257,0,0,0,1.322-1.234,3.508,3.508,0,0,0,.478-1.841,3.5,3.5,0,0,0-.478-1.866A3.212,3.212,0,0,0,47.5-8.544,4.693,4.693,0,0,0,45.4-8.975a6.922,6.922,0,0,0-.894.059,5.219,5.219,0,0,0-.863.184l.994-1.337a5.345,5.345,0,0,1,1.016-.35,4.764,4.764,0,0,1,1.116-.131,4.856,4.856,0,0,1,2.509.656,4.781,4.781,0,0,1,1.769,1.822A5.463,5.463,0,0,1,51.7-5.356a5.465,5.465,0,0,1-.778,2.922A5.344,5.344,0,0,1,48.768-.459,6.905,6.905,0,0,1,45.565.25ZM43.646-8.731v-1.413l5.063-5.788,2.794-.006-5.219,5.906Zm-2.694-6.512V-17.35H51.5v1.413l-2.031.694ZM59.909,0V-17.35h2.313V0ZM56.346-15.244V-17.35h5.625v2.106ZM70.963,2.092A7.711,7.711,0,0,1,69.271.043a10.61,10.61,0,0,1-1.078-2.655A11.8,11.8,0,0,1,67.818-5.6a11.8,11.8,0,0,1,.376-2.986,10.61,10.61,0,0,1,1.078-2.655,7.711,7.711,0,0,1,1.692-2.05l.94.846a7.287,7.287,0,0,0-1.971,2.891A10.807,10.807,0,0,0,69.244-5.6a10.8,10.8,0,0,0,.688,3.944,7.319,7.319,0,0,0,1.971,2.9ZM79.194,0V-12.137h1.7V0ZM74.959-10.944v-1.548H85.125v1.548ZM94.876,0V-4.977a2.22,2.22,0,0,0-.605-1.611A2.092,2.092,0,0,0,92.7-7.214a2.321,2.321,0,0,0-1.164.286,2.058,2.058,0,0,0-.79.79,2.3,2.3,0,0,0-.286,1.156l-.675-.378a3.4,3.4,0,0,1,.439-1.735,3.206,3.206,0,0,1,1.207-1.2,3.444,3.444,0,0,1,1.739-.439,3.379,3.379,0,0,1,1.725.437,3.111,3.111,0,0,1,1.181,1.208A3.622,3.622,0,0,1,96.5-5.3V0ZM88.833,0V-12.852h1.624V0Zm15.286.18a3.741,3.741,0,0,1-1.9-.479,3.382,3.382,0,0,1-1.3-1.323,3.984,3.984,0,0,1-.466-1.957V-8.55h1.624v4.9a2.784,2.784,0,0,0,.243,1.211,1.789,1.789,0,0,0,.706.785,2.093,2.093,0,0,0,1.094.277,1.9,1.9,0,0,0,1.5-.605,2.422,2.422,0,0,0,.538-1.667v-4.9h1.625v4.973a4.016,4.016,0,0,1-.466,1.964,3.346,3.346,0,0,1-1.291,1.321A3.769,3.769,0,0,1,104.119.18Zm8.1,1.912-.94-.846a7.319,7.319,0,0,0,1.971-2.9,10.8,10.8,0,0,0,.688-3.944,10.807,10.807,0,0,0-.688-3.953,7.287,7.287,0,0,0-1.971-2.891l.94-.846a7.711,7.711,0,0,1,1.692,2.05,10.61,10.61,0,0,1,1.078,2.655,11.8,11.8,0,0,1,.376,2.986,11.8,11.8,0,0,1-.376,2.986A10.61,10.61,0,0,1,113.911.043,7.711,7.711,0,0,1,112.219,2.092ZM121.287,0V-12.492h1.665V0Zm-2.565-10.975v-1.517h4.05v1.517Zm8.257,9.958,4.612-4.86a15.072,15.072,0,0,0,1.089-1.256,3.921,3.921,0,0,0,.567-.985,2.713,2.713,0,0,0,.167-.941,1.9,1.9,0,0,0-.608-1.494,2.289,2.289,0,0,0-1.579-.54,3.035,3.035,0,0,0-1.674.461,4.151,4.151,0,0,0-1.287,1.415l-1.183-.995a5.254,5.254,0,0,1,1.778-1.836,4.619,4.619,0,0,1,2.421-.625,4.226,4.226,0,0,1,2,.452,3.266,3.266,0,0,1,1.33,1.265,3.7,3.7,0,0,1,.473,1.892,4.581,4.581,0,0,1-.193,1.379,4.308,4.308,0,0,1-.666,1.253,15.939,15.939,0,0,1-1.319,1.516L129.18-1.071Zm0,1.017V-1.017l1.431-.5h6.952V0Zm13.542.18a1.1,1.1,0,0,1-.835-.346A1.166,1.166,0,0,1,139.359-1a1.165,1.165,0,0,1,.328-.85,1.118,1.118,0,0,1,.835-.335,1.127,1.127,0,0,1,.838.335,1.16,1.16,0,0,1,.331.85,1.161,1.161,0,0,1-.331.831A1.108,1.108,0,0,1,140.522.18Zm0-5.611a1.1,1.1,0,0,1-.835-.347,1.166,1.166,0,0,1-.328-.831,1.165,1.165,0,0,1,.328-.85,1.118,1.118,0,0,1,.835-.335,1.127,1.127,0,0,1,.838.335,1.16,1.16,0,0,1,.331.85,1.161,1.161,0,0,1-.331.831A1.108,1.108,0,0,1,140.522-5.431ZM150.876.18a4.413,4.413,0,0,1-2.553-.794,5.512,5.512,0,0,1-1.845-2.243,7.866,7.866,0,0,1-.688-3.407,7.884,7.884,0,0,1,.679-3.4,5.435,5.435,0,0,1,1.826-2.221,4.4,4.4,0,0,1,2.543-.787,4.436,4.436,0,0,1,2.563.785,5.418,5.418,0,0,1,1.827,2.226,7.953,7.953,0,0,1,.679,3.418,7.953,7.953,0,0,1-.679,3.406A5.432,5.432,0,0,1,153.41-.6,4.366,4.366,0,0,1,150.876.18Zm-.036-1.593a2.868,2.868,0,0,0,1.747-.551,3.621,3.621,0,0,0,1.179-1.629,7.242,7.242,0,0,0,.43-2.67,7.172,7.172,0,0,0-.43-2.651,3.554,3.554,0,0,0-1.186-1.62,2.912,2.912,0,0,0-1.747-.544,2.888,2.888,0,0,0-1.732.544,3.514,3.514,0,0,0-1.179,1.613A7.242,7.242,0,0,0,147.5-6.27a7.369,7.369,0,0,0,.423,2.677A3.556,3.556,0,0,0,149.1-1.964,2.874,2.874,0,0,0,150.84-1.413ZM164.663.18a4.413,4.413,0,0,1-2.553-.794,5.512,5.512,0,0,1-1.845-2.243,7.866,7.866,0,0,1-.688-3.407,7.884,7.884,0,0,1,.679-3.4,5.435,5.435,0,0,1,1.826-2.221,4.4,4.4,0,0,1,2.543-.787,4.436,4.436,0,0,1,2.563.785,5.418,5.418,0,0,1,1.827,2.226,7.953,7.953,0,0,1,.679,3.418,7.953,7.953,0,0,1-.679,3.406A5.432,5.432,0,0,1,167.2-.6,4.366,4.366,0,0,1,164.663.18Zm-.036-1.593a2.868,2.868,0,0,0,1.747-.551,3.621,3.621,0,0,0,1.179-1.629,7.242,7.242,0,0,0,.43-2.67,7.172,7.172,0,0,0-.43-2.651,3.554,3.554,0,0,0-1.186-1.62,2.912,2.912,0,0,0-1.747-.544,2.888,2.888,0,0,0-1.732.544,3.514,3.514,0,0,0-1.179,1.613,7.242,7.242,0,0,0-.423,2.651,7.369,7.369,0,0,0,.423,2.677,3.556,3.556,0,0,0,1.179,1.629A2.874,2.874,0,0,0,164.628-1.413Z" transform="translate(169.796 18.313)" fill="#678375"/>
</svg>
