<svg xmlns="http://www.w3.org/2000/svg" width="229.44" height="28.57" viewBox="0 0 229.44 28.57">
  <path id="パス_1182" data-name="パス 1182" d="M15.87.4A14.008,14.008,0,0,1,10.315-.69,13.5,13.5,0,0,1,5.86-3.745,13.884,13.884,0,0,1,2.925-8.31,14.948,14.948,0,0,1,1.89-13.89a15,15,0,0,1,1.03-5.585A13.593,13.593,0,0,1,5.845-24.01a13.853,13.853,0,0,1,4.44-3.045A13.747,13.747,0,0,1,15.82-28.16a13.944,13.944,0,0,1,5.77,1.12,14.3,14.3,0,0,1,4.39,3.06l-2.57,2.57a9.249,9.249,0,0,0-3.24-2.31,10.817,10.817,0,0,0-4.35-.83,10.21,10.21,0,0,0-4.035.78A9.391,9.391,0,0,0,8.6-21.555a10,10,0,0,0-2.09,3.39A12.056,12.056,0,0,0,5.77-13.89a12.023,12.023,0,0,0,.74,4.28A10.152,10.152,0,0,0,8.6-6.21,9.283,9.283,0,0,0,11.8-3.99a10.283,10.283,0,0,0,4.045.78,11.092,11.092,0,0,0,4.52-.85,9.448,9.448,0,0,0,3.25-2.33l2.57,2.57A13.726,13.726,0,0,1,21.71-.725,14.473,14.473,0,0,1,15.87.4ZM32.02,0,43.41-27.76h2.7L57.42,0H53.35L44.02-23.49h1.41L36.02,0Zm5.41-6.28V-9.57H52.05v3.29ZM65.59,0V-27.76h2.64L79.99-8.43H78.21L89.97-27.76h2.64V0H88.84V-21.16l.86.23L80.42-5.69H77.78L68.5-20.93l.86-.23V0Zm40.09-10.8v-3.29h7.55a6,6,0,0,0,2.788-.629,4.751,4.751,0,0,0,1.927-1.793,5.241,5.241,0,0,0,.705-2.768,5.241,5.241,0,0,0-.705-2.768,4.751,4.751,0,0,0-1.927-1.793,6,6,0,0,0-2.788-.629h-7.55v-3.29h7.78a9.813,9.813,0,0,1,4.585,1.05,8.073,8.073,0,0,1,3.205,2.949,8.306,8.306,0,0,1,1.18,4.475,8.335,8.335,0,0,1-1.18,4.481,8.059,8.059,0,0,1-3.205,2.955,9.813,9.813,0,0,1-4.585,1.05ZM103.15,0V-27.76h3.77V0Zm23.54,0,11.39-27.76h2.7L152.09,0h-4.07l-9.33-23.49h1.41L130.69,0Zm5.41-6.28V-9.57h14.62v3.29ZM160.26,0V-27.76h3.77V0Zm26.86.39a13.576,13.576,0,0,1-5.445-1.1,13.709,13.709,0,0,1-4.44-3.05,14.3,14.3,0,0,1-2.97-4.55,14.511,14.511,0,0,1-1.075-5.6,14.341,14.341,0,0,1,1.08-5.585,14.358,14.358,0,0,1,2.995-4.545,13.554,13.554,0,0,1,4.5-3.045,14.335,14.335,0,0,1,5.6-1.085,14.468,14.468,0,0,1,6.13,1.295,12.4,12.4,0,0,1,4.67,3.685l-2.58,2.58a8.687,8.687,0,0,0-3.495-2.93,10.945,10.945,0,0,0-4.725-1.02,10.475,10.475,0,0,0-5.38,1.36,9.481,9.481,0,0,0-3.625,3.76,11.485,11.485,0,0,0-1.295,5.54,11.451,11.451,0,0,0,1.3,5.54,9.76,9.76,0,0,0,3.55,3.775A9.648,9.648,0,0,0,187.04-3.22a10.748,10.748,0,0,0,5.075-1.125A7.724,7.724,0,0,0,195.4-7.66,11.408,11.408,0,0,0,196.57-13l2.28,1.66H186.86v-3.44h13.61v.54a17.235,17.235,0,0,1-1.715,8.09,11.526,11.526,0,0,1-4.72,4.9A14.2,14.2,0,0,1,187.12.39ZM209.47,0V-27.76h2.64l1.13,4.38V0Zm19.22,0L211.62-22.74l.49-5.02L229.18-5.02Zm0,0-1.13-4.11V-27.76h3.77V0Z" transform="translate(-1.89 28.17)" fill="#1c3534"/>
</svg>
