<svg xmlns="http://www.w3.org/2000/svg" width="341.487" height="71.708" viewBox="0 0 341.487 71.708">
  <path id="パス_1143" data-name="パス 1143" d="M-159.835-21.735l-3.51-.081c.027.459-.027,1.107-.054,1.62q-.081.689-.162,1.458h-1.08a38.153,38.153,0,0,1-4.968-.378l.081,3.132c1.269.054,3.375.162,4.779.162h.864q-.162,1.661-.243,3.4c-3.78,1.782-6.642,5.4-6.642,8.883,0,2.727,1.674,3.915,3.645,3.915A9.637,9.637,0,0,0-162.94-.7c.108.378.243.756.351,1.107l3.1-.945c-.216-.648-.432-1.323-.621-2a20.733,20.733,0,0,0,5.67-8.208,4.015,4.015,0,0,1,2.808,3.78c0,2.646-2.106,5.292-7.317,5.859l1.782,2.835c6.642-1,8.883-4.7,8.883-8.532,0-3.132-2.079-5.589-5.211-6.615.162-.513.378-1.08.486-1.377l-3.294-.783a14.839,14.839,0,0,1-.243,1.62h-.486a18.418,18.418,0,0,0-4.023.486c.027-.81.108-1.647.189-2.457a74.31,74.31,0,0,0,9.585-.945l-.027-3.132a47.389,47.389,0,0,1-9.18,1.188c.081-.54.189-1.026.27-1.485C-160.105-20.709-160-21.2-159.835-21.735Zm-7.749,17.5c0-1.539,1.35-3.591,3.375-4.968a37.622,37.622,0,0,0,.567,5.4,5.756,5.756,0,0,1-2.7.891C-167.206-2.916-167.584-3.375-167.584-4.239Zm6.426-6.291v-.081a13.46,13.46,0,0,1,3.726-.594,16.627,16.627,0,0,1-3.4,5.157A28.4,28.4,0,0,1-161.158-10.53Zm27.945-11.205-3.726-.378a22.706,22.706,0,0,1-.729,4.509c-.837.081-1.647.108-2.457.108a34.109,34.109,0,0,1-3.591-.189l.243,3.132c1.161.081,2.268.108,3.375.108.459,0,.918,0,1.4-.027A42.54,42.54,0,0,1-144.2-4.941l3.267,1.674a49.75,49.75,0,0,0,5.778-11.556,46.841,46.841,0,0,0,4.725-.945l-.108-3.132a33.1,33.1,0,0,1-3.645.864C-133.78-19.494-133.429-20.871-133.213-21.735Zm-1.4,18.684c0-.945,1-1.647,2.565-1.647a9.7,9.7,0,0,1,2.187.27v.54c0,1.485-.567,2.511-2.43,2.511C-133.78-1.377-134.617-2.052-134.617-3.051Zm7.722-10.287h-3.375c.054,1.647.189,4.05.3,6.048-.621-.054-1.215-.108-1.863-.108-3.753,0-5.967,2.025-5.967,4.671,0,2.97,2.646,4.455,5.994,4.455,3.834,0,5.211-1.944,5.211-4.455V-3a22.889,22.889,0,0,1,3.645,2.889L-121.144-3a17.656,17.656,0,0,0-5.589-3.456c-.054-1.35-.135-2.646-.162-3.429C-126.922-11.07-126.976-12.2-126.9-13.338Zm4.644,1.431,1.917-2.835A46.509,46.509,0,0,0-127-18.414l-1.728,2.673A38.969,38.969,0,0,1-122.251-11.907Zm19.413,5.319-3.213-.324a18.881,18.881,0,0,0-.486,3.618C-106.537-.567-104.08,1-99.544,1A43.342,43.342,0,0,0-94.036.621l.135-3.456a31.687,31.687,0,0,1-5.616.567c-2.889,0-3.7-.891-3.7-2.079A9.251,9.251,0,0,1-102.838-6.588Zm-3.051-14.958-4.131-.324a13.841,13.841,0,0,1-.081,2.727q-.081.648-.243,1.539-1.256.081-2.43.081a26.719,26.719,0,0,1-3.4-.216l.081,3.375c.945.054,1.971.108,3.267.108.567,0,1.161-.027,1.782-.054-.162.783-.378,1.539-.567,2.268A58.459,58.459,0,0,1-116.284.108l3.753,1.269a83.9,83.9,0,0,0,4.293-12.5c.3-1.107.567-2.3.81-3.456a49.7,49.7,0,0,0,5.265-.891v-3.375c-1.485.351-3,.648-4.509.864.081-.378.162-.729.216-1.026C-106.348-19.6-106.105-20.817-105.889-21.546Zm1.593,8.154v3.159a46.39,46.39,0,0,1,5.211-.27,39.582,39.582,0,0,1,4.644.324l.081-3.24a47.481,47.481,0,0,0-4.752-.243C-100.84-13.662-102.784-13.527-104.3-13.392ZM-66.388-9.5c0-5.886-4.212-10.53-10.908-10.53-6.993,0-12.393,5.319-12.393,11.556,0,4.563,2.484,7.857,5.481,7.857,2.943,0,5.265-3.348,6.885-8.8A54.6,54.6,0,0,0-75.7-16.74c3.645.621,5.67,3.4,5.67,7.128,0,3.942-2.7,6.426-6.156,7.236a20.766,20.766,0,0,1-2.511.432l2.025,3.213C-69.871.216-66.388-3.807-66.388-9.5Zm-19.845.675a8.5,8.5,0,0,1,6.858-7.83,40.527,40.527,0,0,1-1.431,6.534c-1.107,3.645-2.16,5.346-3.294,5.346C-85.153-4.779-86.233-6.1-86.233-8.829ZM-50.658.34a11.907,11.907,0,0,1-4.722-.926,11.472,11.472,0,0,1-3.787-2.6,11.8,11.8,0,0,1-2.495-3.88,12.705,12.705,0,0,1-.88-4.743,12.75,12.75,0,0,1,.875-4.747,11.554,11.554,0,0,1,2.486-3.855A11.775,11.775,0,0,1-55.4-23a11.685,11.685,0,0,1,4.7-.939,11.852,11.852,0,0,1,4.9.952,12.156,12.156,0,0,1,3.731,2.6L-44.249-18.2A7.862,7.862,0,0,0-47-20.162a9.2,9.2,0,0,0-3.7-.705,8.679,8.679,0,0,0-3.43.663,7.982,7.982,0,0,0-2.712,1.883,8.5,8.5,0,0,0-1.776,2.881,10.247,10.247,0,0,0-.625,3.634,10.22,10.22,0,0,0,.629,3.638,8.63,8.63,0,0,0,1.777,2.89,7.89,7.89,0,0,0,2.716,1.887,8.741,8.741,0,0,0,3.438.663,9.428,9.428,0,0,0,3.842-.722,8.031,8.031,0,0,0,2.763-1.98l2.184,2.184a11.667,11.667,0,0,1-3.8,2.631A12.3,12.3,0,0,1-50.658.34ZM-26.764,0V-9.4a4.194,4.194,0,0,0-1.143-3.043,3.952,3.952,0,0,0-2.973-1.182,4.383,4.383,0,0,0-2.2.54,3.888,3.888,0,0,0-1.493,1.492,4.351,4.351,0,0,0-.54,2.184l-1.275-.714a6.423,6.423,0,0,1,.829-3.277,6.056,6.056,0,0,1,2.28-2.261,6.5,6.5,0,0,1,3.285-.829,6.382,6.382,0,0,1,3.258.824A5.877,5.877,0,0,1-24.5-13.383a6.841,6.841,0,0,1,.808,3.37V0ZM-38.18,0V-24.276h3.069V0ZM-19.2,0V-16.15h3.069V0Zm1.53-19.372a1.826,1.826,0,0,1-1.373-.569,1.934,1.934,0,0,1-.548-1.394,1.916,1.916,0,0,1,.548-1.394,1.84,1.84,0,0,1,1.373-.561,1.854,1.854,0,0,1,1.4.561,1.932,1.932,0,0,1,.54,1.394,1.951,1.951,0,0,1-.54,1.394A1.84,1.84,0,0,1-17.669-19.372ZM-11.286,0V-24.276h3.068V0Zm7.88,0V-24.276H-.338V0ZM4.5,0V-16.15H7.567V0Zm1.53-19.372a1.826,1.826,0,0,1-1.373-.569,1.934,1.934,0,0,1-.548-1.394,1.916,1.916,0,0,1,.548-1.394,1.84,1.84,0,0,1,1.373-.561,1.854,1.854,0,0,1,1.4.561,1.932,1.932,0,0,1,.54,1.394,1.951,1.951,0,0,1-.54,1.394A1.84,1.84,0,0,1,6.029-19.372ZM23.828,0V-9.4a4.194,4.194,0,0,0-1.143-3.043,3.952,3.952,0,0,0-2.973-1.182,4.383,4.383,0,0,0-2.2.54,3.888,3.888,0,0,0-1.493,1.492,4.351,4.351,0,0,0-.54,2.184l-1.275-.714a6.423,6.423,0,0,1,.829-3.277,6.056,6.056,0,0,1,2.28-2.261A6.5,6.5,0,0,1,20.6-16.49a5.9,5.9,0,0,1,3.258.914,6.5,6.5,0,0,1,2.231,2.4,6.522,6.522,0,0,1,.808,3.166V0ZM12.412,0V-16.15h3.068V0Zm17.9-16.073,2.125-4.046,1.063-.272a1.975,1.975,0,0,1-.425.608.868.868,0,0,1-.62.242,1.825,1.825,0,0,1-1.309-.591,2.014,2.014,0,0,1-.595-1.492,2.243,2.243,0,0,1,.667-1.636,2.171,2.171,0,0,1,1.6-.676,2.161,2.161,0,0,1,1.577.676,2.229,2.229,0,0,1,.676,1.636,3.36,3.36,0,0,1-.153.918,8,8,0,0,1-.578,1.352l-2.27,4.233ZM42.412-1.08l2.565,2.214A6.969,6.969,0,0,1,46.57.405c6.372-2.079,11.961-5.292,15.66-9.72l-1.917-3.051A30.938,30.938,0,0,1,46.435-3.429v-14.04a19.75,19.75,0,0,1,.27-3.078H42.466a17.25,17.25,0,0,1,.3,3.078V-2.835A3.526,3.526,0,0,1,42.412-1.08ZM68.656-19.17v3.753c.756-.054,2.214-.108,3.348-.108H84.127V-4.347H71.68c-1.215,0-2.43-.081-3.375-.162V-.648c.891-.081,2.43-.162,3.483-.162H84.1c0,.513,0,.972-.027,1.4h3.915c-.054-.81-.108-2.241-.108-3.186V-16.578c0-.783.054-1.863.081-2.484-.459.027-1.593.054-2.376.054H71.977C71.059-19.008,69.655-19.062,68.656-19.17Zm45.792-.675-4.023-1.4a16.839,16.839,0,0,1-.648,2.484,28,28,0,0,1-3,6.426c-2.187-1.62-5.022-3.564-7.182-4.887l-2.3,2.754a74.233,74.233,0,0,1,7.29,5.13,29.712,29.712,0,0,1-10.26,7.965L97.357,1.35A33.753,33.753,0,0,0,107.4-6.993,54.367,54.367,0,0,1,113.4-1.026L116.176-4.1a70.7,70.7,0,0,0-6.48-5.967,40.777,40.777,0,0,0,3.618-7.344C113.584-18.036,114.1-19.224,114.448-19.845Zm11.016-.675-2.538,2.7a56.139,56.139,0,0,1,6.75,5.832L132.43-14.8A54.532,54.532,0,0,0,125.464-20.52ZM122.089-2.538l2.268,3.564a29.24,29.24,0,0,0,10.017-3.807,28.711,28.711,0,0,0,9.99-9.99l-2.106-3.807a25.423,25.423,0,0,1-9.828,10.5A27.828,27.828,0,0,1,122.089-2.538Zm42.552-17.55-2.268.945a23.13,23.13,0,0,1,2.376,4.185l2.349-1.053C166.477-17.226,165.4-18.954,164.641-20.088Zm3.537-1.485-2.241,1.053a25.281,25.281,0,0,1,2.511,4.05l2.268-1.107A35.759,35.759,0,0,0,168.178-21.573ZM153.868-2.187a29.236,29.236,0,0,1-.27,3.753h4.239c-.135-1.107-.27-3-.27-3.753V-9.828a72.332,72.332,0,0,1,9.774,4.023l1.512-3.753a93.931,93.931,0,0,0-11.286-4.212v-3.942a29.366,29.366,0,0,1,.243-3.267H153.6a19.053,19.053,0,0,1,.27,3.267ZM-86.988,20.438c.1.528.33,1.617.594,3-2.838.462-5.379.825-6.534.957-1.023.132-2.013.2-3.069.231l.891,4.554c1.122-.3,1.98-.462,3.036-.693,1.023-.165,3.564-.594,6.468-1.056.3,1.683.66,3.531.99,5.313-3.333.528-6.4,1.023-7.92,1.221-1.056.132-2.541.33-3.432.363l.924,4.422c.759-.2,1.881-.429,3.3-.693s4.521-.792,7.887-1.353c.528,2.772.957,5.049,1.122,6.006.2.957.3,2.112.462,3.333l4.752-.858c-.3-1.056-.627-2.244-.858-3.234-.2-1.023-.66-3.234-1.188-5.94,2.9-.462,5.577-.891,7.161-1.155,1.254-.2,2.607-.429,3.5-.5l-.891-4.356c-.858.264-2.079.528-3.366.792-1.485.3-4.191.759-7.161,1.254-.363-1.815-.693-3.63-1.023-5.28,2.739-.429,5.247-.825,6.6-1.056.99-.132,2.31-.33,3.036-.4L-72.5,21c-.792.231-2.046.5-3.1.693-1.188.231-3.7.627-6.5,1.089-.264-1.485-.462-2.574-.528-3.036-.165-.792-.264-1.914-.363-2.574l-4.653.759C-87.417,18.722-87.186,19.481-86.988,20.438Zm34.518,2.607L-56.892,24.1a11.557,11.557,0,0,1,.924,2.343c.231.726.528,1.782.858,3.069-1.518.3-2.706.495-3.168.561-1.089.2-1.98.3-3.036.4l1.023,3.96c.99-.231,3.4-.726,6.171-1.32,1.188,4.488,2.541,9.636,3.036,11.418a18.914,18.914,0,0,1,.594,2.9L-46,46.31c-.264-.66-.693-2.145-.891-2.706-.495-1.716-1.914-6.8-3.168-11.352C-46.5,31.526-43.2,30.833-42.4,30.7a29.3,29.3,0,0,1-4.884,5.94l3.63,1.815A51.943,51.943,0,0,0-36.63,28.127l-2.64-1.881a6.291,6.291,0,0,1-1.683.528c-1.287.3-5.907,1.188-10.1,1.98-.363-1.287-.66-2.409-.891-3.2C-52.14,24.7-52.338,23.8-52.47,23.045Zm28.083-4.125-3.1,3.3a68.615,68.615,0,0,1,8.25,7.128l3.366-3.432A66.649,66.649,0,0,0-24.387,18.92ZM-28.512,40.9l2.772,4.356A35.738,35.738,0,0,0-13.5,40.6a35.091,35.091,0,0,0,12.21-12.21l-2.574-4.653A31.073,31.073,0,0,1-15.873,36.575,34.012,34.012,0,0,1-28.512,40.9ZM24.849,23.8a2.1,2.1,0,0,1,2.079-2.112A2.127,2.127,0,0,1,29.04,23.8a2.1,2.1,0,0,1-2.112,2.079A2.07,2.07,0,0,1,24.849,23.8Zm-2.178,0a4.274,4.274,0,0,0,8.547,0,4.274,4.274,0,1,0-8.547,0ZM2.145,34.6,6.1,38.687c.594-.858,1.386-2.013,2.145-3.069,1.32-1.782,3.663-5.049,4.95-6.7.957-1.188,1.65-1.254,2.706-.2,1.188,1.221,4.125,4.422,6.039,6.7C23.892,37.7,26.7,41.1,28.908,43.835l3.63-3.894C30,37.235,26.631,33.572,24.42,31.229c-1.98-2.145-4.521-4.785-6.732-6.864-2.574-2.409-4.521-2.046-6.468.264-2.277,2.706-4.851,5.94-6.336,7.458A37.138,37.138,0,0,1,2.145,34.6Zm35.211-5.874V33.9c1.221-.1,3.432-.165,5.313-.165H60.39c1.386,0,3.069.132,3.861.165V28.721c-.858.066-2.31.2-3.861.2H42.669C40.953,28.919,38.544,28.82,37.356,28.721Zm36.6-9.8-3.1,3.3a68.614,68.614,0,0,1,8.25,7.128l3.366-3.432A66.65,66.65,0,0,0,73.953,18.92ZM69.828,40.9,72.6,45.254A35.738,35.738,0,0,0,84.843,40.6a35.091,35.091,0,0,0,12.21-12.21l-2.574-4.653A31.073,31.073,0,0,1,82.467,36.575,34.013,34.013,0,0,1,69.828,40.9Z" transform="translate(170.77 24.276)" fill="#678375"/>
</svg>
