<svg xmlns="http://www.w3.org/2000/svg" width="29.846" height="40.311" viewBox="0 0 29.846 40.311">
  <g id="リンクのフリーアイコン6" transform="translate(0 0)">
    <path id="パス_854" data-name="パス 854" d="M130.132,7.9a9.764,9.764,0,0,0-16.492-5.04l-7.411,7.413a9.76,9.76,0,0,0,0,13.805,9.654,9.654,0,0,0,3.232,2.144,9.756,9.756,0,0,0,10.576-2.144l.556-.552a3.038,3.038,0,0,0-.191-1.514,3.017,3.017,0,0,0-2.193-1.8,3.113,3.113,0,0,0-.962-.027l-.554.557a5.15,5.15,0,0,1-1.663,1.108,5.038,5.038,0,0,1-2.86.272,4.953,4.953,0,0,1-2.6-1.38,5.007,5.007,0,0,1-1.108-1.668,5.092,5.092,0,0,1-.277-2.858,5.032,5.032,0,0,1,1.385-2.6L116.985,6.2a4.94,4.94,0,0,1,1.663-1.1,5.035,5.035,0,0,1,5.508,8.175,12.083,12.083,0,0,1,1.836,1.5,11.684,11.684,0,0,1,1.5,1.84,9.7,9.7,0,0,0,2.1-3.18A9.812,9.812,0,0,0,130.132,7.9Z" transform="translate(-100.463 0.001)" fill="#fff"/>
    <path id="パス_855" data-name="パス 855" d="M90.535,172.726a9.7,9.7,0,0,0-3.229-2.144,9.772,9.772,0,0,0-10.576,2.144l-.557.556a3.031,3.031,0,0,0,.194,1.512,2.979,2.979,0,0,0,3.152,1.829l.555-.554a4.941,4.941,0,0,1,1.664-1.107,5.109,5.109,0,0,1,2.859-.279,5.063,5.063,0,0,1,3.7,3.046,5.093,5.093,0,0,1,.278,2.863,5,5,0,0,1-1.383,2.6l-7.413,7.41a4.945,4.945,0,0,1-1.665,1.108,5.109,5.109,0,0,1-2.859.277,5.018,5.018,0,0,1-2.6-1.385,4.956,4.956,0,0,1-1.1-1.661,5.029,5.029,0,0,1,1.057-5.407,11.677,11.677,0,0,1-1.838-1.5l-.006,0a11.8,11.8,0,0,1-1.5-1.834,9.77,9.77,0,0,0,3.28,15.9,9.774,9.774,0,0,0,10.576-2.147l7.409-7.411a9.758,9.758,0,0,0,0-13.809Z" transform="translate(-66.459 -156.494)" fill="#fff"/>
  </g>
</svg>
