<svg xmlns="http://www.w3.org/2000/svg" width="220.542" height="90.158" viewBox="0 0 220.542 90.158">
  <g id="グループ_3144" data-name="グループ 3144" transform="translate(-158.448 -81.144)">
    <path id="パス_1141" data-name="パス 1141" d="M3.843.14A4.2,4.2,0,0,1,1.886-.282,4.435,4.435,0,0,1,.448-1.5l.9-.9A3.157,3.157,0,0,0,2.4-1.421a3.055,3.055,0,0,0,1.487.332,2.342,2.342,0,0,0,1.395-.378A1.213,1.213,0,0,0,5.813-2.51a1.4,1.4,0,0,0-.257-.873,1.986,1.986,0,0,0-.679-.556,6.654,6.654,0,0,0-.927-.39Q3.444-4.5,2.938-4.7a4.291,4.291,0,0,1-.928-.509A2.284,2.284,0,0,1,1.332-6a2.619,2.619,0,0,1-.257-1.234,2.42,2.42,0,0,1,.4-1.407,2.6,2.6,0,0,1,1.1-.9,3.749,3.749,0,0,1,1.561-.313,3.793,3.793,0,0,1,1.7.371,3.579,3.579,0,0,1,1.234.977l-.9.9a3.1,3.1,0,0,0-.927-.761A2.461,2.461,0,0,0,4.1-8.627a2.037,2.037,0,0,0-1.244.343,1.128,1.128,0,0,0-.46.959,1.2,1.2,0,0,0,.257.8,2.056,2.056,0,0,0,.679.511,8.022,8.022,0,0,0,.928.38q.506.173,1.011.383A4.093,4.093,0,0,1,6.2-4.72a2.39,2.39,0,0,1,.679.833A2.834,2.834,0,0,1,7.137-2.6,2.464,2.464,0,0,1,6.247-.59,3.677,3.677,0,0,1,3.843.14ZM10.92-3.78V-4.931h2.642a2.1,2.1,0,0,0,.976-.22,1.663,1.663,0,0,0,.674-.627,1.834,1.834,0,0,0,.247-.969,1.834,1.834,0,0,0-.247-.969,1.663,1.663,0,0,0-.674-.627,2.1,2.1,0,0,0-.976-.22H10.92V-9.716h2.723a3.435,3.435,0,0,1,1.6.367A2.826,2.826,0,0,1,16.37-8.316a2.907,2.907,0,0,1,.413,1.566,2.917,2.917,0,0,1-.413,1.568,2.821,2.821,0,0,1-1.122,1.034,3.435,3.435,0,0,1-1.6.367ZM10.035,0V-9.716h1.319V0Zm9.482,0V-9.716h1.319V0Zm.892,0V-1.2h5.575V0Zm0-4.389V-5.548h5.113v1.159Zm0-4.123v-1.2h5.5v1.2ZM28.889,0V-9.716h1.319V0Zm.892,0V-1.2h5.575V0Zm0-4.389V-5.548H34.9v1.159Zm0-4.123v-1.2h5.5v1.2ZM39.13,0V-1.207h2.706a3.739,3.739,0,0,0,1.886-.465,3.3,3.3,0,0,0,1.272-1.291,3.877,3.877,0,0,0,.457-1.907,3.783,3.783,0,0,0-.462-1.888,3.329,3.329,0,0,0-1.277-1.285,3.728,3.728,0,0,0-1.876-.464H39.144V-9.716h2.723a5.155,5.155,0,0,1,1.96.366A4.806,4.806,0,0,1,45.4-8.328a4.65,4.65,0,0,1,1.041,1.54,4.937,4.937,0,0,1,.371,1.93,4.939,4.939,0,0,1-.371,1.921A4.709,4.709,0,0,1,45.4-1.39,4.713,4.713,0,0,1,43.841-.366,5.117,5.117,0,0,1,41.9,0Zm-.868,0V-9.716h1.319V0ZM52.812-3.948,48.989-9.716h1.533L53.6-5h-.686l3.09-4.718h1.5l-3.85,5.768ZM52.595,0V-4.819h1.319V0ZM63.8,0V-9.716h1.319V0Zm9.156.14a4.81,4.81,0,0,1-1.93-.387,4.871,4.871,0,0,1-1.566-1.074,4.991,4.991,0,0,1-1.048-1.6,5.06,5.06,0,0,1-.376-1.953,5.038,5.038,0,0,1,.374-1.95,4.991,4.991,0,0,1,1.041-1.587,4.789,4.789,0,0,1,1.554-1.066,4.817,4.817,0,0,1,1.923-.382,4.829,4.829,0,0,1,1.925.382,4.823,4.823,0,0,1,1.559,1.066A4.965,4.965,0,0,1,77.46-6.814a5.07,5.07,0,0,1,.376,1.957A5.081,5.081,0,0,1,77.462-2.9a4.93,4.93,0,0,1-1.041,1.591A4.891,4.891,0,0,1,74.868-.247,4.722,4.722,0,0,1,72.957.14Zm-.028-1.263a3.476,3.476,0,0,0,1.839-.483,3.426,3.426,0,0,0,1.253-1.328,4.01,4.01,0,0,0,.457-1.937,4.1,4.1,0,0,0-.263-1.491,3.566,3.566,0,0,0-.738-1.181,3.3,3.3,0,0,0-1.122-.775,3.627,3.627,0,0,0-1.426-.273,3.5,3.5,0,0,0-1.829.476A3.375,3.375,0,0,0,69.849-6.8a3.982,3.982,0,0,0-.455,1.93,4.2,4.2,0,0,0,.262,1.5,3.544,3.544,0,0,0,.733,1.19,3.315,3.315,0,0,0,1.122.777A3.569,3.569,0,0,0,72.929-1.123ZM80.763,0V-9.716h.924l.4,1.533V0ZM87.49,0,81.515-7.959l.171-1.757,5.975,7.959Zm0,0-.4-1.439V-9.716h1.32V0Zm9.226,0V-1.207h2.706a3.739,3.739,0,0,0,1.886-.465,3.3,3.3,0,0,0,1.272-1.291,3.877,3.877,0,0,0,.457-1.907,3.783,3.783,0,0,0-.462-1.888A3.329,3.329,0,0,0,101.3-8.045a3.728,3.728,0,0,0-1.876-.464H96.729V-9.716h2.723a5.155,5.155,0,0,1,1.96.366,4.806,4.806,0,0,1,1.57,1.022,4.651,4.651,0,0,1,1.041,1.54,4.937,4.937,0,0,1,.371,1.93,4.939,4.939,0,0,1-.371,1.921,4.709,4.709,0,0,1-1.034,1.547,4.713,4.713,0,0,1-1.563,1.024A5.117,5.117,0,0,1,99.48,0Zm-.868,0V-9.716h1.319V0Zm12.358-4.232v-1.1h2.635a1.832,1.832,0,0,0,1.307-.434,1.548,1.548,0,0,0,.46-1.183,1.577,1.577,0,0,0-.455-1.158,1.754,1.754,0,0,0-1.3-.458h-2.646V-9.716h2.681a3.45,3.45,0,0,1,1.614.357,2.609,2.609,0,0,1,1.059.977,2.689,2.689,0,0,1,.373,1.414,2.722,2.722,0,0,1-.373,1.44,2.516,2.516,0,0,1-1.059.955,3.582,3.582,0,0,1-1.614.341ZM107.321,0V-9.716h1.319V0Zm5.6,0L109.4-4.354l1.246-.431L114.594,0Zm6.622-3.948-3.822-5.768h1.533L120.334-5h-.686l3.091-4.718h1.5l-3.85,5.768ZM119.326,0V-4.819h1.32V0Zm7.238,0V-9.716h1.319V0Zm.893,0V-1.2h5.575V0Zm0-4.389V-5.548h5.114v1.159Zm0-4.123v-1.2h5.5v1.2Zm9.366,4.28v-1.1h2.635a1.832,1.832,0,0,0,1.307-.434,1.548,1.548,0,0,0,.46-1.183,1.577,1.577,0,0,0-.455-1.158,1.754,1.754,0,0,0-1.3-.458h-2.646V-9.716H139.5a3.45,3.45,0,0,1,1.613.357,2.609,2.609,0,0,1,1.059.977,2.689,2.689,0,0,1,.373,1.414,2.722,2.722,0,0,1-.373,1.44,2.516,2.516,0,0,1-1.059.955,3.582,3.582,0,0,1-1.613.341ZM135.937,0V-9.716h1.32V0Zm5.6,0-3.521-4.354,1.246-.431L143.21,0Z" transform="translate(158 91)" fill="#9f9f90"/>
    <path id="パス_1140" data-name="パス 1140" d="M9.688-19.46c-1.82,0-3.22,0-4.732-.112a16.313,16.313,0,0,0,.252,2.912c.056.308.14.5.364.476C7.084-16.3,8.54-16.352,10-16.352l7.224-.028a34.345,34.345,0,0,1-5.264,7.028A34.011,34.011,0,0,1,2.1-2.212,7.671,7.671,0,0,1,4.452-.392a.626.626,0,0,0,.476.252,1.773,1.773,0,0,0,.644-.224A40.284,40.284,0,0,0,14.98-7.756,50.968,50.968,0,0,1,22.26-.812a.575.575,0,0,0,.392.224.484.484,0,0,0,.336-.168,15,15,0,0,0,1.876-1.9.693.693,0,0,0,.2-.42.637.637,0,0,0-.224-.392,65.834,65.834,0,0,0-7.756-6.776,44.185,44.185,0,0,0,3.584-5.236A5.128,5.128,0,0,1,21.7-16.716a.773.773,0,0,0,.364-.56.746.746,0,0,0-.14-.364A10.207,10.207,0,0,0,20.1-19.6a.925.925,0,0,0-.476-.224.466.466,0,0,0-.308.112,4.112,4.112,0,0,1-1.932.252ZM36.9-16.492a6.383,6.383,0,0,1,.28-2.52c.252-.42.364-.9-.252-1.036a23.97,23.97,0,0,0-3.528-.56,29.082,29.082,0,0,1,.28,5.124V-5.152c0,2.3.588,3.612,1.988,4.2a13.788,13.788,0,0,0,5.32.756,56.005,56.005,0,0,0,8.316-.5c.42-.028.588-.14.588-.5,0-.588-.084-1.652-.168-2.436-.028-.336-.084-.448-.5-.392a49.4,49.4,0,0,1-7.9.644A14.347,14.347,0,0,1,37.8-3.7c-.728-.224-.924-.672-.924-1.988V-9.408a73.459,73.459,0,0,0,9.6-3.472A14.871,14.871,0,0,1,48.8-13.8c.56-.14.588-.616.252-1.008a16.064,16.064,0,0,0-2.324-2.52,8.691,8.691,0,0,1-3,2.016A52.6,52.6,0,0,1,36.9-12.6ZM51.716-21.84a2.953,2.953,0,0,0-3.024,3,2.988,2.988,0,0,0,3.024,3,2.988,2.988,0,0,0,3.024-3A2.988,2.988,0,0,0,51.716-21.84Zm0,1.344a1.6,1.6,0,0,1,1.652,1.652,1.6,1.6,0,0,1-1.652,1.652,1.6,1.6,0,0,1-1.652-1.652A1.6,1.6,0,0,1,51.716-20.5ZM72.52-8.652c2.072,0,4.144.028,6.244.056.392.028.5-.084.5-.42a20.638,20.638,0,0,0,0-2.632c0-.336-.084-.42-.5-.392-2.156.028-4.312.084-6.44.084H63.308a35.972,35.972,0,0,1-6.048-.336A30.39,30.39,0,0,0,57.68-8.9c.084.42.308.588.644.588a22.39,22.39,0,0,1,4.116-.336ZM103.1-21.784a13.664,13.664,0,0,1,2.52,3.5c.112.2.252.252.448.14l1.26-.756a.3.3,0,0,0,.14-.448,13.186,13.186,0,0,0-2.38-3.248c-.14-.14-.252-.168-.392-.084Zm2.744-1.6a13.449,13.449,0,0,1,2.492,3.472.3.3,0,0,0,.476.14l1.176-.756a.339.339,0,0,0,.14-.5,12.394,12.394,0,0,0-2.38-3.136c-.14-.14-.224-.2-.392-.084ZM97.8-17.808c1.54,0,3.192.028,4.7.084.308,0,.364-.14.364-.532a12.455,12.455,0,0,0,0-2.044c0-.364-.056-.532-.336-.532-1.4.084-3.164.112-4.732.112H92.652c-1.26,0-2.688-.028-4.648-.14.084,1.008.112,2.016.2,2.688.028.336.112.476.476.476,1.568-.056,2.688-.112,3.976-.112Zm4.144,6.5c1.932,0,3.864.056,5.32.112.252,0,.42-.112.42-.476.028-.364.028-1.792,0-2.156,0-.392-.028-.56-.308-.56-1.652.112-3.276.168-5.46.168H89.348c-1.624,0-3.192,0-4.76-.14a16.847,16.847,0,0,0,.224,2.688c.028.364.112.56.364.532,1.428-.084,2.8-.168,4.2-.168H94.7a11.893,11.893,0,0,1-1.428,6.02C92.092-3.164,90.44-1.792,87.7-.308a7.355,7.355,0,0,1,2.492,1.484.825.825,0,0,0,.588.28,1.705,1.705,0,0,0,.84-.336,14.1,14.1,0,0,0,4.928-5.292,15.994,15.994,0,0,0,1.652-7.14Zm22.624.476c.98-.952,1.82-1.876,2.548-2.716a7.067,7.067,0,0,1,1.26-1.148.639.639,0,0,0,.42-.532.772.772,0,0,0-.308-.5,23.081,23.081,0,0,0-2.576-1.68,7.88,7.88,0,0,1-1.484,2.408,39.831,39.831,0,0,1-11.62,9.1,4.863,4.863,0,0,1,2.016,1.4.778.778,0,0,0,.56.28.616.616,0,0,0,.364-.112,37.454,37.454,0,0,0,5.8-4.032v4.788c0,1.484-.056,2.884-.084,4.48-.028.336.14.476.448.5a15.33,15.33,0,0,0,2.268,0c.336-.028.5-.168.476-.5-.028-1.428-.084-3.22-.084-4.564ZM154.28-8.652c2.072,0,4.144.028,6.244.056.392.028.5-.084.5-.42a20.638,20.638,0,0,0,0-2.632c0-.336-.084-.42-.5-.392-2.156.028-4.312.084-6.44.084h-9.016a35.972,35.972,0,0,1-6.048-.336,30.39,30.39,0,0,0,.42,3.388c.084.42.308.588.644.588a22.391,22.391,0,0,1,4.116-.336ZM17.192,27.5a44.322,44.322,0,0,0,3.276-3.528,9.225,9.225,0,0,1,1.68-1.54.8.8,0,0,0,.392-.616.5.5,0,0,0-.224-.42,24.911,24.911,0,0,0-3.108-1.96,8.116,8.116,0,0,1-1.764,2.884,45.428,45.428,0,0,1-5.964,5.852,44.948,44.948,0,0,1-8.82,5.74A10.48,10.48,0,0,1,5.068,35.56a.78.78,0,0,0,.588.28.79.79,0,0,0,.42-.112,48.44,48.44,0,0,0,7.7-5.376v6.524c0,1.9-.084,3.724-.112,5.74-.028.336.084.448.392.448a23.354,23.354,0,0,0,2.8,0c.308,0,.448-.112.42-.476-.056-2.24-.084-3.892-.084-5.824ZM42.98,38.024c.056,1.232-.168,1.512-.812,1.652a20.071,20.071,0,0,1-3.948.28,5.68,5.68,0,0,1,1.96,2.492c.14.364.336.476.868.476a8.576,8.576,0,0,0,3.864-.98,2.945,2.945,0,0,0,1.344-2.968l-.5-10.528H48.02c1.736,0,3.332.056,5.376.14a.354.354,0,0,0,.392-.392c.028-.784.028-1.652,0-2.436,0-.2-.14-.336-.42-.336-2.072.084-3.472.14-5.432.14H45.5l-.084-2.128a7.952,7.952,0,0,1,.112-2.576,1.573,1.573,0,0,0,.112-.42c0-.168-.084-.28-.364-.336a24.532,24.532,0,0,0-3.528-.308,14.037,14.037,0,0,1,.448,3.3l.112,2.492H35.644c-1.68,0-3.332-.028-5.012-.14a25,25,0,0,0,.224,2.716c.028.308.14.5.392.476,1.456-.084,3.024-.14,4.48-.14l4.9-.028a26.915,26.915,0,0,1-4.116,4.34,32.994,32.994,0,0,1-6.524,4.424,6.336,6.336,0,0,1,2.3,1.652.584.584,0,0,0,.476.28,1.18,1.18,0,0,0,.644-.252A31.572,31.572,0,0,0,38.7,35a23.189,23.189,0,0,0,3.948-4.312ZM59.752,24.556a29.639,29.639,0,0,1,5.712,4.564c.14.14.252.224.364.224s.2-.084.336-.224c.392-.42,1.316-1.54,1.736-2.1a.6.6,0,0,0,.168-.364c0-.112-.084-.224-.252-.392a29.2,29.2,0,0,0-5.348-3.976.746.746,0,0,0-.364-.14.525.525,0,0,0-.392.224C61.18,22.932,60.368,23.8,59.752,24.556Zm.616,13.972a19.4,19.4,0,0,0,2.24,3.108.726.726,0,0,0,.476.308.774.774,0,0,0,.5-.28,9.665,9.665,0,0,1,1.876-1.288,60.2,60.2,0,0,0,8.456-5.488,45.766,45.766,0,0,0,6.44-5.936c.308-.364.448-.588.448-.84a1.369,1.369,0,0,0-.14-.532,12.5,12.5,0,0,1-.784-3.276,42.066,42.066,0,0,1-7.672,7.616,41.5,41.5,0,0,1-8.064,5.208A16.868,16.868,0,0,1,60.368,38.528ZM96.46,23.6a7.292,7.292,0,0,1,.2-2.632,1.473,1.473,0,0,0,.224-.644c0-.224-.14-.392-.532-.476a20.667,20.667,0,0,0-3.5-.448,21.365,21.365,0,0,1,.28,4.144V37.324c0,1.792-.028,3.444-.112,5.516,0,.336.14.42.532.42a18.5,18.5,0,0,0,2.492,0c.392,0,.532-.084.5-.42-.056-2.016-.112-3.668-.112-5.488V31.164a31.012,31.012,0,0,1,7.364,3.584.429.429,0,0,0,.308.14c.14,0,.252-.112.364-.308a16.457,16.457,0,0,0,1.2-2.436c.14-.364,0-.56-.308-.728a39.5,39.5,0,0,0-8.9-3.808Zm5.04-1.848A13.893,13.893,0,0,1,104.328,25a.292.292,0,0,0,.476.084l1.176-.868a.282.282,0,0,0,.084-.448,12.887,12.887,0,0,0-2.66-3c-.168-.14-.28-.168-.42-.056Zm2.576-1.848a13.246,13.246,0,0,1,2.8,3.22.287.287,0,0,0,.476.084l1.12-.868a.324.324,0,0,0,.084-.5,11.693,11.693,0,0,0-2.66-2.884c-.168-.14-.252-.168-.42-.056Zm24.752,3.78c1.708,0,3.024.056,3.948.056.42.028.5-.084.5-.56a14.217,14.217,0,0,0,0-2.184c0-.308-.084-.448-.336-.448-1.092.056-2.576.14-4.4.14h-5.04a38.576,38.576,0,0,1-4.592-.2,24.4,24.4,0,0,0,.14,2.688c.028.448.112.616.392.616,1.176-.084,2.576-.112,3.836-.112Zm2.128,5.992c-2.016,5.4-6.58,9.268-11.76,11.676a8.208,8.208,0,0,1,2.6,1.456.914.914,0,0,0,.616.336,1.345,1.345,0,0,0,.56-.2c5.4-2.912,8.624-6.412,11.424-12.376a3.207,3.207,0,0,1,.952-1.316.675.675,0,0,0,.308-.532.825.825,0,0,0-.28-.588A16.527,16.527,0,0,0,133.5,26.4a.721.721,0,0,0-.42-.2.6.6,0,0,0-.364.168,3.08,3.08,0,0,1-1.484.308h-9.6a49.552,49.552,0,0,1-5.152-.224,21.226,21.226,0,0,0,.308,2.828c.056.364.168.532.42.532,1.4-.084,2.8-.112,4.2-.112ZM157.192,27.5a44.322,44.322,0,0,0,3.276-3.528,9.225,9.225,0,0,1,1.68-1.54.8.8,0,0,0,.392-.616.5.5,0,0,0-.224-.42,24.911,24.911,0,0,0-3.108-1.96,8.116,8.116,0,0,1-1.764,2.884,45.428,45.428,0,0,1-5.964,5.852,44.948,44.948,0,0,1-8.82,5.74,10.48,10.48,0,0,1,2.408,1.652.78.78,0,0,0,.588.28.79.79,0,0,0,.42-.112,48.441,48.441,0,0,0,7.7-5.376v6.524c0,1.9-.084,3.724-.112,5.74-.028.336.084.448.392.448a23.354,23.354,0,0,0,2.8,0c.308,0,.448-.112.42-.476-.056-2.24-.084-3.892-.084-5.824Zm20.244-.644-2.408.644c-1.988.5-3.388.84-5.264,1.148A21.169,21.169,0,0,0,170.94,31.5c.14.28.308.392.5.392a1.262,1.262,0,0,0,.476-.14c1.064-.42,2.8-1.036,4.032-1.4l2.3-.616,1.764,6.86c.5,1.988,1.12,4.676,1.484,6.048.112.448.252.392.644.336a14.81,14.81,0,0,0,2.212-.672c.42-.112.5-.364.364-.728-.364-1.316-1.232-4.368-1.68-6.076l-1.68-6.664,7.616-2.044a22.167,22.167,0,0,1-4.032,5.656,8.8,8.8,0,0,1,2.352.9,1.254,1.254,0,0,0,.616.252.539.539,0,0,0,.448-.252,32.592,32.592,0,0,0,4.256-6.608,4.428,4.428,0,0,1,.616-.812.765.765,0,0,0,.308-.56.673.673,0,0,0-.224-.476,11.639,11.639,0,0,0-2.016-1.708,1.027,1.027,0,0,0-.56-.224.583.583,0,0,0-.42.2,4.217,4.217,0,0,1-1.792.756l-7.98,2.072-.588-2.436a12.176,12.176,0,0,1-.392-2.8c0-.7-.14-.84-.56-.84a28.635,28.635,0,0,0-3.752.308A11.943,11.943,0,0,1,176.6,23.66Zm36.764,6.5c2.072,0,4.144.028,6.244.056.392.028.5-.084.5-.42a20.638,20.638,0,0,0,0-2.632c0-.336-.084-.42-.5-.392-2.156.028-4.312.084-6.44.084h-9.016a35.972,35.972,0,0,1-6.048-.336,30.39,30.39,0,0,0,.42,3.388c.084.42.308.588.644.588a22.391,22.391,0,0,1,4.116-.336Z" transform="translate(158 128)" fill="#9f9f90"/>
  </g>
</svg>
