<svg xmlns="http://www.w3.org/2000/svg" width="330" height="110" viewBox="0 0 330 110">
  <g id="グループ_3066" data-name="グループ 3066" transform="translate(-5.488 -85.87)">
    <path id="パス_1151" data-name="パス 1151" d="M.561-.961,4.917-5.55A14.235,14.235,0,0,0,5.946-6.736a3.7,3.7,0,0,0,.535-.931,2.562,2.562,0,0,0,.157-.888,1.79,1.79,0,0,0-.574-1.411,2.161,2.161,0,0,0-1.492-.51,2.867,2.867,0,0,0-1.581.436A3.92,3.92,0,0,0,1.777-8.7L.659-9.643a4.962,4.962,0,0,1,1.679-1.734,4.363,4.363,0,0,1,2.286-.591,3.992,3.992,0,0,1,1.889.427,3.085,3.085,0,0,1,1.256,1.194,3.49,3.49,0,0,1,.446,1.787,4.326,4.326,0,0,1-.183,1.3A4.068,4.068,0,0,1,7.4-6.073,15.055,15.055,0,0,1,6.158-4.641L2.639-1.012ZM.561,0V-.961l1.351-.472H8.479V0Zm17.63.17A4.168,4.168,0,0,1,15.78-.58,5.206,5.206,0,0,1,14.038-2.7a7.429,7.429,0,0,1-.65-3.217,7.446,7.446,0,0,1,.641-3.212,5.133,5.133,0,0,1,1.724-2.1,4.153,4.153,0,0,1,2.4-.743,4.19,4.19,0,0,1,2.42.742,5.117,5.117,0,0,1,1.726,2.1A7.511,7.511,0,0,1,22.942-5.9,7.511,7.511,0,0,1,22.3-2.678,5.13,5.13,0,0,1,20.584-.57,4.123,4.123,0,0,1,18.191.17Zm-.034-1.5a2.709,2.709,0,0,0,1.65-.521,3.42,3.42,0,0,0,1.113-1.538,6.84,6.84,0,0,0,.406-2.522,6.774,6.774,0,0,0-.406-2.5,3.356,3.356,0,0,0-1.12-1.53,2.75,2.75,0,0,0-1.65-.514,2.727,2.727,0,0,0-1.635.514A3.319,3.319,0,0,0,15.4-8.426a6.84,6.84,0,0,0-.4,2.5,6.959,6.959,0,0,0,.4,2.528,3.359,3.359,0,0,0,1.113,1.538A2.714,2.714,0,0,0,18.157-1.335Zm9.51.374,4.356-4.59a14.235,14.235,0,0,0,1.028-1.186,3.7,3.7,0,0,0,.535-.931,2.562,2.562,0,0,0,.157-.888,1.79,1.79,0,0,0-.574-1.411,2.161,2.161,0,0,0-1.492-.51,2.867,2.867,0,0,0-1.581.436A3.92,3.92,0,0,0,28.883-8.7l-1.118-.939a4.962,4.962,0,0,1,1.679-1.734,4.363,4.363,0,0,1,2.287-.591,3.992,3.992,0,0,1,1.889.427,3.085,3.085,0,0,1,1.256,1.194,3.49,3.49,0,0,1,.446,1.787,4.326,4.326,0,0,1-.183,1.3,4.068,4.068,0,0,1-.629,1.184,15.055,15.055,0,0,1-1.245,1.432L29.746-1.012Zm0,.961V-.961l1.351-.472h6.566V0ZM40.256-.961l4.356-4.59a14.235,14.235,0,0,0,1.028-1.186,3.7,3.7,0,0,0,.535-.931,2.562,2.562,0,0,0,.157-.888,1.79,1.79,0,0,0-.574-1.411,2.161,2.161,0,0,0-1.492-.51,2.867,2.867,0,0,0-1.581.436A3.92,3.92,0,0,0,41.472-8.7l-1.118-.939a4.962,4.962,0,0,1,1.679-1.734,4.363,4.363,0,0,1,2.286-.591,3.992,3.992,0,0,1,1.889.427,3.085,3.085,0,0,1,1.256,1.194,3.49,3.49,0,0,1,.446,1.787,4.326,4.326,0,0,1-.183,1.3A4.068,4.068,0,0,1,47.1-6.073a15.055,15.055,0,0,1-1.245,1.432L42.334-1.012Zm0,.961V-.961l1.351-.472h6.566V0Zm19.2.68,4.713-13.133H65.6L60.89.68ZM80.839.17a5.1,5.1,0,0,1-2.376-.512,5.385,5.385,0,0,1-1.747-1.477l1.092-1.088a3.833,3.833,0,0,0,1.283,1.182,3.709,3.709,0,0,0,1.806.4,2.844,2.844,0,0,0,1.694-.459,1.473,1.473,0,0,0,.64-1.266,1.7,1.7,0,0,0-.312-1.06,2.411,2.411,0,0,0-.825-.676,8.08,8.08,0,0,0-1.126-.474q-.614-.208-1.228-.455a5.211,5.211,0,0,1-1.126-.618,2.773,2.773,0,0,1-.825-.96,3.18,3.18,0,0,1-.312-1.5,2.938,2.938,0,0,1,.489-1.708,3.151,3.151,0,0,1,1.33-1.09,4.552,4.552,0,0,1,1.9-.38,4.605,4.605,0,0,1,2.068.451,4.345,4.345,0,0,1,1.5,1.186L83.666-9.244a3.764,3.764,0,0,0-1.126-.924,2.989,2.989,0,0,0-1.385-.308,2.473,2.473,0,0,0-1.511.416A1.369,1.369,0,0,0,79.084-8.9a1.451,1.451,0,0,0,.312.969,2.5,2.5,0,0,0,.825.621,9.741,9.741,0,0,0,1.126.461q.614.21,1.228.465a4.97,4.97,0,0,1,1.126.648,2.9,2.9,0,0,1,.825,1.011,3.441,3.441,0,0,1,.312,1.558A2.992,2.992,0,0,1,83.759-.716,4.464,4.464,0,0,1,80.839.17ZM91.473-4.59v-1.4h3.209a2.552,2.552,0,0,0,1.185-.267,2.019,2.019,0,0,0,.819-.762,2.227,2.227,0,0,0,.3-1.176,2.227,2.227,0,0,0-.3-1.176,2.019,2.019,0,0,0-.819-.762,2.552,2.552,0,0,0-1.185-.267H91.473v-1.4h3.307a4.171,4.171,0,0,1,1.949.446A3.431,3.431,0,0,1,98.09-10.1a3.53,3.53,0,0,1,.5,1.9,3.543,3.543,0,0,1-.5,1.9,3.425,3.425,0,0,1-1.362,1.256,4.171,4.171,0,0,1-1.949.446ZM90.4,0V-11.8H92V0Zm14.629-5.138V-6.473h3.2A2.225,2.225,0,0,0,109.814-7a1.88,1.88,0,0,0,.559-1.437,1.915,1.915,0,0,0-.552-1.407,2.13,2.13,0,0,0-1.581-.557h-3.213v-1.4h3.256a4.189,4.189,0,0,1,1.959.434,3.168,3.168,0,0,1,1.286,1.186,3.265,3.265,0,0,1,.453,1.717,3.3,3.3,0,0,1-.453,1.749,3.055,3.055,0,0,1-1.286,1.16,4.35,4.35,0,0,1-1.959.414ZM103.951,0V-11.8h1.6V0Zm6.8,0-4.275-5.287,1.513-.523L112.782,0Zm7.076,0V-11.8h1.6V0Zm7.782,0V-11.8h1.122l.48,1.861V0Zm8.169,0-7.255-9.664.208-2.134,7.255,9.665Zm0,0-.48-1.747V-11.8h1.6V0Zm12.635.166A5.77,5.77,0,0,1,144.1-.3a5.826,5.826,0,0,1-1.887-1.3,6.076,6.076,0,0,1-1.262-1.934,6.167,6.167,0,0,1-.457-2.38,6.1,6.1,0,0,1,.459-2.374,6.1,6.1,0,0,1,1.273-1.932,5.761,5.761,0,0,1,1.913-1.294,6.092,6.092,0,0,1,2.382-.461,6.149,6.149,0,0,1,2.605.55,5.27,5.27,0,0,1,1.985,1.566l-1.1,1.1A3.692,3.692,0,0,0,148.527-10a4.652,4.652,0,0,0-2.008-.434,4.452,4.452,0,0,0-2.286.578,4.029,4.029,0,0,0-1.541,1.6,4.881,4.881,0,0,0-.55,2.355,4.867,4.867,0,0,0,.555,2.354,4.148,4.148,0,0,0,1.509,1.6,4.1,4.1,0,0,0,2.174.58,4.568,4.568,0,0,0,2.157-.478,3.283,3.283,0,0,0,1.4-1.409,4.848,4.848,0,0,0,.5-2.269l.969.705h-5.1V-6.282h5.784v.23a7.325,7.325,0,0,1-.729,3.438,4.9,4.9,0,0,1-2.006,2.082A6.036,6.036,0,0,1,146.412.166Zm21.4,0a5.1,5.1,0,0,1-2.376-.512,5.385,5.385,0,0,1-1.747-1.477l1.092-1.088a3.833,3.833,0,0,0,1.284,1.182,3.709,3.709,0,0,0,1.806.4,2.844,2.844,0,0,0,1.694-.459,1.474,1.474,0,0,0,.64-1.266,1.7,1.7,0,0,0-.312-1.06,2.411,2.411,0,0,0-.824-.676,8.08,8.08,0,0,0-1.126-.474q-.614-.208-1.228-.455a5.211,5.211,0,0,1-1.126-.618,2.773,2.773,0,0,1-.824-.96,3.18,3.18,0,0,1-.312-1.5,2.938,2.938,0,0,1,.489-1.708,3.151,3.151,0,0,1,1.33-1.09,4.553,4.553,0,0,1,1.9-.38,4.605,4.605,0,0,1,2.068.451,4.345,4.345,0,0,1,1.5,1.186l-1.092,1.088a3.765,3.765,0,0,0-1.126-.924,2.989,2.989,0,0,0-1.385-.308,2.474,2.474,0,0,0-1.511.416A1.369,1.369,0,0,0,166.06-8.9a1.451,1.451,0,0,0,.312.969,2.5,2.5,0,0,0,.825.621,9.742,9.742,0,0,0,1.126.461q.614.21,1.228.465a4.97,4.97,0,0,1,1.126.648A2.9,2.9,0,0,1,171.5-4.72a3.441,3.441,0,0,1,.312,1.558,2.992,2.992,0,0,1-1.08,2.446A4.464,4.464,0,0,1,167.816.17Zm14.195,0a4.643,4.643,0,0,1-2.343-.59,4.348,4.348,0,0,1-1.632-1.618,4.535,4.535,0,0,1-.6-2.322V-11.8h1.6v7.4a3.191,3.191,0,0,0,.391,1.61A2.71,2.71,0,0,0,180.5-1.735a3.091,3.091,0,0,0,1.513.37,3.029,3.029,0,0,0,1.51-.37,2.7,2.7,0,0,0,1.043-1.053,3.192,3.192,0,0,0,.385-1.594V-11.8h1.6v7.455a4.523,4.523,0,0,1-.592,2.314A4.348,4.348,0,0,1,184.343-.42,4.583,4.583,0,0,1,182.01.17ZM192.589,0V-11.8h1.122l5,8.215h-.757l5-8.215h1.122V0h-1.6V-8.993l.366.1-3.944,6.477H197.77L193.826-8.9l.366-.1V0Zm17.663,0V-11.8h1.122l5,8.215h-.757l5-8.215h1.122V0h-1.6V-8.993l.366.1-3.944,6.477h-1.122L211.488-8.9l.366-.1V0Zm17.663,0V-11.8h1.6V0ZM229,0V-1.462h6.77V0Zm0-5.329V-6.736h6.209v1.407Zm0-5.006V-11.8h6.681v1.462Zm13.413,5.2V-6.473h3.2A2.225,2.225,0,0,0,247.2-7a1.88,1.88,0,0,0,.559-1.437,1.915,1.915,0,0,0-.552-1.407,2.13,2.13,0,0,0-1.581-.557h-3.213v-1.4h3.256a4.189,4.189,0,0,1,1.959.434,3.168,3.168,0,0,1,1.286,1.186,3.265,3.265,0,0,1,.453,1.717,3.3,3.3,0,0,1-.453,1.749,3.055,3.055,0,0,1-1.286,1.16,4.35,4.35,0,0,1-1.959.414ZM241.336,0V-11.8h1.6V0Zm6.8,0-4.276-5.287,1.513-.523L250.168,0ZM1.39,32V20.2h1.6V32Zm1.084,0V30.538H8.806V32Zm11.7,0V20.2h1.6V32Zm7.782,0V20.2h1.122l5,8.215h-.757l5-8.215h1.122V32h-1.6V23.007l.365.1-3.944,6.477H27.136L23.192,23.1l.366-.1V32Zm17.663,0V20.2h1.6V32Zm10.905,0V20.538h1.6V32Zm-4-10.336V20.2h9.6v1.462ZM61.43,32V20.2h1.6V32Zm1.084,0V30.538h6.77V32Zm0-5.33V25.264h6.209V26.67Zm0-5.006V20.2h6.681v1.462ZM75.9,32V30.534H79.19a4.54,4.54,0,0,0,2.291-.565A4,4,0,0,0,83.026,28.4a4.708,4.708,0,0,0,.555-2.316,4.594,4.594,0,0,0-.561-2.293,4.042,4.042,0,0,0-1.551-1.56,4.527,4.527,0,0,0-2.278-.563H75.922V20.2h3.307a6.259,6.259,0,0,1,2.38.444,5.836,5.836,0,0,1,1.906,1.241,5.647,5.647,0,0,1,1.264,1.87,6.295,6.295,0,0,1,0,4.677,5.677,5.677,0,0,1-3.153,3.122A6.214,6.214,0,0,1,79.262,32Zm-1.054,0V20.2h1.6V32Zm28.254.17a5.954,5.954,0,0,1-2.361-.463,5.736,5.736,0,0,1-1.893-1.3,5.9,5.9,0,0,1-1.247-1.94,6.633,6.633,0,0,1,0-4.745A5.777,5.777,0,0,1,98.844,21.8a6.161,6.161,0,0,1,6.692-1.288,6.078,6.078,0,0,1,1.866,1.3L106.31,22.9a3.931,3.931,0,0,0-1.377-.982,4.6,4.6,0,0,0-1.849-.353,4.339,4.339,0,0,0-1.715.332,3.991,3.991,0,0,0-1.356.941,4.251,4.251,0,0,0-.888,1.441,5.429,5.429,0,0,0,0,3.636,4.315,4.315,0,0,0,.888,1.445,3.945,3.945,0,0,0,1.358.944,4.37,4.37,0,0,0,1.719.331,4.714,4.714,0,0,0,1.921-.361,4.016,4.016,0,0,0,1.381-.99l1.092,1.092a5.833,5.833,0,0,1-1.9,1.315A6.151,6.151,0,0,1,103.105,32.17Zm14.641,0a5.841,5.841,0,0,1-2.344-.47,5.914,5.914,0,0,1-1.9-1.3,6.061,6.061,0,0,1-1.273-1.94,6.386,6.386,0,0,1,0-4.739,6.06,6.06,0,0,1,1.264-1.927,5.925,5.925,0,0,1,8.453,0,6.029,6.029,0,0,1,1.271,1.936,6.408,6.408,0,0,1,0,4.747,5.948,5.948,0,0,1-3.149,3.228A5.734,5.734,0,0,1,117.746,32.17Zm-.034-1.534a4.22,4.22,0,0,0,2.233-.587,4.16,4.16,0,0,0,1.521-1.613,4.87,4.87,0,0,0,.555-2.352,4.981,4.981,0,0,0-.319-1.81,4.33,4.33,0,0,0-.9-1.434,4,4,0,0,0-1.362-.941,4.4,4.4,0,0,0-1.732-.332,4.244,4.244,0,0,0-2.221.578,4.1,4.1,0,0,0-1.519,1.6,4.835,4.835,0,0,0-.552,2.344,5.1,5.1,0,0,0,.319,1.825,4.3,4.3,0,0,0,.89,1.445,4.025,4.025,0,0,0,1.362.944A4.334,4.334,0,0,0,117.712,30.636ZM129.264,32V20.2h1.6V32Zm1.084,0V30.538h6.332V32Zm16.057.17a5.841,5.841,0,0,1-2.344-.47,5.914,5.914,0,0,1-1.9-1.3,6.061,6.061,0,0,1-1.273-1.94,6.386,6.386,0,0,1,0-4.739,6.06,6.06,0,0,1,1.264-1.927,5.925,5.925,0,0,1,8.453,0,6.029,6.029,0,0,1,1.271,1.936,6.408,6.408,0,0,1,0,4.747,5.948,5.948,0,0,1-3.149,3.228A5.734,5.734,0,0,1,146.4,32.17Zm-.034-1.534a4.22,4.22,0,0,0,2.233-.587,4.16,4.16,0,0,0,1.521-1.613,4.87,4.87,0,0,0,.555-2.352,4.981,4.981,0,0,0-.319-1.81,4.33,4.33,0,0,0-.9-1.434A4,4,0,0,0,148.1,21.9a4.4,4.4,0,0,0-1.732-.332,4.244,4.244,0,0,0-2.221.578,4.1,4.1,0,0,0-1.519,1.6,4.835,4.835,0,0,0-.553,2.344,5.1,5.1,0,0,0,.319,1.825,4.3,4.3,0,0,0,.89,1.445,4.025,4.025,0,0,0,1.362.944A4.333,4.333,0,0,0,146.37,30.636ZM159,26.862V25.527h3.2A2.225,2.225,0,0,0,163.784,25a1.88,1.88,0,0,0,.559-1.436,1.915,1.915,0,0,0-.552-1.407,2.13,2.13,0,0,0-1.581-.557H159V20.2h3.256a4.189,4.189,0,0,1,1.959.434,3.168,3.168,0,0,1,1.286,1.186,3.265,3.265,0,0,1,.453,1.717,3.3,3.3,0,0,1-.453,1.749,3.055,3.055,0,0,1-1.286,1.16,4.35,4.35,0,0,1-1.959.414ZM157.922,32V20.2h1.6V32Zm6.8,0-4.275-5.287,1.513-.523L166.753,32Z" transform="translate(41.488 131.87)" fill="#1c3534"/>
    <g id="長方形_639" data-name="長方形 639" transform="translate(5.488 85.87)" fill="none" stroke="#1c3534" stroke-width="1">
      <rect width="330" height="110" stroke="none"/>
      <rect x="0.5" y="0.5" width="329" height="109" fill="none"/>
    </g>
  </g>
</svg>
