<svg id="グループ_3046" data-name="グループ 3046" xmlns="http://www.w3.org/2000/svg" xmlns:xlink="http://www.w3.org/1999/xlink" width="286.41" height="83.709" viewBox="0 0 286.41 83.709">
  <defs>
    <clipPath id="clip-path">
      <rect id="長方形_731" data-name="長方形 731" width="286.41" height="83.709" fill="none"/>
    </clipPath>
  </defs>
  <g id="グループ_3039" data-name="グループ 3039" transform="translate(0 0)">
    <g id="グループ_3038" data-name="グループ 3038" transform="translate(0 0)">
      <g id="グループ_3037" data-name="グループ 3037" transform="translate(0 0)" clip-path="url(#clip-path)">
        <g id="グループ_3044" data-name="グループ 3044" transform="translate(51.738)">
          <path id="パス_1106" data-name="パス 1106" d="M32.369,1.789a1.705,1.705,0,1,1,3.411,0V12.615h6.31a1.55,1.55,0,0,1,0,3.1H34.074a1.692,1.692,0,0,1-1.705-1.705Z" transform="translate(-32.369 0.05)" fill="#fff"/>
          <path id="パス_1107" data-name="パス 1107" d="M41.04,1.789a1.7,1.7,0,1,1,3.409,0V14.143a1.7,1.7,0,1,1-3.409,0Z" transform="translate(-27.181 0.05)" fill="#fff"/>
          <path id="パス_1108" data-name="パス 1108" d="M45.6,1.816a1.69,1.69,0,0,1,1.7-1.7h.377A1.753,1.753,0,0,1,49.228,1l4.119,6.71L57.487.975A1.667,1.667,0,0,1,59.015.112h.376a1.69,1.69,0,0,1,1.705,1.7V14.127a1.694,1.694,0,1,1-3.387,0V6.4L54.72,11a1.595,1.595,0,0,1-2.834,0L48.941,6.466v7.706a1.664,1.664,0,0,1-1.683,1.662A1.645,1.645,0,0,1,45.6,14.171Z" transform="translate(-24.454 0.067)" fill="#fff"/>
          <path id="パス_1109" data-name="パス 1109" d="M57.717,1.789a1.7,1.7,0,1,1,3.409,0V14.143a1.7,1.7,0,1,1-3.409,0Z" transform="translate(-17.202 0.05)" fill="#fff"/>
          <path id="パス_1110" data-name="パス 1110" d="M66.347,3.312H63.071a1.573,1.573,0,0,1,0-3.146h9.964a1.573,1.573,0,0,1,0,3.146H69.757V14.094a1.7,1.7,0,1,1-3.409,0Z" transform="translate(-14.939 0.099)" fill="#fff"/>
          <path id="パス_1111" data-name="パス 1111" d="M71.249,13.962V1.873A1.693,1.693,0,0,1,72.954.166h8.591a1.531,1.531,0,0,1,1.528,1.528A1.511,1.511,0,0,1,81.546,3.2H74.638V6.344h5.911a1.531,1.531,0,0,1,1.528,1.528,1.512,1.512,0,0,1-1.528,1.507H74.638v3.254h7.02a1.531,1.531,0,0,1,1.526,1.528,1.51,1.51,0,0,1-1.526,1.5h-8.7a1.691,1.691,0,0,1-1.705-1.7" transform="translate(-9.104 0.099)" fill="#fff"/>
          <path id="パス_1112" data-name="パス 1112" d="M80.53,1.872A1.692,1.692,0,0,1,82.235.167h4.34c4.872,0,8.236,3.344,8.236,7.706v.045c0,4.362-3.365,7.749-8.236,7.749h-4.34a1.692,1.692,0,0,1-1.705-1.705ZM86.575,12.59a4.417,4.417,0,0,0,4.672-4.629V7.917a4.452,4.452,0,0,0-4.672-4.674H83.941V12.59Z" transform="translate(-3.551 0.1)" fill="#fff"/>
          <path id="パス_1113" data-name="パス 1113" d="M95.087,8.061V8.017A7.879,7.879,0,0,1,103.168,0a8.212,8.212,0,0,1,5.182,1.571,1.709,1.709,0,0,1,.663,1.352,1.662,1.662,0,0,1-1.681,1.661,1.8,1.8,0,0,1-1.02-.332,5.1,5.1,0,0,0-3.166-1.106,4.592,4.592,0,0,0-4.495,4.825v.046a4.6,4.6,0,0,0,4.495,4.87,4.972,4.972,0,0,0,3.366-1.218,1.579,1.579,0,1,1,2.036,2.414A8.166,8.166,0,0,1,95.087,8.061" transform="translate(5.159)" fill="#fff"/>
          <path id="パス_1114" data-name="パス 1114" d="M105.308,8.061V8.017a8.241,8.241,0,0,1,16.474-.046v.046a8.241,8.241,0,0,1-16.474.043m12.91,0V8.017a4.709,4.709,0,0,0-4.694-4.872,4.634,4.634,0,0,0-4.65,4.825v.046a4.708,4.708,0,0,0,4.694,4.87,4.635,4.635,0,0,0,4.65-4.827" transform="translate(11.275)" fill="#fff"/>
          <path id="パス_1115" data-name="パス 1115" d="M117.512,1.789a1.7,1.7,0,1,1,3.409,0V12.615h6.312a1.55,1.55,0,0,1,0,3.1h-8.017a1.692,1.692,0,0,1-1.7-1.705Z" transform="translate(18.578 0.05)" fill="#fff"/>
          <path id="パス_1116" data-name="パス 1116" d="M125.656,8.061V8.017a8.241,8.241,0,0,1,16.474-.046v.046a8.241,8.241,0,0,1-16.474.043m12.908,0V8.017a4.709,4.709,0,0,0-4.694-4.872,4.634,4.634,0,0,0-4.648,4.825v.046a4.708,4.708,0,0,0,4.693,4.87,4.635,4.635,0,0,0,4.65-4.827" transform="translate(23.451)" fill="#fff"/>
          <path id="パス_1117" data-name="パス 1117" d="M137.859,1.871a1.692,1.692,0,0,1,1.7-1.705h5.38a6.184,6.184,0,0,1,4.519,1.573,4.866,4.866,0,0,1,1.328,3.544v.045a4.729,4.729,0,0,1-3.1,4.715l2.37,2.879a2,2,0,0,1,.555,1.306A1.587,1.587,0,0,1,149,15.8a2.04,2.04,0,0,1-1.683-.885l-3.323-4.207h-2.722v3.387a1.7,1.7,0,1,1-3.409,0ZM144.724,7.7c1.659,0,2.61-.887,2.61-2.193V5.46c0-1.463-1.017-2.215-2.679-2.215h-3.387V7.7Z" transform="translate(30.753 0.099)" fill="#fff"/>
        </g>
        <g id="グループ_3043" data-name="グループ 3043" transform="translate(0 26.584)">
          <path id="パス_1118" data-name="パス 1118" d="M282.421,59.934a3.322,3.322,0,0,0-.687-.706,5.427,5.427,0,0,1-.44-.406.209.209,0,0,0-.181-.062c-.233.037-.454.066-.663.09-1.084.137-1.945.245-2.428,1.576a4.431,4.431,0,0,0-.8.411,2.443,2.443,0,0,1-1.106.456,4.256,4.256,0,0,1-1.745-.759,8.161,8.161,0,0,0-1-.559c-.364-.523-.706-1.055-1.017-1.586a1.886,1.886,0,0,0-.753-.678c-.348-.2-.559-.323-.489-1.01a3.676,3.676,0,0,0-1.752-2.58c-1.554-3.064-3.938-5.02-6.4-5.252a2.241,2.241,0,0,0-1.921-.451c-.134.01-.269.019-.393.024a.945.945,0,0,1-.318-.1,1.346,1.346,0,0,0-.483-.128.976.976,0,0,0-.507.2,1.21,1.21,0,0,1-.253.142,2.469,2.469,0,0,0-1.359.16c-.1.034-.2.066-.315.1a3.278,3.278,0,0,1-.785.094,4.127,4.127,0,0,0-.77.083,7.406,7.406,0,0,0-1.459.478,14.473,14.473,0,0,0-2.508,1.573,1.983,1.983,0,0,0-.451.414,1.734,1.734,0,0,0-.133.222,1.472,1.472,0,0,1-.1.174,1.825,1.825,0,0,1-.535.432,13.137,13.137,0,0,0-2.156,1.721,5.846,5.846,0,0,0-1.055,1.328c-.07.126-.13.256-.192.387-.074.155-.147.308-.233.454a2.867,2.867,0,0,1-1.029.973l-.1.054a1.173,1.173,0,0,0-.35.267,1.016,1.016,0,0,0-.139.283c-.026.066-.066.174-.074.19A4.074,4.074,0,0,0,243.9,59.2c-.109.133-.222.265-.339.4a10.7,10.7,0,0,1,.352-1.22,4.226,4.226,0,0,0,.209-3.12,3.861,3.861,0,0,0-1.474-3.731,3.015,3.015,0,0,0-1.993-1.862c-.668-1.1-1.837-.991-2.89-.735a3.415,3.415,0,0,0-1.239.694,2.594,2.594,0,0,1-1.176.625,2.207,2.207,0,0,1-.652-.051,2.587,2.587,0,0,0-.788-.053,2.85,2.85,0,0,0-1.622,1.263,6,6,0,0,1-.451.532c-.454.457-.951.892-1.432,1.312-.253.221-.5.44-.751.665a14.122,14.122,0,0,0-1.533,1.573,4.6,4.6,0,0,0-.388.606,2.41,2.41,0,0,1-.714.9,7.347,7.347,0,0,0-1.726,1.381c-.117.12-.233.245-.35.369a5.214,5.214,0,0,1-2.976,1.982,1.178,1.178,0,0,0-.444.181.721.721,0,0,1-.323.131h-.008a1.317,1.317,0,0,1-.542-.214c-.054-.03-.109-.062-.16-.088a7.09,7.09,0,0,1-1.742-1.191,2.927,2.927,0,0,1-.957-2.244c0-.067.014-.137.021-.206a1.944,1.944,0,0,0,.011-.625,2.136,2.136,0,0,0-.153-.454l-.043-.1a4.37,4.37,0,0,1-.256-1.1,6.558,6.558,0,0,0-.177-.9,1.58,1.58,0,0,1,.016-1.285,2.2,2.2,0,0,1,.15-.2,1.131,1.131,0,0,0,.3-.6.982.982,0,0,0,0-.168.559.559,0,0,1,0-.149.532.532,0,0,1,.1-.168l.056-.075a1.281,1.281,0,0,0,.208-.972c-.016-.077-.038-.153-.062-.233a.676.676,0,0,1-.045-.422.576.576,0,0,1,.062-.1,1.1,1.1,0,0,0,.094-.169c.153-.364-.221-.929-.46-1.232a1.729,1.729,0,0,0-1.1-.547c-.376-.078-.7-.149-.862-.454a.2.2,0,0,0-.233-.1c-.1.03-.15-.008-.284-.109a.83.83,0,0,0-.452-.2h-.024a1.5,1.5,0,0,0-.858.443,3.08,3.08,0,0,0-.868,1.562l-.027.1a1.5,1.5,0,0,1-.406.825,1.792,1.792,0,0,1-.476.264,1.9,1.9,0,0,0-.651.4,2.11,2.11,0,0,0-.432.849,1.307,1.307,0,0,1-.44.761,1.4,1.4,0,0,1-.412.131,3.021,3.021,0,0,0-.3.074,1.23,1.23,0,0,0-.652.617,2.792,2.792,0,0,1-.181.267,4.321,4.321,0,0,1-1.047.871,6,6,0,0,1-.932.44,5.52,5.52,0,0,0-1.084.531c-.527.358-1.025.764-1.506,1.157l-.337.277c-.09.074-.209.185-.347.313-.339.313-.964.9-1.253.906a2.084,2.084,0,0,0-2.03,1.263,1.1,1.1,0,0,1-.289.048,1.274,1.274,0,0,0-.456.1c-.972.475-1.91,1.018-2.818,1.546l-.9.518a7.433,7.433,0,0,1-3.419,1.144,2.48,2.48,0,0,1-.267,0,3.516,3.516,0,0,0-.871.074,3.277,3.277,0,0,0-.591.241c-.1.048-.2.1-.3.139a2.531,2.531,0,0,1-1.809.026c-.153-.059-.3-.133-.452-.2a2.83,2.83,0,0,0-1.394-.374,2.821,2.821,0,0,1-.641-.085,3.55,3.55,0,0,1-.761-.353,4.744,4.744,0,0,0-.682-.334,3.321,3.321,0,0,0-.427-.121,1.78,1.78,0,0,1-.628-.243,3.99,3.99,0,0,1-.83-.889,4.738,4.738,0,0,0-.775-.863c-.048-.037-.157-.11-.292-.2a5.67,5.67,0,0,1-.839-.627c0-.136-.016-.288-.027-.422-.008-.1-.016-.184-.016-.241a.179.179,0,0,0-.014-.07,10.586,10.586,0,0,0-1.223-2.535,7.7,7.7,0,0,0,.03-.788,4.853,4.853,0,0,1,.067-1,4.282,4.282,0,0,1,.417-1.013c.093-.182.184-.361.264-.547l.082-.2c.163-.4.251-.614.689-.791l.238-.093a3.15,3.15,0,0,0,1.287-.754c.086-.1.169-.195.254-.3a2.684,2.684,0,0,1,.651-.641c.1-.059.2-.107.294-.153a1.424,1.424,0,0,0,.762-.644c.03-.056.058-.115.083-.176a1.213,1.213,0,0,1,.147-.269,1.091,1.091,0,0,1,.387-.243,1.817,1.817,0,0,0,.433-.254,1.717,1.717,0,0,0,.47-1.08,3.115,3.115,0,0,1,.128-.54,2.773,2.773,0,0,1,1.05-1.149c.189-.144.382-.291.555-.451a4.345,4.345,0,0,0,1.037-1.785c.069-.176.136-.352.209-.527a4.638,4.638,0,0,1,1.4-1.6c.237-.2.481-.4.7-.62a2.045,2.045,0,0,0,.532-.743,2.394,2.394,0,0,0,.107-.476,2.2,2.2,0,0,1,.062-.328,2.825,2.825,0,0,1,.182-.436,1.857,1.857,0,0,0,.256-.83,1.908,1.908,0,0,0-.032-.312.787.787,0,0,1,0-.392.772.772,0,0,1,.291-.275,2.234,2.234,0,0,0,.211-.155,2.172,2.172,0,0,0,.462-.646,2.213,2.213,0,0,1,.312-.476,2.44,2.44,0,0,1,.468-.347,1.594,1.594,0,0,0,.764-.769,1.662,1.662,0,0,0-.048-.981l-.04-.161c-.029-.134-.112-.583.129-.758a.6.6,0,0,1,.1-.058.907.907,0,0,0,.224-.157.921.921,0,0,0,.088-.9,1.432,1.432,0,0,1-.061-.334,2.921,2.921,0,0,1,.285-.641.2.2,0,0,0,.112-.04.2.2,0,0,0,.038-.283l0,0-.225-.294a2.062,2.062,0,0,0-.168-1.645c-.034-.082-.066-.16-.1-.241l-.785-2.131a.81.81,0,0,0-.777-.659c-.042-.008-.082-.014-.121-.024a2.2,2.2,0,0,1-.921-.627,3.483,3.483,0,0,0-.767-.6,4.77,4.77,0,0,0-2.243-.518,7.2,7.2,0,0,0-2.938.945c-.24.118-.48.235-.718.344a2.79,2.79,0,0,0-.876.539,2.45,2.45,0,0,0-.284.355c-.056.077-.113.157-.174.23a3.45,3.45,0,0,1-.911.673,5.108,5.108,0,0,0-.745.5,2.781,2.781,0,0,0-.988,1.886.426.426,0,0,0,0,.1c-.013,0-.042,0-.1,0-.6.006-1.531,1.389-1.573,1.849a1.707,1.707,0,0,1-.676.777c-.1.078-.208.158-.3.243a2.136,2.136,0,0,0-.668,1.269c-.027.1-.053.214-.086.332-.107.382-.213.764-.316,1.149-.251.93-.513,1.894-.83,2.812a7.629,7.629,0,0,0-.3,1.611,5.9,5.9,0,0,1-.363,1.726,5.309,5.309,0,0,1-.27.515,4.258,4.258,0,0,0-.38.8,4.112,4.112,0,0,0-.056,1.686,2.726,2.726,0,0,1-.264,2.035,2.625,2.625,0,0,0-.313.874,2.576,2.576,0,0,0,.029.651c.011.1.024.2.029.294a.873.873,0,0,1-.089.388,1.463,1.463,0,0,0-.113.414.911.911,0,0,0,.139.468.85.85,0,0,1,.078.169,15.9,15.9,0,0,0,0,3.086,1.716,1.716,0,0,1-.623,1.176,2.465,2.465,0,0,0-.36.488,2.316,2.316,0,0,1-.345.464,5.876,5.876,0,0,1-.852.66,14.857,14.857,0,0,0-2.091,1.546,1.793,1.793,0,0,1-.8.4,2.9,2.9,0,0,0-.706.283,1.922,1.922,0,0,0-.647.756c-.165.278-.323.545-.579.633a1.352,1.352,0,0,1-.232.045,1.9,1.9,0,0,0-.213.037,2.283,2.283,0,0,0-1.066.758l-.05.054a13.9,13.9,0,0,1-4.782,2.983l-.635.286c-.318.142-.63.305-.937.467a11.485,11.485,0,0,1-1.352.639,5.682,5.682,0,0,1-1.829.261,6.112,6.112,0,0,0-1.963.288,8.546,8.546,0,0,1-4.044.064l-.176-.026a7.085,7.085,0,0,1-2.067-.758c-.23-.11-.459-.221-.687-.323a5.328,5.328,0,0,1-2.163-1.68,9.017,9.017,0,0,1-1.023-1.99,12.253,12.253,0,0,0-.742-1.584,3.88,3.88,0,0,0-.4-.542,2.009,2.009,0,0,1-.484-.809,10.742,10.742,0,0,1-.289-1.515c-.03-.211-.061-.417-.1-.628s-.078-.4-.123-.6c-.048-.217-.1-.433-.129-.652a5.1,5.1,0,0,1-.026-1.333,1.343,1.343,0,0,0,.519-.737,2.3,2.3,0,0,1,.137-.31c.074-.018.149-.029.224-.045.11-.021.221-.04.328-.069a.2.2,0,0,0,.107-.07,5.657,5.657,0,0,1,1.376-1.236,1.927,1.927,0,0,0,.566-.753,2.644,2.644,0,0,1,.235-.4,8.559,8.559,0,0,1,.961-1.02,5.519,5.519,0,0,0,1.515-1.987,1.956,1.956,0,0,1,.679-.748c.115-.091.229-.182.331-.277a17.612,17.612,0,0,0,1.264-1.291,2.658,2.658,0,0,1,.572-.446,3.735,3.735,0,0,0,.55-.4,4.685,4.685,0,0,0,1.26-1.977.49.49,0,0,1,.105-.221.478.478,0,0,1,.152-.053l.05-.014a2.706,2.706,0,0,0,1.24-1c.082-.1.163-.2.241-.281.488-.534.97-1.095,1.432-1.664.2-.249.393-.535.6-.841a5.066,5.066,0,0,1,1.3-1.518,5.111,5.111,0,0,0,1.506-1.659,26.637,26.637,0,0,0,2.666-5.383,2.623,2.623,0,0,1,.678-1.2c.037-.03.074-.056.113-.085a1.062,1.062,0,0,0,.374-.387,1.079,1.079,0,0,0,.059-.617c-.006-.048-.011-.1-.013-.149a1.873,1.873,0,0,1,.264-.93,4.107,4.107,0,0,0,.225-.535,9.221,9.221,0,0,0,.372-1.8,18.522,18.522,0,0,0-.013-3.636,3.036,3.036,0,0,0-.523-1.269c-.091-.153-.184-.305-.261-.462a1.611,1.611,0,0,0-.956-.924,2.036,2.036,0,0,0-1.037.069.856.856,0,0,1-1.053-.1.758.758,0,0,0-.483-.229l-.046,0a.711.711,0,0,0-.392.2c-.024.021-.05.043-.075.062-.3.225-.527.115-.914-.115a1.167,1.167,0,0,0-1.127-.219,1.31,1.31,0,0,0-.326.238,8.775,8.775,0,0,1-1.752,1.1,13.568,13.568,0,0,0-1.21.683c-1.025.673-2.1,1.328-3.3,2.008a3.8,3.8,0,0,0-1.111.825,3.775,3.775,0,0,0-.46.793,4.308,4.308,0,0,1-.312.585,4.255,4.255,0,0,1-.77.786,3.711,3.711,0,0,0-.983,1.124,3.707,3.707,0,0,0-.278,1.013,2.565,2.565,0,0,1-.36,1.093,2.428,2.428,0,0,1-.428.432,2.872,2.872,0,0,0-.5.505,2.839,2.839,0,0,0-.408,1.132,3.827,3.827,0,0,1-.2.727,3.319,3.319,0,0,1-.654.878,4.692,4.692,0,0,0-.58.716,6.051,6.051,0,0,0-.6,1.515,5.449,5.449,0,0,1-.574,1.453c-.093.145-.2.285-.312.425a2.508,2.508,0,0,0-.633,1.218,2.764,2.764,0,0,0-.013.326.991.991,0,0,1-.075.488,1.04,1.04,0,0,1-.208.214,1.334,1.334,0,0,0-.281.305,1.451,1.451,0,0,0-.153.754,13.6,13.6,0,0,1-.483,2.81c-.153.627-.313,1.274-.408,1.916-.05.332-.082.67-.115,1.007a9.5,9.5,0,0,1-.334,1.995,2.131,2.131,0,0,1-.176.369,1.742,1.742,0,0,0-.253.651,1.878,1.878,0,0,0,.085.681c.067.27.123.505.011.675a.953.953,0,0,1-.149.155.856.856,0,0,0-.269,1.055c.013.061.026.121.037.181.046.289-.213.488-.611.756a3.414,3.414,0,0,0-.355.262,4.049,4.049,0,0,0-.531.607c-.094.126-.189.248-.288.36a1.806,1.806,0,0,1-.374.288,1.4,1.4,0,0,0-.612.623c-.024.066-.048.134-.07.2a.647.647,0,0,1-.734.59,1.256,1.256,0,0,0-1.1.635,2.379,2.379,0,0,1-.2.24,2.447,2.447,0,0,1-.579.4,1.706,1.706,0,0,0-.988,1.025,2.172,2.172,0,0,1-.113.248,3.073,3.073,0,0,1-1.167.937,5.813,5.813,0,0,0-.766.5c-.443.358-.865.75-1.272,1.128-.3.273-.595.55-.9.814a34.382,34.382,0,0,1-3.539,2.557c-.361.241-.721.48-1.077.719l-.411.281a10.867,10.867,0,0,1-2.871,1.582,2.26,2.26,0,0,0-.785.491c-.1.082-.192.163-.294.237a6.047,6.047,0,0,1-2.049,1.1,4.644,4.644,0,0,1-1.042-.1,3.488,3.488,0,0,0-1.517-.021,2.8,2.8,0,0,1-1.408-1,6.933,6.933,0,0,0-.662-.651,1.434,1.434,0,0,1-.846-1.811.212.212,0,0,0-.021-.125,12.576,12.576,0,0,0-.965-1.582,5.307,5.307,0,0,1,.03-.826c.019-.277.03-.451.026-.54-.048-.641-.075-1.234-.085-1.813a31.224,31.224,0,0,1,.142-3.628,2.651,2.651,0,0,0-.193-1.643c-.034-.053-.072-.107-.109-.161a.908.908,0,0,1-.149-.265.785.785,0,0,1-.026-.184.909.909,0,0,0-.786-.89.978.978,0,0,1-.511-.326,2.929,2.929,0,0,1-.214-.478c-.158-.443-.3-.625-1.017-.625h-.035a2.386,2.386,0,0,0-1.878.6,2.661,2.661,0,0,0-.417.884,2.548,2.548,0,0,1-.38.814,5.6,5.6,0,0,0-1.482,2.7,5.077,5.077,0,0,1-1.192,2.813c-.133.133-.283.254-.432.376a2.627,2.627,0,0,0-.953,1.156,2.9,2.9,0,0,0-.1.756,1.294,1.294,0,0,1-.237.893,1.332,1.332,0,0,1-.307.213,1.1,1.1,0,0,0-.681.97,1.467,1.467,0,0,1-.107.387,1.237,1.237,0,0,1-.75.489,3.447,3.447,0,0,0-.475.2,2.883,2.883,0,0,0-.941.965,5.214,5.214,0,0,1-.419.542,5.68,5.68,0,0,1-1.693,1.323c-.214.1-.438.174-.673.257a6.3,6.3,0,0,0-.916.374,5.8,5.8,0,0,0-.879.623c-.128.1-.256.2-.388.3a4.562,4.562,0,0,1-2.521.713c-.019,0-.037,0-.053,0A1.877,1.877,0,0,1,90.087,65a1.771,1.771,0,0,0-1.144-.123c-.062.014-.125.035-.184.054a1.533,1.533,0,0,1-.283.074.371.371,0,0,1-.307-.058c-.11-.1-.1-.286-.066-.563l.016-.163a2.147,2.147,0,0,0-.376-1.252,2.56,2.56,0,0,1-.321-.759,5,5,0,0,1,.211-2.577,6.281,6.281,0,0,0,.1-2.417,11.891,11.891,0,0,1-.062-1.24c.034-1.339.123-2.7.267-4.042.12-1.076-.782-2.287-1.437-3.171-.093-.125-.179-.243-.259-.353a2.018,2.018,0,0,0-1.106-.9,2.048,2.048,0,0,0-.63-.021,2.729,2.729,0,0,1-.363.01,2.652,2.652,0,0,1-.7-.177c-.07-.026-.144-.05-.216-.075a11.417,11.417,0,0,0-3.8-.332c-.336.01-.668.018-1,.018-.094,0-.187,0-.277,0a3.4,3.4,0,0,0-1.728.5l-.262.133a4.2,4.2,0,0,1-.595.216,2.1,2.1,0,0,0-1.24.754c-.026.038-.053.078-.08.117a.853.853,0,0,1-.243.28.833.833,0,0,1-.489.037c-.11-.01-.233-.014-.328-.019a2.312,2.312,0,0,0-1.426.78c-.105.094-.209.187-.315.277a6.481,6.481,0,0,1-.822.545,5.52,5.52,0,0,0-1.029.722c-.093.086-.181.185-.272.288-.272.3-.529.595-.892.595a1.147,1.147,0,0,1-.166-.014,1.335,1.335,0,0,0-.34,0,1.25,1.25,0,0,0-.532.27c-.922.694-1.832,1.445-2.7,2.238-.219.2-.433.43-.66.671a4.983,4.983,0,0,1-1.589,1.314c-.078.029-.155.054-.232.077a2.511,2.511,0,0,0-.451.182,2.337,2.337,0,0,0-.745.8l-.11.161a5.214,5.214,0,0,1-1.578,1.477,7.442,7.442,0,0,0-1.821,1.752c-.157.19-.315.382-.478.567l-.262.3c-.451.513-.916,1.045-1.339,1.6l-.149.195a6.382,6.382,0,0,1-.625.746,6.57,6.57,0,0,1-.967.74c-.15.1-.3.2-.451.312-.193.139-.721.5-1.029.428a.41.41,0,0,1-.265-.238,1.406,1.406,0,0,1-.113-.572,14.659,14.659,0,0,1,.072-2.3c.021-.2.053-.411.086-.62a4.179,4.179,0,0,0,.038-1.685,4.606,4.606,0,0,0-.217-.606,1.678,1.678,0,0,1,.08-1.84,3.132,3.132,0,0,0,.352-1,3.407,3.407,0,0,0,.01-.424,2.039,2.039,0,0,1,.014-.435,2.255,2.255,0,0,1,.177-.488,1.577,1.577,0,0,0,.112-1.394c-.024-.083-.048-.168-.067-.253-.093-.411.1-.647.406-1.013a3.291,3.291,0,0,0,.711-1.582,6.534,6.534,0,0,0,.048-.964,3.756,3.756,0,0,1,.16-1.347,3.855,3.855,0,0,1,1.547-1.589c.144-.1.286-.2.425-.3a2.969,2.969,0,0,0,.63-.593,3.955,3.955,0,0,0,.23-.385,1.429,1.429,0,0,1,.467-.595.961.961,0,0,1,.352-.094.966.966,0,0,0,.7-.35,2.639,2.639,0,0,0,.2-.336,1.762,1.762,0,0,1,.168-.278,2.017,2.017,0,0,1,.4-.36c.093-.072.187-.145.275-.224a4.081,4.081,0,0,0,.675-.887,3.537,3.537,0,0,1,.657-.846,3.726,3.726,0,0,1,.446-.3c.109-.066.217-.131.323-.2a4.809,4.809,0,0,0,.59-.5,12.73,12.73,0,0,0,1.049-1.17c.187-.222.372-.448.569-.668a2.859,2.859,0,0,1,.8-.575,3.892,3.892,0,0,0,.772-.523,3.447,3.447,0,0,0,.74-1.194,5.539,5.539,0,0,1,.339-.683,5.813,5.813,0,0,1,1.3-1.331,4.431,4.431,0,0,0,1.614-1.958l.022-.075a.389.389,0,0,1,.321-.387.988.988,0,0,0,.153-.056,1.471,1.471,0,0,0,.572-.564l2.316-3.429a2.549,2.549,0,0,0,.342-.627c.021-.067.038-.137.054-.2a1.095,1.095,0,0,1,.251-.532l.037-.054a11.929,11.929,0,0,0,.959-1.659l.494-.972c.11-.214.221-.481.339-.766A4.871,4.871,0,0,1,76,22.091a1.268,1.268,0,0,1,.417-.166,1.59,1.59,0,0,0,.5-.213A.2.2,0,0,0,77,21.541l-.01-.163c-.026-.459-.048-.892-.045-1.314a.819.819,0,0,0,.128-.377.739.739,0,0,1,.021-.1.211.211,0,0,0,.051-.123c.021-.384.006-.761-.01-1.127a7.419,7.419,0,0,1,.043-1.534.208.208,0,0,0-.054-.177,3.272,3.272,0,0,1-.507-.734,3.037,3.037,0,0,0-.746-.969,3.253,3.253,0,0,0-1.945-.647h-.016a6.047,6.047,0,0,0-2.394.6,5.134,5.134,0,0,1-.6.19,2.723,2.723,0,0,0-1.224.564,2.6,2.6,0,0,0-.377.5,1.314,1.314,0,0,1-.491.534,1.4,1.4,0,0,1-.254.074,1.846,1.846,0,0,0-.241.062,2.29,2.29,0,0,0-1.073,1.012c-.278.4-.539.788-.946.857l-.085.008a1.055,1.055,0,0,0-.264.056,1.661,1.661,0,0,0-.662.615,2.294,2.294,0,0,1-.316.369,2.137,2.137,0,0,1-.363.229,1.977,1.977,0,0,0-.574.417,4.928,4.928,0,0,0-.651,1.074,4.076,4.076,0,0,1-.809,1.221c-.1.094-.211.184-.321.275a4.072,4.072,0,0,0-.689.67,2.071,2.071,0,0,0-.261.54,1.546,1.546,0,0,1-.187.4,3.476,3.476,0,0,1-.834.732,3.733,3.733,0,0,0-1.029.956,5.871,5.871,0,0,0-.662,1.6,9.608,9.608,0,0,1-.332.969,9.133,9.133,0,0,1-.949,1.6c-.123.179-.246.355-.361.532a25.261,25.261,0,0,0-2.7,6.446c-.32,1.02-.651,2.075-1.039,3.086-.243.646-.524,1.306-.831,1.964-.066.142-.155.294-.245.454a4.221,4.221,0,0,0-.451.949,1.478,1.478,0,0,0-.056.411c0,.075.01.149.018.224a1.045,1.045,0,0,1-.006.369,1.025,1.025,0,0,1-.227.339c-.053.062-.105.125-.152.187a1.421,1.421,0,0,0-.187.9,1.886,1.886,0,0,1-.037.518,3.745,3.745,0,0,1-.6,1.148c-.131.182-.273.347-.417.515a6.474,6.474,0,0,0-.543.694l-.11.179a2.606,2.606,0,0,1-.675.818,2.876,2.876,0,0,1-.63.285,2.41,2.41,0,0,0-.885.465,2.382,2.382,0,0,0-.452.66,1.635,1.635,0,0,1-1.034.948,4.166,4.166,0,0,0-.491.249,4.707,4.707,0,0,0-1.181,1.148A3.026,3.026,0,0,1,42.491,55.1a4.238,4.238,0,0,0-1.768,1.242c-.2.2-.4.406-.62.588a14.258,14.258,0,0,1-2.166,1.429c-.38.217-.762.438-1.135.676A24.122,24.122,0,0,1,34.3,60.364c-.587.281-1.194.575-1.782.9a5.036,5.036,0,0,0-1.146.969c-.137.144-.275.286-.42.422a2.2,2.2,0,0,1-1.088.545c-.182.051-.374.1-.583.182a5.431,5.431,0,0,0-1.053.6c-.173.113-.347.232-.524.334a7.709,7.709,0,0,1-3.812,1.205l-.105,0a1.412,1.412,0,0,0-.518.064,12.844,12.844,0,0,0-1.475.756A6.275,6.275,0,0,1,18.8,67.421h-.018a4.381,4.381,0,0,1-.662-.067,5.394,5.394,0,0,0-.71-.069H17.4a4.736,4.736,0,0,0-.858.1c-.1.016-.193.034-.293.048a5.916,5.916,0,0,1-2-.091c-.329-.054-.667-.107-1.026-.136a4.6,4.6,0,0,0-.665,0,1.842,1.842,0,0,1-1.245-.24c-.091-.059-.181-.123-.27-.187a2.612,2.612,0,0,0-1.117-.55c-.214-.029-.44,0-.662-.032a1.6,1.6,0,0,1-.986-.7,3.183,3.183,0,0,0-.673-.633,7.017,7.017,0,0,0-.641-.337,3.37,3.37,0,0,1-1.025-.654,2.545,2.545,0,0,1-.527-1.466,3.566,3.566,0,0,0-.35-1.28,2.943,2.943,0,0,1-.43-1.28l-.074-.545a11.836,11.836,0,0,1-.112-3.9c.045-.229.109-.441.171-.659A4.976,4.976,0,0,0,4.859,53.6c.014-.267.013-.535.01-.8a7.949,7.949,0,0,1,.046-1.144A7.915,7.915,0,0,1,5.6,49.577c.136-.312.272-.625.39-.941.134-.361.248-.734.356-1.095a10.45,10.45,0,0,1,.683-1.827,10.312,10.312,0,0,1,1.312-1.776c.337-.393.67-.812,1.009-1.236A14.835,14.835,0,0,1,12.6,39.371a4.673,4.673,0,0,1,1.883-.746c.184-.026.371-.038.559-.051a3.474,3.474,0,0,0,1.482-.324,3.537,3.537,0,0,0,.356-.229,1.9,1.9,0,0,1,.505-.286,1.888,1.888,0,0,1,.662-.038,2.854,2.854,0,0,1,1.069.19c.08.038.155.085.232.129a2.831,2.831,0,0,0,.27.152,2.9,2.9,0,0,0,.769.213,3.307,3.307,0,0,1,.521.12,4.475,4.475,0,0,1,1.128.633,8.835,8.835,0,0,1,1.341,1.26c.195.224.382.454.561.687.034.042.085.1.141.163a1.641,1.641,0,0,1,.293.384c.161,1.293.575,2.115,1.17,2.31a.956.956,0,0,0,.993-.307,3.11,3.11,0,0,0,.277-3.165.21.21,0,0,0-.059-.082,2.03,2.03,0,0,1-.5-.834,3.044,3.044,0,0,0-.4-.774,4.207,4.207,0,0,0-.331-.369,2.834,2.834,0,0,1-.43-.526,1.32,1.32,0,0,1-.083-.229c-.075-.248-.2-.654-.579-.654a.309.309,0,0,0-.066,0,1.337,1.337,0,0,0-.19.038.458.458,0,0,1-.211.026.534.534,0,0,1-.173-.174,4.349,4.349,0,0,0-2.738-1.614.634.634,0,0,0-.189-.464,1.309,1.309,0,0,0-.572-.278l-.519-.145c-.331-.09-.662-.182-.993-.281a2.913,2.913,0,0,1-.289-.126,1.417,1.417,0,0,0-.762-.209,1.109,1.109,0,0,0-.59.336,1.035,1.035,0,0,1-.334.233.973.973,0,0,1-.523-.054c-.059-.018-.117-.034-.177-.048a.935.935,0,0,0-.775.15,1.907,1.907,0,0,1-.216.115,2.107,2.107,0,0,1-.754.129l-.181.013a2.1,2.1,0,0,0-1.085.464,1.963,1.963,0,0,1-.8.388,1.345,1.345,0,0,0-.838.639,1.732,1.732,0,0,1-.366.408C9.451,37,8.249,38.391,7.062,39.9c-.275.348-.537.7-.8,1.06-.241.326-.481.651-.732.97l-.069.088a4.188,4.188,0,0,0-.643,1.007,2.877,2.877,0,0,0-.126.409,1.8,1.8,0,0,1-.235.595.645.645,0,0,1-.294.214,1.452,1.452,0,0,0-.312.181,2.423,2.423,0,0,0-.587.74,11.259,11.259,0,0,0-1.57,4.015c-.014.117-.027.235-.035.353a4.629,4.629,0,0,1-.112.748,4.209,4.209,0,0,1-.318.764,5.034,5.034,0,0,0-.323.753,5.124,5.124,0,0,0-.169,1.013,4.83,4.83,0,0,1-.145.924,5.079,5.079,0,0,1-.222.555,5.351,5.351,0,0,0-.232.58,4.828,4.828,0,0,0,.019,2.311c.04.225.077.448.105.668.121.977.28,2.124.515,3.265a12.823,12.823,0,0,0,.846,2.406l.157.368c.1.245.371.873.909.965a6.749,6.749,0,0,1,1,1.59,1.829,1.829,0,0,0,.924.908l.206.121a3.661,3.661,0,0,1,.885.847,4.6,4.6,0,0,0,.852.847,3.941,3.941,0,0,0,2.212.556,2.288,2.288,0,0,1,1.12.39,6.076,6.076,0,0,0,.6.305,4.2,4.2,0,0,0,1.661.229,4.168,4.168,0,0,1,.508,0,3.832,3.832,0,0,1,1.037.229,6.218,6.218,0,0,0,.758.2,1.706,1.706,0,0,0,.3.026,3.182,3.182,0,0,0,1.074-.246c.176-.061.348-.123.526-.168a2.471,2.471,0,0,1,1.082.03,5.467,5.467,0,0,0,.649.091l.066,0a1.223,1.223,0,0,0,.882-.472c.174-.176.286-.269.408-.254a3.656,3.656,0,0,0,3.114-.385,5.181,5.181,0,0,1,2.7-.842,6.551,6.551,0,0,0,2.481-.643,6.505,6.505,0,0,0,.783-.556c.15-.117.3-.237.457-.345A9.454,9.454,0,0,1,31,66.342a13.327,13.327,0,0,0,1.673-.75,13.65,13.65,0,0,0,1.423-.978,8.054,8.054,0,0,1,2.287-1.368c.067-.022.137-.04.206-.059a2.747,2.747,0,0,0,.344-.1,3.237,3.237,0,0,0,.527-.281l.11-.07a6.62,6.62,0,0,1,1.293-.548,5.413,5.413,0,0,0,1.65-.778,7.943,7.943,0,0,0,1.252-1.4,9.167,9.167,0,0,1,.983-1.157c.126-.117.288-.288.468-.483.492-.531,1.237-1.331,1.688-1.357a.735.735,0,0,1,.168.01.769.769,0,0,0,.8-.316c.169-.182.342-.363.513-.542.449-.475.916-.965,1.339-1.477a3.683,3.683,0,0,0,.23-.331,3.484,3.484,0,0,1,.607-.775,1.667,1.667,0,0,1,.8.2c.189.109.171.216.121.315a.961.961,0,0,1-.1.155.994.994,0,0,0-.179.326c-.05.157-.094.315-.141.472l-.072.243c-.046.187-.1.371-.161.555-.032.1-.064.2-.091.307-.027.085-.061.174-.093.264a2.363,2.363,0,0,0-.149.484,4.97,4.97,0,0,0,0,1.261c.016.206.035.411.04.614a11.29,11.29,0,0,1-.109,1.985c-.03.171-.069.339-.1.507A3.681,3.681,0,0,0,48.233,63a6.026,6.026,0,0,0,.237.689,2.81,2.81,0,0,1,.28,1.13,3.162,3.162,0,0,1-.1.593,1.672,1.672,0,0,0,.464,1.905,2.975,2.975,0,0,1,.366.478,2.855,2.855,0,0,1,.142.328,1.915,1.915,0,0,0,.321.6,1.706,1.706,0,0,0,.651.422c1.176.484,3.731.767,4.638-.4a1.946,1.946,0,0,0,.265-.551,2.382,2.382,0,0,1,.134-.328.711.711,0,0,1,.385-.379c.056-.032.12-.066.2-.112a8.319,8.319,0,0,0,1.824-1.7l.085-.1c.385-.436.754-.9,1.111-1.343.515-.638,1.045-1.3,1.622-1.9a14.994,14.994,0,0,1,2.116-1.705,16.214,16.214,0,0,0,2.07-1.65,1.476,1.476,0,0,0,.438-.483,3.571,3.571,0,0,1,.927-1.017c.128-.112.254-.219.369-.329l1.672-1.574a1.094,1.094,0,0,1,.353-.257.84.84,0,0,1,.152-.037,1.679,1.679,0,0,0,.222-.059,1.443,1.443,0,0,0,.591-.5c.037-.05.074-.1.113-.142a4.426,4.426,0,0,1,1.424-.948c.372-.184.753-.353,1.135-.526.563-.251,1.146-.51,1.689-.807a7.558,7.558,0,0,0,.727-.472,3.463,3.463,0,0,1,1.461-.726,9.094,9.094,0,0,1,.937-.082,5.119,5.119,0,0,0,1.819-.332c.152-.064.31-.137.472-.214a3.776,3.776,0,0,1,1.352-.444,4.5,4.5,0,0,1,.675.034,3.734,3.734,0,0,0,1.165-.019c.243-.051.492-.1.636.016a.734.734,0,0,1,.16.414c.014.074.029.147.048.219a2.773,2.773,0,0,0,.408.785,2.832,2.832,0,0,1,.339.617,2.919,2.919,0,0,1-.113,1.814l-.038.137a6.254,6.254,0,0,0-.149,2.1c.019.291.05.582.077.873a11.773,11.773,0,0,1,.085,1.868c-.014.264-.054.537-.093.8a7.7,7.7,0,0,0-.1,1.088,4.111,4.111,0,0,1-.115.89c-.035.171-.072.348-.1.54a2.783,2.783,0,0,0,.059.865l.037.208a4.535,4.535,0,0,1-.054,1.675l-.029.12a1.623,1.623,0,0,0,0,1.109,1.589,1.589,0,0,0,.527.542c.192.139.4.312.614.5a4.344,4.344,0,0,0,2.287,1.274c.173,0,.329,0,.494-.008a3.376,3.376,0,0,1,.889.037,2.027,2.027,0,0,1,.652.307,1.888,1.888,0,0,0,1.041.38H90.3a5.1,5.1,0,0,0,2.019-.292,6.119,6.119,0,0,0,.748-.432c.179-.115.358-.23.545-.329a8.078,8.078,0,0,1,1.346-.521c.232-.075.465-.149.692-.232a8.629,8.629,0,0,0,2.318-1.285,8.809,8.809,0,0,0,.734-.667,5.819,5.819,0,0,1,.949-.817,17.511,17.511,0,0,0,5.247-5.912l.938-1.5a7.737,7.737,0,0,0,.681-1.584c.072-.206.142-.409.217-.607a1.478,1.478,0,0,1,.532-.591,3.105,3.105,0,0,0,.42-.369,1.631,1.631,0,0,0,.273-.619c.016-.051.032-.112.053-.171a4.8,4.8,0,0,1-.094,2.818,6.336,6.336,0,0,0,.221,2.759,4.888,4.888,0,0,1,.366,1.683c0,.1,0,.2-.008.291a2.218,2.218,0,0,0,.262,1.351,7.5,7.5,0,0,0,.451.675,5.52,5.52,0,0,1,.465.7c.069.131.128.259.184.38a3.14,3.14,0,0,0,.555.9,4.007,4.007,0,0,1,.77,1.021,2.345,2.345,0,0,0,.9,1.041,3.835,3.835,0,0,0,2.73.879,3.047,3.047,0,0,1,1.084.105,3.24,3.24,0,0,1,.436.206,2.674,2.674,0,0,0,.694.286c1.08.213,2.735-.561,3.938-1.136.227-.105.435-.206.615-.286a11.081,11.081,0,0,0,3.97-2.77l.074-.086a2.076,2.076,0,0,1,.572-.526,2.039,2.039,0,0,1,.8-.145c.109-.006.217-.013.324-.024a3.582,3.582,0,0,0,2.372-1.456l.053-.056a11.607,11.607,0,0,1,1.133-1.017A11.618,11.618,0,0,0,132.1,59.76a2.735,2.735,0,0,0,.251-.331,1.2,1.2,0,0,1,.427-.443,1.839,1.839,0,0,1,.5-.147,1.982,1.982,0,0,0,.691-.232,3.335,3.335,0,0,0,.526-.443,1.807,1.807,0,0,1,.729-.5,6,6,0,0,0,2.1-2.014c.235-.313.459-.612.7-.885.86-.018,1.036-.173,1.36-.531.053-.058.109-.121.177-.19.032.472.133,1.045.134,1.055a6.772,6.772,0,0,0,.6,1.776c.059.106.121.211.185.316a1.864,1.864,0,0,1,.388,1.106c0,.046-.01.091-.016.136a1.033,1.033,0,0,0,0,.464,1.185,1.185,0,0,0,.275.425,6.716,6.716,0,0,1,1,1.779,5.343,5.343,0,0,0,1.737,2.487,7.875,7.875,0,0,0,1.149.636c.176.083.35.168.521.259l.711.376a19.747,19.747,0,0,0,5.316,2.179,11.525,11.525,0,0,0,3.657.037c.211-.022.422-.043.638-.062a6.228,6.228,0,0,1,.671,0,2.942,2.942,0,0,0,1.544-.219,2.843,2.843,0,0,0,.472-.355,2.235,2.235,0,0,1,.441-.323,2.114,2.114,0,0,1,.847-.128l.2,0a8.315,8.315,0,0,0,3.574-1.066c1.418-.73,2.807-1.563,3.977-2.282l.305-.184a12.884,12.884,0,0,0,3.508-2.74l.069-.082a2.033,2.033,0,0,1,.366-.388,2.079,2.079,0,0,1,.753-.28,3.165,3.165,0,0,0,.7-.232A3.032,3.032,0,0,0,174.4,57.7a3.808,3.808,0,0,0,1.371-1.228.522.522,0,0,0,.043.038,1.354,1.354,0,0,0,.187.141,4.733,4.733,0,0,0,.321,1.149,2.289,2.289,0,0,0,.321.377,1.287,1.287,0,0,1,.316.411c.018.045,0,.086-.038.181a.754.754,0,0,0-.074.339,1.114,1.114,0,0,0,.192.515l.269.475c.259.46.526.935.818,1.378a2.16,2.16,0,0,0,1.542,1.039.332.332,0,0,1,.109.019.391.391,0,0,1,.061.067,9.24,9.24,0,0,0,2.617,2.249,2.864,2.864,0,0,0,.588.259,2.843,2.843,0,0,1,.451.185c.112.064.222.129.336.193a4.573,4.573,0,0,0,1.872.745,3.27,3.27,0,0,0,.834-.109,1.578,1.578,0,0,1,.994-.029,1.852,1.852,0,0,1,.238.149,1.128,1.128,0,0,0,.518.254,1.172,1.172,0,0,0,.425-.034.685.685,0,0,1,.262-.03,1.018,1.018,0,0,1,.329.112,1.2,1.2,0,0,0,.5.149h.014a1.267,1.267,0,0,0,.785-.38c.061-.048.118-.1.179-.144a1.721,1.721,0,0,1,1.367-.195l.187.024a5.105,5.105,0,0,0,1.979-.193,14.452,14.452,0,0,0,1.424-.51,10.166,10.166,0,0,1,2.017-.635c.115-.019.232-.032.348-.046s.264-.032.395-.056a6.323,6.323,0,0,0,3.034-1.731,11.115,11.115,0,0,1,1.5-1.144,8.1,8.1,0,0,1,1.213-.555,5.093,5.093,0,0,0,1.939-1.114l.046-.051a.815.815,0,0,1,.229-.2.8.8,0,0,1,.136-.046l.109-.029a1.9,1.9,0,0,0,.5-.278,23.386,23.386,0,0,0,2.116-1.784c.5-.456,1.005-.922,1.539-1.344a7.481,7.481,0,0,1,.667-.465,6.865,6.865,0,0,0,.967-.721c.061-.058.259-.286.58-.659.2-.229.456-.526.595-.676.08.077.061.2-.01.452a1.779,1.779,0,0,0-.08.443,5.546,5.546,0,0,0-.045,1.792c.026.31.051.631.048.949a1.89,1.89,0,0,0,.32.833,2.371,2.371,0,0,1,.272.6c.018.112.027.221.037.329a1.658,1.658,0,0,0,.267.893c.05.072.1.139.155.209a1.737,1.737,0,0,1,.336.569c.019.075.032.147.045.216a1.063,1.063,0,0,0,.519.857.834.834,0,0,1,.2.171,3.25,3.25,0,0,1,.2.3,1.264,1.264,0,0,0,.909.73,2.911,2.911,0,0,0,.55.029,1.391,1.391,0,0,1,.63.074,1.427,1.427,0,0,1,.384.307l.107.107a4.049,4.049,0,0,0,2.772,1.065h.021a6.01,6.01,0,0,0,3.44-1.255,10.71,10.71,0,0,0,1.531-1.344,12.49,12.49,0,0,1,1.143-1.057,13.278,13.278,0,0,0,2.151-2.057,3.681,3.681,0,0,1,.815-.676,3.86,3.86,0,0,0,.932-.8c.058-.075.112-.158.165-.24a1.661,1.661,0,0,1,.257-.336,1.7,1.7,0,0,1,.328-.209c.059-.03.118-.064.174-.1a4,4,0,0,0,.647-.515c.113-.1.225-.206.344-.3a6.813,6.813,0,0,1,.861-.55q1.146-.647,2.286-1.3c.181-.105.374-.232.574-.368a4.607,4.607,0,0,1,1.213-.654,1.844,1.844,0,0,1,1.252.353.214.214,0,0,0,.145.027,1,1,0,0,1,1.085.793,3.379,3.379,0,0,1,.014,1.523,4.731,4.731,0,0,0-.064,1.287,17.8,17.8,0,0,1-1.018,5.892c-.31.505.1.812.344.994.31.233.352.307.264.473a.2.2,0,0,0,0,.184.2.2,0,0,0,.147.112c.3.048.6.125.889.2a4.514,4.514,0,0,0,2.1.2,3.574,3.574,0,0,0,.673-.336,1.745,1.745,0,0,1,1.224-.366l0,0a.2.2,0,0,0,.182-.339,7.938,7.938,0,0,1,1.042-1.571,6.675,6.675,0,0,0,.483-.619,2.975,2.975,0,0,1,.921-.969,6.6,6.6,0,0,0,2.406-2.37c.251-.352.508-.714.794-1.06.2-.245.435-.476.686-.726l.911-.911a3.449,3.449,0,0,1,.813-.66,3.511,3.511,0,0,1,.539-.2,3.241,3.241,0,0,0,.652-.246,3.443,3.443,0,0,0,.7-.547c.1-.09.193-.179.292-.264a6.691,6.691,0,0,1,1.469-.831l1.411-.651a1.936,1.936,0,0,1,.673-.219,1.519,1.519,0,0,1,.646.125,3.844,3.844,0,0,0,.489.128c.115.016.224.029.331.04a3,3,0,0,1,.572.1c.483.145.977.245,1.456.342.366.075.734.149,1.1.243a1.771,1.771,0,0,1,1.442,1.167c.032.121.064.246.094.368a4.11,4.11,0,0,0,.925,2.017,5.107,5.107,0,0,0,.582.5,2.756,2.756,0,0,1,.793.8,2.809,2.809,0,0,1,.241.911c.016.11.034.222.054.334a5.239,5.239,0,0,0,1.391,2.546c.224.256.433.534.636.806a8.176,8.176,0,0,0,1.215,1.391,1.372,1.372,0,0,0,.569.261,1.432,1.432,0,0,1,.337.12,1.166,1.166,0,0,1,.241.245,1.118,1.118,0,0,0,.532.428.164.164,0,0,0,.067.008,12.188,12.188,0,0,1,2.155.136c.487.056.993.115,1.482.136a.157.157,0,0,0,.075-.011c.4-.144.812-.254,1.25-.371A6.254,6.254,0,0,0,281,63.329a2.94,2.94,0,0,0,1.4-1.5c.46-.235.7-.526.727-.858.014-.249-.1-.628-.708-1.034M191.8,29.209c.035.094.083.224.053.269a.333.333,0,0,1-.1.075,1.031,1.031,0,0,0-.134.09.857.857,0,0,0-.284.659,1.292,1.292,0,0,1-.038.243,1.708,1.708,0,0,1-.177.36c-.048.085-.1.168-.145.262a4.063,4.063,0,0,0-.289.989c-.037.184-.074.369-.126.547l-.035.11a5.529,5.529,0,0,1-.708,1.266l-.117.169a14.546,14.546,0,0,0-1.354,2.43l-.048.115a3.368,3.368,0,0,1-.32.635,3.234,3.234,0,0,1-.372.42c-.1.1-.2.2-.293.31a5.29,5.29,0,0,0-.5.751l-.134.224a7.776,7.776,0,0,1-1.827,2.059l-.045.037a1.713,1.713,0,0,0-.411.408,1.971,1.971,0,0,0-.227.569,1.728,1.728,0,0,1-.181.462,3.413,3.413,0,0,1-.748.7,1.231,1.231,0,0,0-.238.472,1.108,1.108,0,0,1-.144.315,1.029,1.029,0,0,1-.264.2,1.156,1.156,0,0,0-.424.368.165.165,0,0,0-.022.048,3.322,3.322,0,0,1-1.947,2.1,1.015,1.015,0,0,0-.364.133c-.051.027-.1.051-.145.072a4.566,4.566,0,0,1,.331-2.954,5.062,5.062,0,0,0,.4-1.7,5.625,5.625,0,0,1,.257-1.344,4.309,4.309,0,0,0,.2-1.491,4.891,4.891,0,0,1,.1-1.111,3.177,3.177,0,0,1,.392-.854c.091-.153.181-.308.257-.472a3.551,3.551,0,0,0,.235-.726,3.5,3.5,0,0,1,.189-.611,2.75,2.75,0,0,1,.165-.293c.043-.07.088-.139.125-.211a5.234,5.234,0,0,0,.3-.683,20.4,20.4,0,0,1,1.53-3.219,9.59,9.59,0,0,1,.807-1.093,8.4,8.4,0,0,0,.962-1.349c.035-.067.086-.179.149-.32.51-1.148.775-1.416.909-1.416a.1.1,0,0,1,.035.006.8.8,0,0,0,.884-.291.678.678,0,0,1,.372-.238,1.821,1.821,0,0,0,.82-.2,2.037,2.037,0,0,0,.567-.141,1.835,1.835,0,0,1,.456-.12c.337.213.694.449,1.029.673l.43.283c.238.157.2.615.163,1.058a2.321,2.321,0,0,0,.046.954m-45.875,8.1a1.171,1.171,0,0,0,.022-.123v0a2.667,2.667,0,0,0,0-.392c0-.085,0-.173,0-.257a3.274,3.274,0,0,1,.588-1.463c.1-.174.238-.366.379-.569a4.644,4.644,0,0,0,.916-1.785c.029-.209.042-.395.054-.574a3.705,3.705,0,0,1,.192-1.066c.211-.6.446-1.188.7-1.763a26.512,26.512,0,0,1,1.661-3.174,18.973,18.973,0,0,1,4.077-4.969,1.16,1.16,0,0,0,.309-.315,1.259,1.259,0,0,0,.085-.2,1.042,1.042,0,0,1,.053-.133.72.72,0,0,1,.259-.2,5.9,5.9,0,0,1,1.288-.518l.19-.051a5.282,5.282,0,0,0,1.688-.676,2.527,2.527,0,0,1,1.368-.435,1.691,1.691,0,0,1,.831.206,1.54,1.54,0,0,1,.48,1.9c-.069.155-.142.3-.216.443a4.926,4.926,0,0,0-.35.814l-.07.233a3.578,3.578,0,0,1-.385.977q-.062.1-.129.187a2.451,2.451,0,0,0-.245.384,2.614,2.614,0,0,0-.2.683c-.018.107-.037.209-.064.312a2.195,2.195,0,0,1-.7,1.106,4.461,4.461,0,0,1-.543.376,3.8,3.8,0,0,0-.751.553,4.047,4.047,0,0,0-.655,1.028l-.043.088a28.977,28.977,0,0,1-3.692,5.49c-.173.075-.4.337-.917,1.013-.1.129-.179.235-.219.278l-.315.347c-.292.321-.587.641-.873.965a19.829,19.829,0,0,0-2,2.639.52.52,0,0,1-.051.072.33.33,0,0,1-.069-.01c-.037,0-.072-.011-.107-.014a.914.914,0,0,0-.727.462,15.821,15.821,0,0,1-2.952,3.2.751.751,0,0,0-.2.2,1.05,1.05,0,0,0-.066.718.2.2,0,0,1,.008.045c-.136.027-.305.054-.371,0a.425.425,0,0,1-.072-.238,8.786,8.786,0,0,1-.05-.922.7.7,0,0,1,.011-.158.876.876,0,0,1,.129-.246,5.985,5.985,0,0,0,.652-1.845,8.107,8.107,0,0,1,.353-1.234,3.024,3.024,0,0,1,.31-.527,2.309,2.309,0,0,0,.428-.85M72.958,18.1c.157-.139.332-.3.462-.3l.019,0c.094.011.185.125.251.219a.645.645,0,0,1,.07.224,3.285,3.285,0,0,1,.021,1.039.534.534,0,0,1-.051.2.634.634,0,0,1-.174.147l-.05.034a3.666,3.666,0,0,0-1.234,1.824,29.441,29.441,0,0,1-3.122,6c-.545.823-1.135,1.637-1.709,2.423l-.571.79c-.141.195-.278.393-.416.588a10.587,10.587,0,0,1-1.83,2.183,5.474,5.474,0,0,0-1.79,2.164,3.781,3.781,0,0,1-1.116,1.282,7.883,7.883,0,0,0-.7.651,8.032,8.032,0,0,0-.778,1.058,7.778,7.778,0,0,1-.7.961,4.68,4.68,0,0,1-1.14.863,8.028,8.028,0,0,0-.8.534A13.669,13.669,0,0,0,56.314,42.2c-.046.048-.093.094-.137.139a5.9,5.9,0,0,0,.1-.671.959.959,0,0,1,.126-.472c.029-.046.061-.091.1-.144.048-.069.1-.149.168-.251a2,2,0,0,0,.193-.564q.019-.086.038-.163a13.742,13.742,0,0,1,.946-2.319,10.907,10.907,0,0,0,1.112-3.082l.011-.075a1.245,1.245,0,0,1,.088-.363,1.283,1.283,0,0,1,.249-.3c.054-.054.109-.107.158-.163a3.086,3.086,0,0,0,.534-1.031,3.659,3.659,0,0,1,.305-.7l.187-.3a11.3,11.3,0,0,0,.922-1.664,2.9,2.9,0,0,1,.527-.785c.09-.1.181-.213.272-.331a6.651,6.651,0,0,0,.657-1.138,6.838,6.838,0,0,1,.542-.97l.043-.061a10.142,10.142,0,0,1,1.566-1.878l.147-.126a4.294,4.294,0,0,0,.436-.406,3.671,3.671,0,0,0,.307-.417l.1-.153c.211-.3.457-.574.673-.822l1.813-2.063a9.237,9.237,0,0,1,2.586-1.984,4.082,4.082,0,0,1,.628-.213,2.871,2.871,0,0,0,1.068-.472c.059-.048.121-.1.182-.157" transform="translate(0 -13.981)" fill="#fff"/>
          <path id="パス_1119" data-name="パス 1119" d="M182.257,30.687a1.76,1.76,0,0,0,.395-2.056,2.9,2.9,0,0,0-2.859-1.106,2.466,2.466,0,0,0-2.238,1.683l-.128.419c-.625,2.068-1.213,4.02-2.957,5.442a.163.163,0,0,0-.045.054,4.36,4.36,0,0,0-.441,2.2,4.647,4.647,0,0,1-.269,1.785c-.4.451-.855,1.766-.465,2.191a.4.4,0,0,0,.31.137,1.308,1.308,0,0,0,.742-.358l.029-.027c.109-.131.208-.277.3-.417.176-.257.339-.5.523-.564a1.2,1.2,0,0,0,.878-.826.226.226,0,0,0,.008-.058c0-1.159,1.093-1.924,2.059-2.6l.224-.157a.958.958,0,0,0,.329-1.092c-.051-.35-.072-.571.141-.743a.13.13,0,0,0,.037-.042,1.156,1.156,0,0,1,.384-.275c.277-.149.652-.35.6-.833.08-.548.532-.679,1.26-.828.575-.117,1.228-.251,1.461-.844a.2.2,0,0,0-.061-.229.646.646,0,0,1-.214-.863" transform="translate(103.579 -5.892)" fill="#fff"/>
          <path id="パス_1120" data-name="パス 1120" d="M135.844,30.622a1.292,1.292,0,0,0,.711.241,1.7,1.7,0,0,0,.908-.353,2.541,2.541,0,0,1,.476-.261,4.2,4.2,0,0,0,1.645-.967c.836-.048,1.311-.833,1.635-1.517a.218.218,0,0,0,.019-.085c0-.088-.006-.173-.013-.259a.935.935,0,0,1,.054-.5.2.2,0,0,0,.024-.091c0-.285-.254-.406-.428-.488l-.08-.037a1.363,1.363,0,0,1-.321-.27,1.266,1.266,0,0,0-.649-.428.8.8,0,0,0-.769.419,14.111,14.111,0,0,1-1.172.9,8.244,8.244,0,0,0-2.1,1.91.213.213,0,0,0-.037.113l0,1.509a.194.194,0,0,0,.09.166" transform="translate(81.229 -7.032)" fill="#fff"/>
          <path id="パス_1121" data-name="パス 1121" d="M66.275,28.67a5.364,5.364,0,0,0,.227,1.09c.16.406.558.547.946.681.093.034.185.064.273.1a.981.981,0,0,0,.363.091.478.478,0,0,0,.107-.011.86.86,0,0,0,.347-.181l.045-.034a1.56,1.56,0,0,1,.991-.168,1.863,1.863,0,0,0,1.167-.193,2.347,2.347,0,0,0,.316-.246,5.207,5.207,0,0,0,1.088-1.357,2.167,2.167,0,0,0-.764-2.521,3.119,3.119,0,0,0-1.792-.072c-.483.121-.69.547-.876.921a3.6,3.6,0,0,1-.189.358.867.867,0,0,1-.286.3c-.181.088-.3.013-.551-.235a1.161,1.161,0,0,0-.593-.377.666.666,0,0,0-.6.184,1.7,1.7,0,0,0-.265,1.341c.016.094.03.2.048.321" transform="translate(39.609 -6.934)" fill="#fff"/>
        </g>
      </g>
    </g>
  </g>
</svg>
