<svg xmlns="http://www.w3.org/2000/svg" width="65.976" height="62.909" viewBox="0 0 65.976 62.909">
  <g id="グループ_3158" data-name="グループ 3158" transform="translate(0.5 0.5)">
    <g id="グループ_673" data-name="グループ 673">
      <path id="パス_849" data-name="パス 849" d="M174.451,283.272c0-14.537-14.574-26.364-32.488-26.364s-32.488,11.827-32.488,26.364c0,13.033,11.558,23.948,27.171,26.011,1.057.228,2.5.7,2.862,1.6a6.683,6.683,0,0,1,.1,2.938s-.381,2.292-.463,2.781c-.142.821-.653,3.212,2.814,1.751s18.709-11.016,25.526-18.862h0c4.708-5.163,6.964-10.4,6.964-16.221" transform="translate(-109.475 -256.908)" fill="#fff" stroke="rgba(0,0,0,0)" stroke-width="1"/>
      <g id="グループ_672" data-name="グループ 672" transform="translate(10.658 19.339)">
        <path id="パス_850" data-name="パス 850" d="M143.285,282.916h-2.279a.633.633,0,0,0-.633.632V297.7a.632.632,0,0,0,.633.631h2.279a.632.632,0,0,0,.633-.631V283.548a.633.633,0,0,0-.633-.632" transform="translate(-128.055 -282.916)" fill="#639dbc" stroke="rgba(0,0,0,0)" stroke-width="1"/>
        <path id="パス_851" data-name="パス 851" d="M160.956,282.916h-2.278a.632.632,0,0,0-.633.632v8.41l-6.488-8.761a.723.723,0,0,0-.049-.064l0,0a.45.45,0,0,0-.038-.039l-.012-.011c-.01-.01-.022-.019-.033-.028l-.016-.013-.033-.022-.019-.011-.033-.019-.02-.01c-.012-.005-.024-.011-.036-.016l-.021-.007a.31.31,0,0,0-.037-.013l-.022-.006-.036-.008-.027,0-.033,0-.033,0h-2.3a.633.633,0,0,0-.634.632V297.7a.633.633,0,0,0,.634.631h2.278a.633.633,0,0,0,.633-.631V289.3l6.495,8.772a.623.623,0,0,0,.161.156l.007.005.039.024.018.01.03.015.031.013.019.007.043.013.01,0a.618.618,0,0,0,.162.021h2.278a.632.632,0,0,0,.633-.631V283.548a.633.633,0,0,0-.633-.632" transform="translate(-130.042 -282.916)" fill="#639dbc" stroke="rgba(0,0,0,0)" stroke-width="1"/>
        <path id="パス_852" data-name="パス 852" d="M133.544,294.79h-6.193V283.548a.632.632,0,0,0-.632-.632h-2.279a.632.632,0,0,0-.633.632V297.7h0a.626.626,0,0,0,.177.437l.009.01.009.009a.627.627,0,0,0,.437.176h9.1a.632.632,0,0,0,.631-.633v-2.279a.633.633,0,0,0-.631-.633" transform="translate(-123.808 -282.916)" fill="#639dbc" stroke="rgba(0,0,0,0)" stroke-width="1"/>
        <path id="パス_853" data-name="パス 853" d="M178.949,286.461a.632.632,0,0,0,.631-.633V283.55a.632.632,0,0,0-.631-.634h-9.1a.629.629,0,0,0-.439.178l-.007.007-.01.011a.632.632,0,0,0-.175.436V297.7h0a.627.627,0,0,0,.177.437l.009.01.009.008a.629.629,0,0,0,.437.177h9.1a.632.632,0,0,0,.631-.633v-2.279a.633.633,0,0,0-.631-.633h-6.192V292.4h6.192a.632.632,0,0,0,.631-.633v-2.278a.633.633,0,0,0-.631-.634h-6.192v-2.392Z" transform="translate(-135.45 -282.916)" fill="#639dbc" stroke="rgba(0,0,0,0)" stroke-width="1"/>
      </g>
    </g>
  </g>
</svg>
