<svg xmlns="http://www.w3.org/2000/svg" width="308.22" height="73.187" viewBox="0 0 308.22 73.187">
  <g id="グループ_3150" data-name="グループ 3150" transform="translate(-32.442 -5772.907)">
    <path id="パス_1147" data-name="パス 1147" d="M-154.084-.734l3.331-3.51a10.884,10.884,0,0,0,.786-.907,2.832,2.832,0,0,0,.41-.712,1.959,1.959,0,0,0,.12-.679,1.369,1.369,0,0,0-.439-1.079,1.653,1.653,0,0,0-1.141-.39,2.192,2.192,0,0,0-1.209.333,3,3,0,0,0-.929,1.022l-.855-.718A3.794,3.794,0,0,1-152.726-8.7a3.336,3.336,0,0,1,1.748-.452,3.052,3.052,0,0,1,1.445.327,2.359,2.359,0,0,1,.96.913,2.669,2.669,0,0,1,.341,1.367,3.308,3.308,0,0,1-.14,1,3.111,3.111,0,0,1-.481.905,11.511,11.511,0,0,1-.952,1.1l-2.691,2.775Zm0,.734V-.734l1.033-.361h5.021V0Zm12.923.13A3.187,3.187,0,0,1-143-.443a3.981,3.981,0,0,1-1.332-1.62,5.681,5.681,0,0,1-.5-2.46,5.694,5.694,0,0,1,.49-2.456,3.925,3.925,0,0,1,1.319-1.6,3.176,3.176,0,0,1,1.837-.568,3.2,3.2,0,0,1,1.851.567,3.913,3.913,0,0,1,1.32,1.608,5.744,5.744,0,0,1,.49,2.469,5.744,5.744,0,0,1-.49,2.46,3.923,3.923,0,0,1-1.312,1.612A3.153,3.153,0,0,1-141.161.13Zm-.026-1.151a2.071,2.071,0,0,0,1.262-.4,2.616,2.616,0,0,0,.852-1.176,5.23,5.23,0,0,0,.31-1.928,5.18,5.18,0,0,0-.31-1.915,2.567,2.567,0,0,0-.856-1.17A2.1,2.1,0,0,0-141.192-8a2.085,2.085,0,0,0-1.251.393,2.538,2.538,0,0,0-.852,1.165,5.23,5.23,0,0,0-.306,1.915,5.322,5.322,0,0,0,.306,1.933,2.569,2.569,0,0,0,.852,1.176A2.076,2.076,0,0,0-141.187-1.021Zm6.713.286,3.331-3.51a10.884,10.884,0,0,0,.786-.907,2.832,2.832,0,0,0,.41-.712,1.959,1.959,0,0,0,.12-.679,1.369,1.369,0,0,0-.439-1.079,1.653,1.653,0,0,0-1.141-.39,2.192,2.192,0,0,0-1.209.333,3,3,0,0,0-.929,1.022l-.855-.718A3.794,3.794,0,0,1-133.115-8.7a3.336,3.336,0,0,1,1.748-.452,3.052,3.052,0,0,1,1.445.327,2.359,2.359,0,0,1,.96.913,2.669,2.669,0,0,1,.341,1.367,3.308,3.308,0,0,1-.14,1,3.111,3.111,0,0,1-.481.905,11.511,11.511,0,0,1-.952,1.1l-2.691,2.775Zm0,.734V-.734l1.033-.361h5.021V0Zm9.067-.734,3.331-3.51a10.885,10.885,0,0,0,.787-.907,2.832,2.832,0,0,0,.41-.712,1.96,1.96,0,0,0,.12-.679,1.369,1.369,0,0,0-.439-1.079,1.653,1.653,0,0,0-1.141-.39,2.192,2.192,0,0,0-1.209.333,3,3,0,0,0-.93,1.022l-.855-.718A3.794,3.794,0,0,1-124.048-8.7a3.336,3.336,0,0,1,1.749-.452,3.052,3.052,0,0,1,1.445.327,2.359,2.359,0,0,1,.96.913,2.669,2.669,0,0,1,.341,1.367,3.308,3.308,0,0,1-.14,1,3.111,3.111,0,0,1-.481.905,11.512,11.512,0,0,1-.952,1.1l-2.691,2.775Zm0,.734V-.734l1.034-.361h5.021V0Zm13.562.52,3.6-10.043h1.1L-110.745.52ZM-96.608.13a3.9,3.9,0,0,1-1.817-.392A4.118,4.118,0,0,1-99.76-1.391l.835-.832a2.931,2.931,0,0,0,.981.9,2.836,2.836,0,0,0,1.381.309,2.175,2.175,0,0,0,1.3-.351,1.127,1.127,0,0,0,.489-.969,1.3,1.3,0,0,0-.239-.811,1.844,1.844,0,0,0-.631-.517,6.179,6.179,0,0,0-.861-.362q-.47-.159-.939-.348a3.985,3.985,0,0,1-.861-.473,2.12,2.12,0,0,1-.631-.734,2.432,2.432,0,0,1-.239-1.146A2.247,2.247,0,0,1-98.8-8.028a2.409,2.409,0,0,1,1.017-.834,3.481,3.481,0,0,1,1.45-.291,3.522,3.522,0,0,1,1.581.345,3.323,3.323,0,0,1,1.146.907l-.835.832a2.879,2.879,0,0,0-.861-.707,2.285,2.285,0,0,0-1.06-.236,1.891,1.891,0,0,0-1.155.318,1.047,1.047,0,0,0-.427.891,1.109,1.109,0,0,0,.239.741,1.909,1.909,0,0,0,.631.475,7.449,7.449,0,0,0,.861.353q.47.161.939.356a3.8,3.8,0,0,1,.861.5,2.219,2.219,0,0,1,.631.774,2.632,2.632,0,0,1,.239,1.191,2.288,2.288,0,0,1-.826,1.87A3.414,3.414,0,0,1-96.608.13Zm7.573-3.64V-4.579h2.454a1.951,1.951,0,0,0,.906-.2,1.544,1.544,0,0,0,.626-.583,1.7,1.7,0,0,0,.229-.9,1.7,1.7,0,0,0-.229-.9,1.544,1.544,0,0,0-.626-.583,1.951,1.951,0,0,0-.906-.2h-2.454V-9.022h2.528a3.189,3.189,0,0,1,1.49.341,2.624,2.624,0,0,1,1.042.958,2.7,2.7,0,0,1,.383,1.454,2.709,2.709,0,0,1-.383,1.456,2.619,2.619,0,0,1-1.042.96,3.189,3.189,0,0,1-1.49.341ZM-89.858,0V-9.022h1.225V0ZM-79.23-3.929V-4.95h2.447a1.7,1.7,0,0,0,1.214-.4,1.437,1.437,0,0,0,.427-1.1,1.464,1.464,0,0,0-.423-1.076,1.629,1.629,0,0,0-1.209-.426H-79.23V-9.022h2.489a3.2,3.2,0,0,1,1.5.332,2.423,2.423,0,0,1,.983.907,2.5,2.5,0,0,1,.346,1.313,2.527,2.527,0,0,1-.346,1.337,2.336,2.336,0,0,1-.983.887,3.326,3.326,0,0,1-1.5.317ZM-80.052,0V-9.022h1.225V0Zm5.2,0-3.27-4.043,1.157-.4L-73.3,0ZM-70,0V-9.022h1.225V0Zm5.392,0V-9.022h.858l.367,1.424V0Zm6.246,0L-63.91-7.39l.159-1.632L-58.2-1.631Zm0,0-.367-1.336V-9.022H-57.5V0Zm9.1.127a4.412,4.412,0,0,1-1.77-.358,4.455,4.455,0,0,1-1.443-.991A4.646,4.646,0,0,1-53.436-2.7a4.716,4.716,0,0,1-.349-1.82,4.661,4.661,0,0,1,.351-1.815,4.666,4.666,0,0,1,.973-1.477A4.405,4.405,0,0,1-51-8.8a4.659,4.659,0,0,1,1.822-.353,4.7,4.7,0,0,1,1.992.421,4.03,4.03,0,0,1,1.518,1.2l-.839.838a2.823,2.823,0,0,0-1.136-.952,3.557,3.557,0,0,0-1.536-.332,3.4,3.4,0,0,0-1.749.442A3.081,3.081,0,0,0-52.1-6.318a3.733,3.733,0,0,0-.421,1.8,3.721,3.721,0,0,0,.424,1.8A3.172,3.172,0,0,0-50.947-1.49a3.136,3.136,0,0,0,1.662.444,3.493,3.493,0,0,0,1.649-.366,2.51,2.51,0,0,0,1.069-1.077,3.708,3.708,0,0,0,.379-1.736l.741.539h-3.9V-4.8h4.423v.175A5.6,5.6,0,0,1-45.477-2,3.746,3.746,0,0,1-47.011-.406,4.616,4.616,0,0,1-49.259.127Zm15.249,0a3.9,3.9,0,0,1-1.817-.392,4.118,4.118,0,0,1-1.336-1.129l.835-.832a2.931,2.931,0,0,0,.981.9,2.836,2.836,0,0,0,1.381.309,2.175,2.175,0,0,0,1.3-.351,1.127,1.127,0,0,0,.489-.969,1.3,1.3,0,0,0-.239-.811,1.844,1.844,0,0,0-.631-.517,6.179,6.179,0,0,0-.861-.362q-.47-.159-.939-.348a3.985,3.985,0,0,1-.861-.473,2.12,2.12,0,0,1-.631-.734,2.432,2.432,0,0,1-.239-1.146,2.247,2.247,0,0,1,.374-1.306,2.409,2.409,0,0,1,1.017-.834,3.481,3.481,0,0,1,1.45-.291,3.522,3.522,0,0,1,1.581.345,3.323,3.323,0,0,1,1.146.907l-.835.832a2.879,2.879,0,0,0-.861-.707,2.285,2.285,0,0,0-1.059-.236,1.891,1.891,0,0,0-1.155.318,1.047,1.047,0,0,0-.427.891,1.109,1.109,0,0,0,.239.741,1.909,1.909,0,0,0,.631.475,7.449,7.449,0,0,0,.861.353q.47.161.939.356a3.8,3.8,0,0,1,.861.5,2.219,2.219,0,0,1,.631.774,2.632,2.632,0,0,1,.239,1.191,2.288,2.288,0,0,1-.826,1.87A3.414,3.414,0,0,1-34.01.13Zm10.3,0a3.551,3.551,0,0,1-1.792-.451,3.325,3.325,0,0,1-1.248-1.237,3.468,3.468,0,0,1-.457-1.776V-9.022h1.225v5.658a2.44,2.44,0,0,0,.3,1.231,2.073,2.073,0,0,0,.815.806,2.363,2.363,0,0,0,1.157.283,2.316,2.316,0,0,0,1.155-.283,2.067,2.067,0,0,0,.8-.805,2.441,2.441,0,0,0,.295-1.219V-9.022h1.225v5.7a3.459,3.459,0,0,1-.452,1.769A3.325,3.325,0,0,1-21.93-.321,3.5,3.5,0,0,1-23.714.13Zm7.53-.13V-9.022h.858L-11.5-2.74h-.579L-8.26-9.022H-7.4V0H-8.627V-6.877l.28.075-3.016,4.953h-.858L-15.238-6.8l.28-.075V0ZM-3.235,0V-9.022h.858L1.445-2.74H.866L4.688-9.022h.858V0H4.321V-6.877L4.6-6.8,1.584-1.849H.726L-2.29-6.8l.28-.075V0ZM9.713,0V-9.022h1.225V0Zm.829,0V-1.118h5.177V0Zm0-4.076V-5.151H15.29v1.076Zm0-3.828V-9.022H15.65V-7.9Zm9.7,3.975V-4.95h2.447a1.7,1.7,0,0,0,1.214-.4,1.437,1.437,0,0,0,.427-1.1,1.464,1.464,0,0,0-.423-1.076A1.629,1.629,0,0,0,22.7-7.953H20.239V-9.022h2.49a3.2,3.2,0,0,1,1.5.332,2.422,2.422,0,0,1,.983.907,2.5,2.5,0,0,1,.346,1.313,2.527,2.527,0,0,1-.346,1.337,2.336,2.336,0,0,1-.983.887,3.326,3.326,0,0,1-1.5.317ZM19.417,0V-9.022h1.225V0Zm5.2,0-3.27-4.043,1.157-.4L26.171,0ZM34.39,0V-9.022h1.225V0Zm.829,0V-1.118h4.843V0Zm8.388,0V-9.022h1.225V0ZM49,0V-9.022h.858L53.679-2.74H53.1l3.822-6.282h.858V0H56.555V-6.877l.279.075L53.818-1.849H52.96L49.944-6.8l.28-.075V0ZM61.947,0V-9.022h1.225V0Zm7.78,0V-8.765h1.225V0ZM66.669-7.9V-9.022h7.342V-7.9ZM77.508,0V-9.022h1.225V0Zm.829,0V-1.118h5.177V0Zm0-4.076V-5.151h4.748v1.076Zm0-3.828V-9.022h5.109V-7.9ZM88.018,0V-1.121H90.53a3.472,3.472,0,0,0,1.752-.432,3.06,3.06,0,0,0,1.181-1.2,3.6,3.6,0,0,0,.424-1.771,3.513,3.513,0,0,0-.429-1.753A3.091,3.091,0,0,0,92.272-7.47,3.462,3.462,0,0,0,90.53-7.9h-2.5V-9.022H90.56a4.787,4.787,0,0,1,1.82.34,4.463,4.463,0,0,1,1.458.949A4.318,4.318,0,0,1,94.8-6.3a4.584,4.584,0,0,1,.344,1.792A4.586,4.586,0,0,1,94.8-2.727a4.372,4.372,0,0,1-.96,1.436,4.377,4.377,0,0,1-1.451.951A4.752,4.752,0,0,1,90.586,0Zm-.806,0V-9.022h1.225V0ZM107.7.13a4.553,4.553,0,0,1-1.805-.354,4.386,4.386,0,0,1-1.448-.993,4.512,4.512,0,0,1-.954-1.484,4.858,4.858,0,0,1-.336-1.814,4.875,4.875,0,0,1,.335-1.815,4.418,4.418,0,0,1,.951-1.474,4.5,4.5,0,0,1,1.443-.99,4.468,4.468,0,0,1,1.8-.359,4.532,4.532,0,0,1,1.875.364,4.648,4.648,0,0,1,1.427.995l-.835.835a3.006,3.006,0,0,0-1.053-.751,3.516,3.516,0,0,0-1.414-.27,3.318,3.318,0,0,0-1.311.253,3.052,3.052,0,0,0-1.037.72,3.251,3.251,0,0,0-.679,1.1,3.918,3.918,0,0,0-.239,1.389,3.908,3.908,0,0,0,.241,1.391,3.3,3.3,0,0,0,.679,1.105,3.017,3.017,0,0,0,1.038.722,3.342,3.342,0,0,0,1.315.253,3.6,3.6,0,0,0,1.469-.276,3.071,3.071,0,0,0,1.056-.757l.835.835A4.461,4.461,0,0,1,109.6-.236,4.7,4.7,0,0,1,107.7.13Zm10.637,0a4.466,4.466,0,0,1-1.792-.359,4.523,4.523,0,0,1-1.454-1,4.635,4.635,0,0,1-.973-1.484,4.7,4.7,0,0,1-.349-1.813,4.678,4.678,0,0,1,.348-1.81,4.634,4.634,0,0,1,.967-1.474,4.447,4.447,0,0,1,1.443-.99,4.473,4.473,0,0,1,1.786-.354A4.484,4.484,0,0,1,120.1-8.8a4.479,4.479,0,0,1,1.448.99,4.61,4.61,0,0,1,.972,1.48,4.707,4.707,0,0,1,.349,1.817A4.718,4.718,0,0,1,122.52-2.7a4.578,4.578,0,0,1-.967,1.477,4.542,4.542,0,0,1-1.441.991A4.385,4.385,0,0,1,118.337.13Zm-.026-1.173a3.227,3.227,0,0,0,1.708-.448,3.181,3.181,0,0,0,1.164-1.233,3.724,3.724,0,0,0,.424-1.8,3.809,3.809,0,0,0-.244-1.385,3.311,3.311,0,0,0-.686-1.1,3.061,3.061,0,0,0-1.042-.72,3.368,3.368,0,0,0-1.324-.253,3.245,3.245,0,0,0-1.7.442,3.134,3.134,0,0,0-1.162,1.22,3.7,3.7,0,0,0-.423,1.792,3.9,3.9,0,0,0,.244,1.4,3.291,3.291,0,0,0,.681,1.105A3.078,3.078,0,0,0,117-1.3,3.314,3.314,0,0,0,118.311-1.043ZM126.586,0V-9.022h1.225V0Zm.829,0V-1.118h4.842V0Zm11.719.13a4.466,4.466,0,0,1-1.792-.359,4.523,4.523,0,0,1-1.454-1,4.635,4.635,0,0,1-.973-1.484,4.7,4.7,0,0,1-.349-1.813,4.678,4.678,0,0,1,.348-1.81,4.634,4.634,0,0,1,.967-1.474,4.447,4.447,0,0,1,1.443-.99,4.473,4.473,0,0,1,1.786-.354A4.484,4.484,0,0,1,140.9-8.8a4.479,4.479,0,0,1,1.448.99,4.611,4.611,0,0,1,.972,1.48,4.708,4.708,0,0,1,.349,1.817,4.718,4.718,0,0,1-.348,1.814,4.577,4.577,0,0,1-.967,1.477,4.542,4.542,0,0,1-1.441.991A4.385,4.385,0,0,1,139.134.13Zm-.026-1.173a3.227,3.227,0,0,0,1.708-.448,3.181,3.181,0,0,0,1.163-1.233,3.724,3.724,0,0,0,.424-1.8,3.809,3.809,0,0,0-.244-1.385,3.311,3.311,0,0,0-.686-1.1,3.061,3.061,0,0,0-1.042-.72,3.368,3.368,0,0,0-1.324-.253,3.245,3.245,0,0,0-1.7.442,3.134,3.134,0,0,0-1.162,1.22,3.7,3.7,0,0,0-.423,1.792,3.9,3.9,0,0,0,.244,1.4,3.29,3.29,0,0,0,.681,1.105,3.078,3.078,0,0,0,1.042.721A3.314,3.314,0,0,0,139.108-1.043Zm9.1-2.886V-4.95h2.447a1.7,1.7,0,0,0,1.214-.4,1.437,1.437,0,0,0,.427-1.1,1.464,1.464,0,0,0-.423-1.076,1.629,1.629,0,0,0-1.209-.426H148.2V-9.022h2.49a3.2,3.2,0,0,1,1.5.332,2.423,2.423,0,0,1,.983.907,2.5,2.5,0,0,1,.346,1.313,2.527,2.527,0,0,1-.346,1.337,2.336,2.336,0,0,1-.983.887,3.326,3.326,0,0,1-1.5.317ZM147.383,0V-9.022h1.225V0Zm5.2,0-3.27-4.043,1.157-.4L154.136,0Z" transform="translate(186.526 5782.43)" fill="#1c3534"/>
    <path id="パス_1148" data-name="パス 1148" d="M3.27,0V-27.76H7.04V0ZM5.82,0V-3.44h14.9V0ZM29.35,0V-27.76h3.77V0ZM43.66,0V-27.76H46.3l1.13,4.38V0ZM62.88,0,45.81-22.74l.49-5.02L63.37-5.02Zm0,0L61.75-4.11V-27.76h3.77V0ZM76.06,0V-27.76h3.77V0Zm2.55,0V-3.44H94.54V0Zm0-12.54v-3.31H93.22v3.31Zm0-11.78v-3.44H94.33v3.44ZM126.369.4a10.925,10.925,0,0,1-5.514-1.388A10.231,10.231,0,0,1,117.016-4.8a10.67,10.67,0,0,1-1.406-5.464v-17.5h3.77v17.41a7.508,7.508,0,0,0,.919,3.788,6.377,6.377,0,0,0,2.507,2.481,7.272,7.272,0,0,0,3.559.872,7.127,7.127,0,0,0,3.554-.871,6.361,6.361,0,0,0,2.455-2.478,7.511,7.511,0,0,0,.906-3.751V-27.76h3.77v17.54a10.643,10.643,0,0,1-1.392,5.444,10.23,10.23,0,0,1-3.8,3.787A10.785,10.785,0,0,1,126.369.4ZM149.79-10.8v-3.29h7.55a6,6,0,0,0,2.788-.629,4.751,4.751,0,0,0,1.927-1.793,5.241,5.241,0,0,0,.705-2.768,5.241,5.241,0,0,0-.705-2.768,4.751,4.751,0,0,0-1.927-1.793,6,6,0,0,0-2.788-.629h-7.55v-3.29h7.78a9.813,9.813,0,0,1,4.585,1.05,8.073,8.073,0,0,1,3.205,2.949,8.306,8.306,0,0,1,1.18,4.475,8.335,8.335,0,0,1-1.18,4.481,8.059,8.059,0,0,1-3.205,2.955,9.813,9.813,0,0,1-4.585,1.05ZM147.26,0V-27.76h3.77V0Z" transform="translate(102.526 5845.43)" fill="#1c3534" stroke="#1c3534" stroke-width="0.5"/>
  </g>
</svg>
