<svg xmlns="http://www.w3.org/2000/svg" width="95.907" height="15.857" viewBox="0 0 95.907 15.857">
  <g id="logo" transform="translate(0)">
    <path id="パス_81" data-name="パス 81" d="M6.318,7.461a5.016,5.016,0,0,1,2.165,1.63,4,4,0,0,1,.732,2.4,4.346,4.346,0,0,1-1.291,3.275A4.732,4.732,0,0,1,4.5,16.008a4.7,4.7,0,0,1-2.913-.886A4.36,4.36,0,0,1,0,12.61l1.59-.783A3.935,3.935,0,0,0,2.649,13.85a2.59,2.59,0,0,0,1.85.689,2.986,2.986,0,0,0,2.126-.76A2.591,2.591,0,0,0,7.44,11.8a2.693,2.693,0,0,0-.571-1.716A4.335,4.335,0,0,0,5.161,8.843L3.374,8.071A5.074,5.074,0,0,1,1.185,6.5,3.792,3.792,0,0,1,.468,4.182,3.311,3.311,0,0,1,1.634,1.587,4.333,4.333,0,0,1,4.606.56a4.485,4.485,0,0,1,2.3.567A3.814,3.814,0,0,1,8.417,2.78l-1.449.913a3.693,3.693,0,0,0-1.1-1.248A2.449,2.449,0,0,0,4.48,2.036a2.23,2.23,0,0,0-1.61.6,2.021,2.021,0,0,0-.626,1.527,2.023,2.023,0,0,0,.48,1.354,4.047,4.047,0,0,0,1.5,1.012Z" transform="translate(0 -0.34)" fill="#1c3534"/>
    <path id="パス_82" data-name="パス 82" d="M36.061,3.878,33.722,9.3H38.4Zm0-3.878,6.692,15.294h-1.9L38.946,10.81H33.2l-1.909,4.484H29.38Z" transform="translate(-17.814)" fill="#1c3534"/>
    <path id="パス_83" data-name="パス 83" d="M72.44,16.222V1.53h1.732V14.565h5.574v1.657Z" transform="translate(-43.922 -0.928)" fill="#1c3534"/>
    <path id="パス_84" data-name="パス 84" d="M105.77,14.417a5.941,5.941,0,0,0,2.287-.453,6.12,6.12,0,0,0,1.961-1.331,5.955,5.955,0,0,0,1.764-4.267,6.156,6.156,0,0,0-.457-2.35,5.864,5.864,0,0,0-1.307-1.96,6.022,6.022,0,0,0-6.563-1.311,5.688,5.688,0,0,0-1.933,1.311,6.021,6.021,0,0,0-1.76,4.311,5.942,5.942,0,0,0,.445,2.3,6.108,6.108,0,0,0,1.315,1.964,5.976,5.976,0,0,0,1.96,1.331A5.827,5.827,0,0,0,105.77,14.417Zm7.858-6.047a7.611,7.611,0,0,1-.587,2.972,7.441,7.441,0,0,1-1.693,2.48,7.9,7.9,0,0,1-2.567,1.669,7.975,7.975,0,0,1-8.562-1.669,7.466,7.466,0,0,1-2.3-5.448A7.64,7.64,0,0,1,98.507,5.4a7.543,7.543,0,0,1,1.712-2.5,7.744,7.744,0,0,1,2.551-1.653,8.075,8.075,0,0,1,6.023,0,7.778,7.778,0,0,1,2.559,1.653,7.361,7.361,0,0,1,1.693,2.484A7.733,7.733,0,0,1,113.628,8.37Z" transform="translate(-59.371 -0.406)" fill="#1c3534"/>
    <path id="パス_85" data-name="パス 85" d="M150.34,15.294V0l10.779,11.763V.6h1.653V15.857L152,4.256V15.294Z" transform="translate(-91.155)" fill="#1c3534"/>
    <rect id="長方形_35" data-name="長方形 35" width="1.732" height="14.692" transform="translate(77.188 0.602)" fill="#1c3534"/>
    <path id="パス_86" data-name="パス 86" d="M216.347,3.878,214.008,9.3h4.681Zm0-3.878,6.688,15.294h-1.9l-1.905-4.484h-5.744l-1.909,4.484H209.67Z" transform="translate(-127.128)" fill="#1c3534"/>
  </g>
</svg>
