<svg xmlns="http://www.w3.org/2000/svg" width="207.921" height="126.775" viewBox="0 0 207.921 126.775">
  <g id="グループ_3145" data-name="グループ 3145" transform="translate(-148.567 -162.549)">
    <g id="グループ_3065" data-name="グループ 3065" transform="translate(-10 80)">
      <path id="パス_1144" data-name="パス 1144" d="M4.761.12A4.2,4.2,0,0,1,3.095-.207a4.049,4.049,0,0,1-1.336-.917,4.165,4.165,0,0,1-.881-1.37,4.484,4.484,0,0,1-.31-1.674A4.5,4.5,0,0,1,.876-5.842,4.078,4.078,0,0,1,1.753-7.2a4.156,4.156,0,0,1,1.332-.913,4.124,4.124,0,0,1,1.661-.332,4.183,4.183,0,0,1,1.731.336,4.29,4.29,0,0,1,1.317.918l-.771.771a2.775,2.775,0,0,0-.972-.693,3.245,3.245,0,0,0-1.3-.249,3.063,3.063,0,0,0-1.211.234,2.817,2.817,0,0,0-.957.665A3,3,0,0,0,1.951-5.45a3.617,3.617,0,0,0-.22,1.282,3.607,3.607,0,0,0,.222,1.284,3.046,3.046,0,0,0,.627,1.02,2.785,2.785,0,0,0,.958.666,3.085,3.085,0,0,0,1.214.234,3.328,3.328,0,0,0,1.356-.255,2.835,2.835,0,0,0,.975-.7l.771.771a4.118,4.118,0,0,1-1.341.929A4.342,4.342,0,0,1,4.761.12ZM10.917,0V-8.328h1.131V0Zm.765,0V-1.032h4.779V0Zm0-3.762v-.993h4.383v.993Zm0-3.534V-8.328H16.4V-7.3ZM20.43-3.627v-.942h2.259a1.571,1.571,0,0,0,1.121-.372A1.327,1.327,0,0,0,24.2-5.955a1.351,1.351,0,0,0-.39-.993A1.5,1.5,0,0,0,22.7-7.341H20.43v-.987h2.3a2.957,2.957,0,0,1,1.383.306,2.236,2.236,0,0,1,.908.837,2.3,2.3,0,0,1,.319,1.212,2.333,2.333,0,0,1-.319,1.235,2.157,2.157,0,0,1-.908.819,3.07,3.07,0,0,1-1.383.293ZM19.671,0V-8.328H20.8V0Zm4.8,0L21.453-3.732,22.521-4.1,25.905,0Zm3.4,0,3.417-8.328h.81L35.487,0H34.266l-2.8-7.047h.423L29.067,0ZM29.49-1.884v-.987h4.386v.987ZM38.418,0V-8.328h.792l3.528,5.8H42.2l3.528-5.8h.792V0H45.393V-6.348l.258.069L42.867-1.707h-.792L39.291-6.279l.258-.069V0ZM50.166,0V-8.328H51.3V0Zm8.553.12a4.2,4.2,0,0,1-1.667-.327,4.049,4.049,0,0,1-1.337-.917,4.165,4.165,0,0,1-.881-1.37,4.484,4.484,0,0,1-.31-1.674,4.5,4.5,0,0,1,.309-1.675A4.078,4.078,0,0,1,55.712-7.2a4.156,4.156,0,0,1,1.332-.913A4.124,4.124,0,0,1,58.7-8.448a4.183,4.183,0,0,1,1.731.336,4.29,4.29,0,0,1,1.317.918l-.771.771a2.775,2.775,0,0,0-.972-.693,3.245,3.245,0,0,0-1.3-.249,3.063,3.063,0,0,0-1.211.234,2.817,2.817,0,0,0-.957.665A3,3,0,0,0,55.91-5.45a3.617,3.617,0,0,0-.221,1.282,3.607,3.607,0,0,0,.222,1.284,3.046,3.046,0,0,0,.627,1.02A2.785,2.785,0,0,0,57.5-1.2a3.085,3.085,0,0,0,1.214.234,3.328,3.328,0,0,0,1.356-.255,2.835,2.835,0,0,0,.975-.7l.771.771a4.118,4.118,0,0,1-1.341.929A4.342,4.342,0,0,1,58.719.12Zm14.106,0a4.2,4.2,0,0,1-1.667-.327,4.049,4.049,0,0,1-1.336-.917,4.165,4.165,0,0,1-.881-1.37,4.484,4.484,0,0,1-.311-1.674,4.5,4.5,0,0,1,.309-1.675A4.078,4.078,0,0,1,69.818-7.2a4.156,4.156,0,0,1,1.332-.913,4.124,4.124,0,0,1,1.66-.332,4.183,4.183,0,0,1,1.731.336,4.29,4.29,0,0,1,1.317.918l-.771.771a2.775,2.775,0,0,0-.972-.693,3.245,3.245,0,0,0-1.305-.249,3.063,3.063,0,0,0-1.211.234,2.817,2.817,0,0,0-.957.665,3,3,0,0,0-.627,1.017,3.617,3.617,0,0,0-.22,1.282,3.607,3.607,0,0,0,.222,1.284,3.046,3.046,0,0,0,.627,1.02A2.785,2.785,0,0,0,71.6-1.2a3.085,3.085,0,0,0,1.214.234,3.328,3.328,0,0,0,1.356-.255,2.835,2.835,0,0,0,.975-.7l.771.771a4.118,4.118,0,0,1-1.341.929A4.342,4.342,0,0,1,72.825.12Zm9.285,0A3.278,3.278,0,0,1,80.456-.3,3.069,3.069,0,0,1,79.3-1.439a3.2,3.2,0,0,1-.422-1.639v-5.25h1.131v5.223a2.252,2.252,0,0,0,.276,1.136,1.913,1.913,0,0,0,.752.744,2.182,2.182,0,0,0,1.068.261,2.138,2.138,0,0,0,1.066-.261,1.908,1.908,0,0,0,.737-.744,2.253,2.253,0,0,0,.272-1.125V-8.328h1.131v5.262A3.193,3.193,0,0,1,84.9-1.433,3.069,3.069,0,0,1,83.756-.3,3.235,3.235,0,0,1,82.11.12Zm7.506-3.747v-.942h2.259A1.571,1.571,0,0,0,93-4.941a1.327,1.327,0,0,0,.395-1.014A1.351,1.351,0,0,0,93-6.948a1.5,1.5,0,0,0-1.116-.393H89.616v-.987h2.3a2.957,2.957,0,0,1,1.383.306,2.236,2.236,0,0,1,.908.837,2.3,2.3,0,0,1,.32,1.212,2.333,2.333,0,0,1-.32,1.235,2.157,2.157,0,0,1-.908.819,3.07,3.07,0,0,1-1.383.293ZM88.857,0V-8.328h1.131V0Zm4.8,0L90.639-3.732,91.707-4.1,95.091,0Zm4.275,0V-8.328h1.131V0ZM98.7,0V-1.032h4.47V0Zm7.539,0V-8.328h1.131V0Zm4.773,0V-8.328h.792l.339,1.314V0Zm5.766,0-5.121-6.822.147-1.506,5.121,6.822Zm0,0-.339-1.233v-7.1h1.131V0Zm8.2.117a4.073,4.073,0,0,1-1.633-.33,4.113,4.113,0,0,1-1.332-.915,4.289,4.289,0,0,1-.891-1.365,4.353,4.353,0,0,1-.323-1.68,4.3,4.3,0,0,1,.324-1.675,4.307,4.307,0,0,1,.9-1.364,4.066,4.066,0,0,1,1.35-.913,4.3,4.3,0,0,1,1.681-.326,4.34,4.34,0,0,1,1.839.389,3.72,3.72,0,0,1,1.4,1.106l-.774.774a2.606,2.606,0,0,0-1.049-.879,3.284,3.284,0,0,0-1.418-.306,3.143,3.143,0,0,0-1.614.408,2.844,2.844,0,0,0-1.088,1.128,3.446,3.446,0,0,0-.388,1.662,3.435,3.435,0,0,0,.391,1.662,2.928,2.928,0,0,0,1.065,1.133,2.894,2.894,0,0,0,1.535.41,3.224,3.224,0,0,0,1.522-.338,2.317,2.317,0,0,0,.987-.994,3.422,3.422,0,0,0,.35-1.6l.684.5h-3.6V-4.434h4.083v.162a5.171,5.171,0,0,1-.515,2.427,3.458,3.458,0,0,1-1.416,1.47A4.261,4.261,0,0,1,124.974.117ZM136.329,0V-8.328h1.131V0ZM141.7,0V-8.328h1.131V0Zm-4.611-3.789V-4.821h4.884v1.032ZM145.863,0l3.417-8.328h.81L153.483,0h-1.221l-2.8-7.047h.423L147.063,0Zm1.623-1.884v-.987h4.386v.987ZM156.414,0V-8.328h1.131V0Zm5.532-3.627v-.942H164.2a1.571,1.571,0,0,0,1.121-.372,1.327,1.327,0,0,0,.395-1.014,1.351,1.351,0,0,0-.39-.993,1.5,1.5,0,0,0-1.116-.393h-2.268v-.987h2.3a2.957,2.957,0,0,1,1.383.306,2.236,2.236,0,0,1,.908.837,2.3,2.3,0,0,1,.319,1.212,2.333,2.333,0,0,1-.319,1.235,2.157,2.157,0,0,1-.908.819,3.071,3.071,0,0,1-1.383.293ZM161.187,0V-8.328h1.131V0Zm4.8,0-3.018-3.732,1.068-.369L167.421,0ZM174.6,0V-8.328h1.131V0Zm5.532-3.627v-.942h2.259a1.571,1.571,0,0,0,1.121-.372,1.327,1.327,0,0,0,.395-1.014,1.351,1.351,0,0,0-.39-.993,1.5,1.5,0,0,0-1.116-.393h-2.268v-.987h2.3a2.957,2.957,0,0,1,1.383.306,2.236,2.236,0,0,1,.908.837,2.3,2.3,0,0,1,.319,1.212,2.333,2.333,0,0,1-.319,1.235,2.157,2.157,0,0,1-.908.819,3.071,3.071,0,0,1-1.383.293ZM179.373,0V-8.328H180.5V0Zm4.8,0-3.018-3.732,1.068-.369L185.607,0Zm7.944.12a4.123,4.123,0,0,1-1.654-.332,4.175,4.175,0,0,1-1.342-.921,4.278,4.278,0,0,1-.9-1.369,4.338,4.338,0,0,1-.322-1.674,4.318,4.318,0,0,1,.321-1.671,4.278,4.278,0,0,1,.893-1.36,4.1,4.1,0,0,1,1.332-.914,4.129,4.129,0,0,1,1.648-.327,4.14,4.14,0,0,1,1.65.327,4.134,4.134,0,0,1,1.336.914,4.256,4.256,0,0,1,.9,1.366,4.345,4.345,0,0,1,.323,1.677,4.355,4.355,0,0,1-.321,1.674,4.225,4.225,0,0,1-.892,1.363,4.193,4.193,0,0,1-1.331.915A4.047,4.047,0,0,1,192.117.12Zm-.024-1.083a2.979,2.979,0,0,0,1.577-.414,2.937,2.937,0,0,0,1.074-1.139,3.437,3.437,0,0,0,.392-1.66,3.516,3.516,0,0,0-.225-1.278,3.057,3.057,0,0,0-.633-1.012,2.826,2.826,0,0,0-.962-.665,3.109,3.109,0,0,0-1.223-.234,3,3,0,0,0-1.568.408,2.893,2.893,0,0,0-1.072,1.126,3.413,3.413,0,0,0-.39,1.655,3.6,3.6,0,0,0,.225,1.288,3.038,3.038,0,0,0,.628,1.02,2.841,2.841,0,0,0,.962.666A3.059,3.059,0,0,0,192.093-.963ZM199.527,0V-8.328h.792l.339,1.314V0Zm5.766,0-5.121-6.822.147-1.506,5.121,6.822Zm0,0-.339-1.233v-7.1h1.131V0Z" transform="translate(158 91)" fill="#9f9f90"/>
      <path id="パス_1145" data-name="パス 1145" d="M.462-.791l3.587-3.78A11.723,11.723,0,0,0,4.9-5.548a3.049,3.049,0,0,0,.441-.766,2.11,2.11,0,0,0,.129-.731,1.474,1.474,0,0,0-.472-1.162,1.78,1.78,0,0,0-1.229-.42,2.361,2.361,0,0,0-1.3.359,3.229,3.229,0,0,0-1,1.1L.543-7.942A4.086,4.086,0,0,1,1.925-9.37a3.593,3.593,0,0,1,1.883-.486A3.287,3.287,0,0,1,5.364-9.5,2.54,2.54,0,0,1,6.4-8.521a2.874,2.874,0,0,1,.368,1.472,3.563,3.563,0,0,1-.151,1.073A3.35,3.35,0,0,1,6.1-5a12.4,12.4,0,0,1-1.026,1.18L2.174-.833ZM.462,0V-.791L1.575-1.18H6.983V0Zm11.83.14a4.174,4.174,0,0,1-1.766-.359A3.48,3.48,0,0,1,9.215-1.263l.892-.892A2.245,2.245,0,0,0,11-1.381a2.8,2.8,0,0,0,1.274.285,2.54,2.54,0,0,0,1.153-.248,1.906,1.906,0,0,0,.781-.707,2.005,2.005,0,0,0,.285-1.081,2.039,2.039,0,0,0-.276-1.094,1.819,1.819,0,0,0-.744-.681,2.257,2.257,0,0,0-1.027-.235A3.587,3.587,0,0,0,11.394-5a2.623,2.623,0,0,0-.884.476l.01-.836a2.112,2.112,0,0,1,.546-.476,2.5,2.5,0,0,1,.7-.282,3.829,3.829,0,0,1,.9-.1,3.255,3.255,0,0,1,1.706.422,2.815,2.815,0,0,1,1.071,1.132,3.4,3.4,0,0,1,.369,1.592,3.047,3.047,0,0,1-.453,1.654A3.172,3.172,0,0,1,14.119-.275,3.891,3.891,0,0,1,12.292.14ZM10.51-4.522,9.8-5.24l.427-4.476h1.208L10.944-5.1Zm-.017-4.014-.27-1.179H15.33v1.179ZM18.585,0V-6.65h1.264V0Zm4.5,0V-4.018a1.52,1.52,0,0,0-.455-1.167,1.6,1.6,0,0,0-1.137-.425,1.771,1.771,0,0,0-.831.193,1.5,1.5,0,0,0-.59.546,1.568,1.568,0,0,0-.221.847l-.525-.256A2.533,2.533,0,0,1,19.658-5.6a2.354,2.354,0,0,1,.906-.873,2.627,2.627,0,0,1,1.283-.313,2.615,2.615,0,0,1,1.272.308,2.3,2.3,0,0,1,.9.868,2.583,2.583,0,0,1,.331,1.337V0Zm4.5,0V-4.018a1.52,1.52,0,0,0-.455-1.167,1.6,1.6,0,0,0-1.138-.425,1.78,1.78,0,0,0-.826.193,1.492,1.492,0,0,0-.595.546,1.568,1.568,0,0,0-.221.847l-.724-.256a2.7,2.7,0,0,1,.42-1.325A2.578,2.578,0,0,1,25-6.477a2.711,2.711,0,0,1,1.3-.313,2.7,2.7,0,0,1,1.293.308,2.355,2.355,0,0,1,.917.87,2.529,2.529,0,0,1,.341,1.339V0Zm4.235,0V-6.65h1.263V0Zm4.5,0V-4.018a1.52,1.52,0,0,0-.455-1.167,1.6,1.6,0,0,0-1.138-.425,1.771,1.771,0,0,0-.831.193,1.5,1.5,0,0,0-.59.546,1.568,1.568,0,0,0-.221.847l-.525-.256A2.533,2.533,0,0,1,32.888-5.6a2.353,2.353,0,0,1,.906-.873,2.627,2.627,0,0,1,1.283-.313,2.615,2.615,0,0,1,1.272.308,2.3,2.3,0,0,1,.9.868,2.583,2.583,0,0,1,.331,1.337V0Zm4.5,0V-4.018a1.52,1.52,0,0,0-.455-1.167,1.6,1.6,0,0,0-1.138-.425,1.78,1.78,0,0,0-.826.193,1.492,1.492,0,0,0-.6.546,1.568,1.568,0,0,0-.221.847l-.724-.256a2.7,2.7,0,0,1,.42-1.325,2.578,2.578,0,0,1,.956-.871,2.711,2.711,0,0,1,1.295-.313,2.7,2.7,0,0,1,1.293.308,2.355,2.355,0,0,1,.917.87,2.529,2.529,0,0,1,.341,1.339V0Zm7.679.56,3.882-10.815h1.183L49.672.56ZM62.636.14A4.084,4.084,0,0,1,60.9-.219a3.483,3.483,0,0,1-1.309-1.045l.892-.892a2.247,2.247,0,0,0,.887.775,2.714,2.714,0,0,0,1.241.285,2.4,2.4,0,0,0,1.12-.245,1.824,1.824,0,0,0,.74-.691,1.964,1.964,0,0,0,.268-1.031,1.957,1.957,0,0,0-.268-1.045,1.8,1.8,0,0,0-.758-.677,2.628,2.628,0,0,0-1.173-.241,3.877,3.877,0,0,0-.5.033,2.923,2.923,0,0,0-.483.1l.556-.749a2.993,2.993,0,0,1,.569-.2,2.668,2.668,0,0,1,.625-.073,2.719,2.719,0,0,1,1.405.368,2.677,2.677,0,0,1,.991,1.02A3.06,3.06,0,0,1,66.073-3a3.06,3.06,0,0,1-.436,1.636A2.993,2.993,0,0,1,64.43-.257,3.867,3.867,0,0,1,62.636.14ZM61.562-4.889v-.791L64.4-8.922l1.564,0L63.039-5.618ZM60.053-8.536V-9.716h5.908v.791l-1.137.389ZM68.425-.791l3.588-3.78a11.722,11.722,0,0,0,.847-.977,3.049,3.049,0,0,0,.441-.766,2.11,2.11,0,0,0,.13-.731,1.474,1.474,0,0,0-.473-1.162,1.78,1.78,0,0,0-1.229-.42,2.361,2.361,0,0,0-1.3.359,3.229,3.229,0,0,0-1,1.1l-.92-.773A4.086,4.086,0,0,1,69.888-9.37a3.593,3.593,0,0,1,1.883-.486,3.287,3.287,0,0,1,1.556.352,2.54,2.54,0,0,1,1.034.984,2.874,2.874,0,0,1,.368,1.472,3.563,3.563,0,0,1-.151,1.073A3.35,3.35,0,0,1,74.06-5a12.4,12.4,0,0,1-1.025,1.18l-2.9,2.989Zm0,.791V-.791l1.113-.389h5.408V0Zm9.286,0V-6.65h1.263V0Zm4.5,0V-4.018a1.52,1.52,0,0,0-.455-1.167,1.6,1.6,0,0,0-1.137-.425,1.771,1.771,0,0,0-.831.193,1.5,1.5,0,0,0-.59.546,1.568,1.568,0,0,0-.221.847l-.525-.256A2.533,2.533,0,0,1,78.783-5.6a2.354,2.354,0,0,1,.907-.873,2.627,2.627,0,0,1,1.283-.313,2.615,2.615,0,0,1,1.272.308,2.3,2.3,0,0,1,.9.868,2.583,2.583,0,0,1,.331,1.337V0Zm4.5,0V-4.018a1.52,1.52,0,0,0-.455-1.167,1.6,1.6,0,0,0-1.138-.425,1.78,1.78,0,0,0-.826.193,1.492,1.492,0,0,0-.6.546,1.568,1.568,0,0,0-.22.847l-.725-.256a2.7,2.7,0,0,1,.42-1.325,2.578,2.578,0,0,1,.955-.871,2.711,2.711,0,0,1,1.3-.313,2.7,2.7,0,0,1,1.293.308,2.355,2.355,0,0,1,.917.87,2.529,2.529,0,0,1,.341,1.339V0ZM90.94,0V-6.65H92.2V0Zm4.5,0V-4.018a1.52,1.52,0,0,0-.455-1.167,1.6,1.6,0,0,0-1.137-.425,1.771,1.771,0,0,0-.831.193,1.5,1.5,0,0,0-.59.546,1.568,1.568,0,0,0-.221.847l-.525-.256A2.533,2.533,0,0,1,92.013-5.6a2.354,2.354,0,0,1,.907-.873A2.627,2.627,0,0,1,94.2-6.79a2.615,2.615,0,0,1,1.272.308,2.3,2.3,0,0,1,.9.868A2.583,2.583,0,0,1,96.7-4.277V0Zm4.5,0V-4.018a1.52,1.52,0,0,0-.455-1.167,1.6,1.6,0,0,0-1.138-.425,1.78,1.78,0,0,0-.826.193,1.492,1.492,0,0,0-.6.546,1.568,1.568,0,0,0-.22.847l-.725-.256a2.7,2.7,0,0,1,.42-1.325,2.578,2.578,0,0,1,.955-.871,2.711,2.711,0,0,1,1.3-.313,2.7,2.7,0,0,1,1.293.308,2.355,2.355,0,0,1,.917.87,2.529,2.529,0,0,1,.341,1.339V0Z" transform="translate(158.473 206.998) rotate(1)" fill="#4e4e4e"/>
      <path id="パス_1143" data-name="パス 1143" d="M9.212-13.776l-2.38.588a43.038,43.038,0,0,1-5.264.98,20.947,20.947,0,0,0,1.12,2.856c.14.308.252.448.448.448a1.161,1.161,0,0,0,.336-.112,29.887,29.887,0,0,1,3.948-1.2L9.212-10.7V-5.04c0,3.78,1.652,4.928,7,4.928A54.963,54.963,0,0,0,22.9-.448c.42-.028.588-.14.588-.42A13.425,13.425,0,0,0,23.24-3.22c-.056-.42-.084-.616-.476-.56a41.994,41.994,0,0,1-6.776.616c-3.024,0-3.528-.476-3.528-1.96V-11.48l7.7-1.96A23.3,23.3,0,0,1,15.6-7.84,9.538,9.538,0,0,1,17.92-6.776a.9.9,0,0,0,.532.2A1.107,1.107,0,0,0,19.18-7a29.446,29.446,0,0,0,4.452-6.048A3.651,3.651,0,0,1,24.5-14.14a.762.762,0,0,0,.364-.56.726.726,0,0,0-.252-.5,10.966,10.966,0,0,0-2.072-1.82.6.6,0,0,0-.392-.168.667.667,0,0,0-.392.168,3.937,3.937,0,0,1-1.988.812L12.46-14.5v-2.884a5.031,5.031,0,0,1,.364-2.492.894.894,0,0,0,.168-.448c0-.252-.168-.42-.532-.5a20.082,20.082,0,0,0-3.612-.56,22.818,22.818,0,0,1,.364,4.928Zm34.216-4.536c1.708,0,3.024.056,3.948.056.42.028.5-.084.5-.56a14.216,14.216,0,0,0,0-2.184c0-.308-.084-.448-.336-.448-1.092.056-2.576.14-4.4.14h-5.04a38.576,38.576,0,0,1-4.592-.2,24.4,24.4,0,0,0,.14,2.688c.028.448.112.616.392.616,1.176-.084,2.576-.112,3.836-.112Zm2.128,5.992C43.54-6.916,38.976-3.052,33.8-.644A8.208,8.208,0,0,1,36.4.812a.914.914,0,0,0,.616.336,1.345,1.345,0,0,0,.56-.2C42.98-1.96,46.2-5.46,49-11.424a3.207,3.207,0,0,1,.952-1.316.675.675,0,0,0,.308-.532.825.825,0,0,0-.28-.588A16.526,16.526,0,0,0,48.1-15.6a.721.721,0,0,0-.42-.2.6.6,0,0,0-.364.168,3.08,3.08,0,0,1-1.484.308h-9.6a49.552,49.552,0,0,1-5.152-.224,21.226,21.226,0,0,0,.308,2.828c.056.364.168.532.42.532,1.4-.084,2.8-.112,4.2-.112Zm16.072-6.832a45.838,45.838,0,0,1,10.584,3.22c.28.14.532.14.672-.2a23.271,23.271,0,0,0,.98-2.436c.168-.364.112-.5-.336-.7A51.562,51.562,0,0,0,63.56-22.2c-.392-.084-.532-.084-.756.364S61.964-19.964,61.628-19.152Zm-1.876,7.28a41.233,41.233,0,0,1,9.156,3,.678.678,0,0,0,.364.112c.14,0,.252-.112.392-.364a17.832,17.832,0,0,0,.924-2.156c.14-.42.084-.616-.364-.812a43.678,43.678,0,0,0-8.54-2.716c-.42-.112-.588-.028-.728.28A27.429,27.429,0,0,0,59.752-11.872ZM59.3-3.556A51.006,51.006,0,0,1,73.136,1.092a.834.834,0,0,0,.392.14c.168,0,.28-.112.42-.336a21.885,21.885,0,0,0,1.12-2.3.491.491,0,0,0-.28-.756A47.742,47.742,0,0,0,61.376-6.524a.623.623,0,0,0-.784.336A29.009,29.009,0,0,0,59.3-3.556Zm21.14-9.632A16.551,16.551,0,0,1,83.076-8.68c.14.392.308.532.7.392a11.623,11.623,0,0,0,1.792-.868c.224-.14.336-.224.336-.392a1.894,1.894,0,0,0-.112-.42,15,15,0,0,0-2.408-4.144.5.5,0,0,0-.728-.2C82.068-14.028,81.4-13.72,80.444-13.188Zm5.628-1.428a19.05,19.05,0,0,1,2.352,4.48c.14.392.252.532.56.42a11.564,11.564,0,0,0,1.932-.868c.364-.2.42-.336.28-.756a16.17,16.17,0,0,0-2.156-4.088.492.492,0,0,0-.728-.224C87.836-15.456,87.192-15.148,86.072-14.616Zm8.82-.672a10.087,10.087,0,0,1-.644,2.968,28.993,28.993,0,0,1-3.78,6.748A24.345,24.345,0,0,1,83.748.252a6.321,6.321,0,0,1,2.38,1.176.641.641,0,0,0,.448.2,1.216,1.216,0,0,0,.672-.308,22.423,22.423,0,0,0,5.768-5.4,34.143,34.143,0,0,0,4.228-7.448,3.858,3.858,0,0,1,.84-1.428c.224-.2.308-.336.308-.5s-.14-.308-.364-.476A13.315,13.315,0,0,0,94.892-15.288Zm21.084-2.6c.336-.5.616-.924.924-1.4a3.038,3.038,0,0,1,.7-.756.558.558,0,0,0,.308-.476.584.584,0,0,0-.28-.476,13.774,13.774,0,0,0-3.276-1.484A11.958,11.958,0,0,1,112.7-18.7a33.212,33.212,0,0,1-7.532,8.316,7.6,7.6,0,0,1,2.688,1.2.672.672,0,0,0,.42.168.87.87,0,0,0,.588-.308,39,39,0,0,0,5.292-5.74l6.776-.2a28.526,28.526,0,0,1-5.18,7.952,32.257,32.257,0,0,1-9.324,7.14,7.369,7.369,0,0,1,2.66,1.288.987.987,0,0,0,.644.308.757.757,0,0,0,.448-.14,35.564,35.564,0,0,0,8.512-6.972,38.593,38.593,0,0,0,5.544-8.652,3.372,3.372,0,0,1,.924-1.2.807.807,0,0,0,.336-.588.907.907,0,0,0-.364-.644,12.917,12.917,0,0,0-1.9-1.512.813.813,0,0,0-.448-.168.563.563,0,0,0-.364.112,2.6,2.6,0,0,1-1.4.336Zm21.168,1.6c-1.624,0-2.884,0-4.648-.112.056,1.036.112,2.044.224,2.716.028.336.14.5.42.476,1.316-.084,2.66-.14,4.032-.14h2.52a16.315,16.315,0,0,1-2.016,6.048A15.588,15.588,0,0,1,131.1-1.6,7.142,7.142,0,0,1,133.448.028a.719.719,0,0,0,.532.28,1.275,1.275,0,0,0,.644-.224,18.048,18.048,0,0,0,5.936-5.768,20.832,20.832,0,0,0,2.492-7.756h5.656a39.219,39.219,0,0,1-.84,8.4c-.336,1.26-.7,1.708-1.456,1.96a11.429,11.429,0,0,1-3.808.252A5.86,5.86,0,0,1,144.228-.28a.681.681,0,0,0,.672.56,11.835,11.835,0,0,0,2.828-.308c1.792-.448,2.744-1.624,3.3-3.78a47.729,47.729,0,0,0,1.036-9.212c.056-1.484.112-2.6.112-2.968,0-.308-.14-.392-.588-.392-1.288,0-2.6.056-3.892.056h-4.256c.14-1.372.168-2.044.252-2.94a2.608,2.608,0,0,1,.364-1.316,1.256,1.256,0,0,0,.14-.532.578.578,0,0,0-.476-.588,21.927,21.927,0,0,0-3.64-.588,10.766,10.766,0,0,1,.2,2.212c-.028,1.512-.084,2.408-.2,3.78ZM173.32-8.652c2.072,0,4.144.028,6.244.056.392.028.5-.084.5-.42a20.638,20.638,0,0,0,0-2.632c0-.336-.084-.42-.5-.392-2.156.028-4.312.084-6.44.084h-9.016a35.972,35.972,0,0,1-6.048-.336,30.39,30.39,0,0,0,.42,3.388c.084.42.308.588.644.588a22.391,22.391,0,0,1,4.116-.336Zm25.256-6.608c0-2.016,0-2.576.252-3.108a1.792,1.792,0,0,0,.224-.7c0-.224-.14-.392-.5-.476a26.72,26.72,0,0,0-3.5-.588,22.358,22.358,0,0,1,.28,4.872V-6.5c0,1.428.028,1.764-.168,2.128a.86.86,0,0,0-.112.42,1.117,1.117,0,0,0,.252.588,8.085,8.085,0,0,0,1.68,1.708,1.194,1.194,0,0,0,.588.224.889.889,0,0,0,.56-.224,9.3,9.3,0,0,1,.812-.588,46.5,46.5,0,0,0,4.984-3.36,35.392,35.392,0,0,0,4.144-3.668c.308-.308.42-.5.42-.7a1.394,1.394,0,0,0-.168-.476,8.071,8.071,0,0,1-.868-2.828,26.87,26.87,0,0,1-4.9,4.76,28.465,28.465,0,0,1-3.976,2.6ZM188.8-18.368a7.531,7.531,0,0,1,.28,2.352c-.028,4.48-.392,6.02-1.176,7.924A13.9,13.9,0,0,1,183.26-2.52a9.922,9.922,0,0,1,2.38,1.176.952.952,0,0,0,.532.224,1.27,1.27,0,0,0,.728-.364,14.424,14.424,0,0,0,3.976-5.264,20.956,20.956,0,0,0,1.512-8.232,4.039,4.039,0,0,1,.336-1.9c.168-.392.112-.728-.364-.868A22.637,22.637,0,0,0,188.8-18.368ZM1.708,32.62a32.2,32.2,0,0,0,2.6,2.464.577.577,0,0,0,.392.2.636.636,0,0,0,.5-.364,9.185,9.185,0,0,1,1.12-1.428c1.932-2.128,3.192-3.64,4.564-5.068a.585.585,0,0,1,.448-.224.693.693,0,0,1,.448.2,126.862,126.862,0,0,0,12.4,9.772.466.466,0,0,0,.308.112c.14,0,.28-.112.42-.308a16.407,16.407,0,0,0,1.456-2.436.488.488,0,0,0-.252-.756,88.922,88.922,0,0,1-12.544-9.1,3.24,3.24,0,0,0-2.436-1.148c-.868,0-1.4.308-2.52,1.484-1.316,1.4-2.688,2.828-4.06,4.228A12.892,12.892,0,0,1,1.708,32.62Zm46-7.784a19.916,19.916,0,0,1-5.012,4.9,6.457,6.457,0,0,1,2.324,1.148,1.1,1.1,0,0,0,.672.28.806.806,0,0,0,.588-.252,23.807,23.807,0,0,0,4.928-5.4,3.478,3.478,0,0,1,.756-.812.731.731,0,0,0,.392-.588.812.812,0,0,0-.224-.5,14.352,14.352,0,0,0-1.68-1.764.952.952,0,0,0-.644-.392,2.048,2.048,0,0,0-.532.2,5.9,5.9,0,0,1-1.932.168H35.336c-2.24,0-3.78-.056-5.684-.2a26.2,26.2,0,0,0,.5,3.024c.056.252.168.448.5.42,1.652-.112,3.36-.224,4.956-.224ZM31.332,41.1a7.879,7.879,0,0,1,2.548,1.428.792.792,0,0,0,.56.252,1.409,1.409,0,0,0,.784-.28,14.574,14.574,0,0,0,5.1-5.572,17.116,17.116,0,0,0,1.652-7.7,2.561,2.561,0,0,1,.252-1.148,1.141,1.141,0,0,0,.14-.5c0-.252-.112-.448-.476-.532a31.083,31.083,0,0,0-3.612-.532,10.123,10.123,0,0,1,.28,2.632,12.946,12.946,0,0,1-1.372,6.608C35.98,38,34.384,39.508,31.332,41.1Zm42.98-16.268a19.916,19.916,0,0,1-5.012,4.9,6.457,6.457,0,0,1,2.324,1.148,1.1,1.1,0,0,0,.672.28.806.806,0,0,0,.588-.252,23.807,23.807,0,0,0,4.928-5.4,3.478,3.478,0,0,1,.756-.812.731.731,0,0,0,.392-.588.812.812,0,0,0-.224-.5,14.352,14.352,0,0,0-1.68-1.764.952.952,0,0,0-.644-.392,2.048,2.048,0,0,0-.532.2,5.9,5.9,0,0,1-1.932.168H61.936c-2.24,0-3.78-.056-5.684-.2a26.2,26.2,0,0,0,.5,3.024c.056.252.168.448.5.42,1.652-.112,3.36-.224,4.956-.224ZM57.932,41.1a7.879,7.879,0,0,1,2.548,1.428.792.792,0,0,0,.56.252,1.409,1.409,0,0,0,.784-.28,14.574,14.574,0,0,0,5.1-5.572,17.116,17.116,0,0,0,1.652-7.7,2.561,2.561,0,0,1,.252-1.148,1.141,1.141,0,0,0,.14-.5c0-.252-.112-.448-.476-.532a31.083,31.083,0,0,0-3.612-.532,10.123,10.123,0,0,1,.28,2.632,12.947,12.947,0,0,1-1.372,6.608C62.58,38,60.984,39.508,57.932,41.1ZM95.592,27.5a44.322,44.322,0,0,0,3.276-3.528,9.225,9.225,0,0,1,1.68-1.54.8.8,0,0,0,.392-.616.5.5,0,0,0-.224-.42,24.911,24.911,0,0,0-3.108-1.96,8.116,8.116,0,0,1-1.764,2.884,45.429,45.429,0,0,1-5.964,5.852,44.948,44.948,0,0,1-8.82,5.74,10.48,10.48,0,0,1,2.408,1.652.78.78,0,0,0,.588.28.79.79,0,0,0,.42-.112,48.44,48.44,0,0,0,7.7-5.376v6.524c0,1.9-.084,3.724-.112,5.74-.028.336.084.448.392.448a23.354,23.354,0,0,0,2.8,0c.308,0,.448-.112.42-.476-.056-2.24-.084-3.892-.084-5.824Zm28.84,11.228v1.484c0,.392.028.448.364.448.84.028,1.736.028,2.576,0,.392,0,.532-.084.532-.476-.056-1.512-.14-2.884-.14-5.32V28.168c0-1.652.028-3.164.028-4.536.028-.42-.056-.56-.364-.56-1.316.056-3.444.056-5.264.056H115.5c-1.876,0-3.528,0-5.012-.084-.2,0-.308.112-.308.392.084,1.624.056,3.136.056,4.648v6.86c0,2.128-.056,4.116-.084,5.572-.028.336.112.392.588.42.7.028,1.512.028,2.212,0,.5-.028.616-.084.616-.56V38.724Zm0-2.968H113.54V26.1h10.892Zm10.92-11.2a29.639,29.639,0,0,1,5.712,4.564c.14.14.252.224.364.224s.2-.084.336-.224c.392-.42,1.316-1.54,1.736-2.1a.6.6,0,0,0,.168-.364c0-.112-.084-.224-.252-.392a29.2,29.2,0,0,0-5.348-3.976.746.746,0,0,0-.364-.14.524.524,0,0,0-.392.224C136.78,22.932,135.968,23.8,135.352,24.556Zm.616,13.972a19.4,19.4,0,0,0,2.24,3.108.726.726,0,0,0,.476.308.774.774,0,0,0,.5-.28,9.664,9.664,0,0,1,1.876-1.288,60.2,60.2,0,0,0,8.456-5.488,45.765,45.765,0,0,0,6.44-5.936c.308-.364.448-.588.448-.84a1.369,1.369,0,0,0-.14-.532,12.5,12.5,0,0,1-.784-3.276,42.067,42.067,0,0,1-7.672,7.616,41.5,41.5,0,0,1-8.064,5.208A16.867,16.867,0,0,1,135.968,38.528Z" transform="translate(158 128)" fill="#9f9f90"/>
    </g>
  </g>
</svg>
