<svg xmlns="http://www.w3.org/2000/svg" width="222.514" height="124.727" viewBox="0 0 222.514 124.727">
  <g id="グループ_3091" data-name="グループ 3091" transform="translate(-158.462 -62.144)">
    <path id="パス_1149" data-name="パス 1149" d="M.462-.791l3.587-3.78A11.723,11.723,0,0,0,4.9-5.548a3.049,3.049,0,0,0,.441-.766,2.11,2.11,0,0,0,.129-.731,1.474,1.474,0,0,0-.472-1.162,1.78,1.78,0,0,0-1.229-.42,2.361,2.361,0,0,0-1.3.359,3.229,3.229,0,0,0-1,1.1L.543-7.942A4.086,4.086,0,0,1,1.925-9.37a3.593,3.593,0,0,1,1.883-.486A3.287,3.287,0,0,1,5.364-9.5,2.54,2.54,0,0,1,6.4-8.521a2.874,2.874,0,0,1,.368,1.472,3.563,3.563,0,0,1-.151,1.073A3.35,3.35,0,0,1,6.1-5a12.4,12.4,0,0,1-1.026,1.18L2.174-.833ZM.462,0V-.791L1.575-1.18H6.983V0ZM12.306,0,9.139-9.716h1.306l2.52,7.92H12.6l2.478-7.92h.948L18.5-1.8h-.371l2.524-7.92h1.306L18.8,0h-.938L15.368-7.9h.361L13.244,0ZM22.764,0,26.75-9.716H27.7L31.654,0H30.229L26.964-8.222h.493L24.164,0Zm1.893-2.2V-3.35h5.117V-2.2Zm11.288-1.75L32.123-9.716h1.533L36.736-5H36.05l3.091-4.718h1.5l-3.85,5.768ZM35.728,0V-4.819h1.319V0ZM46.935,0V-9.716h1.319V0Zm6.272,0V-9.716h1.319V0Zm-5.38-4.42v-1.2h5.7v1.2ZM57.218,0,61.2-9.716h.945L66.108,0H64.684L61.418-8.222h.493L58.618,0Zm1.894-2.2V-3.35h5.117V-2.2ZM68.688,0V-9.716h1.319V0ZM74.3-4.232v-1.1h2.635a1.832,1.832,0,0,0,1.307-.434,1.548,1.548,0,0,0,.46-1.183,1.577,1.577,0,0,0-.455-1.158,1.754,1.754,0,0,0-1.3-.458H74.3V-9.716h2.681a3.45,3.45,0,0,1,1.614.357,2.609,2.609,0,0,1,1.059.977,2.689,2.689,0,0,1,.373,1.414,2.722,2.722,0,0,1-.373,1.44,2.516,2.516,0,0,1-1.059.955,3.582,3.582,0,0,1-1.614.341ZM73.416,0V-9.716h1.319V0Zm5.6,0L75.5-4.354l1.246-.431L80.689,0Zm8.368,0V-9.716H88.7V0ZM93-4.232v-1.1h2.635a1.832,1.832,0,0,0,1.307-.434,1.548,1.548,0,0,0,.46-1.183,1.577,1.577,0,0,0-.455-1.158,1.754,1.754,0,0,0-1.3-.458H93V-9.716h2.681a3.45,3.45,0,0,1,1.614.357,2.609,2.609,0,0,1,1.059.977,2.689,2.689,0,0,1,.373,1.414,2.722,2.722,0,0,1-.373,1.44,2.516,2.516,0,0,1-1.059.955,3.582,3.582,0,0,1-1.614.341ZM92.113,0V-9.716h1.319V0Zm5.6,0L94.192-4.354l1.246-.431L99.386,0Zm8.428.14a4.81,4.81,0,0,1-1.93-.387,4.871,4.871,0,0,1-1.566-1.074,4.991,4.991,0,0,1-1.048-1.6,5.06,5.06,0,0,1-.376-1.953,5.038,5.038,0,0,1,.374-1.95,4.991,4.991,0,0,1,1.041-1.587,4.789,4.789,0,0,1,1.554-1.066,4.817,4.817,0,0,1,1.923-.382,4.829,4.829,0,0,1,1.925.382A4.823,4.823,0,0,1,109.6-8.409a4.965,4.965,0,0,1,1.047,1.594,5.07,5.07,0,0,1,.376,1.957,5.081,5.081,0,0,1-.375,1.953A4.93,4.93,0,0,1,109.6-1.314a4.891,4.891,0,0,1-1.552,1.067A4.722,4.722,0,0,1,106.141.14Zm-.028-1.263a3.476,3.476,0,0,0,1.839-.483,3.426,3.426,0,0,0,1.253-1.328,4.01,4.01,0,0,0,.457-1.937,4.1,4.1,0,0,0-.263-1.491,3.566,3.566,0,0,0-.738-1.181,3.3,3.3,0,0,0-1.122-.775,3.627,3.627,0,0,0-1.426-.273,3.5,3.5,0,0,0-1.829.476A3.375,3.375,0,0,0,103.033-6.8a3.982,3.982,0,0,0-.455,1.93,4.2,4.2,0,0,0,.262,1.5,3.544,3.544,0,0,0,.733,1.19A3.315,3.315,0,0,0,104.7-1.4,3.569,3.569,0,0,0,106.113-1.123ZM113.946,0V-9.716h.924l.4,1.533V0Zm6.727,0L114.7-7.959l.171-1.757,5.975,7.959Zm0,0-.4-1.439V-9.716h1.32V0Z" transform="translate(158 72)" fill="#9f9f90"/>
    <path id="パス_1148" data-name="パス 1148" d="M3.458.14A4.084,4.084,0,0,1,1.725-.219,3.483,3.483,0,0,1,.417-1.263l.893-.892a2.247,2.247,0,0,0,.887.775A2.714,2.714,0,0,0,3.437-1.1a2.4,2.4,0,0,0,1.12-.245,1.824,1.824,0,0,0,.74-.691,1.964,1.964,0,0,0,.268-1.031A1.957,1.957,0,0,0,5.3-4.107a1.8,1.8,0,0,0-.758-.677,2.628,2.628,0,0,0-1.173-.241,3.877,3.877,0,0,0-.5.033,2.923,2.923,0,0,0-.483.1l.556-.749a2.993,2.993,0,0,1,.569-.2,2.668,2.668,0,0,1,.625-.073,2.719,2.719,0,0,1,1.405.368,2.677,2.677,0,0,1,.991,1.02A3.059,3.059,0,0,1,6.895-3a3.06,3.06,0,0,1-.436,1.636A2.993,2.993,0,0,1,5.252-.257,3.867,3.867,0,0,1,3.458.14ZM2.384-4.889v-.791L5.219-8.922l1.564,0L3.861-5.618ZM.875-8.536V-9.716H6.783v.791l-1.137.389ZM9.247-.791l3.587-3.78a11.723,11.723,0,0,0,.847-.977,3.049,3.049,0,0,0,.441-.766,2.11,2.11,0,0,0,.13-.731,1.474,1.474,0,0,0-.472-1.162,1.78,1.78,0,0,0-1.229-.42,2.361,2.361,0,0,0-1.3.359,3.229,3.229,0,0,0-1,1.1l-.921-.773A4.086,4.086,0,0,1,10.71-9.37a3.593,3.593,0,0,1,1.883-.486,3.287,3.287,0,0,1,1.556.352,2.54,2.54,0,0,1,1.034.984,2.874,2.874,0,0,1,.368,1.472A3.563,3.563,0,0,1,15.4-5.976,3.35,3.35,0,0,1,14.882-5a12.4,12.4,0,0,1-1.026,1.18l-2.9,2.989Zm0,.791V-.791L10.36-1.18h5.408V0Zm9.285,0V-6.65H19.8V0Zm4.5,0V-4.018a1.52,1.52,0,0,0-.455-1.167,1.6,1.6,0,0,0-1.137-.425,1.771,1.771,0,0,0-.831.193,1.5,1.5,0,0,0-.59.546,1.568,1.568,0,0,0-.22.847l-.525-.256A2.533,2.533,0,0,1,19.605-5.6a2.354,2.354,0,0,1,.906-.873,2.627,2.627,0,0,1,1.283-.313,2.615,2.615,0,0,1,1.272.308,2.3,2.3,0,0,1,.9.868,2.583,2.583,0,0,1,.331,1.337V0Zm4.5,0V-4.018a1.52,1.52,0,0,0-.455-1.167,1.6,1.6,0,0,0-1.138-.425,1.78,1.78,0,0,0-.826.193,1.492,1.492,0,0,0-.595.546,1.568,1.568,0,0,0-.221.847l-.724-.256a2.7,2.7,0,0,1,.42-1.325,2.578,2.578,0,0,1,.956-.871,2.711,2.711,0,0,1,1.295-.313,2.7,2.7,0,0,1,1.293.308,2.355,2.355,0,0,1,.917.87,2.529,2.529,0,0,1,.341,1.339V0Zm4.235,0V-6.65h1.264V0Zm4.5,0V-4.018a1.52,1.52,0,0,0-.455-1.167,1.6,1.6,0,0,0-1.138-.425,1.771,1.771,0,0,0-.831.193,1.5,1.5,0,0,0-.59.546,1.568,1.568,0,0,0-.22.847L32.5-4.281A2.533,2.533,0,0,1,32.835-5.6a2.353,2.353,0,0,1,.906-.873,2.627,2.627,0,0,1,1.283-.313,2.615,2.615,0,0,1,1.272.308,2.3,2.3,0,0,1,.9.868,2.583,2.583,0,0,1,.331,1.337V0Zm4.5,0V-4.018A1.52,1.52,0,0,0,40.3-5.185a1.6,1.6,0,0,0-1.137-.425,1.78,1.78,0,0,0-.826.193,1.492,1.492,0,0,0-.595.546,1.568,1.568,0,0,0-.221.847L36.8-4.281a2.7,2.7,0,0,1,.42-1.325,2.578,2.578,0,0,1,.956-.871,2.711,2.711,0,0,1,1.295-.313,2.7,2.7,0,0,1,1.293.308,2.355,2.355,0,0,1,.917.87,2.529,2.529,0,0,1,.341,1.339V0Z" transform="translate(158.473 185.998) rotate(1)" fill="#4e4e4e"/>
    <path id="パス_1147" data-name="パス 1147" d="M4.628-13.962c.156-2.366,1.17-3.588,2.808-3.588a2.476,2.476,0,0,1,2.6,2.756c0,1.638-.572,2.678-3.172,5.174A25.108,25.108,0,0,0,1.2-2.262V.052h12.3v-2.6H4.576C5.382-4.16,6.682-5.616,9.412-8.06c3.042-2.834,4-4.5,4-6.708,0-3.432-2.366-5.356-5.928-5.356a5.812,5.812,0,0,0-6.11,5.486Zm33.436-6.162H34.71l-1.56,9.438c-.39,2.5-.624,4.55-1.014,7.254h-.364c-.286-2.678-.6-4.81-.988-7.1l-1.69-9.594H24.6l-1.638,9.282c-.442,2.418-.7,4.888-1.066,7.41h-.364c-.312-2.574-.65-5.018-1.014-7.488l-1.456-9.2H15.5L19.422.052h4.316l1.638-9.49c.468-2.574.754-4.81,1.118-7.462h.364c.364,2.626.624,4.862,1.118,7.566L29.718.052h4.316Zm10.452,0H44.278L38.09.052h3.328L43.16-5.876h6.188L51.064.052H54.73Zm.208,11.648h-4.94l1.092-4.108c.442-1.56.806-3.016,1.248-4.94h.234c.442,1.9.754,3.38,1.2,4.966ZM71.266-20.124H67.678L63.8-12.636c-.286.494-.416.754-.65,1.248-.234-.468-.364-.754-.624-1.222l-4-7.514h-3.9l6.5,11.83V.052h3.536V-8.294ZM80.86-18.07c-1.69,0-2.99,0-4.394-.1a15.148,15.148,0,0,0,.234,2.7c.052.286.13.468.338.442,1.4-.1,2.756-.156,4.108-.156l6.708-.026a31.892,31.892,0,0,1-4.888,6.526,31.582,31.582,0,0,1-9.152,6.63A7.123,7.123,0,0,1,76-.364a.581.581,0,0,0,.442.234,1.646,1.646,0,0,0,.6-.208A37.406,37.406,0,0,0,85.774-7.2a47.327,47.327,0,0,1,6.76,6.448.534.534,0,0,0,.364.208A.449.449,0,0,0,93.21-.7,13.931,13.931,0,0,0,94.952-2.47a.643.643,0,0,0,.182-.39.591.591,0,0,0-.208-.364,61.131,61.131,0,0,0-7.2-6.292,41.029,41.029,0,0,0,3.328-4.862,4.761,4.761,0,0,1,.962-1.144.718.718,0,0,0,.338-.52.693.693,0,0,0-.13-.338,9.478,9.478,0,0,0-1.69-1.82.859.859,0,0,0-.442-.208.433.433,0,0,0-.286.1,3.818,3.818,0,0,1-1.794.234Zm29.146.988a6.771,6.771,0,0,1,.182-2.444,1.368,1.368,0,0,0,.208-.6c0-.208-.13-.364-.494-.442a19.191,19.191,0,0,0-3.25-.416,19.839,19.839,0,0,1,.26,3.848V-4.342c0,1.664-.026,3.2-.1,5.122,0,.312.13.39.494.39a17.182,17.182,0,0,0,2.314,0c.364,0,.494-.078.468-.39-.052-1.872-.1-3.406-.1-5.1v-5.746a28.8,28.8,0,0,1,6.838,3.328.4.4,0,0,0,.286.13c.13,0,.234-.1.338-.286a15.281,15.281,0,0,0,1.118-2.262c.13-.338,0-.52-.286-.676a36.675,36.675,0,0,0-8.268-3.536Zm22.75,2.964a10.7,10.7,0,0,1,.286-3.224,1.986,1.986,0,0,0,.13-.546.5.5,0,0,0-.416-.494,26.453,26.453,0,0,0-3.38-.572,24.586,24.586,0,0,1,.286,4.524l-.052,9.776a5.128,5.128,0,0,1-.1,1.482,1.055,1.055,0,0,0-.13.442.637.637,0,0,0,.156.416,8.02,8.02,0,0,0,1.586,1.768.694.694,0,0,0,.442.208.754.754,0,0,0,.468-.208,6,6,0,0,1,1.456-.832,58.166,58.166,0,0,0,6.37-3.224,42.071,42.071,0,0,0,6.5-4.472.821.821,0,0,0,.26-1.04,11.7,11.7,0,0,1-.416-3.016,32.13,32.13,0,0,1-6.89,5.3,42.752,42.752,0,0,1-6.63,3.276Zm30.888,6.084c1.924,0,3.848.026,5.8.052.364.026.468-.078.468-.39a19.163,19.163,0,0,0,0-2.444c0-.312-.078-.39-.468-.364-2,.026-4,.078-5.98.078H155.09a33.4,33.4,0,0,1-5.616-.312,28.222,28.222,0,0,0,.39,3.146c.078.39.286.546.6.546a20.791,20.791,0,0,1,3.822-.312Zm18.122-9.048a6.771,6.771,0,0,1,.182-2.444,1.368,1.368,0,0,0,.208-.6c0-.208-.13-.364-.494-.442a19.191,19.191,0,0,0-3.25-.416,19.838,19.838,0,0,1,.26,3.848V-4.342c0,1.664-.026,3.2-.1,5.122,0,.312.13.39.494.39a17.182,17.182,0,0,0,2.314,0c.364,0,.494-.078.468-.39-.052-1.872-.1-3.406-.1-5.1v-5.746a28.8,28.8,0,0,1,6.838,3.328.4.4,0,0,0,.286.13c.13,0,.234-.1.338-.286a15.281,15.281,0,0,0,1.118-2.262c.13-.338,0-.52-.286-.676a36.675,36.675,0,0,0-8.268-3.536ZM205.433-6.545a7.093,7.093,0,0,1-.765,3.332,43.343,43.343,0,0,1-2.907-3.825c2.21-.646,3.128-1.666,3.128-3.3,0-1.768-1.326-2.822-3.247-2.822a3.036,3.036,0,0,0-3.332,2.975,4.408,4.408,0,0,0,.969,2.652c-1.921.884-2.8,2.023-2.8,3.842,0,2.38,1.8,3.961,4.42,3.961A5.057,5.057,0,0,0,204.379-.85,3.176,3.176,0,0,0,207.15.255h.578l.425-1.53a2.531,2.531,0,0,1-2.38-.9,7.166,7.166,0,0,0,1.462-3.978Zm-5.44.136a37.782,37.782,0,0,0,3.383,4.488,3.034,3.034,0,0,1-2.057.68,2.708,2.708,0,0,1-2.856-2.72A2.533,2.533,0,0,1,199.993-6.409Zm1.054-1.734a3.688,3.688,0,0,1-.816-2.108,1.413,1.413,0,0,1,1.411-1.479,1.3,1.3,0,0,1,1.343,1.377C202.985-9.3,202.509-8.636,201.047-8.143ZM8.008,26.868c-1.508,0-2.678,0-4.316-.1.052.962.1,1.9.208,2.522.026.312.13.468.39.442,1.222-.078,2.47-.13,3.744-.13h2.34A15.15,15.15,0,0,1,8.5,35.214a14.474,14.474,0,0,1-6.11,5.3,6.632,6.632,0,0,1,2.184,1.508.668.668,0,0,0,.494.26,1.184,1.184,0,0,0,.6-.208,16.759,16.759,0,0,0,5.512-5.356,19.344,19.344,0,0,0,2.314-7.2h5.252a36.417,36.417,0,0,1-.78,7.8c-.312,1.17-.65,1.586-1.352,1.82a10.613,10.613,0,0,1-3.536.234,5.441,5.441,0,0,1,1.508,2.366.632.632,0,0,0,.624.52,10.99,10.99,0,0,0,2.626-.286c1.664-.416,2.548-1.508,3.068-3.51a44.32,44.32,0,0,0,.962-8.554c.052-1.378.1-2.418.1-2.756,0-.286-.13-.364-.546-.364-1.2,0-2.418.052-3.614.052H13.858c.13-1.274.156-1.9.234-2.73a2.422,2.422,0,0,1,.338-1.222,1.166,1.166,0,0,0,.13-.494.537.537,0,0,0-.442-.546,20.361,20.361,0,0,0-3.38-.546,10,10,0,0,1,.182,2.054c-.026,1.4-.078,2.236-.182,3.51Zm31.512,7.1c1.924,0,3.848.026,5.8.052.364.026.468-.078.468-.39a19.163,19.163,0,0,0,0-2.444c0-.312-.078-.39-.468-.364-2,.026-4,.078-5.98.078H30.966a33.4,33.4,0,0,1-5.616-.312,28.219,28.219,0,0,0,.39,3.146c.078.39.286.546.6.546a20.791,20.791,0,0,1,3.822-.312ZM60.892,27.83c0-1.872,0-2.392.234-2.886a1.664,1.664,0,0,0,.208-.65c0-.208-.13-.364-.468-.442a24.811,24.811,0,0,0-3.25-.546,20.761,20.761,0,0,1,.26,4.524v8.138c0,1.326.026,1.638-.156,1.976a.8.8,0,0,0-.1.39,1.037,1.037,0,0,0,.234.546,7.508,7.508,0,0,0,1.56,1.586,1.109,1.109,0,0,0,.546.208.826.826,0,0,0,.52-.208,8.634,8.634,0,0,1,.754-.546,43.178,43.178,0,0,0,4.628-3.12,32.865,32.865,0,0,0,3.848-3.406c.286-.286.39-.468.39-.65a1.294,1.294,0,0,0-.156-.442,7.5,7.5,0,0,1-.806-2.626,24.951,24.951,0,0,1-4.55,4.42,26.432,26.432,0,0,1-3.692,2.418Zm-9.074-2.886a6.993,6.993,0,0,1,.26,2.184c-.026,4.16-.364,5.59-1.092,7.358A12.908,12.908,0,0,1,46.67,39.66a9.214,9.214,0,0,1,2.21,1.092.884.884,0,0,0,.494.208,1.179,1.179,0,0,0,.676-.338,13.394,13.394,0,0,0,3.692-4.888,19.459,19.459,0,0,0,1.4-7.644,3.751,3.751,0,0,1,.312-1.768c.156-.364.1-.676-.338-.806A21.019,21.019,0,0,0,51.818,24.944ZM72.826,33.29a29.9,29.9,0,0,0,2.418,2.288.536.536,0,0,0,.364.182.59.59,0,0,0,.468-.338,8.53,8.53,0,0,1,1.04-1.326c1.794-1.976,2.964-3.38,4.238-4.706a.543.543,0,0,1,.416-.208.643.643,0,0,1,.416.182A117.8,117.8,0,0,0,93.7,38.438a.433.433,0,0,0,.286.1c.13,0,.26-.1.39-.286a15.235,15.235,0,0,0,1.352-2.262.453.453,0,0,0-.234-.7,82.571,82.571,0,0,1-11.648-8.45,3.008,3.008,0,0,0-2.262-1.066c-.806,0-1.3.286-2.34,1.378-1.222,1.3-2.5,2.626-3.77,3.926A11.971,11.971,0,0,1,72.826,33.29Zm44.018-7.228a18.494,18.494,0,0,1-4.654,4.55,6,6,0,0,1,2.158,1.066,1.017,1.017,0,0,0,.624.26.748.748,0,0,0,.546-.234,22.107,22.107,0,0,0,4.576-5.018,3.23,3.23,0,0,1,.7-.754.679.679,0,0,0,.364-.546.754.754,0,0,0-.208-.468,13.326,13.326,0,0,0-1.56-1.638.884.884,0,0,0-.6-.364,1.9,1.9,0,0,0-.494.182,5.477,5.477,0,0,1-1.794.156H105.352c-2.08,0-3.51-.052-5.278-.182a24.326,24.326,0,0,0,.468,2.808c.052.234.156.416.468.39,1.534-.1,3.12-.208,4.6-.208Zm-15.21,15.106A7.317,7.317,0,0,1,104,42.494a.736.736,0,0,0,.52.234,1.308,1.308,0,0,0,.728-.26,13.533,13.533,0,0,0,4.732-5.174,15.894,15.894,0,0,0,1.534-7.15,2.378,2.378,0,0,1,.234-1.066,1.059,1.059,0,0,0,.13-.468c0-.234-.1-.416-.442-.494a28.863,28.863,0,0,0-3.354-.494,9.4,9.4,0,0,1,.26,2.444,12.022,12.022,0,0,1-1.274,6.136A11.513,11.513,0,0,1,101.634,41.168Zm41.21-15.106a18.494,18.494,0,0,1-4.654,4.55,6,6,0,0,1,2.158,1.066,1.017,1.017,0,0,0,.624.26.748.748,0,0,0,.546-.234,22.107,22.107,0,0,0,4.576-5.018,3.23,3.23,0,0,1,.7-.754.679.679,0,0,0,.364-.546.754.754,0,0,0-.208-.468,13.326,13.326,0,0,0-1.56-1.638.884.884,0,0,0-.6-.364,1.9,1.9,0,0,0-.494.182,5.477,5.477,0,0,1-1.794.156H131.352c-2.08,0-3.51-.052-5.278-.182a24.326,24.326,0,0,0,.468,2.808c.052.234.156.416.468.39,1.534-.1,3.12-.208,4.6-.208Zm-15.21,15.106A7.317,7.317,0,0,1,130,42.494a.736.736,0,0,0,.52.234,1.308,1.308,0,0,0,.728-.26,13.533,13.533,0,0,0,4.732-5.174,15.894,15.894,0,0,0,1.534-7.15,2.378,2.378,0,0,1,.234-1.066,1.059,1.059,0,0,0,.13-.468c0-.234-.1-.416-.442-.494a28.863,28.863,0,0,0-3.354-.494,9.4,9.4,0,0,1,.26,2.444,12.022,12.022,0,0,1-1.274,6.136A11.513,11.513,0,0,1,127.634,41.168ZM163.9,28.532a41.155,41.155,0,0,0,3.042-3.276,8.566,8.566,0,0,1,1.56-1.43.744.744,0,0,0,.364-.572.46.46,0,0,0-.208-.39,23.132,23.132,0,0,0-2.886-1.82,7.536,7.536,0,0,1-1.638,2.678,42.184,42.184,0,0,1-5.538,5.434,41.737,41.737,0,0,1-8.19,5.33,9.732,9.732,0,0,1,2.236,1.534.725.725,0,0,0,.546.26.734.734,0,0,0,.39-.1,44.98,44.98,0,0,0,7.15-4.992v6.058c0,1.768-.078,3.458-.1,5.33-.026.312.078.416.364.416a21.685,21.685,0,0,0,2.6,0c.286,0,.416-.1.39-.442-.052-2.08-.078-3.614-.078-5.408Zm28.08,10.426v1.378c0,.364.026.416.338.416.78.026,1.612.026,2.392,0,.364,0,.494-.078.494-.442-.052-1.4-.13-2.678-.13-4.94V29.156c0-1.534.026-2.938.026-4.212.026-.39-.052-.52-.338-.52-1.222.052-3.2.052-4.888.052H183.69c-1.742,0-3.276,0-4.654-.078-.182,0-.286.1-.286.364.078,1.508.052,2.912.052,4.316v6.37c0,1.976-.052,3.822-.078,5.174-.026.312.1.364.546.39.65.026,1.4.026,2.054,0,.468-.026.572-.078.572-.52V38.958Zm0-2.756H181.87v-8.97h10.114Zm11.44-10.4a27.522,27.522,0,0,1,5.3,4.238c.13.13.234.208.338.208s.182-.078.312-.208c.364-.39,1.222-1.43,1.612-1.95a.559.559,0,0,0,.156-.338c0-.1-.078-.208-.234-.364a27.111,27.111,0,0,0-4.966-3.692.693.693,0,0,0-.338-.13.487.487,0,0,0-.364.208C204.75,24.294,204,25.1,203.424,25.8ZM204,38.776a18.014,18.014,0,0,0,2.08,2.886.674.674,0,0,0,.442.286.719.719,0,0,0,.468-.26,8.974,8.974,0,0,1,1.742-1.2,55.9,55.9,0,0,0,7.852-5.1,42.5,42.5,0,0,0,5.98-5.512c.286-.338.416-.546.416-.78a1.272,1.272,0,0,0-.13-.494,11.605,11.605,0,0,1-.728-3.042,39.061,39.061,0,0,1-7.124,7.072,38.539,38.539,0,0,1-7.488,4.836A15.663,15.663,0,0,1,204,38.776Z" transform="translate(158 107)" fill="#9f9f90"/>
  </g>
</svg>
