<svg xmlns="http://www.w3.org/2000/svg" width="212.243" height="85.5" viewBox="0 0 212.243 85.5">
  <path id="パス_1146" data-name="パス 1146" d="M12.56-2.12a6.356,6.356,0,0,0,3.66-1.2,5.355,5.355,0,0,0,2.06-4.4,4.94,4.94,0,0,0-4.9-5.04h-.32c-.06-.68-.16-1.42-.26-2.08a4.9,4.9,0,0,1,.04-.54c0-.2-.1-.32-.46-.38a8.2,8.2,0,0,0-2.32-.06,3.859,3.859,0,0,1,.52,1.38c.1.52.2,1.12.28,1.82A9.1,9.1,0,0,0,6.7-10.54,10.8,10.8,0,0,0,4.18-6.8c.04-1.12.08-1.62.14-2.3.08-.7.18-1.54.48-3a2.646,2.646,0,0,1,.3-.78,1.168,1.168,0,0,0,.08-.36.37.37,0,0,0-.28-.38,10.982,10.982,0,0,0-2.3-.66,3.181,3.181,0,0,1,.06.82c0,.5-.06,1.22-.12,1.92-.24,2.22-.34,4-.34,5.08a18.288,18.288,0,0,0,.46,3.98.336.336,0,0,0,.36.32,11.72,11.72,0,0,0,1.4-.26c.26-.06.4-.14.38-.36a5.492,5.492,0,0,1,.34-2.44,10.816,10.816,0,0,1,2.3-3.44A7.038,7.038,0,0,1,11-10.72c.08,1,.12,1.7.12,2.7a18.41,18.41,0,0,1-.36,3.7,3.987,3.987,0,0,1-1.58-.82A4.765,4.765,0,0,1,7.92-6.98,6.466,6.466,0,0,1,7.24-5.4a.566.566,0,0,0-.14.32.763.763,0,0,0,.08.26A4.342,4.342,0,0,0,8.2-3.46a5.1,5.1,0,0,0,1.74.98,8,8,0,0,1-3,2.8,4.915,4.915,0,0,1,1.56.82.645.645,0,0,0,.4.18.831.831,0,0,0,.48-.2A9.882,9.882,0,0,0,12.2-2.12Zm.38-2.02a21.148,21.148,0,0,0,.36-3.78c0-.72-.02-1.52-.08-2.92a2.8,2.8,0,0,1,2.86,3.02A3.423,3.423,0,0,1,14.72-4.8,3.17,3.17,0,0,1,12.94-4.14Zm17.4-4.3c1.52-1.46,2.86-2.86,4.32-4.28a3.228,3.228,0,0,1,.88-.64.529.529,0,0,0,.34-.48.694.694,0,0,0-.22-.48,7.568,7.568,0,0,0-1.34-1.28.713.713,0,0,0-.46-.16,1.033,1.033,0,0,0-.38.16,5.307,5.307,0,0,1-1.1.3c-1.56.3-3.32.56-4.54.68a9.639,9.639,0,0,1-1.86-.04,9.576,9.576,0,0,0,.7,2.16.455.455,0,0,0,.44.34,1.467,1.467,0,0,0,.4-.1,6.156,6.156,0,0,1,.84-.24c1.24-.26,2.66-.54,3.86-.76-.92,1.14-1.86,2.14-3.1,3.42a48.142,48.142,0,0,1-4.74,4.42c-.16.16-.22.3-.1.46a9,9,0,0,0,1.18,1.3.491.491,0,0,0,.3.18c.1,0,.2-.08.34-.22.6-.6,1.16-1.18,1.74-1.7a8.142,8.142,0,0,1,5.12-2.12A2.92,2.92,0,0,1,36.1-4.5a3.013,3.013,0,0,1-2.04,3.04A3.64,3.64,0,0,0,30.3-4.38a2.654,2.654,0,0,0-2.82,2.44C27.48-.08,29,1,31.52,1,35.8,1,38.5-1.14,38.5-4.48a4.642,4.642,0,0,0-4.96-4.8,6.019,6.019,0,0,0-3.18.9ZM32.08-.96a4.379,4.379,0,0,1-.92.08c-1.2,0-1.74-.42-1.74-1.04,0-.42.38-.76.96-.76C31.22-2.68,31.82-2.06,32.08-.96Zm14.2-6.82a10.223,10.223,0,0,0,1.08,1.94c.2.24.34.36.52.36a.625.625,0,0,0,.4-.2A6.42,6.42,0,0,1,49.4-6.3a17.9,17.9,0,0,1,5.66-1.56c1.6,0,2.48.78,2.48,2.2a3.128,3.128,0,0,1-1.8,2.98A14.534,14.534,0,0,1,50.92-1.3,4.2,4.2,0,0,1,52.14.02c.14.26.3.34.66.28a10.85,10.85,0,0,0,4.14-1.32A4.78,4.78,0,0,0,59.8-5.5a4.227,4.227,0,0,0-4.56-4.28A19.658,19.658,0,0,0,49.4-8.56,21.528,21.528,0,0,1,46.28-7.78Zm24.68-8.08a8.949,8.949,0,0,1,.52,2.32,30.352,30.352,0,0,0,1.04,4.88c-2.34,1.48-3.8,2.94-3.8,5.16,0,2.6,2,3.84,5.78,3.84a42.739,42.739,0,0,0,5.96-.3c.24-.02.38-.12.36-.34a17.661,17.661,0,0,0-.2-1.86c-.04-.24-.14-.28-.36-.24a34.929,34.929,0,0,1-6.1.46c-2.3,0-3.18-.5-3.18-1.68,0-.94.62-1.88,2.36-3.02a27.831,27.831,0,0,1,4.7-2.34,9.6,9.6,0,0,1,1.92-.6c.28-.04.4-.2.4-.4a.81.81,0,0,0-.14-.42,10.27,10.27,0,0,0-1.46-1.88,4.947,4.947,0,0,1-1.38,1.08c-1.12.6-1.84.98-2.84,1.52a28.122,28.122,0,0,1-.64-3.44c-.04-.46-.1-.94-.1-1.34,0-.28.14-.56.14-.84,0-.16-.12-.26-.36-.32A11.575,11.575,0,0,0,70.96-15.86Zm21.6,4.22c-1.16,0-2.06,0-3.32-.08.04.74.08,1.46.16,1.94.02.24.1.36.3.34.94-.06,1.9-.1,2.88-.1h1.8a11.654,11.654,0,0,1-1.44,4.32,11.134,11.134,0,0,1-4.7,4.08A5.1,5.1,0,0,1,89.92.02a.514.514,0,0,0,.38.2.911.911,0,0,0,.46-.16A12.892,12.892,0,0,0,95-4.06,14.88,14.88,0,0,0,96.78-9.6h4.04a28.013,28.013,0,0,1-.6,6c-.24.9-.5,1.22-1.04,1.4a8.164,8.164,0,0,1-2.72.18A4.185,4.185,0,0,1,97.62-.2a.486.486,0,0,0,.48.4,8.454,8.454,0,0,0,2.02-.22c1.28-.32,1.96-1.16,2.36-2.7a34.092,34.092,0,0,0,.74-6.58c.04-1.06.08-1.86.08-2.12,0-.22-.1-.28-.42-.28-.92,0-1.86.04-2.78.04H97.06c.1-.98.12-1.46.18-2.1a1.863,1.863,0,0,1,.26-.94.9.9,0,0,0,.1-.38.413.413,0,0,0-.34-.42,15.662,15.662,0,0,0-2.6-.42,7.69,7.69,0,0,1,.14,1.58c-.02,1.08-.06,1.72-.14,2.7ZM121-6.18c1.48,0,2.96.02,4.46.04.28.02.36-.06.36-.3a14.741,14.741,0,0,0,0-1.88c0-.24-.06-.3-.36-.28-1.54.02-3.08.06-4.6.06h-6.44a25.694,25.694,0,0,1-4.32-.24,21.707,21.707,0,0,0,.3,2.42c.06.3.22.42.46.42a15.993,15.993,0,0,1,2.94-.24Zm20.64-4.72a5.534,5.534,0,0,1,.18-2.22,1.28,1.28,0,0,0,.16-.5c0-.16-.1-.28-.36-.34a19.085,19.085,0,0,0-2.5-.42,15.97,15.97,0,0,1,.2,3.48v6.26c0,1.02.02,1.26-.12,1.52a.614.614,0,0,0-.08.3.8.8,0,0,0,.18.42,5.776,5.776,0,0,0,1.2,1.22.853.853,0,0,0,.42.16.635.635,0,0,0,.4-.16,6.64,6.64,0,0,1,.58-.42A33.213,33.213,0,0,0,145.46-4a25.281,25.281,0,0,0,2.96-2.62c.22-.22.3-.36.3-.5a1,1,0,0,0-.12-.34,5.765,5.765,0,0,1-.62-2.02,19.193,19.193,0,0,1-3.5,3.4,20.332,20.332,0,0,1-2.84,1.86Zm-6.98-2.22a5.379,5.379,0,0,1,.2,1.68c-.02,3.2-.28,4.3-.84,5.66A9.929,9.929,0,0,1,130.7-1.8a7.087,7.087,0,0,1,1.7.84.68.68,0,0,0,.38.16.907.907,0,0,0,.52-.26,10.3,10.3,0,0,0,2.84-3.76,14.968,14.968,0,0,0,1.08-5.88,2.885,2.885,0,0,1,.24-1.36c.12-.28.08-.52-.26-.62A16.17,16.17,0,0,0,134.66-13.12ZM.94,30.58a5.549,5.549,0,0,1,1.76.86.673.673,0,0,0,.46.2.754.754,0,0,0,.56-.3A22.037,22.037,0,0,0,8,24.62a3.833,3.833,0,0,1,.7-1.22.593.593,0,0,0,.2-.4.344.344,0,0,0-.24-.32,19.769,19.769,0,0,0-2.48-1.02,10,10,0,0,1-.9,2.96A17.716,17.716,0,0,1,.94,30.58Zm10.22-7.6a26.151,26.151,0,0,1,4.94,7.78c.08.26.22.3.48.18a12.092,12.092,0,0,0,1.66-1.06.387.387,0,0,0,.2-.32.5.5,0,0,0-.08-.28,25.136,25.136,0,0,0-5.02-7.34.408.408,0,0,0-.3-.16.477.477,0,0,0-.28.12C12.42,22.12,11.88,22.5,11.16,22.98ZM34.6,27.82c1.48,0,2.96.02,4.46.04.28.02.36-.06.36-.3a14.741,14.741,0,0,0,0-1.88c0-.24-.06-.3-.36-.28-1.54.02-3.08.06-4.6.06H28.02a25.694,25.694,0,0,1-4.32-.24,21.707,21.707,0,0,0,.3,2.42c.06.3.22.42.46.42a15.993,15.993,0,0,1,2.94-.24Zm22.6-5.46a16.834,16.834,0,0,1-3.38,5.7,19.329,19.329,0,0,1-6.54,5,5.947,5.947,0,0,1,1.86,1.1.7.7,0,0,0,.5.22.968.968,0,0,0,.54-.18,22.427,22.427,0,0,0,5.68-4.76,23.552,23.552,0,0,0,3.88-6.5,2.408,2.408,0,0,1,.46-.78.682.682,0,0,0,.28-.5.5.5,0,0,0-.14-.34A6.155,6.155,0,0,0,58.88,20a.978.978,0,0,0-.38-.1.564.564,0,0,0-.3.08,1.913,1.913,0,0,1-1.1.2H49.96a35,35,0,0,1-3.84-.14c.04.58.12,1.62.18,2.02.04.28.12.42.38.4.86-.04,2-.1,3.3-.1Zm22.68-.62a14.226,14.226,0,0,1-3.58,3.5,4.612,4.612,0,0,1,1.66.82.782.782,0,0,0,.48.2.576.576,0,0,0,.42-.18,17.005,17.005,0,0,0,3.52-3.86,2.484,2.484,0,0,1,.54-.58.522.522,0,0,0,.28-.42.58.58,0,0,0-.16-.36,10.251,10.251,0,0,0-1.2-1.26.68.68,0,0,0-.46-.28,1.463,1.463,0,0,0-.38.14,4.213,4.213,0,0,1-1.38.12H71.04c-1.6,0-2.7-.04-4.06-.14a18.712,18.712,0,0,0,.36,2.16c.04.18.12.32.36.3,1.18-.08,2.4-.16,3.54-.16ZM68.18,33.36A5.628,5.628,0,0,1,70,34.38a.566.566,0,0,0,.4.18,1.006,1.006,0,0,0,.56-.2,10.41,10.41,0,0,0,3.64-3.98,12.226,12.226,0,0,0,1.18-5.5,1.829,1.829,0,0,1,.18-.82.815.815,0,0,0,.1-.36c0-.18-.08-.32-.34-.38a22.2,22.2,0,0,0-2.58-.38,7.23,7.23,0,0,1,.2,1.88,9.247,9.247,0,0,1-.98,4.72A8.856,8.856,0,0,1,68.18,33.36Zm21.28-8.78a11.822,11.822,0,0,1,1.88,3.22c.1.28.22.38.5.28a8.3,8.3,0,0,0,1.28-.62c.16-.1.24-.16.24-.28a1.353,1.353,0,0,0-.08-.3,10.711,10.711,0,0,0-1.72-2.96.358.358,0,0,0-.52-.14C90.62,23.98,90.14,24.2,89.46,24.58Zm4.02-1.02a13.607,13.607,0,0,1,1.68,3.2c.1.28.18.38.4.3a8.26,8.26,0,0,0,1.38-.62c.26-.14.3-.24.2-.54a11.55,11.55,0,0,0-1.54-2.92.352.352,0,0,0-.52-.16C94.74,22.96,94.28,23.18,93.48,23.56Zm6.3-.48a7.205,7.205,0,0,1-.46,2.12,20.709,20.709,0,0,1-2.7,4.82,17.39,17.39,0,0,1-4.8,4.16,4.515,4.515,0,0,1,1.7.84.458.458,0,0,0,.32.14.868.868,0,0,0,.48-.22,16.016,16.016,0,0,0,4.12-3.86,24.388,24.388,0,0,0,3.02-5.32,2.756,2.756,0,0,1,.6-1.02c.16-.14.22-.24.22-.36s-.1-.22-.26-.34A9.511,9.511,0,0,0,99.78,23.08Zm20.94-.46a16.834,16.834,0,0,1-3.38,5.7,19.329,19.329,0,0,1-6.54,5,5.947,5.947,0,0,1,1.86,1.1.7.7,0,0,0,.5.22.968.968,0,0,0,.54-.18,22.427,22.427,0,0,0,5.68-4.76,23.552,23.552,0,0,0,3.88-6.5,2.408,2.408,0,0,1,.46-.78.548.548,0,0,0,.2-.38.681.681,0,0,0-.16-.4,7.371,7.371,0,0,0-1.36-1.38.468.468,0,0,0-.34-.14.637.637,0,0,0-.34.12,1.913,1.913,0,0,1-1.1.2h-7.14a35,35,0,0,1-3.84-.14c.04.58.12,1.62.18,2.02.04.28.12.42.38.4.86-.04,2-.1,3.3-.1Zm4.44-5.98A2.11,2.11,0,0,0,123,18.78a2.16,2.16,0,1,0,2.16-2.14Zm0,.96a1.18,1.18,0,1,1-1.18,1.18A1.146,1.146,0,0,1,125.16,17.6Zm15.06,4.44c-2.42,1.58-3.84,3.5-3.84,6.34,0,4.16,3.86,6.18,7.38,6.18.24,0,.32-.12.38-.42a7.114,7.114,0,0,0,.22-1.72c0-.22-.12-.3-.44-.3-3.48-.22-5.32-1.62-5.32-4.2,0-2.4,1.7-4.74,5.1-5.9a8.924,8.924,0,0,1,2.44-.44c.26,0,.38-.06.38-.3a11.428,11.428,0,0,0-.22-1.76c-.02-.14-.12-.26-.42-.22-5.16.68-9.56,1.34-12.02,1.7a27.59,27.59,0,0,1-3.18.34,13.938,13.938,0,0,0,.74,2.16.468.468,0,0,0,.38.3,1.168,1.168,0,0,0,.44-.16c.3-.1.5-.14,1.26-.32,2.14-.44,4.28-.86,6.72-1.32Zm2.9,2.86a9.924,9.924,0,0,1,2.02,2.32.209.209,0,0,0,.34.06l.84-.62a.2.2,0,0,0,.06-.32,9.2,9.2,0,0,0-1.9-2.14c-.12-.1-.2-.12-.3-.04Zm1.84-1.32a9.461,9.461,0,0,1,2,2.3.205.205,0,0,0,.34.06l.8-.62a.231.231,0,0,0,.06-.36,8.352,8.352,0,0,0-1.9-2.06c-.12-.1-.18-.12-.3-.04ZM10.52,57.74a17.845,17.845,0,0,1-5.3,7.22A4.649,4.649,0,0,1,6.2,66.3c.14.28.22.42.32.42s.22-.12.4-.3a17.392,17.392,0,0,0,4.3-6.4c-.02,4.86-.1,8.9-.1,9.3,0,.22.02.24.22.24h1.74c.2,0,.22-.02.22-.24,0-.4-.12-4.46-.14-9.52a19.454,19.454,0,0,0,4.56,6.52c.2.18.3.28.4.28.12,0,.2-.12.36-.42a5.767,5.767,0,0,1,1-1.4,18.558,18.558,0,0,1-5.64-7.04H16c1.94,0,2.62.04,2.76.04.18,0,.2-.02.2-.22V56c0-.2-.02-.22-.2-.22-.14,0-.82.04-2.76.04H13.22v-1.6a6.137,6.137,0,0,1,.12-2.02.938.938,0,0,0,.12-.42c0-.1-.12-.2-.32-.22-.66-.06-1.38-.1-2.12-.12a17.835,17.835,0,0,1,.16,2.82v1.56H9.16c-1.96,0-2.62-.04-2.74-.04-.2,0-.22.02-.22.22v1.56c0,.2.02.22.22.22.12,0,.78-.04,2.74-.04ZM2.96,66.32c0,1.96-.04,2.92-.04,3.04,0,.2.02.22.2.22H4.84c.2,0,.22-.02.22-.22,0-.1-.04-1.08-.04-3.04V56.28a30.136,30.136,0,0,0,1.3-2.96c.18-.52.26-.7.4-.82.16-.12.22-.2.22-.34s-.1-.2-.32-.3a17.327,17.327,0,0,0-1.96-.62,7.257,7.257,0,0,1-.32,1.42,17.76,17.76,0,0,1-3.8,6.52,6.243,6.243,0,0,1,.76,1.68c.06.24.14.34.24.34.08,0,.2-.08.36-.26.38-.44.74-.9,1.08-1.36-.02.78-.02,1.58-.02,2.22ZM27.2,69.26c.2,0,.22-.02.22-.22V67.96H35.8v.98c0,.2.02.22.22.22H37.8c.2,0,.22-.02.22-.22,0-.12-.04-1.3-.04-7.04V57.46c0-3.28.04-4.5.04-4.62,0-.22-.02-.24-.22-.24-.12,0-.82.04-2.76.04H28.18c-1.94,0-2.62-.04-2.76-.04-.2,0-.22.02-.22.24,0,.12.04,1.34.04,5.22v3.86c0,5.8-.04,6.98-.04,7.12,0,.2.02.22.22.22Zm.22-3.28V61.14H35.8v4.84Zm0-11.36H35.8v4.56H27.42ZM57.1,63.66H50.24c-1.58,0-2.74-.04-3.68-.1a18.962,18.962,0,0,0,.1,2.08c.02.22.1.3.28.3.96-.02,2.02-.08,3.28-.08H57.1v.8c0,.3.06.32.38.34a12.921,12.921,0,0,0,1.76,0c.28-.02.36-.08.36-.28-.02-.56-.08-2.16-.08-3.62V58.32c0-1.06.04-2.1.04-3.16.02-.26-.08-.34-.4-.34-1.06.04-2.12.08-3.16.08H50.06a28.612,28.612,0,0,1-3.34-.14c0,.66.04,1.6.1,2.14,0,.24.08.34.3.34a27.525,27.525,0,0,1,3-.12H57.1Zm20.7-1.84c1.48,0,2.96.02,4.46.04.28.02.36-.06.36-.3a14.741,14.741,0,0,0,0-1.88c0-.24-.06-.3-.36-.28-1.54.02-3.08.06-4.6.06H71.22a25.7,25.7,0,0,1-4.32-.24,21.707,21.707,0,0,0,.3,2.42c.06.3.22.42.46.42a15.993,15.993,0,0,1,2.94-.24Zm23.44-9.38a9.76,9.76,0,0,1,1.8,2.5c.08.14.18.18.32.1l.9-.54a.213.213,0,0,0,.1-.32,9.418,9.418,0,0,0-1.7-2.32c-.1-.1-.18-.12-.28-.06Zm1.96-1.14a9.606,9.606,0,0,1,1.78,2.48.216.216,0,0,0,.34.1l.84-.54a.242.242,0,0,0,.1-.36,8.853,8.853,0,0,0-1.7-2.24c-.1-.1-.16-.14-.28-.06Zm-5.74,3.98c1.1,0,2.28.02,3.36.06.22,0,.26-.1.26-.38a8.9,8.9,0,0,0,0-1.46c0-.26-.04-.38-.24-.38-1,.06-2.26.08-3.38.08H93.78c-.9,0-1.92-.02-3.32-.1.06.72.08,1.44.14,1.92.02.24.08.34.34.34,1.12-.04,1.92-.08,2.84-.08Zm2.96,4.64c1.38,0,2.76.04,3.8.08.18,0,.3-.08.3-.34.02-.26.02-1.28,0-1.54,0-.28-.02-.4-.22-.4-1.18.08-2.34.12-3.9.12H91.42c-1.16,0-2.28,0-3.4-.1a12.033,12.033,0,0,0,.16,1.92c.02.26.08.4.26.38,1.02-.06,2-.12,3-.12h3.8a8.495,8.495,0,0,1-1.02,4.3,8.882,8.882,0,0,1-3.98,3.56,5.254,5.254,0,0,1,1.78,1.06.589.589,0,0,0,.42.2,1.218,1.218,0,0,0,.6-.24,10.075,10.075,0,0,0,3.52-3.78,11.424,11.424,0,0,0,1.18-5.1Zm15.82,2.88c1.02.02,2.06.02,3.06-.06.2,0,.26-.08.28-.32a13.48,13.48,0,0,0,.1-1.5c0-.18-.06-.26-.32-.22-.96.06-1.78.08-2.84.06.12-.8.32-2.16.44-2.86a19.719,19.719,0,0,0,2.66-.1c.24-.02.32-.08.32-.3a9.337,9.337,0,0,0,.04-1.5c0-.14-.06-.24-.2-.24a11.4,11.4,0,0,1-2.46.12c.1-.74.22-1.42.32-1.88a1.961,1.961,0,0,1,.36-.86.585.585,0,0,0,.16-.38c0-.18-.16-.36-.44-.46a11.889,11.889,0,0,0-2.4-.56,9.406,9.406,0,0,1,.02,1.68c-.04.6-.1,1.14-.26,2.3a16.257,16.257,0,0,1-3.62-.76c0,.72.04,1.38.06,1.86,0,.18.08.28.32.34a13.986,13.986,0,0,0,2.88.56c-.08.82-.24,2.12-.34,2.86a12.507,12.507,0,0,1-3.24-.78,11.559,11.559,0,0,0,.04,1.86c.02.24.08.34.22.38a15.756,15.756,0,0,0,2.72.6c-.08.9-.14,1.46-.14,1.88,0,2.92,1.5,4.52,5.04,4.52,3.44,0,5.76-1.84,5.76-4.68a5.213,5.213,0,0,0-1.7-3.76.458.458,0,0,0-.42-.08,6.379,6.379,0,0,1-2.04.12c1.52,1.6,1.8,2.52,1.8,3.64,0,1.8-1.3,2.7-3.64,2.7-1.86,0-2.66-.72-2.66-2.56A12.321,12.321,0,0,1,116.24,62.8Zm20.44-11.06a4.7,4.7,0,0,1,.08.9c0,.56-.08,1.46-.16,2.18a30.5,30.5,0,0,1-3.88-.08c.04.56.04,1.08.1,1.52.02.34.14.44.36.46a7.954,7.954,0,0,0,1.14.04c.34,0,.88.02,2.06-.02-.04.76-.08,1.64-.1,2.5-2.46,1.22-4.68,3.66-4.68,6.22a2.179,2.179,0,0,0,2.22,2.48,6.291,6.291,0,0,0,3.48-1.44,3.987,3.987,0,0,0,.34.78c.12.2.2.2.4.1a6.362,6.362,0,0,0,1.2-.7c.2-.14.28-.24.16-.5a6.031,6.031,0,0,1-.36-.9,21.154,21.154,0,0,0,3.78-5.24,2.986,2.986,0,0,1,2.48,2.9,3.442,3.442,0,0,1-1.6,3,11.515,11.515,0,0,1-3.72,1.46,5.085,5.085,0,0,1,1.18,1.24c.22.44.44.5.88.38,3.18-.86,5.56-2.74,5.56-5.64,0-2.5-1.52-4.2-4.1-4.88a1.729,1.729,0,0,1,.26-.4.346.346,0,0,0,.12-.24c0-.12-.12-.28-.36-.44a8.05,8.05,0,0,0-1.78-.74,4.908,4.908,0,0,1-.34,1.46,12.006,12.006,0,0,0-3.06.44c.02-.7.06-1.18.14-2.02a42.434,42.434,0,0,0,5.68-.84c.22-.04.42-.14.42-.4a6.2,6.2,0,0,0-.2-1.36c-.04-.18-.1-.26-.34-.2a38.45,38.45,0,0,1-5.2.84c.06-.34.1-.64.16-1a1.546,1.546,0,0,1,.28-.72.441.441,0,0,0,.1-.32q0-.24-.36-.36A10.955,10.955,0,0,0,136.68,51.74Zm1.8,11.56a21.417,21.417,0,0,1-.24-3,9.386,9.386,0,0,1,2.56-.46A18.354,18.354,0,0,1,138.48,63.3Zm-2.2-2.1a25.935,25.935,0,0,0,.4,3.44,4.287,4.287,0,0,1-2.32,1.16.682.682,0,0,1-.66-.76C133.7,63.74,134.74,62.3,136.28,61.2Zm21.6-4.38c-.78.12-1.52.22-2.36.3-.88.08-1.76.14-2.64.14a18.271,18.271,0,0,0,.62,2.06.438.438,0,0,0,.64.26,5.877,5.877,0,0,1,1.1-.32c.54-.1,1.18-.22,1.96-.34a42.172,42.172,0,0,1-3.66,7.84.372.372,0,0,0-.08.22.411.411,0,0,0,.16.3,9.1,9.1,0,0,0,1.38.88.328.328,0,0,0,.52-.18,55.234,55.234,0,0,0,4.02-9.4,13.248,13.248,0,0,1,1.68-.14c.88,0,1.14.44,1.14,1.86a15.409,15.409,0,0,1-.78,4.96c-.32.82-.62,1.06-1.28,1.06a6,6,0,0,1-2.2-.44,5.715,5.715,0,0,1,.38,1.86.519.519,0,0,0,.36.56,6.53,6.53,0,0,0,1.98.22,2.863,2.863,0,0,0,2.7-1.88,17.175,17.175,0,0,0,1.08-6.42c0-2.42-1.02-3.7-2.9-3.7a15.083,15.083,0,0,0-1.56.08c.26-.84.46-1.58.72-2.4a2.53,2.53,0,0,1,.4-.76.417.417,0,0,0,.14-.3.421.421,0,0,0-.32-.4,14.638,14.638,0,0,0-2.4-.66,13.613,13.613,0,0,1-.2,2.22C158.34,54.98,158.2,55.68,157.88,56.82Zm7.12-.16a13.539,13.539,0,0,1,3.28,5.18c.06.24.26.26.46.16a8.162,8.162,0,0,0,1.5-1,.286.286,0,0,0,.08-.4A13.385,13.385,0,0,0,167,55.74c-.14-.14-.24-.18-.38-.1A16.96,16.96,0,0,0,165,56.66Zm19.58,1.86c.12-.66.22-1.36.3-2.04h4.14c1.92,0,2.58.04,2.7.04.18,0,.2-.02.2-.24V54.72c0-.2-.02-.22-.2-.22-.12,0-.78.04-2.7.04h-3.96l.04-.78a5.662,5.662,0,0,1,.16-1.42,1.617,1.617,0,0,0,.16-.5c0-.12-.16-.24-.36-.28-.6-.06-1.26-.12-2.04-.16a16.545,16.545,0,0,1,.06,2.58,5.239,5.239,0,0,0-.02.56c-1.66,0-2.28-.04-2.38-.04-.2,0-.22.02-.22.22v1.56c0,.22.02.24.22.24.1,0,.68-.02,2.22-.04a29.95,29.95,0,0,1-1.06,5.3,13.115,13.115,0,0,1-3.42,5.96,4.989,4.989,0,0,1,.96,1.06c.18.26.28.38.38.38s.22-.1.38-.3a16.274,16.274,0,0,0,3.5-6.28,2.848,2.848,0,0,1,.1-.32,13.413,13.413,0,0,0,1.7,3.02,13.315,13.315,0,0,1-4.2,2.52,3.874,3.874,0,0,1,.9,1.22c.14.28.22.42.38.42a1.6,1.6,0,0,0,.48-.16,15.486,15.486,0,0,0,3.76-2.56,15.764,15.764,0,0,0,3.6,2.44,1.311,1.311,0,0,0,.48.18c.16,0,.22-.14.36-.48a4.8,4.8,0,0,1,.88-1.38,13.854,13.854,0,0,1-3.98-2.24,14.539,14.539,0,0,0,2.14-4.36,2.155,2.155,0,0,1,.42-.84.427.427,0,0,0,.16-.34c0-.16-.08-.32-.6-.84-.48-.48-.6-.54-.74-.54a.737.737,0,0,0-.34.1,1.33,1.33,0,0,1-.56.08Zm3.76,1.82a11.437,11.437,0,0,1-1.64,3.52,12.92,12.92,0,0,1-1.98-3.52ZM178.2,62.06c.58-.22,1.16-.46,1.68-.68.58-.24.58-.24.58-.88a13.193,13.193,0,0,1,.08-1.38c-.72.3-1.54.62-2.34.92V56.98c1.06.02,1.46.04,1.58.04.18,0,.2-.02.2-.22V55.32c0-.2-.02-.22-.2-.22-.12,0-.52.04-1.58.04V54.1a6.136,6.136,0,0,1,.12-2.02,1.018,1.018,0,0,0,.12-.42c0-.1-.12-.2-.32-.22-.66-.08-1.32-.12-2.08-.14a16.74,16.74,0,0,1,.16,2.84v1h-.28c-1.42,0-1.86-.04-1.98-.04-.2,0-.22.02-.22.22V56.8c0,.2.02.22.22.22.12,0,.56-.04,1.98-.04h.28V60.7l-.84.22a17.767,17.767,0,0,1-1.84.38c.14.74.3,1.42.46,1.96.06.18.14.24.26.24a.532.532,0,0,0,.32-.12,1.977,1.977,0,0,1,.66-.32l.98-.3v4.02c0,.5-.12.6-.52.6-.56,0-1.08-.02-1.62-.06a5.308,5.308,0,0,1,.54,1.5c.14.62.14.62.76.62,1.34,0,1.78-.1,2.22-.42.52-.38.64-.9.64-1.92,0-.98-.02-2.64-.02-4.04Zm29.38-1.86a11.051,11.051,0,0,1-.62,4.46,6.491,6.491,0,0,1-3.38,3.32,6.6,6.6,0,0,1,1.56.98.416.416,0,0,0,.4.18.894.894,0,0,0,.5-.18,7.036,7.036,0,0,0,2.86-3.1,10.436,10.436,0,0,0,.88-4.64l-.02-3.08c.92-.1,1.8-.22,2.76-.4.18-.02.28-.1.26-.36-.04-.52-.08-1-.16-1.5-.02-.2-.12-.24-.36-.18-.84.18-1.7.32-2.56.44V53.92a2.445,2.445,0,0,1,.1-.84.805.805,0,0,0,.14-.4c0-.16-.1-.26-.32-.32a12.186,12.186,0,0,0-2.58-.28,6.241,6.241,0,0,1,.34,1.64c.08.76.08,1.66.12,2.66-.72.06-1.66.08-2.22.08-.74,0-1.74-.02-2.48-.1.1.88.14,1.42.22,1.82.02.22.18.32.46.32.74.02,1.26.02,1.68,0,.58,0,1.34-.04,2.4-.12Zm-6.94,6.76a2.443,2.443,0,0,1,.06-.52,15.033,15.033,0,0,1,.9-2.44,1.5,1.5,0,0,0,.24-.66.6.6,0,0,0-.18-.38,5.807,5.807,0,0,1-.66-1.34c-.48,1.12-.84,1.8-1.34,2.86a17.013,17.013,0,0,1-.2-3.16,37.265,37.265,0,0,1,.76-6,11.364,11.364,0,0,1,.38-1.48.724.724,0,0,0,.12-.4c0-.14-.12-.28-.44-.44a9.811,9.811,0,0,0-2.1-.7,21.624,21.624,0,0,1-.22,2.98,45.59,45.59,0,0,0-.6,6.4,17.1,17.1,0,0,0,1.18,6.2c.12.24.22.3.46.26a4.947,4.947,0,0,0,1.38-.42c.2-.08.26-.14.26-.28Z" transform="translate(-0.54 15.92)" fill="#1c3534"/>
</svg>
