<svg xmlns="http://www.w3.org/2000/svg" width="195.463" height="128.151" viewBox="0 0 195.463 128.151">
  <g id="グループ_3065" data-name="グループ 3065" transform="translate(-158.894 -81.141)">
    <g id="グループ_3143" data-name="グループ 3143">
      <path id="パス_1137" data-name="パス 1137" d="M1.145,0V-9.716H2.464V0ZM7.417,0V-9.716H8.736V0ZM2.037-4.42v-1.2h5.7v1.2ZM11.427,0l3.986-9.716h.945L20.317,0H18.893L15.627-8.222h.494L12.827,0Zm1.893-2.2V-3.35h5.117V-2.2ZM22.9,0V-9.716h1.319V0Zm5.614-4.232v-1.1h2.635a1.832,1.832,0,0,0,1.307-.434,1.548,1.548,0,0,0,.46-1.183,1.577,1.577,0,0,0-.455-1.158,1.754,1.754,0,0,0-1.3-.458H28.511V-9.716h2.681a3.45,3.45,0,0,1,1.613.357,2.609,2.609,0,0,1,1.059.977,2.689,2.689,0,0,1,.373,1.414,2.722,2.722,0,0,1-.373,1.44,2.516,2.516,0,0,1-1.059.955,3.582,3.582,0,0,1-1.613.341ZM27.626,0V-9.716h1.319V0Zm5.6,0L29.7-4.354l1.246-.431L34.9,0Zm8.368,0V-9.716h1.319V0Zm5.614-4.232v-1.1h2.636a1.832,1.832,0,0,0,1.307-.434,1.548,1.548,0,0,0,.46-1.183,1.577,1.577,0,0,0-.455-1.158,1.754,1.754,0,0,0-1.3-.458H47.208V-9.716h2.681a3.45,3.45,0,0,1,1.614.357,2.609,2.609,0,0,1,1.059.977,2.689,2.689,0,0,1,.373,1.414,2.722,2.722,0,0,1-.373,1.44,2.516,2.516,0,0,1-1.059.955,3.582,3.582,0,0,1-1.614.341ZM46.323,0V-9.716h1.319V0Zm5.6,0L48.4-4.354l1.246-.431L53.6,0ZM60.35.14a4.81,4.81,0,0,1-1.93-.387,4.871,4.871,0,0,1-1.566-1.074,4.991,4.991,0,0,1-1.048-1.6,5.06,5.06,0,0,1-.376-1.953,5.038,5.038,0,0,1,.375-1.95,4.991,4.991,0,0,1,1.041-1.587A4.789,4.789,0,0,1,58.4-9.474a4.817,4.817,0,0,1,1.923-.382,4.829,4.829,0,0,1,1.925.382,4.823,4.823,0,0,1,1.559,1.066,4.965,4.965,0,0,1,1.047,1.594,5.07,5.07,0,0,1,.376,1.957A5.081,5.081,0,0,1,64.855-2.9a4.93,4.93,0,0,1-1.041,1.591A4.891,4.891,0,0,1,62.261-.247,4.722,4.722,0,0,1,60.35.14Zm-.028-1.263a3.476,3.476,0,0,0,1.839-.483,3.426,3.426,0,0,0,1.253-1.328,4.01,4.01,0,0,0,.457-1.937,4.1,4.1,0,0,0-.262-1.491,3.566,3.566,0,0,0-.739-1.181,3.3,3.3,0,0,0-1.122-.775,3.627,3.627,0,0,0-1.426-.273,3.5,3.5,0,0,0-1.829.476A3.375,3.375,0,0,0,57.243-6.8a3.982,3.982,0,0,0-.455,1.93,4.2,4.2,0,0,0,.263,1.5,3.544,3.544,0,0,0,.733,1.19A3.315,3.315,0,0,0,58.9-1.4,3.569,3.569,0,0,0,60.322-1.123ZM68.156,0V-9.716h.924l.4,1.533V0Zm6.727,0L68.908-7.959l.171-1.757,5.975,7.959Zm0,0-.4-1.439V-9.716h1.32V0ZM85.939.14a4.2,4.2,0,0,1-1.957-.422A4.435,4.435,0,0,1,82.544-1.5l.9-.9a3.157,3.157,0,0,0,1.057.973,3.054,3.054,0,0,0,1.487.332,2.342,2.342,0,0,0,1.395-.378A1.213,1.213,0,0,0,87.91-2.51a1.4,1.4,0,0,0-.257-.873,1.986,1.986,0,0,0-.679-.556,6.654,6.654,0,0,0-.927-.39Q85.54-4.5,85.034-4.7a4.291,4.291,0,0,1-.927-.509A2.284,2.284,0,0,1,83.428-6a2.619,2.619,0,0,1-.257-1.234,2.42,2.42,0,0,1,.4-1.407,2.6,2.6,0,0,1,1.1-.9,3.749,3.749,0,0,1,1.561-.313,3.793,3.793,0,0,1,1.7.371,3.579,3.579,0,0,1,1.234.977l-.9.9a3.1,3.1,0,0,0-.927-.761A2.461,2.461,0,0,0,86.2-8.627a2.037,2.037,0,0,0-1.244.343,1.128,1.128,0,0,0-.46.959,1.2,1.2,0,0,0,.257.8,2.056,2.056,0,0,0,.679.511,8.023,8.023,0,0,0,.928.38q.506.173,1.011.383a4.093,4.093,0,0,1,.927.534,2.39,2.39,0,0,1,.679.833A2.834,2.834,0,0,1,89.232-2.6,2.464,2.464,0,0,1,88.343-.59,3.677,3.677,0,0,1,85.939.14ZM94.248,0V-9.439h1.319V0ZM90.954-8.512v-1.2h7.907v1.2Zm11.48,4.28v-1.1h2.635a1.832,1.832,0,0,0,1.307-.434,1.548,1.548,0,0,0,.46-1.183,1.577,1.577,0,0,0-.455-1.158,1.754,1.754,0,0,0-1.3-.458h-2.646V-9.716h2.681a3.45,3.45,0,0,1,1.614.357,2.609,2.609,0,0,1,1.059.977,2.689,2.689,0,0,1,.373,1.414,2.722,2.722,0,0,1-.373,1.44,2.516,2.516,0,0,1-1.059.955,3.582,3.582,0,0,1-1.614.341ZM101.549,0V-9.716h1.319V0Zm5.6,0-3.521-4.354,1.246-.431L108.822,0Zm3.122,0,3.986-9.716h.945L119.161,0h-1.424l-3.266-8.222h.493L111.671,0Zm1.894-2.2V-3.35h5.117V-2.2ZM121.741,0V-9.716h1.319V0Zm9.121.137a4.751,4.751,0,0,1-1.906-.385A4.8,4.8,0,0,1,127.4-1.316a5,5,0,0,1-1.039-1.592,5.079,5.079,0,0,1-.376-1.96,5.019,5.019,0,0,1,.378-1.955,5.025,5.025,0,0,1,1.048-1.591,4.744,4.744,0,0,1,1.575-1.066,5.017,5.017,0,0,1,1.962-.38,5.064,5.064,0,0,1,2.145.453,4.34,4.34,0,0,1,1.635,1.29l-.9.9A3.04,3.04,0,0,0,132.6-8.239a3.831,3.831,0,0,0-1.654-.357,3.666,3.666,0,0,0-1.883.476A3.318,3.318,0,0,0,127.8-6.8a4.02,4.02,0,0,0-.453,1.939,4.008,4.008,0,0,0,.457,1.939A3.416,3.416,0,0,0,129.043-1.6a3.377,3.377,0,0,0,1.79.478,3.762,3.762,0,0,0,1.776-.394,2.7,2.7,0,0,0,1.151-1.16,3.993,3.993,0,0,0,.408-1.869l.8.581h-4.2v-1.2h4.763v.189a6.032,6.032,0,0,1-.6,2.832,4.034,4.034,0,0,1-1.652,1.715A4.971,4.971,0,0,1,130.861.137ZM138.4,0V-9.716h1.32V0Zm6.272,0V-9.716H146V0ZM139.3-4.42v-1.2h5.7v1.2ZM151.977,0V-9.439h1.32V0Zm-3.294-8.512v-1.2h7.907v1.2ZM159.278,0V-9.716h1.32V0Zm.893,0V-1.2h5.576V0Zm0-4.389V-5.548h5.113v1.159Zm0-4.123v-1.2h5.5v1.2ZM168.651,0V-9.716h.924l.4,1.533V0Zm6.727,0L169.4-7.959l.171-1.757,5.975,7.959Zm0,0-.4-1.439V-9.716h1.32V0Zm4.333,0V-9.716h1.32V0Zm.893,0V-1.2h5.576V0Zm0-4.389V-5.548h5.113v1.159Zm0-4.123v-1.2h5.5v1.2Zm9.366,4.28v-1.1H192.6a1.832,1.832,0,0,0,1.307-.434,1.548,1.548,0,0,0,.46-1.183,1.577,1.577,0,0,0-.455-1.158,1.754,1.754,0,0,0-1.3-.458h-2.646V-9.716h2.681a3.45,3.45,0,0,1,1.613.357,2.609,2.609,0,0,1,1.059.977,2.689,2.689,0,0,1,.373,1.414,2.722,2.722,0,0,1-.373,1.44,2.516,2.516,0,0,1-1.059.955,3.582,3.582,0,0,1-1.613.341ZM189.084,0V-9.716h1.32V0Zm5.6,0-3.521-4.354,1.246-.431L196.357,0Z" transform="translate(158 91)" fill="#9f9f90"/>
      <path id="パス_1138" data-name="パス 1138" d="M2.426,0V-9.716H3.72V0Zm-2-8.536V-9.716h3.15v1.179ZM9.576.14A4.174,4.174,0,0,1,7.81-.219,3.48,3.48,0,0,1,6.5-1.263l.892-.892a2.245,2.245,0,0,0,.889.775A2.8,2.8,0,0,0,9.555-1.1a2.54,2.54,0,0,0,1.153-.248,1.906,1.906,0,0,0,.781-.707,2.005,2.005,0,0,0,.285-1.081A2.039,2.039,0,0,0,11.5-4.226a1.819,1.819,0,0,0-.744-.681,2.257,2.257,0,0,0-1.027-.235A3.587,3.587,0,0,0,8.678-5a2.623,2.623,0,0,0-.884.476l.01-.836a2.112,2.112,0,0,1,.546-.476,2.5,2.5,0,0,1,.7-.282,3.829,3.829,0,0,1,.9-.1,3.255,3.255,0,0,1,1.706.422,2.815,2.815,0,0,1,1.071,1.132A3.4,3.4,0,0,1,13.1-3.066a3.047,3.047,0,0,1-.453,1.654A3.172,3.172,0,0,1,11.4-.275,3.891,3.891,0,0,1,9.576.14ZM7.795-4.522,7.081-5.24l.427-4.476H8.715L8.229-5.1ZM7.777-8.536,7.508-9.716h5.107v1.179ZM15.869,0V-6.65h1.264V0Zm4.5,0V-4.018a1.52,1.52,0,0,0-.455-1.167,1.6,1.6,0,0,0-1.137-.425,1.771,1.771,0,0,0-.831.193,1.5,1.5,0,0,0-.59.546,1.568,1.568,0,0,0-.221.847l-.525-.256A2.533,2.533,0,0,1,16.942-5.6a2.354,2.354,0,0,1,.906-.873,2.627,2.627,0,0,1,1.283-.313,2.615,2.615,0,0,1,1.272.308,2.3,2.3,0,0,1,.9.868,2.583,2.583,0,0,1,.331,1.337V0Zm4.5,0V-4.018a1.52,1.52,0,0,0-.455-1.167,1.6,1.6,0,0,0-1.138-.425,1.78,1.78,0,0,0-.826.193,1.492,1.492,0,0,0-.595.546,1.568,1.568,0,0,0-.221.847l-.724-.256a2.7,2.7,0,0,1,.42-1.325,2.578,2.578,0,0,1,.955-.871,2.711,2.711,0,0,1,1.3-.313,2.7,2.7,0,0,1,1.293.308,2.355,2.355,0,0,1,.917.87,2.529,2.529,0,0,1,.341,1.339V0ZM29.1,0V-6.65h1.264V0Zm4.5,0V-4.018a1.52,1.52,0,0,0-.455-1.167A1.6,1.6,0,0,0,32-5.611a1.771,1.771,0,0,0-.831.193,1.5,1.5,0,0,0-.59.546,1.568,1.568,0,0,0-.221.847l-.525-.256A2.533,2.533,0,0,1,30.172-5.6a2.354,2.354,0,0,1,.906-.873,2.627,2.627,0,0,1,1.283-.313,2.615,2.615,0,0,1,1.272.308,2.3,2.3,0,0,1,.9.868,2.583,2.583,0,0,1,.331,1.337V0Zm4.5,0V-4.018a1.52,1.52,0,0,0-.455-1.167A1.6,1.6,0,0,0,36.5-5.611a1.78,1.78,0,0,0-.826.193,1.492,1.492,0,0,0-.6.546,1.568,1.568,0,0,0-.22.847l-.725-.256a2.7,2.7,0,0,1,.42-1.325,2.578,2.578,0,0,1,.955-.871,2.711,2.711,0,0,1,1.3-.313,2.7,2.7,0,0,1,1.293.308,2.355,2.355,0,0,1,.917.87,2.529,2.529,0,0,1,.341,1.339V0Zm7.679.56,3.882-10.815h1.183L46.956.56ZM56.924-.791l3.587-3.78a11.723,11.723,0,0,0,.847-.977,3.049,3.049,0,0,0,.441-.766,2.11,2.11,0,0,0,.129-.731,1.474,1.474,0,0,0-.472-1.162,1.78,1.78,0,0,0-1.229-.42,2.361,2.361,0,0,0-1.3.359,3.229,3.229,0,0,0-1,1.1L57-7.942A4.086,4.086,0,0,1,58.387-9.37a3.593,3.593,0,0,1,1.883-.486,3.287,3.287,0,0,1,1.556.352,2.54,2.54,0,0,1,1.034.984,2.874,2.874,0,0,1,.368,1.472,3.563,3.563,0,0,1-.15,1.073A3.35,3.35,0,0,1,62.559-5a12.4,12.4,0,0,1-1.026,1.18l-2.9,2.989Zm0,.791V-.791l1.113-.389h5.408V0Zm8.827-3.346,3.539-6.37h1.487l-3.616,6.37Zm0,.812v-.812l.56-.368H73.2v1.18ZM70.5,0V-6.419H71.8V0Zm5.338,0V-6.65H77.1V0Zm4.5,0V-4.018a1.52,1.52,0,0,0-.455-1.167,1.6,1.6,0,0,0-1.137-.425,1.771,1.771,0,0,0-.831.193,1.5,1.5,0,0,0-.59.546,1.568,1.568,0,0,0-.221.847l-.525-.256A2.533,2.533,0,0,1,76.911-5.6a2.354,2.354,0,0,1,.907-.873A2.627,2.627,0,0,1,79.1-6.79a2.615,2.615,0,0,1,1.272.308,2.3,2.3,0,0,1,.9.868A2.583,2.583,0,0,1,81.6-4.277V0Zm4.5,0V-4.018a1.52,1.52,0,0,0-.455-1.167,1.6,1.6,0,0,0-1.138-.425,1.78,1.78,0,0,0-.826.193,1.492,1.492,0,0,0-.6.546,1.568,1.568,0,0,0-.22.847l-.725-.256a2.7,2.7,0,0,1,.42-1.325,2.578,2.578,0,0,1,.955-.871,2.711,2.711,0,0,1,1.3-.313,2.7,2.7,0,0,1,1.293.308,2.355,2.355,0,0,1,.917.87A2.529,2.529,0,0,1,86.1-4.273V0Zm4.235,0V-6.65h1.263V0Zm4.5,0V-4.018a1.52,1.52,0,0,0-.455-1.167,1.6,1.6,0,0,0-1.137-.425,1.771,1.771,0,0,0-.831.193,1.5,1.5,0,0,0-.59.546,1.568,1.568,0,0,0-.221.847l-.525-.256A2.533,2.533,0,0,1,90.141-5.6a2.354,2.354,0,0,1,.907-.873A2.627,2.627,0,0,1,92.33-6.79a2.615,2.615,0,0,1,1.272.308,2.3,2.3,0,0,1,.9.868,2.583,2.583,0,0,1,.331,1.337V0Zm4.5,0V-4.018a1.52,1.52,0,0,0-.455-1.167,1.6,1.6,0,0,0-1.138-.425,1.78,1.78,0,0,0-.826.193,1.492,1.492,0,0,0-.6.546,1.568,1.568,0,0,0-.22.847L94.1-4.281a2.7,2.7,0,0,1,.42-1.325,2.578,2.578,0,0,1,.955-.871,2.711,2.711,0,0,1,1.3-.313,2.7,2.7,0,0,1,1.293.308,2.355,2.355,0,0,1,.917.87,2.529,2.529,0,0,1,.341,1.339V0Z" transform="translate(158.473 206.998) rotate(1)" fill="#4e4e4e"/>
      <path id="パス_1136" data-name="パス 1136" d="M9.688-19.46c-1.82,0-3.22,0-4.732-.112a16.313,16.313,0,0,0,.252,2.912c.056.308.14.5.364.476C7.084-16.3,8.54-16.352,10-16.352l7.224-.028a34.345,34.345,0,0,1-5.264,7.028A34.011,34.011,0,0,1,2.1-2.212,7.671,7.671,0,0,1,4.452-.392a.626.626,0,0,0,.476.252,1.773,1.773,0,0,0,.644-.224A40.284,40.284,0,0,0,14.98-7.756,50.968,50.968,0,0,1,22.26-.812a.575.575,0,0,0,.392.224.484.484,0,0,0,.336-.168,15,15,0,0,0,1.876-1.9.693.693,0,0,0,.2-.42.637.637,0,0,0-.224-.392,65.834,65.834,0,0,0-7.756-6.776,44.185,44.185,0,0,0,3.584-5.236A5.128,5.128,0,0,1,21.7-16.716a.773.773,0,0,0,.364-.56.746.746,0,0,0-.14-.364A10.207,10.207,0,0,0,20.1-19.6a.925.925,0,0,0-.476-.224.466.466,0,0,0-.308.112,4.112,4.112,0,0,1-1.932.252ZM41.076-18.4a7.292,7.292,0,0,1,.2-2.632,1.473,1.473,0,0,0,.224-.644c0-.224-.14-.392-.532-.476a20.667,20.667,0,0,0-3.5-.448,21.365,21.365,0,0,1,.28,4.144V-4.676c0,1.792-.028,3.444-.112,5.516,0,.336.14.42.532.42a18.5,18.5,0,0,0,2.492,0c.392,0,.532-.084.5-.42-.056-2.016-.112-3.668-.112-5.488v-6.188a31.011,31.011,0,0,1,7.364,3.584.429.429,0,0,0,.308.14c.14,0,.252-.112.364-.308a16.457,16.457,0,0,0,1.2-2.436c.14-.364,0-.56-.308-.728a39.5,39.5,0,0,0-8.9-3.808Zm24.5,3.192a11.521,11.521,0,0,1,.308-3.472,2.139,2.139,0,0,0,.14-.588.537.537,0,0,0-.448-.532,28.488,28.488,0,0,0-3.64-.616,26.479,26.479,0,0,1,.308,4.872L62.188-5.012a5.522,5.522,0,0,1-.112,1.6,1.136,1.136,0,0,0-.14.476.687.687,0,0,0,.168.448,8.637,8.637,0,0,0,1.708,1.9.747.747,0,0,0,.476.224.812.812,0,0,0,.5-.224,6.458,6.458,0,0,1,1.568-.9,62.642,62.642,0,0,0,6.86-3.472,45.307,45.307,0,0,0,7-4.816.884.884,0,0,0,.28-1.12,12.6,12.6,0,0,1-.448-3.248,34.6,34.6,0,0,1-7.42,5.712A46.04,46.04,0,0,1,65.492-4.9ZM102.2-8.652c2.072,0,4.144.028,6.244.056.392.028.5-.084.5-.42a20.638,20.638,0,0,0,0-2.632c0-.336-.084-.42-.5-.392-2.156.028-4.312.084-6.44.084H92.988a35.972,35.972,0,0,1-6.048-.336A30.39,30.39,0,0,0,87.36-8.9c.084.42.308.588.644.588a22.39,22.39,0,0,1,4.116-.336ZM125.076-18.4a7.292,7.292,0,0,1,.2-2.632,1.473,1.473,0,0,0,.224-.644c0-.224-.14-.392-.532-.476a20.667,20.667,0,0,0-3.5-.448,21.365,21.365,0,0,1,.28,4.144V-4.676c0,1.792-.028,3.444-.112,5.516,0,.336.14.42.532.42a18.5,18.5,0,0,0,2.492,0c.392,0,.532-.084.5-.42-.056-2.016-.112-3.668-.112-5.488v-6.188a31.011,31.011,0,0,1,7.364,3.584.429.429,0,0,0,.308.14c.14,0,.252-.112.364-.308a16.457,16.457,0,0,0,1.2-2.436c.14-.364,0-.56-.308-.728a39.5,39.5,0,0,0-8.9-3.808ZM1.708,32.62a32.2,32.2,0,0,0,2.6,2.464.577.577,0,0,0,.392.2.636.636,0,0,0,.5-.364,9.185,9.185,0,0,1,1.12-1.428c1.932-2.128,3.192-3.64,4.564-5.068a.585.585,0,0,1,.448-.224.693.693,0,0,1,.448.2,126.862,126.862,0,0,0,12.4,9.772.466.466,0,0,0,.308.112c.14,0,.28-.112.42-.308a16.407,16.407,0,0,0,1.456-2.436.488.488,0,0,0-.252-.756,88.922,88.922,0,0,1-12.544-9.1,3.24,3.24,0,0,0-2.436-1.148c-.868,0-1.4.308-2.52,1.484-1.316,1.4-2.688,2.828-4.06,4.228A12.892,12.892,0,0,1,1.708,32.62Zm47.4-7.784a19.916,19.916,0,0,1-5.012,4.9,6.457,6.457,0,0,1,2.324,1.148,1.1,1.1,0,0,0,.672.28.806.806,0,0,0,.588-.252,23.807,23.807,0,0,0,4.928-5.4,3.478,3.478,0,0,1,.756-.812.731.731,0,0,0,.392-.588.812.812,0,0,0-.224-.5,14.352,14.352,0,0,0-1.68-1.764.952.952,0,0,0-.644-.392,2.048,2.048,0,0,0-.532.2,5.9,5.9,0,0,1-1.932.168H36.736c-2.24,0-3.78-.056-5.684-.2a26.2,26.2,0,0,0,.5,3.024c.056.252.168.448.5.42,1.652-.112,3.36-.224,4.956-.224ZM32.732,41.1a7.879,7.879,0,0,1,2.548,1.428.792.792,0,0,0,.56.252,1.409,1.409,0,0,0,.784-.28,14.574,14.574,0,0,0,5.1-5.572,17.116,17.116,0,0,0,1.652-7.7,2.561,2.561,0,0,1,.252-1.148,1.141,1.141,0,0,0,.14-.5c0-.252-.112-.448-.476-.532a31.083,31.083,0,0,0-3.612-.532,10.122,10.122,0,0,1,.28,2.632,12.946,12.946,0,0,1-1.372,6.608C37.38,38,35.784,39.508,32.732,41.1Zm44.38-16.268a19.917,19.917,0,0,1-5.012,4.9,6.457,6.457,0,0,1,2.324,1.148,1.1,1.1,0,0,0,.672.28.806.806,0,0,0,.588-.252,23.807,23.807,0,0,0,4.928-5.4,3.478,3.478,0,0,1,.756-.812.731.731,0,0,0,.392-.588.812.812,0,0,0-.224-.5,14.352,14.352,0,0,0-1.68-1.764.952.952,0,0,0-.644-.392,2.048,2.048,0,0,0-.532.2,5.9,5.9,0,0,1-1.932.168H64.736c-2.24,0-3.78-.056-5.684-.2a26.2,26.2,0,0,0,.5,3.024c.056.252.168.448.5.42,1.652-.112,3.36-.224,4.956-.224ZM60.732,41.1a7.879,7.879,0,0,1,2.548,1.428.792.792,0,0,0,.56.252,1.409,1.409,0,0,0,.784-.28,14.574,14.574,0,0,0,5.1-5.572,17.116,17.116,0,0,0,1.652-7.7,2.561,2.561,0,0,1,.252-1.148,1.141,1.141,0,0,0,.14-.5c0-.252-.112-.448-.476-.532a31.084,31.084,0,0,0-3.612-.532,10.123,10.123,0,0,1,.28,2.632,12.946,12.946,0,0,1-1.372,6.608C65.38,38,63.784,39.508,60.732,41.1ZM99.792,27.5a44.322,44.322,0,0,0,3.276-3.528,9.225,9.225,0,0,1,1.68-1.54.8.8,0,0,0,.392-.616.5.5,0,0,0-.224-.42,24.911,24.911,0,0,0-3.108-1.96,8.116,8.116,0,0,1-1.764,2.884,45.429,45.429,0,0,1-5.964,5.852,44.948,44.948,0,0,1-8.82,5.74,10.48,10.48,0,0,1,2.408,1.652.78.78,0,0,0,.588.28.79.79,0,0,0,.42-.112,48.44,48.44,0,0,0,7.7-5.376v6.524c0,1.9-.084,3.724-.112,5.74-.028.336.084.448.392.448a23.354,23.354,0,0,0,2.8,0c.308,0,.448-.112.42-.476-.056-2.24-.084-3.892-.084-5.824Zm30.24,11.228v1.484c0,.392.028.448.364.448.84.028,1.736.028,2.576,0,.392,0,.532-.084.532-.476-.056-1.512-.14-2.884-.14-5.32V28.168c0-1.652.028-3.164.028-4.536.028-.42-.056-.56-.364-.56-1.316.056-3.444.056-5.264.056H121.1c-1.876,0-3.528,0-5.012-.084-.2,0-.308.112-.308.392.084,1.624.056,3.136.056,4.648v6.86c0,2.128-.056,4.116-.084,5.572-.028.336.112.392.588.42.7.028,1.512.028,2.212,0,.5-.028.616-.084.616-.56V38.724Zm0-2.968H119.14V26.1h10.892Zm12.32-11.2a29.639,29.639,0,0,1,5.712,4.564c.14.14.252.224.364.224s.2-.084.336-.224c.392-.42,1.316-1.54,1.736-2.1a.6.6,0,0,0,.168-.364c0-.112-.084-.224-.252-.392a29.2,29.2,0,0,0-5.348-3.976.746.746,0,0,0-.364-.14.524.524,0,0,0-.392.224C143.78,22.932,142.968,23.8,142.352,24.556Zm.616,13.972a19.4,19.4,0,0,0,2.24,3.108.726.726,0,0,0,.476.308.774.774,0,0,0,.5-.28,9.664,9.664,0,0,1,1.876-1.288,60.2,60.2,0,0,0,8.456-5.488,45.765,45.765,0,0,0,6.44-5.936c.308-.364.448-.588.448-.84a1.369,1.369,0,0,0-.14-.532,12.5,12.5,0,0,1-.784-3.276,42.067,42.067,0,0,1-7.672,7.616,41.5,41.5,0,0,1-8.064,5.208A16.867,16.867,0,0,1,142.968,38.528Z" transform="translate(158 128)" fill="#9f9f90"/>
    </g>
  </g>
</svg>
