<svg xmlns="http://www.w3.org/2000/svg" width="190.394" height="85.46" viewBox="0 0 190.394 85.46">
  <path id="パス_1150" data-name="パス 1150" d="M-184.72-14.06a18.338,18.338,0,0,1,4.28,2.24.454.454,0,0,0,.28.14c.1,0,.18-.06.28-.2a11.924,11.924,0,0,0,.9-1.44.36.36,0,0,0-.12-.52,17.9,17.9,0,0,0-4.12-1.98.3.3,0,0,0-.4.12C-183.98-15.22-184.34-14.64-184.72-14.06Zm-.6,11.74a5.7,5.7,0,0,1,.52,2.1.386.386,0,0,0,.32.4,6.547,6.547,0,0,0,2.2.32c1.86,0,3.74-1.02,3.74-3.1,0-1.14-.46-2.2-2.32-3.66-1.3-1.02-1.66-1.38-1.66-1.88a2.329,2.329,0,0,1,.58-1.42c.06-.1.12-.16.12-.22a.207.207,0,0,0-.08-.16,9.452,9.452,0,0,0-1.42-1.1,4.1,4.1,0,0,0-1.38,3c0,.92.4,1.72,1.74,2.82,1.62,1.34,1.98,1.72,1.98,2.42,0,.72-.46,1.14-1.46,1.14A7.408,7.408,0,0,1-185.32-2.32Zm-1.12-2.38a6.138,6.138,0,0,1-1.24,1.32,1,1,0,0,1-.7.28c-.34,0-.66-.34-1.16-1.58-.04-.12-.08-.18-.14-.18a.276.276,0,0,0-.18.1,12.675,12.675,0,0,0-1.22,1.02c-.1.1-.12.14-.06.38.62,2.04,1.68,2.64,2.74,2.64a2.851,2.851,0,0,0,1.68-.74,4.851,4.851,0,0,0,.96-.96c.18-.22.18-.3.18-.4a.6.6,0,0,0-.18-.36A4.563,4.563,0,0,1-186.44-4.7Zm8.42-1.8a11.811,11.811,0,0,1,2.92,4.1c.1.22.24.28.42.16a8.454,8.454,0,0,0,1.46-1.16c.16-.16.2-.26.08-.44A11.691,11.691,0,0,0-176.2-7.6c-.06-.06-.1-.08-.14-.08-.06,0-.1.04-.2.08C-176.96-7.3-177.54-6.9-178.02-6.5Zm15.14-3.12c.48-.7.78-1.08,1.06-1.44.3-.34.34-.42.34-.56s-.08-.3-.32-.62c-.18-.26-.4-.46-.54-.46a.371.371,0,0,0-.14.04c-.06.02-.1.04-.16.06.04-.86.08-1.32.1-1.8a3.4,3.4,0,0,1,.2-.86c.14-.36.06-.58-.36-.7a15.205,15.205,0,0,0-2.32-.34,7.253,7.253,0,0,1,.2,1.74c0,.86,0,1.74-.04,2.6-1.54.42-2.32.6-2.84.72a9.727,9.727,0,0,1-1.36.2,17.013,17.013,0,0,0,.8,1.76c.12.24.26.36.4.36.12,0,.32-.2.66-.34.76-.28,1.7-.56,2.28-.74-.02.38-.02.92-.02,1.42-1.5,2.06-2.64,3.48-4.4,5.62a.346.346,0,0,0-.12.24.276.276,0,0,0,.12.22,13.884,13.884,0,0,0,1.22,1.2.347.347,0,0,0,.22.12c.1,0,.18-.08.28-.2.74-1.06,1.74-2.52,2.7-3.96-.04,2.04-.08,4.14-.1,6.18-.02.2.04.28.22.28.66,0,1.56-.06,1.78-.08.16,0,.26-.08.26-.24-.04-2.7-.1-5.12-.12-7.68,1.96-1.68,3.52-2.56,5.36-2.56a2.8,2.8,0,0,1,2.98,3.1,3.862,3.862,0,0,1-1.36,3.02,9.213,9.213,0,0,1-4.02,1.98,5.889,5.889,0,0,1,1.58,1.32.656.656,0,0,0,.52.28.762.762,0,0,0,.34-.08c3.44-1.24,5.32-3.36,5.32-6.44a4.751,4.751,0,0,0-4.98-5.08A8.9,8.9,0,0,0-162.88-9Zm16.96,1.84a10.222,10.222,0,0,0,1.08,1.94c.2.24.34.36.52.36a.625.625,0,0,0,.4-.2,6.419,6.419,0,0,1,1.12-.62,17.9,17.9,0,0,1,5.66-1.56c1.6,0,2.48.78,2.48,2.2a3.128,3.128,0,0,1-1.8,2.98,14.534,14.534,0,0,1-4.82,1.38A4.2,4.2,0,0,1-140.06.02c.14.26.3.34.66.28a10.85,10.85,0,0,0,4.14-1.32A4.78,4.78,0,0,0-132.4-5.5a4.227,4.227,0,0,0-4.56-4.28,19.658,19.658,0,0,0-5.84,1.22A21.528,21.528,0,0,1-145.92-7.78Zm24.68-8.08a8.949,8.949,0,0,1,.52,2.32,30.352,30.352,0,0,0,1.04,4.88c-2.34,1.48-3.8,2.94-3.8,5.16,0,2.6,2,3.84,5.78,3.84a42.739,42.739,0,0,0,5.96-.3c.24-.02.38-.12.36-.34a17.661,17.661,0,0,0-.2-1.86c-.04-.24-.14-.28-.36-.24a34.929,34.929,0,0,1-6.1.46c-2.3,0-3.18-.5-3.18-1.68,0-.94.62-1.88,2.36-3.02a27.831,27.831,0,0,1,4.7-2.34,9.6,9.6,0,0,1,1.92-.6c.28-.04.4-.2.4-.4a.81.81,0,0,0-.14-.42,10.27,10.27,0,0,0-1.46-1.88,4.947,4.947,0,0,1-1.38,1.08c-1.12.6-1.84.98-2.84,1.52a28.122,28.122,0,0,1-.64-3.44c-.04-.46-.1-.94-.1-1.34,0-.28.14-.56.14-.84,0-.16-.12-.26-.36-.32A11.575,11.575,0,0,0-121.24-15.86Zm27.04,5c.02-1.14.02-1.8.02-2.74a3.751,3.751,0,0,1,.16-1.22,1.214,1.214,0,0,0,.14-.44c0-.14-.08-.22-.3-.28a15.074,15.074,0,0,0-2.66-.28,8.62,8.62,0,0,1,.24,2.02c.02.88.02,1.96.02,2.96h-3.94c-.98,0-2.1,0-3.4-.1.04.74.08,1.58.14,1.98.04.3.1.4.36.38.76-.02,1.9-.1,2.88-.1h3.86A8.593,8.593,0,0,1-97.9-4.06a10.122,10.122,0,0,1-4.54,3.62,5.563,5.563,0,0,1,1.68,1.1.6.6,0,0,0,.44.2.822.822,0,0,0,.46-.14A11.1,11.1,0,0,0-95.6-3.22c.86-1.42,1.16-2.56,1.36-5.46h2.84c1.12,0,2.64.08,3.36.08.3,0,.38-.06.38-.38a10.155,10.155,0,0,0,0-1.56c-.02-.34-.1-.38-.38-.36-1.04.02-2.36.04-3.48.04Zm15.68,1.68c-.98,0-2.46-.02-3.88-.14a8.843,8.843,0,0,0,.2,1.82c.06.32.12.48.38.46.98-.08,2.46-.08,3.18-.08h3.56a8.25,8.25,0,0,1-.88,3.32A8.86,8.86,0,0,1-79.7-.1a8.242,8.242,0,0,1,2.12.76.759.759,0,0,0,.36.12.621.621,0,0,0,.34-.14A9.515,9.515,0,0,0-73.7-3.1a10.853,10.853,0,0,0,1-4.02h2.46c1.46,0,2.62.02,3.88.06.24,0,.24-.08.26-.36a14.221,14.221,0,0,0,0-1.6c-.02-.22-.02-.32-.22-.32-.9.04-2.6.14-3.86.14h-2.48c0-.68,0-1.14.02-1.58a1.927,1.927,0,0,1,.14-.68,1,1,0,0,0,.12-.34.3.3,0,0,0-.26-.28,5.928,5.928,0,0,0-1.3-.26c1.18-.24,2.4-.54,3.62-.88.42-.1.84-.28,1.26-.34.32-.02.52-.06.52-.28a.778.778,0,0,0-.26-.56,9.723,9.723,0,0,0-1.64-1.4,5.731,5.731,0,0,1-1.72.9,24.856,24.856,0,0,1-3.3.86,37.8,37.8,0,0,1-5.94.74,5.425,5.425,0,0,1,1.02,1.38c.08.22.2.48.5.44a45.33,45.33,0,0,0,4.74-.64c.06.4.08.66.1.92.02.58.04,1.38.04,2.02Zm28.3,6.6.62-4.1a1.587,1.587,0,0,1,.4-1,.519.519,0,0,0,.18-.36.519.519,0,0,0-.18-.36,6.9,6.9,0,0,0-1.22-1.1.633.633,0,0,0-.3-.12.372.372,0,0,0-.22.08,2.431,2.431,0,0,1-1.18.18h-2.76c-.84,0-1.44-.04-2.78-.1.04.66.08,1.3.14,1.72.04.34.12.4.36.38.52-.02,1.42-.06,2.2-.06h3.22l-.68,4.86h-4.64c-1,0-1.74,0-2.88-.08a10.231,10.231,0,0,0,.1,1.68c.04.3.12.4.34.4.98-.04,1.76-.04,2.58-.04h7.36c.92,0,1.88.02,2.78.02.3,0,.36-.02.38-.4s.02-.88,0-1.26c-.02-.32-.1-.38-.44-.36-.76,0-1.64.02-2.44.02Zm20.64-10.5c1.22,0,2.16.04,2.82.04.3.02.36-.06.36-.4a10.155,10.155,0,0,0,0-1.56c0-.22-.06-.32-.24-.32-.78.04-1.84.1-3.14.1h-3.6a27.555,27.555,0,0,1-3.28-.14,17.431,17.431,0,0,0,.1,1.92c.02.32.08.44.28.44.84-.06,1.84-.08,2.74-.08Zm1.52,4.28c-1.44,3.86-4.7,6.62-8.4,8.34A5.863,5.863,0,0,1-34.6.58a.653.653,0,0,0,.44.24.961.961,0,0,0,.4-.14A17.481,17.481,0,0,0-25.6-8.16a2.291,2.291,0,0,1,.68-.94.482.482,0,0,0,.22-.38.589.589,0,0,0-.2-.42,11.8,11.8,0,0,0-1.34-1.24.515.515,0,0,0-.3-.14.43.43,0,0,0-.26.12,2.2,2.2,0,0,1-1.06.22h-6.86a35.394,35.394,0,0,1-3.68-.16,15.161,15.161,0,0,0,.22,2.02c.04.26.12.38.3.38,1-.06,2-.08,3-.08Zm20.1-2.1a5.534,5.534,0,0,1,.18-2.22,1.28,1.28,0,0,0,.16-.5c0-.16-.1-.28-.36-.34a19.085,19.085,0,0,0-2.5-.42,15.97,15.97,0,0,1,.2,3.48v6.26c0,1.02.02,1.26-.12,1.52a.614.614,0,0,0-.08.3.8.8,0,0,0,.18.42A5.775,5.775,0,0,0-9.1-1.18a.853.853,0,0,0,.42.16.635.635,0,0,0,.4-.16A6.641,6.641,0,0,1-7.7-1.6,33.213,33.213,0,0,0-4.14-4,25.281,25.281,0,0,0-1.18-6.62c.22-.22.3-.36.3-.5A1,1,0,0,0-1-7.46a5.765,5.765,0,0,1-.62-2.02,19.193,19.193,0,0,1-3.5,3.4A20.332,20.332,0,0,1-7.96-4.22Zm-6.98-2.22a5.379,5.379,0,0,1,.2,1.68c-.02,3.2-.28,4.3-.84,5.66A9.929,9.929,0,0,1-18.9-1.8a7.087,7.087,0,0,1,1.7.84.68.68,0,0,0,.38.16.907.907,0,0,0,.52-.26,10.3,10.3,0,0,0,2.84-3.76,14.968,14.968,0,0,0,1.08-5.88,2.885,2.885,0,0,1,.24-1.36c.12-.28.08-.52-.26-.62A16.169,16.169,0,0,0-14.94-13.12ZM-97.68,20.1c-1.3,0-2.3,0-3.38-.08a11.652,11.652,0,0,0,.18,2.08c.04.22.1.36.26.34,1.08-.08,2.12-.12,3.16-.12l5.16-.02a24.532,24.532,0,0,1-3.76,5.02,24.294,24.294,0,0,1-7.04,5.1,5.479,5.479,0,0,1,1.68,1.3.447.447,0,0,0,.34.18,1.266,1.266,0,0,0,.46-.16,28.774,28.774,0,0,0,6.72-5.28,36.406,36.406,0,0,1,5.2,4.96.411.411,0,0,0,.28.16.346.346,0,0,0,.24-.12,10.717,10.717,0,0,0,1.34-1.36.5.5,0,0,0,.14-.3.455.455,0,0,0-.16-.28,47.024,47.024,0,0,0-5.54-4.84,31.562,31.562,0,0,0,2.56-3.74,3.663,3.663,0,0,1,.74-.88.552.552,0,0,0,.26-.4.533.533,0,0,0-.1-.26,7.291,7.291,0,0,0-1.3-1.4.661.661,0,0,0-.34-.16.333.333,0,0,0-.22.08,2.937,2.937,0,0,1-1.38.18Zm24.92.68c.34-.52.46-.72.62-1a1.672,1.672,0,0,1,.42-.42.54.54,0,0,0,.24-.4.351.351,0,0,0-.22-.32,12.6,12.6,0,0,0-2.34-.98,7.377,7.377,0,0,1-1.08,2.46,22.314,22.314,0,0,1-5.66,6.28,8.333,8.333,0,0,1,1.68.92.458.458,0,0,0,.32.14.717.717,0,0,0,.4-.18,24.152,24.152,0,0,0,4.28-4.5l4.96-.1a19.281,19.281,0,0,1-2.34,3.96,20.053,20.053,0,0,0-2.58-1.6.519.519,0,0,0-.2-.08.378.378,0,0,0-.26.14c-.46.42-.88.94-1.32,1.42a16.72,16.72,0,0,1,2.88,1.88,24.253,24.253,0,0,1-7.36,5.42,5.683,5.683,0,0,1,1.9,1.02.6.6,0,0,0,.38.18,1.089,1.089,0,0,0,.5-.18,24.373,24.373,0,0,0,6.38-5,22.164,22.164,0,0,1,1.94,1.94.347.347,0,0,0,.22.12.415.415,0,0,0,.24-.1,12.293,12.293,0,0,0,1.24-1.26.387.387,0,0,0,.12-.26.4.4,0,0,0-.12-.28,17.779,17.779,0,0,0-2.16-2.02,31.217,31.217,0,0,0,2.94-4.84,2.509,2.509,0,0,1,.6-.76.512.512,0,0,0,.22-.38.489.489,0,0,0-.16-.36,6.479,6.479,0,0,0-1.36-1.22.688.688,0,0,0-.36-.16.585.585,0,0,0-.34.14,1.957,1.957,0,0,1-1.1.3Zm22.84,2.86a31.658,31.658,0,0,0,2.34-2.52,6.589,6.589,0,0,1,1.2-1.1.572.572,0,0,0,.28-.44.354.354,0,0,0-.16-.3,17.793,17.793,0,0,0-2.22-1.4,5.8,5.8,0,0,1-1.26,2.06A32.449,32.449,0,0,1-54,24.12a32.1,32.1,0,0,1-6.3,4.1,7.486,7.486,0,0,1,1.72,1.18.557.557,0,0,0,.42.2.564.564,0,0,0,.3-.08,34.6,34.6,0,0,0,5.5-3.84v4.66c0,1.36-.06,2.66-.08,4.1-.02.24.06.32.28.32a16.681,16.681,0,0,0,2,0c.22,0,.32-.08.3-.34-.04-1.6-.06-2.78-.06-4.16Zm20.36-.54a5.534,5.534,0,0,1,.18-2.22,1.28,1.28,0,0,0,.16-.5c0-.16-.1-.28-.36-.34a19.086,19.086,0,0,0-2.5-.42,15.97,15.97,0,0,1,.2,3.48v6.26c0,1.02.02,1.26-.12,1.52a.614.614,0,0,0-.08.3.8.8,0,0,0,.18.42,5.775,5.775,0,0,0,1.2,1.22.853.853,0,0,0,.42.16.635.635,0,0,0,.4-.16,6.641,6.641,0,0,1,.58-.42A33.214,33.214,0,0,0-25.74,30a25.281,25.281,0,0,0,2.96-2.62c.22-.22.3-.36.3-.5a1,1,0,0,0-.12-.34,5.765,5.765,0,0,1-.62-2.02,19.193,19.193,0,0,1-3.5,3.4,20.332,20.332,0,0,1-2.84,1.86Zm-6.98-2.22a5.38,5.38,0,0,1,.2,1.68c-.02,3.2-.28,4.3-.84,5.66A9.929,9.929,0,0,1-40.5,32.2a7.087,7.087,0,0,1,1.7.84.68.68,0,0,0,.38.16.907.907,0,0,0,.52-.26,10.3,10.3,0,0,0,2.84-3.76,14.968,14.968,0,0,0,1.08-5.88,2.885,2.885,0,0,1,.24-1.36c.12-.28.08-.52-.26-.62A16.169,16.169,0,0,0-36.54,20.88Zm27.76,1.16c-2.42,1.58-3.84,3.5-3.84,6.34,0,4.16,3.86,6.18,7.38,6.18.24,0,.32-.12.38-.42a7.114,7.114,0,0,0,.22-1.72c0-.22-.12-.3-.44-.3-3.48-.22-5.32-1.62-5.32-4.2,0-2.4,1.7-4.74,5.1-5.9a8.924,8.924,0,0,1,2.44-.44c.26,0,.38-.06.38-.3a11.426,11.426,0,0,0-.22-1.76c-.02-.14-.12-.26-.42-.22-5.16.68-9.56,1.34-12.02,1.7a27.591,27.591,0,0,1-3.18.34,13.937,13.937,0,0,0,.74,2.16.468.468,0,0,0,.38.3,1.168,1.168,0,0,0,.44-.16c.3-.1.5-.14,1.26-.32,2.14-.44,4.28-.86,6.72-1.32Zm2.9,2.86a9.924,9.924,0,0,1,2.02,2.32.209.209,0,0,0,.34.06l.84-.62a.2.2,0,0,0,.06-.32,9.2,9.2,0,0,0-1.9-2.14c-.12-.1-.2-.12-.3-.04Zm1.84-1.32a9.461,9.461,0,0,1,2,2.3.205.205,0,0,0,.34.06l.8-.62a.231.231,0,0,0,.06-.36,8.352,8.352,0,0,0-1.9-2.06c-.12-.1-.18-.12-.3-.04ZM-135.4,59.08v4.86c0,1.42-.04,2.08-.04,2.22,0,.2.02.22.22.22h1.7c.2,0,.22-.02.22-.22,0-.12-.04-.8-.04-2.22V59.08h.6c1.78,0,2.38.04,2.5.04.2,0,.22-.02.22-.22V57.36c0-.2-.02-.22-.22-.22-.12,0-.72.04-2.5.04h-5.98V55.1a32.473,32.473,0,0,0,6.56-1.6,4.041,4.041,0,0,1,.84-.14c.18-.02.3-.1.3-.22a.448.448,0,0,0-.12-.34,9.094,9.094,0,0,0-1.42-1.48,6.925,6.925,0,0,1-1.22.6,23.076,23.076,0,0,1-5.38,1.36,13.686,13.686,0,0,0-1.72-.46c.1,1.08.18,2.04.18,3.2v1.5a19.7,19.7,0,0,1-.26,4.04,6.744,6.744,0,0,1-1.66,3.28,5.5,5.5,0,0,1,1.18,1c.2.22.32.34.4.34.1,0,.2-.12.38-.38a9.489,9.489,0,0,0,1.52-3.14,16.267,16.267,0,0,0,.4-3.58Zm-7.92,1.8c0-1.22.04-1.78.04-1.9,0-.2-.02-.22-.22-.22-.12,0-.44.04-1.5.04h-1.26c-1.08,0-1.36-.04-1.46-.04-.22,0-.24.02-.24.22V60.5c0,.22.02.24.24.24.1,0,.38-.04,1.46-.04h.98v4.44a12.365,12.365,0,0,1-1.76,1.28,9.063,9.063,0,0,1-1.18.62,15.873,15.873,0,0,0,.82,1.88.381.381,0,0,0,.28.24.334.334,0,0,0,.3-.18,1.831,1.831,0,0,1,.4-.4c.64-.52,1.4-1.18,2.02-1.78a5.327,5.327,0,0,0,2.08,1.82,12.745,12.745,0,0,0,4.66.54c2.08,0,4.46-.04,7-.18.64-.04.64-.04.74-.68a4,4,0,0,1,.54-1.58c-2.98.3-6.02.46-8.6.46a11.426,11.426,0,0,1-3.68-.38,3.068,3.068,0,0,1-1.66-1.66Zm-3.94-8.12c-.22.16-.26.22-.1.36a16.949,16.949,0,0,1,2.64,3.28c.06.1.1.14.16.14a.555.555,0,0,0,.26-.12l1.16-.9c.22-.18.24-.24.12-.38a17.535,17.535,0,0,0-2.72-3.18.373.373,0,0,0-.2-.1c-.06,0-.12.04-.24.12Zm31.44-1a5.772,5.772,0,0,1-1.08,1.5c-1.72,1.88-3.38,3.54-5.08,5.38-.62.66-.98,1.1-.98,1.76s.3,1.1,1.06,1.68a50.484,50.484,0,0,1,7.28,6.76c.1.12.16.18.24.18s.16-.06.28-.16c.34-.3.92-.88,1.38-1.38.1-.1.14-.16.14-.24a.479.479,0,0,0-.14-.26,55.489,55.489,0,0,0-7.44-6.3c-.18-.14-.26-.24-.26-.36,0-.1.08-.22.26-.44,1.54-1.6,3.74-3.66,5.46-5.2a3.789,3.789,0,0,1,.96-.7.4.4,0,0,0,.28-.38.49.49,0,0,0-.16-.32A15.923,15.923,0,0,0-115.82,51.76Zm21.38,3.98a4.543,4.543,0,0,1,4.48,4.64c0,3.78-2.66,5.18-6.04,5.98a4.242,4.242,0,0,1,1.4,1.26c.26.4.44.48.86.36,4.06-1.22,6.16-3.56,6.16-7.28,0-3.98-2.82-6.94-7.62-6.94a8.752,8.752,0,0,0-6.5,2.56,7.369,7.369,0,0,0-2.26,5.2c0,3.26,1.78,5.14,3.54,5.14a3.8,3.8,0,0,0,3.4-2.3,25.043,25.043,0,0,0,2.5-8.62Zm-2.4.12a22.851,22.851,0,0,1-2.12,7.16c-.54.96-.98,1.22-1.5,1.22-.62,0-1.36-1.02-1.36-2.86a5.759,5.759,0,0,1,1.56-3.7A6.023,6.023,0,0,1-96.84,55.86Zm18.8.5c-1.16,0-2.06,0-3.32-.08.04.74.08,1.46.16,1.94.02.24.1.36.3.34.94-.06,1.9-.1,2.88-.1h1.8a11.653,11.653,0,0,1-1.44,4.32,11.134,11.134,0,0,1-4.7,4.08,5.1,5.1,0,0,1,1.68,1.16.514.514,0,0,0,.38.2.911.911,0,0,0,.46-.16,12.892,12.892,0,0,0,4.24-4.12,14.88,14.88,0,0,0,1.78-5.54h4.04a28.013,28.013,0,0,1-.6,6c-.24.9-.5,1.22-1.04,1.4a8.164,8.164,0,0,1-2.72.18,4.185,4.185,0,0,1,1.16,1.82.486.486,0,0,0,.48.4,8.454,8.454,0,0,0,2.02-.22c1.28-.32,1.96-1.16,2.36-2.7a34.092,34.092,0,0,0,.74-6.58c.04-1.06.08-1.86.08-2.12,0-.22-.1-.28-.42-.28-.92,0-1.86.04-2.78.04h-3.04c.1-.98.12-1.46.18-2.1a1.863,1.863,0,0,1,.26-.94.9.9,0,0,0,.1-.38.413.413,0,0,0-.34-.42,15.662,15.662,0,0,0-2.6-.42,7.69,7.69,0,0,1,.14,1.58c-.02,1.08-.06,1.72-.14,2.7Zm29.44,0a16.834,16.834,0,0,1-3.38,5.7,19.329,19.329,0,0,1-6.54,5,5.947,5.947,0,0,1,1.86,1.1.7.7,0,0,0,.5.22.968.968,0,0,0,.54-.18,22.427,22.427,0,0,0,5.68-4.76,23.552,23.552,0,0,0,3.88-6.5,2.408,2.408,0,0,1,.46-.78.682.682,0,0,0,.28-.5.5.5,0,0,0-.14-.34A6.155,6.155,0,0,0-46.92,54a.978.978,0,0,0-.38-.1.564.564,0,0,0-.3.08,1.913,1.913,0,0,1-1.1.2h-7.14a35,35,0,0,1-3.84-.14c.04.58.12,1.62.18,2.02.04.28.12.42.38.4.86-.04,2-.1,3.3-.1Zm18,4.14h1.1c.82,0,1.82.04,2.6.04.3.02.38-.06.4-.38.02-.4.02-.84,0-1.24-.02-.24-.08-.36-.32-.34-.88,0-1.8.04-2.7.04h-4.44c-.86,0-1.92,0-2.78-.08.04.72.06,1.26.12,1.6.04.3.14.42.32.4.92-.02,1.64-.02,2.46-.02h1.1v5.06h-2c-1.28,0-2.26,0-3.42-.08a9.194,9.194,0,0,0,.1,1.62c.04.3.14.42.38.42.84-.04,1.74-.08,2.94-.08h6.28c.92,0,2.1.04,3.14.04.24.02.32-.1.34-.36.02-.42.02-.86,0-1.28-.02-.26-.1-.38-.28-.38-1.08.06-2.2.08-3.22.08H-30.6Zm11.6.24a18.45,18.45,0,0,0,1.64,2.08.524.524,0,0,0,.38.18.428.428,0,0,0,.36-.24,4.952,4.952,0,0,1,.72-.88c.94-.94,2.38-2.32,3.36-3.3.26-.24.46-.42.68-.42a1.283,1.283,0,0,1,.88.46c1.32,1.18,2.76,2.46,4.2,3.54,1.18.92,3.36,2.52,4.32,3.08a.476.476,0,0,0,.28.1c.08,0,.16-.06.26-.2a8.41,8.41,0,0,0,.98-1.88c.1-.18,0-.34-.2-.42A46.087,46.087,0,0,1-5.86,59.9c-1.96-1.44-2.82-2.24-4.32-3.44a2.393,2.393,0,0,0-1.74-.74,2.518,2.518,0,0,0-1.74.84c-1.48,1.34-2.92,2.58-3.58,3.1A6.861,6.861,0,0,1-19,60.74Z" transform="translate(191.174 16.3)" fill="#1c3534"/>
</svg>
