<svg xmlns="http://www.w3.org/2000/svg" width="186.52" height="86.26" viewBox="0 0 186.52 86.26">
  <path id="パス_1139" data-name="パス 1139" d="M8.76-3.16v1.82c0,1.88-.04,2.58-.04,2.72,0,.2.02.22.22.22h1.8c.2,0,.22-.02.22-.22,0-.12-.04-.84-.04-2.72V-3.16h5.36c1.76,0,2.36.04,2.48.04.18,0,.2-.02.2-.22v-1.5c0-.22-.02-.24-.2-.24-.12,0-.72.04-2.48.04H10.92V-7H13.7c1.96,0,2.66.04,2.8.04.2,0,.22-.02.22-.22,0-.12-.04-.76-.04-2.12v-4.26c0-1.38.04-2,.04-2.12,0-.2-.02-.22-.22-.22-.14,0-.84.04-2.8.04H6.2c-1.96,0-2.66-.04-2.8-.04-.2,0-.22.02-.22.22,0,.14.04.74.04,2.12V-9.3c0,1.36-.04,1.98-.04,2.12,0,.2.02.22.22.22.14,0,.84-.04,2.8-.04H8.76v1.96H3.68c-1.76,0-2.36-.04-2.48-.04-.18,0-.2.02-.2.24v1.5c0,.2.02.22.2.22.12,0,.72-.04,2.48-.04ZM14.6-8.8H5.28v-1.78H14.6Zm0-5.24v1.7H5.28v-1.7ZM26.8-8.56v5.92a6.69,6.69,0,0,1-1.46-1.78c.08-.54.14-1.08.18-1.6a2.879,2.879,0,0,1,.14-.78.885.885,0,0,0,.1-.3c0-.12-.1-.18-.34-.24a14.714,14.714,0,0,0-1.68-.28,9.117,9.117,0,0,1,.02,1.28A13.219,13.219,0,0,1,22.12-.16a4,4,0,0,1,1,1.08c.16.24.26.38.36.38.12,0,.22-.16.38-.5a17.484,17.484,0,0,0,1.1-3.28A6.485,6.485,0,0,0,27.52,0c1.44.84,3.38,1.18,6.1,1.18,2.28,0,4.1-.04,6.18-.2.62-.04.62-.04.74-.68a4.783,4.783,0,0,1,.58-1.56,59.931,59.931,0,0,1-7.66.46,12.69,12.69,0,0,1-4.78-.7V-4.54h1.2c.9,0,1.26.04,1.38.04.2,0,.22-.02.22-.2V-6.16c0-.2-.02-.22-.22-.22-.12,0-.48.04-1.38.04h-1.2V-8.56h.44c1.72,0,2.32.04,2.44.04.2,0,.22-.02.22-.2V-10.2c0-.2-.02-.22-.22-.22-.12,0-.72.04-2.44.04h-.56v-1.94h.3c1.62,0,2.12.04,2.24.04.22,0,.24-.02.24-.22v-1.44c0-.2-.02-.22-.24-.22-.12,0-.62.04-2.24.04h-.3v-.4a6.226,6.226,0,0,1,.1-1.52.9.9,0,0,0,.1-.34c0-.12-.1-.18-.3-.22a20.033,20.033,0,0,0-2-.14,15.244,15.244,0,0,1,.14,2.62h-.82c-1.6,0-2.14-.04-2.26-.04-.2,0-.22.02-.22.22v1.44c0,.2.02.22.22.22.12,0,.66-.04,2.26-.04h.82v1.94H25.26c-1.72,0-2.32-.04-2.44-.04-.18,0-.2.02-.2.22v1.48c0,.18.02.2.2.2.12,0,.72-.04,2.44-.04Zm10.74-5.12v3.34H34.52c-1.12,0-1.64-.04-1.76-.04-.2,0-.22.02-.22.24,0,.12.04.72.04,1.92v4.2c0,.84.1,1.26.5,1.58.38.34,1.2.52,3.22.52,2,0,2.8-.24,3.32-.7a3.328,3.328,0,0,0,.92-2.34c.02-.64.02-.64-.6-.8a6.114,6.114,0,0,1-1.34-.56c-.04,1.3-.16,1.84-.42,2.1-.32.3-.86.36-1.76.36-1,0-1.46-.06-1.7-.26-.14-.14-.14-.36-.14-.78V-8.54H37.5c1.22,0,1.72.04,1.84.04.22,0,.24-.02.24-.2,0-.12-.04-.7-.04-1.96v-2.68c0-1.26.04-1.84.04-1.96,0-.2-.02-.22-.24-.22-.12,0-.62.04-1.84.04H34.6c-1.52,0-1.98-.04-2.1-.04-.2,0-.22.02-.22.22v1.44c0,.2.02.22.22.22.12,0,.58-.04,2.1-.04Zm14.08.4a35.264,35.264,0,0,1-4.98.32c.12.64.26,1.38.32,1.6.04.2.16.28.4.28a34.635,34.635,0,0,0,4.86-.48c.26.56.56,1.24.76,1.66a34.876,34.876,0,0,1-5.38.5,10.09,10.09,0,0,0,.36,1.64c.06.2.14.28.36.28a47.246,47.246,0,0,0,5.48-.6,23.258,23.258,0,0,0,1.66,2.36,9.262,9.262,0,0,0-3.44-.5c-3.12,0-4.96,1.34-4.96,3.48,0,2.46,2.44,3.76,7.04,3.76q.75,0,1.44-.06c.28-.02.36-.1.42-.3a13,13,0,0,0,.4-1.82c.02-.16-.04-.26-.24-.26-.72.04-1.46.12-2.2.12-3.06,0-4.76-.42-4.76-1.72,0-.94,1.1-1.52,2.98-1.52a9.737,9.737,0,0,1,3.76.64,5.036,5.036,0,0,1,1.18.64.532.532,0,0,0,.28.12c.12,0,.2-.06.32-.2a5.8,5.8,0,0,0,.82-1.24c.1-.22.1-.3-.1-.48a14.913,14.913,0,0,1-2.62-3.46,24.615,24.615,0,0,0,3.38-.98c.2-.08.2-.18.16-.36a7.584,7.584,0,0,0-.36-1.32c-.06-.18-.16-.22-.36-.12a23.489,23.489,0,0,1-3.64,1.04c-.26-.56-.52-1.18-.7-1.68,1.36-.3,2.58-.6,3.92-1.02a.306.306,0,0,0,.24-.36c-.08-.4-.22-.96-.34-1.34-.06-.16-.16-.18-.34-.1a31.192,31.192,0,0,1-4.08,1.06c-.12-.34-.18-.52-.32-1.04a3.55,3.55,0,0,1-.08-.6c0-.12.04-.26.04-.38,0-.2-.16-.36-.44-.36a14.143,14.143,0,0,0-2.42.22,5.073,5.073,0,0,1,.7,1.28C51.34-14.08,51.46-13.74,51.62-13.28Zm18.52-2.5a13.3,13.3,0,0,1,.2,3.66c-.1,2.4-.28,5.28-.28,8.64C70.06-.42,71.26.6,73.82.6a11.426,11.426,0,0,0,7.58-3c.32-.28.4-.44.4-.62a1.314,1.314,0,0,0-.16-.48,6.953,6.953,0,0,1-.46-1.9c-2.44,2.6-5.22,3.68-7,3.68-1.6,0-1.84-.46-1.84-2.48,0-2.62.1-4.66.3-7.74a11.988,11.988,0,0,1,.28-2.44,1.94,1.94,0,0,0,.2-.66c0-.2-.14-.3-.48-.38A20.685,20.685,0,0,0,70.14-15.78ZM95.18-12.5c.14-.5.28-1.18.48-1.9a3.808,3.808,0,0,1,.42-.8.48.48,0,0,0,.1-.32.333.333,0,0,0-.22-.32,11.656,11.656,0,0,0-2.52-.56,13.761,13.761,0,0,1-.12,1.84c-.14.82-.3,1.7-.5,2.5a27.029,27.029,0,0,1-3.24.2,9.23,9.23,0,0,1-1.48-.06c.1.72.2,1.4.28,1.82.04.26.12.32.42.32.94,0,2.34-.1,3.5-.22A75.076,75.076,0,0,1,88.84-.52a.322.322,0,0,0,.16.4c.42.24,1.4.66,1.6.74.22.06.34.08.44-.2,1.28-3.32,2.3-6.38,3.66-10.82a31.939,31.939,0,0,0,3.48-.76c.26-.06.32-.12.3-.38-.02-.42-.08-1-.14-1.44-.02-.16-.1-.26-.32-.2C97.04-12.9,95.96-12.64,95.18-12.5Zm.36,9.18a3.9,3.9,0,0,0,.9,2.74c.9.94,2.26,1.3,4.88,1.3A23.766,23.766,0,0,0,104.04.5c.32-.02.34-.08.32-.32a12.5,12.5,0,0,0-.16-1.74c-.02-.16-.08-.2-.24-.18a29.9,29.9,0,0,1-3.36.28c-1.92,0-2.9-.42-3.06-1.88-.02-.2-.1-.28-.3-.28A10.186,10.186,0,0,0,95.54-3.32ZM97.1-7.1a22.133,22.133,0,0,1,4.02-.46,13.375,13.375,0,0,1,2.48.24c.28.06.38-.02.38-.36a14.117,14.117,0,0,0-.02-1.6c0-.24-.06-.26-.34-.3a14.565,14.565,0,0,0-2.34-.2,20.888,20.888,0,0,0-3.9.46c-.3.06-.36.12-.36.4C97.02-8.52,97.06-7.8,97.1-7.1Zm29.06-5.48c0-1.94.04-2.96.04-3.08,0-.2-.02-.22-.22-.22-.14,0-.62.04-2.08.04h-2.48c-1.46,0-1.96-.04-2.08-.04-.2,0-.22.02-.22.22,0,.14.04,1.14.04,3.08v2.9c0,6-.5,7.74-2.86,10.1a4.391,4.391,0,0,1,1.22.86c.22.22.34.32.44.32.12,0,.22-.12.44-.36a9.984,9.984,0,0,0,2.5-6.02h3.3v3.6c0,.48-.2.64-.7.64-.62,0-1.02-.02-1.64-.06a5.032,5.032,0,0,1,.56,1.44c.12.6.12.6.74.6,1.54,0,2.06-.16,2.48-.52A1.974,1.974,0,0,0,126.2-.7c0-.82-.04-1.86-.04-2.76Zm-5.12,6c.04-.84.08-1.78.08-2.84h3.08v2.84Zm3.16-7.4v2.76h-3.08v-2.76ZM111.48-3.06c-1.68,0-2.26-.04-2.38-.04-.2,0-.22.02-.22.22V-1.6c0,.22.02.24.22.24.12,0,.7-.04,2.38-.04h1.22c0,1.82-.04,2.68-.04,2.82,0,.2.02.22.24.22h1.58c.18,0,.2-.02.2-.22,0-.1-.04-.98-.04-2.78V-1.4h.48c1.68,0,2.26.04,2.38.04.2,0,.22-.02.22-.24V-2.88c0-.2-.02-.22-.22-.22-.12,0-.7.04-2.38.04h-.48V-4.52h.5c1.46,0,1.96.04,2.1.04.2,0,.22-.02.22-.2,0-.14-.04-.66-.04-1.86v-2.9c0-1.18.04-1.72.04-1.84,0-.2-.02-.22-.22-.22-.14,0-.64.04-2.1.04h-.5V-12.9h.98c1.68,0,2.24.04,2.36.04.22,0,.24-.02.24-.22v-1.28c0-.2-.02-.22-.24-.22-.12,0-.68.04-2.36.04h-.98v-.36a2.8,2.8,0,0,1,.12-1.14.9.9,0,0,0,.1-.34c0-.12-.1-.18-.28-.22a18.434,18.434,0,0,0-2-.14,16.456,16.456,0,0,1,.12,2.2h-1.04c-1.68,0-2.24-.04-2.36-.04-.22,0-.24.02-.24.22v1.28c0,.2.02.22.24.22.12,0,.68-.04,2.36-.04h1.04v1.44h-.58c-1.48,0-1.94-.04-2.08-.04-.2,0-.22.02-.22.22,0,.14.04.66.04,1.84v2.9c0,1.2-.04,1.72-.04,1.86,0,.18.02.2.22.2.14,0,.62-.04,2.1-.04h.56v1.46Zm4.16-2.98h-3.98V-7.26h3.98Zm-3.98-3.9h3.98v1.22h-3.98Zm30.78,4.96a8.346,8.346,0,0,0-1.6-.16c-2.02,0-3.5,1.18-3.5,2.82,0,1.72,1.28,2.8,3.58,2.8,2.36,0,3.5-.92,3.66-2.6a11.877,11.877,0,0,1,2.16,1.6.276.276,0,0,0,.18.1.242.242,0,0,0,.18-.12,10.8,10.8,0,0,0,.92-1.54c.1-.22.08-.28-.1-.4A13.089,13.089,0,0,0,144.6-4.4c-.1-1.72-.14-3.12-.14-5.36a22.537,22.537,0,0,0,3.08-.42c.14-.02.22-.12.22-.3a8,8,0,0,0-.12-1.42c-.04-.22-.08-.3-.32-.24-.86.14-1.9.28-2.84.36,0-.92,0-1.44.04-2.12a2.256,2.256,0,0,1,.16-.7.858.858,0,0,0,.12-.34c0-.18-.14-.28-.36-.34a11.134,11.134,0,0,0-2.42-.38,8.244,8.244,0,0,1,.26,1.96c0,.74.02,1.38.02,2.1a28.932,28.932,0,0,1-4.56-.06,12.252,12.252,0,0,0,.14,1.82c.02.2.1.26.36.26a40.443,40.443,0,0,0,4.12.02C142.38-7.98,142.4-6.52,142.44-4.98Zm.04,1.9a2.818,2.818,0,0,1,.02.4c0,.72-.64,1.3-1.64,1.3-1.18,0-1.62-.38-1.62-1s.56-.96,1.5-.96A5.571,5.571,0,0,1,142.48-3.08ZM133.2-15.62a10.066,10.066,0,0,1-.14,2.36,43.443,43.443,0,0,0-.82,7.58,18.63,18.63,0,0,0,.86,6.1c.1.28.18.3.4.24A8.376,8.376,0,0,0,135,.32c.18-.06.26-.12.24-.26A3.777,3.777,0,0,1,135.26-1a11.855,11.855,0,0,1,1.02-3.04.58.58,0,0,0,.12-.32.432.432,0,0,0-.12-.28,5.319,5.319,0,0,1-.7-1.26c-.42,1-.84,1.86-1.24,2.78-.06-.84-.06-1.76-.06-2.56a39.716,39.716,0,0,1,1-7.28,4.059,4.059,0,0,1,.36-1.1,1.021,1.021,0,0,0,.14-.44c0-.16-.08-.28-.3-.4A15.618,15.618,0,0,0,133.2-15.62ZM12.02,20.92c1.22,0,2.16.04,2.82.04.3.02.36-.06.36-.4a10.155,10.155,0,0,0,0-1.56c0-.22-.06-.32-.24-.32-.78.04-1.84.1-3.14.1H8.22a27.555,27.555,0,0,1-3.28-.14,17.432,17.432,0,0,0,.1,1.92c.02.32.08.44.28.44.84-.06,1.84-.08,2.74-.08Zm1.52,4.28c-1.44,3.86-4.7,6.62-8.4,8.34A5.863,5.863,0,0,1,7,34.58a.653.653,0,0,0,.44.24.961.961,0,0,0,.4-.14A17.481,17.481,0,0,0,16,25.84a2.291,2.291,0,0,1,.68-.94.482.482,0,0,0,.22-.38.589.589,0,0,0-.2-.42,11.8,11.8,0,0,0-1.34-1.24.515.515,0,0,0-.3-.14.43.43,0,0,0-.26.12,2.2,2.2,0,0,1-1.06.22H6.88A35.394,35.394,0,0,1,3.2,22.9a15.161,15.161,0,0,0,.22,2.02c.04.26.12.38.3.38,1-.06,2-.08,3-.08ZM35.6,22.36a16.834,16.834,0,0,1-3.38,5.7,19.329,19.329,0,0,1-6.54,5,5.947,5.947,0,0,1,1.86,1.1.7.7,0,0,0,.5.22.968.968,0,0,0,.54-.18,22.427,22.427,0,0,0,5.68-4.76,23.552,23.552,0,0,0,3.88-6.5,2.408,2.408,0,0,1,.46-.78.682.682,0,0,0,.28-.5.5.5,0,0,0-.14-.34A6.155,6.155,0,0,0,37.28,20a.978.978,0,0,0-.38-.1.564.564,0,0,0-.3.08,1.913,1.913,0,0,1-1.1.2H28.36a35,35,0,0,1-3.84-.14c.04.58.12,1.62.18,2.02.04.28.12.42.38.4.86-.04,2-.1,3.3-.1Zm11.28-3.6a16.136,16.136,0,0,1-.36,2.98,38.18,38.18,0,0,0-.68,6.56,18.749,18.749,0,0,0,.92,5.96c.04.14.12.24.26.22a9.927,9.927,0,0,0,1.64-.32c.18-.04.26-.12.26-.26,0-.16-.04-.32-.04-.56a2.271,2.271,0,0,1,.06-.62,19.552,19.552,0,0,1,1.14-3.02.553.553,0,0,0,.1-.32.8.8,0,0,0-.14-.3,5.192,5.192,0,0,1-.7-1.26c-.58,1.4-.94,2.06-1.36,2.98a19.287,19.287,0,0,1-.12-2.34A32.407,32.407,0,0,1,48.7,22a4.725,4.725,0,0,1,.48-1.42c.26-.4.3-.46.3-.6,0-.18-.12-.3-.46-.48A8.851,8.851,0,0,0,46.88,18.76Zm4.6,10.32a4.406,4.406,0,0,0,.7,2.6c.86,1.18,2.24,1.66,5.2,1.66a26.853,26.853,0,0,0,3.26-.22c.34-.04.34-.06.34-.3a14.819,14.819,0,0,0-.12-1.72c-.04-.26-.08-.28-.28-.26a28.669,28.669,0,0,1-3.82.26c-2.18,0-3.14-.5-3.26-1.88,0-.22-.04-.32-.2-.3Zm.64-5.68a24.451,24.451,0,0,1,4.54-.46c1.02,0,2.06.04,3.26.12.18.02.24-.06.26-.24.04-.56.04-1.1.04-1.7,0-.2-.04-.24-.46-.26-.84-.08-1.76-.12-2.96-.12a31.932,31.932,0,0,0-4.34.36c-.2.04-.26.1-.28.34C52.14,21.78,52.14,22.28,52.12,23.4Zm27.76-1.66a14.226,14.226,0,0,1-3.58,3.5,4.612,4.612,0,0,1,1.66.82.782.782,0,0,0,.48.2.576.576,0,0,0,.42-.18,17.005,17.005,0,0,0,3.52-3.86,2.484,2.484,0,0,1,.54-.58.522.522,0,0,0,.28-.42.58.58,0,0,0-.16-.36,10.251,10.251,0,0,0-1.2-1.26.68.68,0,0,0-.46-.28,1.463,1.463,0,0,0-.38.14,4.213,4.213,0,0,1-1.38.12H71.04c-1.6,0-2.7-.04-4.06-.14a18.712,18.712,0,0,0,.36,2.16c.04.18.12.32.36.3,1.18-.08,2.4-.16,3.54-.16ZM68.18,33.36A5.628,5.628,0,0,1,70,34.38a.566.566,0,0,0,.4.18,1.006,1.006,0,0,0,.56-.2,10.41,10.41,0,0,0,3.64-3.98,12.226,12.226,0,0,0,1.18-5.5,1.829,1.829,0,0,1,.18-.82.815.815,0,0,0,.1-.36c0-.18-.08-.32-.34-.38a22.2,22.2,0,0,0-2.58-.38,7.23,7.23,0,0,1,.2,1.88,9.247,9.247,0,0,1-.98,4.72A8.856,8.856,0,0,1,68.18,33.36Zm21.28-8.78a11.822,11.822,0,0,1,1.88,3.22c.1.28.22.38.5.28a8.3,8.3,0,0,0,1.28-.62c.16-.1.24-.16.24-.28a1.353,1.353,0,0,0-.08-.3,10.711,10.711,0,0,0-1.72-2.96.358.358,0,0,0-.52-.14C90.62,23.98,90.14,24.2,89.46,24.58Zm4.02-1.02a13.607,13.607,0,0,1,1.68,3.2c.1.28.18.38.4.3a8.26,8.26,0,0,0,1.38-.62c.26-.14.3-.24.2-.54a11.55,11.55,0,0,0-1.54-2.92.352.352,0,0,0-.52-.16C94.74,22.96,94.28,23.18,93.48,23.56Zm6.3-.48a7.205,7.205,0,0,1-.46,2.12,20.709,20.709,0,0,1-2.7,4.82,17.39,17.39,0,0,1-4.8,4.16,4.515,4.515,0,0,1,1.7.84.458.458,0,0,0,.32.14.868.868,0,0,0,.48-.22,16.016,16.016,0,0,0,4.12-3.86,24.388,24.388,0,0,0,3.02-5.32,2.756,2.756,0,0,1,.6-1.02c.16-.14.22-.24.22-.36s-.1-.22-.26-.34A9.511,9.511,0,0,0,99.78,23.08Zm20.94-.46a16.834,16.834,0,0,1-3.38,5.7,19.329,19.329,0,0,1-6.54,5,5.947,5.947,0,0,1,1.86,1.1.7.7,0,0,0,.5.22.968.968,0,0,0,.54-.18,22.427,22.427,0,0,0,5.68-4.76,23.552,23.552,0,0,0,3.88-6.5,2.408,2.408,0,0,1,.46-.78.548.548,0,0,0,.2-.38.681.681,0,0,0-.16-.4,7.371,7.371,0,0,0-1.36-1.38.468.468,0,0,0-.34-.14.637.637,0,0,0-.34.12,1.913,1.913,0,0,1-1.1.2h-7.14a35,35,0,0,1-3.84-.14c.04.58.12,1.62.18,2.02.04.28.12.42.38.4.86-.04,2-.1,3.3-.1Zm4.44-5.98A2.11,2.11,0,0,0,123,18.78a2.16,2.16,0,1,0,2.16-2.14Zm0,.96a1.18,1.18,0,1,1-1.18,1.18A1.146,1.146,0,0,1,125.16,17.6Zm7.52,1.16a16.136,16.136,0,0,1-.36,2.98,38.18,38.18,0,0,0-.68,6.56,18.749,18.749,0,0,0,.92,5.96c.04.14.12.24.26.22a9.928,9.928,0,0,0,1.64-.32c.18-.04.26-.12.26-.26,0-.16-.04-.32-.04-.56a2.271,2.271,0,0,1,.06-.62,19.55,19.55,0,0,1,1.14-3.02.553.553,0,0,0,.1-.32.8.8,0,0,0-.14-.3,5.192,5.192,0,0,1-.7-1.26c-.58,1.4-.94,2.06-1.36,2.98a19.286,19.286,0,0,1-.12-2.34A32.407,32.407,0,0,1,134.5,22a4.725,4.725,0,0,1,.48-1.42c.26-.4.3-.46.3-.6,0-.18-.12-.3-.46-.48A8.851,8.851,0,0,0,132.68,18.76Zm4.6,10.32a4.406,4.406,0,0,0,.7,2.6c.86,1.18,2.24,1.66,5.2,1.66a26.853,26.853,0,0,0,3.26-.22c.34-.04.34-.06.34-.3a14.819,14.819,0,0,0-.12-1.72c-.04-.26-.08-.28-.28-.26a28.669,28.669,0,0,1-3.82.26c-2.18,0-3.14-.5-3.26-1.88,0-.22-.04-.32-.2-.3Zm.64-5.68a24.451,24.451,0,0,1,4.54-.46c1.02,0,2.06.04,3.26.12.18.02.24-.06.26-.24.04-.56.04-1.1.04-1.7,0-.2-.04-.24-.46-.26-.84-.08-1.76-.12-2.96-.12a31.932,31.932,0,0,0-4.34.36c-.2.04-.26.1-.28.34C137.94,21.78,137.94,22.28,137.92,23.4Zm18.02-5.18a13.3,13.3,0,0,1,.2,3.66c-.1,2.4-.28,5.28-.28,8.64,0,3.06,1.2,4.08,3.76,4.08a11.426,11.426,0,0,0,7.58-3c.32-.28.4-.44.4-.62a1.314,1.314,0,0,0-.16-.48,6.953,6.953,0,0,1-.46-1.9c-2.44,2.6-5.22,3.68-7,3.68-1.6,0-1.84-.46-1.84-2.48,0-2.62.1-4.66.3-7.74a11.989,11.989,0,0,1,.28-2.44,1.94,1.94,0,0,0,.2-.66c0-.2-.14-.3-.48-.38A20.685,20.685,0,0,0,155.94,18.22Zm25.28,3.72c-2.42,1.58-3.84,3.5-3.84,6.34,0,4.16,3.86,6.18,7.38,6.18.24,0,.32-.12.38-.42a7.114,7.114,0,0,0,.22-1.72c0-.22-.12-.3-.44-.3-3.48-.22-5.32-1.62-5.32-4.2,0-2.4,1.7-4.74,5.1-5.9a8.924,8.924,0,0,1,2.44-.44c.26,0,.38-.06.38-.3a11.426,11.426,0,0,0-.22-1.76c-.02-.14-.12-.26-.42-.22-5.16.68-9.56,1.34-12.02,1.7a27.591,27.591,0,0,1-3.18.34,13.937,13.937,0,0,0,.74,2.16.468.468,0,0,0,.38.3,1.168,1.168,0,0,0,.44-.16c.3-.1.5-.14,1.26-.32,2.14-.44,4.28-.86,6.72-1.32ZM6.42,61.72c-1.46.84-2.4,1.38-3.26,1.86a7.385,7.385,0,0,1-1.84.7c.3.66.7,1.5.92,1.86a.561.561,0,0,0,.44.32.5.5,0,0,0,.34-.14,3.625,3.625,0,0,1,.64-.44A12.3,12.3,0,0,1,6.5,68.44c.18.26.26.42.48.4a8.128,8.128,0,0,0,1.48-.24c.34-.08.3-.38.3-.66,0-.46-.1-1.72-.16-2.6-.04-.88-.06-1.56-.08-2.4a9.891,9.891,0,0,1,4.58-1.36c1.4,0,2.2.72,2.2,2.02a1.985,1.985,0,0,1-2.16,2.06,7.46,7.46,0,0,1-2.5-.36,3.5,3.5,0,0,1,.6,1.7.536.536,0,0,0,.44.6,7.751,7.751,0,0,0,1.64.18c2.7,0,4.34-1.5,4.34-4.06a3.958,3.958,0,0,0-4.26-4,12.623,12.623,0,0,0-4.92,1.1c.02-.96.02-1.94.04-2.9a20.384,20.384,0,0,0,2.86-.76c.2-.06.26-.12.26-.32a10.052,10.052,0,0,0-.12-1.56c-.02-.2-.16-.24-.34-.18a19.611,19.611,0,0,1-2.56.74c.02-.64.04-1.14.1-1.66A2.448,2.448,0,0,1,9,53.4a.709.709,0,0,0,.12-.32c0-.18-.16-.32-.4-.38a11.335,11.335,0,0,0-2.38-.36,7.394,7.394,0,0,1,.14,1.62c0,.86-.02,1.62-.02,2.28-.84.08-1.7.16-2.54.16a10.217,10.217,0,0,1-1.56-.1c.08.7.16,1.36.22,1.74.04.3.14.42.48.42,1.34,0,2.36-.08,3.36-.16Zm.1,2.1c.04.66.08,1.58.12,2.1.02.18-.04.2-.2.16a20.51,20.51,0,0,1-1.88-.9C5.28,64.66,5.96,64.2,6.52,63.82Zm6.68-7.58a9.232,9.232,0,0,1,4.06,2.46c.06.1.34.08.4,0,.3-.4.82-1.02,1.08-1.42a.519.519,0,0,0,.08-.2c0-.06-.04-.12-.12-.2a9.507,9.507,0,0,0-4.24-2.44c-.14-.04-.2.02-.34.24A12.27,12.27,0,0,0,13.2,56.24ZM29.36,58.6c1.78,0,2.38.04,2.5.04h.1a9.779,9.779,0,0,1-.82,1.2,4.2,4.2,0,0,1,.94,1.1c.16.24.26.34.36.34s.2-.1.36-.32c.24-.38.48-.74.68-1.1a18.413,18.413,0,0,0,1.7,4.48,12.042,12.042,0,0,1-4.12,3.4,3.39,3.39,0,0,0,.02-.46c0-.62-.04-1.72-.04-2.72v-2.4c0-1.54.04-2.14.04-2.26,0-.38-.02-.4-.22-.4-.12,0-.62.04-2.1.04H26.1c-1.48,0-2-.04-2.12-.04-.2,0-.22.02-.22.24,0,.12.04.78.04,2.26v4.66c0,1.8-.04,2.52-.04,2.64,0,.2.02.22.22.22h1.46c.22,0,.24-.02.24-.22,0-.1-.04-.9-.04-2.66v-.58H29.2v1.02c0,.4-.12.6-.68.6-.38,0-.64-.02-1.1-.06a5.805,5.805,0,0,1,.48,1.28c.1.48.12.46.74.46,1.36-.02,1.64-.16,1.98-.44a1.523,1.523,0,0,0,.44-1.06,5.591,5.591,0,0,1,.92,1.1c.18.3.26.42.4.42a.994.994,0,0,0,.46-.2,13.818,13.818,0,0,0,3.5-3.1,17.7,17.7,0,0,0,3.08,3.02c.24.16.36.24.48.24s.2-.12.34-.44a4.878,4.878,0,0,1,.94-1.42,14.31,14.31,0,0,1-3.66-3.16,17.673,17.673,0,0,0,1.98-7.7c.68,0,1,.02,1.08.02.2,0,.22-.02.22-.24V54.98c0-.2-.02-.22-.22-.22-.12,0-.74.04-2.54.04H35.62l.44-1.54a3.4,3.4,0,0,1,.4-1.04.458.458,0,0,0,.14-.32c0-.14-.14-.24-.4-.3-.6-.16-1.14-.28-1.82-.4a12.1,12.1,0,0,1-.28,1.78,18.951,18.951,0,0,1-2.02,5.48V57.12c0-.2-.02-.22-.22-.22-.1,0-.54.04-1.64.04v-1.7c.98.02,1.34.04,1.44.04.2,0,.22-.02.22-.24v-1.3c0-.2-.02-.22-.22-.22-.1,0-.46.04-1.44.04a4.667,4.667,0,0,1,.12-1.38,1.679,1.679,0,0,0,.14-.52c0-.1-.1-.2-.34-.22-.68-.08-1.18-.12-1.9-.14a13.442,13.442,0,0,1,.14,2.26h-1.9a5.31,5.31,0,0,1,.1-1.42,1.457,1.457,0,0,0,.14-.48c0-.1-.1-.18-.32-.22-.68-.08-1.18-.12-1.9-.14a13.442,13.442,0,0,1,.14,2.26c-1.02,0-1.38-.04-1.48-.04-.22,0-.24.02-.24.22v1.3c0,.22.02.24.24.24.1,0,.46-.02,1.48-.04v1.7c-1.32,0-1.82-.04-1.92-.04-.2,0-.22.02-.22.22v1.3c0,.2.02.22.22.22.12,0,.7-.04,2.48-.04Zm8.2-2a17.29,17.29,0,0,1-1.24,5.84,17.455,17.455,0,0,1-1.58-5.16c.08-.22.18-.44.26-.68Zm-11.92,8v-1H29.2v1Zm3.56-3.42v.98H25.64v-.98Zm-2.72-4.24v-1.7h1.9v1.7ZM52.46,59.3v2.98c0,.5-.26.74-.94.74a14.919,14.919,0,0,1-1.7-.12,6.384,6.384,0,0,1,.6,1.46c.14.66.14.66.76.64,1.82,0,2.3-.14,2.76-.5.52-.42.62-.88.62-1.76,0-.74-.06-1.58-.06-2.52V59.3h4.62c1.82,0,2.44.04,2.56.04.2,0,.22-.02.22-.22V57.64c0-.2-.02-.2-.22-.2-.12,0-.74.02-2.56.02H54.5V55.48h2.6c1.96,0,2.66.04,2.78.04.2,0,.22-.02.22-.2V53.86c0-.2-.02-.22-.22-.22-.12,0-.82.04-2.78.04H54.5V53.6a4.625,4.625,0,0,1,.14-1.54,1.467,1.467,0,0,0,.1-.4c0-.12-.12-.18-.28-.2-.66-.08-1.44-.12-2.16-.14a10.711,10.711,0,0,1,.16,2.42v3.72H49.68v-2.2a5.1,5.1,0,0,1,.12-1.58.935.935,0,0,0,.12-.38c0-.12-.12-.2-.3-.22-.66-.08-1.42-.12-2.16-.14a12.155,12.155,0,0,1,.16,2.44v2.08h-.24c-1.82,0-2.42-.02-2.56-.02-.2,0-.22,0-.22.2v1.48c0,.2.02.22.22.22.14,0,.74-.04,2.56-.04Zm4.22,3.56a4.459,4.459,0,0,1-.72.96c-1.76,1.94-5.2,3.52-10.6,3.7a4.9,4.9,0,0,1,.8,1.38c.22.6.22.6.82.54,5.3-.48,8.38-2.18,10.6-4.32a1.644,1.644,0,0,1,.68-.44c.16-.04.28-.14.28-.28,0-.16-.1-.26-.24-.4A18.926,18.926,0,0,0,56.68,62.86ZM48.22,59.9a5.549,5.549,0,0,1-.66,1.14,9.378,9.378,0,0,1-3.04,2.58,4.934,4.934,0,0,1,.98.96c.22.3.32.44.46.44a.987.987,0,0,0,.46-.24,11.587,11.587,0,0,0,3.04-3.06,1.89,1.89,0,0,1,.44-.5c.14-.08.24-.16.24-.3,0-.1-.02-.18-.22-.28A15.632,15.632,0,0,0,48.22,59.9Zm8.84.82c-.24.16-.26.2-.14.36a14.92,14.92,0,0,0,3.66,3.42c.24.14.36.24.46.24.14,0,.22-.14.42-.44a7.434,7.434,0,0,1,.96-1.14,11.363,11.363,0,0,1-3.96-3.06c-.12-.18-.16-.16-.36-.04Zm8.74.02a18.451,18.451,0,0,0,1.64,2.08.524.524,0,0,0,.38.18.428.428,0,0,0,.36-.24,4.952,4.952,0,0,1,.72-.88c.94-.94,2.38-2.32,3.36-3.3.26-.24.46-.42.68-.42a1.283,1.283,0,0,1,.88.46c1.32,1.18,2.76,2.46,4.2,3.54,1.18.92,3.36,2.52,4.32,3.08a.476.476,0,0,0,.28.1c.08,0,.16-.06.26-.2a8.41,8.41,0,0,0,.98-1.88c.1-.18,0-.34-.2-.42a46.088,46.088,0,0,1-4.72-2.94c-1.96-1.44-2.82-2.24-4.32-3.44a2.393,2.393,0,0,0-1.74-.74,2.518,2.518,0,0,0-1.74.84c-1.48,1.34-2.92,2.58-3.58,3.1A6.861,6.861,0,0,1,65.8,60.74Z" transform="translate(-1 16.74)" fill="#1c3534"/>
</svg>
