<svg xmlns="http://www.w3.org/2000/svg" width="150.485" height="148.408" viewBox="0 0 150.485 148.408">
  <g id="グループ_1280" data-name="グループ 1280" transform="matrix(0.966, -0.259, 0.259, 0.966, -10.79, 40.639)">
    <path id="パス_1147" data-name="パス 1147" d="M-37.366-9.73c-.91,0-1.61,0-2.366-.056a8.156,8.156,0,0,0,.126,1.456c.028.154.07.252.182.238.756-.056,1.484-.084,2.212-.084L-33.6-8.19a17.173,17.173,0,0,1-2.632,3.514,17.006,17.006,0,0,1-4.928,3.57,3.836,3.836,0,0,1,1.176.91.313.313,0,0,0,.238.126.886.886,0,0,0,.322-.112,20.142,20.142,0,0,0,4.7-3.7A25.484,25.484,0,0,1-31.08-.406a.287.287,0,0,0,.2.112.242.242,0,0,0,.168-.084,7.5,7.5,0,0,0,.938-.952.346.346,0,0,0,.1-.21.318.318,0,0,0-.112-.2A32.917,32.917,0,0,0-33.67-5.124a22.093,22.093,0,0,0,1.792-2.618,2.564,2.564,0,0,1,.518-.616.386.386,0,0,0,.182-.28.373.373,0,0,0-.07-.182,5.1,5.1,0,0,0-.91-.98.463.463,0,0,0-.238-.112.233.233,0,0,0-.154.056,2.056,2.056,0,0,1-.966.126Zm16.52.476c.238-.364.322-.5.434-.7a1.17,1.17,0,0,1,.294-.294.378.378,0,0,0,.168-.28.246.246,0,0,0-.154-.224,8.817,8.817,0,0,0-1.638-.686A5.164,5.164,0,0,1-22.5-9.716a15.62,15.62,0,0,1-3.962,4.4,5.833,5.833,0,0,1,1.176.644.321.321,0,0,0,.224.1.5.5,0,0,0,.28-.126,16.906,16.906,0,0,0,3-3.15l3.472-.07A13.5,13.5,0,0,1-19.95-5.152a14.037,14.037,0,0,0-1.806-1.12.363.363,0,0,0-.14-.056.264.264,0,0,0-.182.1c-.322.294-.616.658-.924.994A11.7,11.7,0,0,1-20.986-3.92,16.977,16.977,0,0,1-26.138-.126a3.978,3.978,0,0,1,1.33.714.42.42,0,0,0,.266.126.762.762,0,0,0,.35-.126,17.061,17.061,0,0,0,4.466-3.5,15.516,15.516,0,0,1,1.358,1.358.243.243,0,0,0,.154.084.291.291,0,0,0,.168-.07,8.605,8.605,0,0,0,.868-.882.271.271,0,0,0,.084-.182.276.276,0,0,0-.084-.2A12.446,12.446,0,0,0-18.69-4.214,21.852,21.852,0,0,0-16.632-7.6a1.756,1.756,0,0,1,.42-.532.358.358,0,0,0,.154-.266.342.342,0,0,0-.112-.252,4.536,4.536,0,0,0-.952-.854.482.482,0,0,0-.252-.112.409.409,0,0,0-.238.1,1.37,1.37,0,0,1-.77.21Zm15.064,2A22.161,22.161,0,0,0-4.144-9.016a4.612,4.612,0,0,1,.84-.77.4.4,0,0,0,.2-.308.248.248,0,0,0-.112-.21,12.455,12.455,0,0,0-1.554-.98,4.058,4.058,0,0,1-.882,1.442A22.714,22.714,0,0,1-8.638-6.916a22.474,22.474,0,0,1-4.41,2.87,5.24,5.24,0,0,1,1.2.826.39.39,0,0,0,.294.14.4.4,0,0,0,.21-.056A24.22,24.22,0,0,0-7.49-5.824v3.262c0,.952-.042,1.862-.056,2.87-.014.168.042.224.2.224a11.677,11.677,0,0,0,1.4,0c.154,0,.224-.056.21-.238-.028-1.12-.042-1.946-.042-2.912Zm9.3,1.232c0,.6-.042,1.414-.042,1.9-.014.168.07.238.266.238h1.12c.224,0,.308-.07.308-.28-.014-.49-.042-1.036-.042-1.764V-8.75a3.222,3.222,0,0,1,.154-1.33.587.587,0,0,0,.056-.21c0-.1-.07-.182-.238-.224a10.361,10.361,0,0,0-1.736-.294,9.585,9.585,0,0,1,.154,2.044Zm6.594-2.73a4.218,4.218,0,0,1,.126-1.526.443.443,0,0,0,.056-.224.235.235,0,0,0-.2-.238,8.761,8.761,0,0,0-1.82-.308,10.279,10.279,0,0,1,.154,2.282v2.646A5.768,5.768,0,0,1,7.49-2.38,6.841,6.841,0,0,1,4.074-.336a4.548,4.548,0,0,1,1.19.854A.454.454,0,0,0,5.6.686a.885.885,0,0,0,.294-.07,7.223,7.223,0,0,0,3.08-2.2,7.226,7.226,0,0,0,1.134-4.564Zm5.782.028A14.82,14.82,0,0,1,18.746-6.44c.07.07.126.112.182.112s.1-.042.168-.112c.2-.21.658-.77.868-1.05a.3.3,0,0,0,.084-.182c0-.056-.042-.112-.126-.2a14.6,14.6,0,0,0-2.674-1.988.373.373,0,0,0-.182-.07.262.262,0,0,0-.2.112C16.6-9.534,16.2-9.1,15.89-8.722ZM16.2-1.736a9.7,9.7,0,0,0,1.12,1.554.363.363,0,0,0,.238.154.387.387,0,0,0,.252-.14,4.832,4.832,0,0,1,.938-.644,30.1,30.1,0,0,0,4.228-2.744,22.883,22.883,0,0,0,3.22-2.968c.154-.182.224-.294.224-.42a.685.685,0,0,0-.07-.266,6.249,6.249,0,0,1-.392-1.638A21.033,21.033,0,0,1,22.12-5.04a20.752,20.752,0,0,1-4.032,2.6A8.434,8.434,0,0,1,16.2-1.736ZM34.944-8.82c.168-.252.308-.462.462-.7a1.519,1.519,0,0,1,.35-.378.279.279,0,0,0,.154-.238.292.292,0,0,0-.14-.238,6.887,6.887,0,0,0-1.638-.742,5.979,5.979,0,0,1-.826,1.89A16.606,16.606,0,0,1,29.54-5.068a3.8,3.8,0,0,1,1.344.6.336.336,0,0,0,.21.084.435.435,0,0,0,.294-.154,19.5,19.5,0,0,0,2.646-2.87l3.388-.1a14.263,14.263,0,0,1-2.59,3.976A16.128,16.128,0,0,1,30.17.042,3.685,3.685,0,0,1,31.5.686a.493.493,0,0,0,.322.154.379.379,0,0,0,.224-.07A17.782,17.782,0,0,0,36.3-2.716a19.3,19.3,0,0,0,2.772-4.326,1.686,1.686,0,0,1,.462-.6.4.4,0,0,0,.168-.294.454.454,0,0,0-.182-.322,6.458,6.458,0,0,0-.952-.756.406.406,0,0,0-.224-.084.281.281,0,0,0-.182.056,1.3,1.3,0,0,1-.7.168Zm3.514-1.428a6.947,6.947,0,0,1,1.414,1.624.146.146,0,0,0,.238.042l.588-.434a.141.141,0,0,0,.042-.224,6.444,6.444,0,0,0-1.33-1.5c-.084-.07-.14-.084-.21-.028Zm1.288-.924a6.623,6.623,0,0,1,1.4,1.61.144.144,0,0,0,.238.042l.56-.434a.162.162,0,0,0,.042-.252,5.847,5.847,0,0,0-1.33-1.442c-.084-.07-.126-.084-.21-.028ZM-30.478,19.194h.518c1.2,0,1.624.028,1.708.028.14,0,.154-.014.154-.14v-.84c0-.14-.014-.154-.154-.154-.084,0-.5.028-1.708.028h-.518v-.6h.6c1.176,0,1.582.028,1.68.028.14,0,.154-.014.154-.154,0-.084-.028-.42-.028-1.162v-1.5c0-.756.028-1.078.028-1.148,0-.14-.014-.154-.154-.154-.1,0-.5.028-1.68.028h-.6v-.616h.812c1.246,0,1.708.028,1.792.028.126,0,.112-.014.112-.154v-.826c0-.14-.014-.154-.14-.154-.084,0-.518.028-1.764.028h-.812v-.784c.574-.07,1.134-.168,1.694-.28a4.1,4.1,0,0,1,.63-.1c.182,0,.294-.056.294-.14a.342.342,0,0,0-.112-.252,6.066,6.066,0,0,0-.8-.77,5.089,5.089,0,0,1-.77.238,26.85,26.85,0,0,1-4.956.532,2.815,2.815,0,0,1,.434.756c.112.322.126.336.518.308.6-.028,1.2-.084,1.806-.14v.63h-1.036c-1.26,0-1.694-.028-1.778-.028-.14,0-.154.014-.154.154v.826c0,.14.014.154.154.154.084,0,.518-.028,1.778-.028h1.036v.616h-.56c-1.19,0-1.6-.028-1.68-.028-.154,0-.168.014-.168.154,0,.07.028.392.028,1.148v1.5c0,.742-.028,1.064-.028,1.162,0,.14.014.154.168.154.084,0,.49-.028,1.68-.028h.56v.6h-.826c-1.218,0-1.624-.028-1.708-.028-.14,0-.154.014-.154.154v.84c0,.126.014.14.154.14.084,0,.49-.028,1.708-.028h.826v.812c-.56.056-1.092.084-1.582.112a12.778,12.778,0,0,1-1.47.014c.07.42.154.868.238,1.232.042.154.112.238.2.238a.543.543,0,0,0,.238-.084,2.251,2.251,0,0,1,.518-.1c1.582-.168,3.4-.434,4.886-.728a1.094,1.094,0,0,0,.266-.056c-.14.154-.294.294-.448.434a2.6,2.6,0,0,1,.9.672c.126.126.2.2.266.2s.154-.07.294-.21a8.91,8.91,0,0,0,2.072-3.99,24.663,24.663,0,0,0,.518-4.018h1.176a39.786,39.786,0,0,1-.35,5.922c-.1.658-.336.882-.756.882a7.514,7.514,0,0,1-1.162-.112,3.193,3.193,0,0,1,.28.938c.042.462.042.462.364.49.238.014.476.028.77.028a1.6,1.6,0,0,0,1.778-1.54,42.858,42.858,0,0,0,.406-6.412c0-.448,0-.854.028-1.33,0-.14-.028-.168-.168-.168-.084,0-.448.028-1.526.028h-.8c.014-.35.014-.7.014-1.078A6.032,6.032,0,0,1-24.71,9.94a1.075,1.075,0,0,0,.084-.336c0-.084-.07-.14-.21-.154-.49-.056-.9-.084-1.4-.1a13.853,13.853,0,0,1,.1,1.974c0,.392-.014.756-.014,1.12-.868,0-1.19-.028-1.26-.028-.154,0-.168.014-.168.154v1.022c0,.14.014.154.168.154.07,0,.378-.014,1.2-.028a19.219,19.219,0,0,1-.462,3.57,7.9,7.9,0,0,1-1.6,3.136l.042-.252a5.792,5.792,0,0,1,.126-.644c-.826.14-1.624.252-2.38.336Zm1.218-2.576h-1.218v-.742h1.218Zm0-2.282v.728h-1.218v-.728Zm-3.64,2.282v-.742h1.162v.742Zm0-1.554v-.728h1.162v.728Zm18.018-3.906V12.53h-.784c-1.246,0-1.666-.028-1.764-.028-.14,0-.154.014-.154.168,0,.084.028.518.028,1.512V17.36c0,.98-.028,1.428-.028,1.512,0,.14.014.154.154.154.1,0,.518-.028,1.764-.028h2.94c1.26,0,1.68.028,1.764.028.154,0,.168-.014.168-.154,0-.084-.028-.532-.028-1.512V14.182c0-.994.028-1.428.028-1.512,0-.154-.014-.168-.168-.168-.084,0-.5.028-1.764.028h-.854V11.158H-10c1.274,0,1.694.028,1.778.028.14,0,.154-.014.154-.14V9.968c0-.154-.014-.168-.154-.168-.084,0-.5.028-1.778.028h-8.4c-1.26,0-1.694-.028-1.778-.028-.14,0-.154.014-.154.168v1.078c0,.126.014.14.154.14.084,0,.518-.028,1.778-.028ZM-12.1,17.85h-1.5V16.24h1.5Zm-4.2,0V16.24h1.428v1.61Zm4.2-4.172v1.484h-1.5V13.678Zm-4.2,1.484V13.678h1.428v1.484Zm6.58,4.872h-8.932V14.672a4.709,4.709,0,0,1,.1-1.456.61.61,0,0,0,.1-.294c0-.112-.1-.182-.266-.21-.448-.056-.854-.084-1.4-.112a16.14,16.14,0,0,1,.084,1.974v4.578c0,1.764-.028,2.66-.028,2.758,0,.14.014.154.154.154H-18.8c.14,0,.154-.014.154-.154v-.56h8.932v.56c0,.14.014.154.154.154h1.12c.14,0,.154-.014.154-.154,0-.084-.028-1.008-.028-2.786V14.658a4.246,4.246,0,0,1,.112-1.47.461.461,0,0,0,.084-.266c0-.126-.1-.182-.266-.21-.448-.056-.882-.084-1.414-.112a18.548,18.548,0,0,1,.084,2.044Zm11.228-3.3c1.19-.49,2.1-.8,3.01-1.12a4.477,4.477,0,0,1,.854-.21c.14-.028.21-.084.21-.2a.554.554,0,0,0-.112-.308,8.624,8.624,0,0,0-.98-1.232,4.21,4.21,0,0,1-1.064.756c-.714.364-1.512.728-2.058.98A1.546,1.546,0,0,0-.336,13.888a2.786,2.786,0,0,0-1.4.434l-.014-.028A14.447,14.447,0,0,0-.7,12.74c1.022-.112,2.226-.266,3.276-.42.2-.028.252-.084.238-.224a4.72,4.72,0,0,0-.14-1.008c-.028-.126-.07-.168-.224-.14A22.521,22.521,0,0,1-.1,11.382c.168-.378.238-.56.322-.756a1.09,1.09,0,0,1,.238-.336.27.27,0,0,0,.1-.21.251.251,0,0,0-.168-.238A8.84,8.84,0,0,0-1.2,9.45a3.408,3.408,0,0,1-.1.854,10.788,10.788,0,0,1-.42,1.2,30.881,30.881,0,0,1-3.22.014c.042.42.1.938.14,1.162.028.154.07.224.2.224.826,0,1.582-.014,2.24-.042a14.306,14.306,0,0,1-2.926,3.472c-.07.056-.1.1-.1.154a.228.228,0,0,0,.056.126,6.659,6.659,0,0,0,.8.924.279.279,0,0,0,.154.1c.056,0,.1-.042.168-.126a18.866,18.866,0,0,1,1.4-1.526A3.38,3.38,0,0,1-.882,14.98c.63-.028.8.252.84.966C-2.156,17.038-3,18.018-3,19.362c0,1.624,1.218,2.31,3.514,2.31A24.9,24.9,0,0,0,3.99,21.49c.112,0,.168-.1.154-.266a6.265,6.265,0,0,0-.126-1.148c-.014-.126-.07-.168-.2-.154a23.926,23.926,0,0,1-3.486.28c-1.47,0-1.946-.378-1.946-.966,0-.672.448-1.218,1.694-1.862-.014.5-.014,1.2-.014,1.708,0,.14.056.224.182.224a7.574,7.574,0,0,0,.994-.07c.182-.028.266-.1.266-.252Zm14.714.994h.252c1.344,0,1.82.028,1.918.028.14,0,.154-.014.154-.154,0-.084-.028-.616-.028-1.708V11.7c0-1.12.028-1.638.028-1.736,0-.14-.014-.154-.154-.154-.1,0-.574.028-1.918.028H11.97c-1.358,0-1.834-.028-1.918-.028-.154,0-.168.014-.168.154,0,.1.028.616.028,1.736V15.89c0,1.092-.028,1.61-.028,1.708,0,.14.014.154.168.154.084,0,.532-.028,1.89-.028h.028c-.28,1.75-1.582,2.786-4.06,3.094a3.242,3.242,0,0,1,.686.91c.14.28.182.35.322.35a1.6,1.6,0,0,0,.294-.042,5.019,5.019,0,0,0,4.3-4.312h1.26v2.9a.917.917,0,0,0,.574.994,6.758,6.758,0,0,0,2.114.2,4.347,4.347,0,0,0,2.338-.42c.392-.28.574-.644.658-1.624.042-.35.042-.35-.308-.476a4.943,4.943,0,0,1-1.022-.49c-.014.938-.126,1.316-.35,1.484a2.757,2.757,0,0,1-1.2.182,4.752,4.752,0,0,1-1.092-.07c-.182-.042-.252-.14-.252-.462Zm.84-1.2H11.354V15.484h5.712Zm0-5.4v1.022H11.354V11.116Zm-5.712,3.192v-.994h5.712v.994Zm16.156.784c1.064-1.022,2-2,3.024-3a2.259,2.259,0,0,1,.616-.448.37.37,0,0,0,.238-.336.486.486,0,0,0-.154-.336,5.3,5.3,0,0,0-.938-.9.5.5,0,0,0-.322-.112.723.723,0,0,0-.266.112,3.715,3.715,0,0,1-.77.21c-1.092.21-2.324.392-3.178.476a6.747,6.747,0,0,1-1.3-.028,6.7,6.7,0,0,0,.49,1.512.318.318,0,0,0,.308.238,1.027,1.027,0,0,0,.28-.07,4.309,4.309,0,0,1,.588-.168c.868-.182,1.862-.378,2.7-.532-.644.8-1.3,1.5-2.17,2.394a33.7,33.7,0,0,1-3.318,3.094c-.112.112-.154.21-.07.322a6.3,6.3,0,0,0,.826.91.344.344,0,0,0,.21.126c.07,0,.14-.056.238-.154.42-.42.812-.826,1.218-1.19a5.7,5.7,0,0,1,3.584-1.484,2.044,2.044,0,0,1,2.2,2.114,2.109,2.109,0,0,1-1.428,2.128,2.548,2.548,0,0,0-2.632-2.044,1.858,1.858,0,0,0-1.974,1.708c0,1.3,1.064,2.058,2.828,2.058,3,0,4.886-1.5,4.886-3.836A3.249,3.249,0,0,0,29.75,14.5a4.213,4.213,0,0,0-2.226.63Zm1.218,5.236a3.065,3.065,0,0,1-.644.056c-.84,0-1.218-.294-1.218-.728,0-.294.266-.532.672-.532C28.126,19.124,28.546,19.558,28.728,20.328Z" transform="translate(72.551 44.548)" fill="#fff"/>
    <g id="パス_1106" data-name="パス 1106" transform="matrix(0.695, -0.719, 0.719, 0.695, -3.342, 54.161)" fill="none">
      <path d="M65.359,111.39l10.724-2.228c19.743-4.1,33.553-22.725,30.846-41.6l-2.579-17.983C99.479,15.616,66.722-5.934,31.185,1.45h0C11.443,5.552-2.368,24.175.339,43.045L4.388,71.279C8.448,99.584,35.746,117.543,65.359,111.39Z" stroke="none"/>
      <path d="M 53.7497673034668 111.5975570678711 C 57.52751541137695 111.5975570678711 61.36511611938477 111.1981887817383 65.15592956542969 110.4105377197266 L 75.88005065917969 108.1823043823242 C 80.58383178710938 107.2049560546875 85.02086639404297 105.3761520385742 89.06790161132812 102.7466735839844 C 92.97754669189453 100.2064361572266 96.36019897460938 97.03020477294922 99.12187957763672 93.30616760253906 C 101.8806533813477 89.58606719970703 103.8797988891602 85.50798797607422 105.063835144043 81.18520355224609 C 106.2872848510742 76.71849060058594 106.5820999145508 72.18406677246094 105.9401168823242 67.70790100097656 L 103.3609008789062 49.72473526000977 C 102.3452529907227 42.64337158203125 100.0820465087891 35.97333526611328 96.63414764404297 29.89993667602539 C 93.30276489257812 24.03180313110352 88.947265625 18.85536956787109 83.68863677978516 14.5143871307373 C 78.47148132324219 10.20767021179199 72.52596282958984 6.854086875915527 66.01721954345703 4.54680347442627 C 59.37825012207031 2.193353652954102 52.34679794311523 1.000053644180298 45.11823272705078 1.000053644180298 C 40.57031631469727 1.000053644180298 35.95101547241211 1.480703592300415 31.38864898681641 2.428670406341553 C 26.68485069274902 3.406020402908325 22.24783325195312 5.234820365905762 18.2007999420166 7.864303588867188 C 14.29115009307861 10.40453720092773 10.9084997177124 13.58078670501709 8.146833419799805 17.3048038482666 C 5.388049602508545 21.0249195098877 3.388899803161621 25.10300445556641 2.204866409301758 29.4257869720459 C 0.9814331531524658 33.89250183105469 0.6865998506546021 38.42690277099609 1.328583121299744 42.90306854248047 L 5.377949714660645 71.13663482666016 C 6.221349716186523 77.01706695556641 8.100616455078125 82.55568695068359 10.96353340148926 87.59861755371094 C 13.72961616516113 92.47095489501953 17.34613227844238 96.76907348632812 21.71263313293457 100.3735504150391 C 26.0451831817627 103.9500045776367 30.98283386230469 106.7350540161133 36.38840103149414 108.6512832641602 C 41.90295028686523 110.6061706542969 47.74375152587891 111.5974349975586 53.74931716918945 111.5975570678711 L 53.7497673034668 111.5975570678711 M 53.74854278564453 112.5975646972656 C 28.91448783874512 112.597053527832 7.909361839294434 95.83019256591797 4.388082981109619 71.27860260009766 L 0.3387164771556854 43.04503631591797 C -2.36775016784668 24.17455291748047 11.44268321990967 5.551620483398438 31.18521690368652 1.449586987495422 C 66.72176361083984 -5.934099197387695 99.47908782958984 15.61587238311768 104.3507690429688 49.58277130126953 L 106.9299850463867 67.56593322753906 C 109.6364669799805 86.43643951416016 95.82599639892578 105.0593566894531 76.08348083496094 109.1613845825195 L 65.35936737060547 111.3896179199219 C 61.43170547485352 112.205696105957 57.5459098815918 112.5976409912109 53.74854278564453 112.5975646972656 Z" stroke="none" fill="#fff"/>
    </g>
    <g id="グループ_3085" data-name="グループ 3085" transform="translate(25.73 -15.252) rotate(16)">
      <circle id="楕円形_28" data-name="楕円形 28" cx="11.325" cy="11.325" r="11.325" transform="translate(63.81 73.254)" fill="#fff"/>
      <path id="多角形_4" data-name="多角形 4" d="M5.153,0l5.153,8.931H0Z" transform="translate(81.007 79.432) rotate(90)" fill="#6392a7"/>
    </g>
  </g>
</svg>
