<svg xmlns="http://www.w3.org/2000/svg" width="202.197" height="48.32" viewBox="0 0 202.197 48.32">
  <g id="グループ_3157" data-name="グループ 3157" transform="translate(-107.426 -4703.44)">
    <g id="グループ_554" data-name="グループ 554" transform="translate(124.592 4730.893)">
      <path id="パス_1177" data-name="パス 1177" d="M1.885-3.51V-4.579H4.339a1.951,1.951,0,0,0,.906-.2,1.544,1.544,0,0,0,.626-.583,1.7,1.7,0,0,0,.229-.9,1.7,1.7,0,0,0-.229-.9,1.544,1.544,0,0,0-.626-.583,1.951,1.951,0,0,0-.906-.2H1.885V-9.022H4.414a3.189,3.189,0,0,1,1.49.341,2.624,2.624,0,0,1,1.042.958,2.7,2.7,0,0,1,.384,1.454,2.709,2.709,0,0,1-.384,1.456,2.619,2.619,0,0,1-1.042.96,3.189,3.189,0,0,1-1.49.341ZM1.063,0V-9.022H2.288V0Zm9.366-3.929V-4.95h2.447a1.7,1.7,0,0,0,1.214-.4,1.437,1.437,0,0,0,.427-1.1A1.464,1.464,0,0,0,14.1-7.527a1.629,1.629,0,0,0-1.209-.426H10.429V-9.022h2.489a3.2,3.2,0,0,1,1.5.332,2.423,2.423,0,0,1,.983.907,2.5,2.5,0,0,1,.346,1.313A2.527,2.527,0,0,1,15.4-5.133a2.336,2.336,0,0,1-.983.887,3.326,3.326,0,0,1-1.5.317ZM9.607,0V-9.022h1.225V0Zm5.2,0L11.537-4.043l1.157-.4L16.361,0ZM18.4,0V-9.022h1.225V0Zm8.226.13a4.553,4.553,0,0,1-1.805-.354,4.386,4.386,0,0,1-1.448-.993A4.512,4.512,0,0,1,22.417-2.7a4.858,4.858,0,0,1-.336-1.814,4.875,4.875,0,0,1,.335-1.815A4.418,4.418,0,0,1,23.366-7.8a4.5,4.5,0,0,1,1.443-.99,4.468,4.468,0,0,1,1.8-.359,4.532,4.532,0,0,1,1.875.364,4.648,4.648,0,0,1,1.427.995l-.835.835a3.006,3.006,0,0,0-1.053-.751,3.516,3.516,0,0,0-1.414-.27,3.318,3.318,0,0,0-1.311.253,3.052,3.052,0,0,0-1.037.72,3.251,3.251,0,0,0-.679,1.1,3.918,3.918,0,0,0-.239,1.389,3.908,3.908,0,0,0,.24,1.391,3.3,3.3,0,0,0,.679,1.105A3.017,3.017,0,0,0,25.3-1.3a3.342,3.342,0,0,0,1.315.253,3.6,3.6,0,0,0,1.469-.276,3.071,3.071,0,0,0,1.056-.757l.835.835A4.461,4.461,0,0,1,28.522-.236,4.7,4.7,0,0,1,26.624.13ZM32.253,0V-9.022h1.225V0Zm.829,0V-1.118h5.177V0Zm0-4.076V-5.151H37.83v1.076Zm0-3.828V-9.022h5.109V-7.9ZM41.387.13a.794.794,0,0,1-.6-.25.842.842,0,0,1-.237-.6.842.842,0,0,1,.237-.614.807.807,0,0,1,.6-.242.814.814,0,0,1,.6.242.838.838,0,0,1,.239.614.838.838,0,0,1-.239.6A.8.8,0,0,1,41.387.13Zm0-4.053a.794.794,0,0,1-.6-.25.842.842,0,0,1-.237-.6.842.842,0,0,1,.237-.614.807.807,0,0,1,.6-.242.814.814,0,0,1,.6.242.838.838,0,0,1,.239.614.838.838,0,0,1-.239.6A.8.8,0,0,1,41.387-3.923Z" transform="translate(0.408 17.107)" fill="#1c3534"/>
      <path id="パス_1179" data-name="パス 1179" d="M2.87,1.511A5.569,5.569,0,0,1,1.648.031,7.663,7.663,0,0,1,.869-1.887,8.518,8.518,0,0,1,.6-4.043,8.518,8.518,0,0,1,.869-6.2a7.663,7.663,0,0,1,.778-1.917A5.569,5.569,0,0,1,2.87-9.6l.679.611A5.263,5.263,0,0,0,2.125-6.9a7.805,7.805,0,0,0-.5,2.855,7.8,7.8,0,0,0,.5,2.849A5.286,5.286,0,0,0,3.549.9ZM8.164,0V-8.765H9.389V0ZM5.106-7.9V-9.022h7.342V-7.9ZM15.4.13a2.869,2.869,0,0,1-1.541-.424,3.05,3.05,0,0,1-1.084-1.151,3.334,3.334,0,0,1-.4-1.63,3.364,3.364,0,0,1,.4-1.641,3.1,3.1,0,0,1,1.082-1.159,2.823,2.823,0,0,1,1.536-.431,2.654,2.654,0,0,1,1.261.293,2.36,2.36,0,0,1,.889.809,2.364,2.364,0,0,1,.372,1.186v1.856a2.427,2.427,0,0,1-.37,1.188,2.314,2.314,0,0,1-.886.811A2.657,2.657,0,0,1,15.4.13Zm.188-1.108a1.805,1.805,0,0,0,1.406-.587,2.176,2.176,0,0,0,.531-1.519,2.4,2.4,0,0,0-.242-1.1A1.81,1.81,0,0,0,16.6-4.93,1.924,1.924,0,0,0,15.58-5.2a1.966,1.966,0,0,0-1.033.27,1.921,1.921,0,0,0-.707.746,2.256,2.256,0,0,0-.258,1.094,2.256,2.256,0,0,0,.258,1.094,1.913,1.913,0,0,0,.71.746A1.983,1.983,0,0,0,15.587-.978ZM17.452,0V-1.658l.215-1.511-.215-1.492V-6.175h1.173V0Zm7.722,0L23.254-2.707l-.224-.2L20.592-6.175h1.427l1.752,2.408.215.185L26.591,0Zm-4.7,0,2.548-3.426.67.852L21.853,0Zm3.6-2.925L23.4-3.76l1.713-2.415h1.365ZM31.931,0V-6.175H33.1V0Zm.585-7.407a.7.7,0,0,1-.525-.218.739.739,0,0,1-.21-.533.732.732,0,0,1,.21-.533.7.7,0,0,1,.525-.214.709.709,0,0,1,.535.214.739.739,0,0,1,.206.533.746.746,0,0,1-.206.533A.7.7,0,0,1,32.516-7.407ZM39.972,0V-3.594a1.6,1.6,0,0,0-.437-1.164A1.511,1.511,0,0,0,38.4-5.21,1.676,1.676,0,0,0,37.557-5a1.486,1.486,0,0,0-.571.57,1.664,1.664,0,0,0-.206.835l-.487-.273a2.456,2.456,0,0,1,.317-1.253,2.316,2.316,0,0,1,.872-.864,2.487,2.487,0,0,1,1.256-.317,2.256,2.256,0,0,1,1.246.349,2.483,2.483,0,0,1,.853.917,2.494,2.494,0,0,1,.309,1.211V0ZM35.607,0V-6.175H36.78V0Zm8.105,1.511L43.033.9a5.286,5.286,0,0,0,1.424-2.095,7.8,7.8,0,0,0,.5-2.849,7.805,7.805,0,0,0-.5-2.855,5.263,5.263,0,0,0-1.424-2.088l.679-.611a5.569,5.569,0,0,1,1.222,1.48A7.663,7.663,0,0,1,45.713-6.2a8.518,8.518,0,0,1,.271,2.156,8.518,8.518,0,0,1-.271,2.156A7.663,7.663,0,0,1,44.935.031,5.569,5.569,0,0,1,43.713,1.511Z" transform="translate(120.408 17.107)" fill="#1c3534"/>
      <path id="パス_1178" data-name="パス 1178" d="M5.82-5.49,1.135-13.88H3.32L6.95-6.765H5.97L9.61-13.88h2.145L7.03-5.49ZM5.51,0V-6.585H7.395V0ZM4.57-9.445l.545,1.49H1.56v-1.49ZM1.56-4.46V-5.95h9.77v1.49ZM7.875-7.955l.695-1.49h2.76v1.49ZM19.03.2a5.835,5.835,0,0,1-2.475-.512,4.976,4.976,0,0,1-1.87-1.493L15.96-3.08a3.21,3.21,0,0,0,1.268,1.107A3.878,3.878,0,0,0,19-1.565a3.433,3.433,0,0,0,1.6-.35A2.606,2.606,0,0,0,21.658-2.9a2.806,2.806,0,0,0,.382-1.472,2.8,2.8,0,0,0-.382-1.492,2.57,2.57,0,0,0-1.083-.968A3.754,3.754,0,0,0,18.9-7.18a5.538,5.538,0,0,0-.715.048,4.175,4.175,0,0,0-.69.148l.8-1.07a4.276,4.276,0,0,1,.813-.28,3.811,3.811,0,0,1,.892-.1A3.885,3.885,0,0,1,22-7.915a3.824,3.824,0,0,1,1.415,1.457,4.371,4.371,0,0,1,.523,2.173,4.372,4.372,0,0,1-.622,2.337,4.275,4.275,0,0,1-1.725,1.58A5.524,5.524,0,0,1,19.03.2ZM17.5-6.985v-1.13l4.05-4.63,2.235-.005L19.6-8.025Zm-2.155-5.21V-13.88h8.44v1.13l-1.625.555ZM26.885,2.2l1.25-2.38.625-.16a1.162,1.162,0,0,1-.25.358.51.51,0,0,1-.365.143,1.074,1.074,0,0,1-.77-.348,1.185,1.185,0,0,1-.35-.878,1.333,1.333,0,0,1,.385-.962,1.27,1.27,0,0,1,.95-.4,1.271,1.271,0,0,1,.927.4,1.311,1.311,0,0,1,.4.962,1.977,1.977,0,0,1-.09.54,4.7,4.7,0,0,1-.34.795L27.92,2.76Zm5.94-3.33,5.125-5.4a16.747,16.747,0,0,0,1.21-1.4,4.356,4.356,0,0,0,.63-1.1,3.015,3.015,0,0,0,.185-1.045,2.106,2.106,0,0,0-.675-1.66,2.543,2.543,0,0,0-1.755-.6,3.372,3.372,0,0,0-1.86.512,4.612,4.612,0,0,0-1.43,1.572l-1.315-1.1a5.837,5.837,0,0,1,1.975-2.04,5.133,5.133,0,0,1,2.69-.695,4.7,4.7,0,0,1,2.222.5,3.629,3.629,0,0,1,1.478,1.405,4.106,4.106,0,0,1,.525,2.1,5.09,5.09,0,0,1-.215,1.532,4.786,4.786,0,0,1-.74,1.393A17.711,17.711,0,0,1,39.41-5.46L35.27-1.19Zm0,1.13V-1.13l1.59-.555H42.14V0ZM46.46,0l5.195-12.77,1.85.05L48.425,0ZM44.27-12.195V-13.88H53.5v1.16l-.81.525ZM60.41.2a5.4,5.4,0,0,1-2.435-.52,3.988,3.988,0,0,1-1.63-1.44,3.8,3.8,0,0,1-.585-2.085,3.978,3.978,0,0,1,.368-1.712A3.693,3.693,0,0,1,57.19-6.892a4.135,4.135,0,0,1,1.64-.778l.05.53a3.378,3.378,0,0,1-1.358-.71,3.211,3.211,0,0,1-.845-1.162,3.569,3.569,0,0,1-.288-1.418,3.506,3.506,0,0,1,.518-1.907,3.573,3.573,0,0,1,1.432-1.29,4.484,4.484,0,0,1,2.07-.467,4.472,4.472,0,0,1,2.077.467,3.584,3.584,0,0,1,1.425,1.29,3.506,3.506,0,0,1,.518,1.907,3.569,3.569,0,0,1-.287,1.418,3.251,3.251,0,0,1-.838,1.162,3.313,3.313,0,0,1-1.365.71l.05-.53a4.05,4.05,0,0,1,1.645.778A3.763,3.763,0,0,1,64.69-5.557a3.955,3.955,0,0,1,.37,1.712,3.839,3.839,0,0,1-.577,2.085A3.929,3.929,0,0,1,62.855-.32,5.444,5.444,0,0,1,60.41.2Zm0-1.695a3.128,3.128,0,0,0,1.467-.332,2.565,2.565,0,0,0,1.005-.915A2.435,2.435,0,0,0,63.25-4.07,2.4,2.4,0,0,0,62.882-5.4a2.611,2.611,0,0,0-1.005-.908A3.108,3.108,0,0,0,60.41-6.64a3.112,3.112,0,0,0-1.465.335,2.606,2.606,0,0,0-1.007.908A2.4,2.4,0,0,0,57.57-4.07a2.435,2.435,0,0,0,.368,1.328,2.565,2.565,0,0,0,1.005.915A3.128,3.128,0,0,0,60.41-1.5Zm0-6.61a2.252,2.252,0,0,0,1.635-.615,2.115,2.115,0,0,0,.635-1.59,2.077,2.077,0,0,0-.635-1.575,2.273,2.273,0,0,0-1.635-.6,2.28,2.28,0,0,0-1.627.6,2.064,2.064,0,0,0-.643,1.575,2.1,2.1,0,0,0,.643,1.59A2.259,2.259,0,0,0,60.41-8.105Z" transform="translate(46.408 18.107)" fill="#1c3534"/>
    </g>
    <g id="グループ_556" data-name="グループ 556" transform="translate(46.5 -770)">
      <path id="パス_1175" data-name="パス 1175" d="M-40.815.15a4.376,4.376,0,0,1-1.856-.384,3.732,3.732,0,0,1-1.4-1.119l.956-.956a2.408,2.408,0,0,0,.951.831,2.908,2.908,0,0,0,1.329.306,2.575,2.575,0,0,0,1.2-.263,1.954,1.954,0,0,0,.793-.741,2.1,2.1,0,0,0,.287-1.1A2.1,2.1,0,0,0-38.844-4.4a1.927,1.927,0,0,0-.812-.726,2.816,2.816,0,0,0-1.256-.259,4.154,4.154,0,0,0-.536.036,3.132,3.132,0,0,0-.518.111l.6-.8a3.207,3.207,0,0,1,.609-.21,2.858,2.858,0,0,1,.669-.079,2.914,2.914,0,0,1,1.506.394,2.868,2.868,0,0,1,1.061,1.093,3.278,3.278,0,0,1,.392,1.629A3.279,3.279,0,0,1-37.6-1.461,3.206,3.206,0,0,1-38.893-.276,4.143,4.143,0,0,1-40.815.15Zm-1.151-5.389v-.848l3.038-3.472,1.676,0-3.131,3.544Zm-1.616-3.907V-10.41h6.33v.847l-1.219.416Zm8.52,8.3,3.844-4.05a12.56,12.56,0,0,0,.908-1.046,3.267,3.267,0,0,0,.472-.821,2.261,2.261,0,0,0,.139-.784,1.58,1.58,0,0,0-.506-1.245,1.907,1.907,0,0,0-1.316-.45,2.529,2.529,0,0,0-1.4.384A3.459,3.459,0,0,0-33.99-7.68l-.986-.829a4.378,4.378,0,0,1,1.481-1.53,3.849,3.849,0,0,1,2.017-.521,3.522,3.522,0,0,1,1.667.377A2.722,2.722,0,0,1-28.7-9.129a3.079,3.079,0,0,1,.394,1.577A3.817,3.817,0,0,1-28.47-6.4a3.589,3.589,0,0,1-.555,1.044,13.283,13.283,0,0,1-1.1,1.264l-3.1,3.2Zm0,.847V-.847l1.193-.416h5.794V0Zm9.5,0V-7.125h1.354V0Zm4.819,0V-4.3a1.628,1.628,0,0,0-.488-1.251,1.716,1.716,0,0,0-1.219-.456,1.9,1.9,0,0,0-.891.206,1.608,1.608,0,0,0-.632.585,1.68,1.68,0,0,0-.236.907l-.562-.274A2.714,2.714,0,0,1-24.414-6a2.522,2.522,0,0,1,.971-.936,2.815,2.815,0,0,1,1.374-.336,2.8,2.8,0,0,1,1.363.33,2.468,2.468,0,0,1,.96.93,2.767,2.767,0,0,1,.354,1.432V0Zm4.819,0V-4.3a1.628,1.628,0,0,0-.487-1.251,1.716,1.716,0,0,0-1.219-.456,1.907,1.907,0,0,0-.885.206,1.6,1.6,0,0,0-.637.585,1.68,1.68,0,0,0-.236.907l-.776-.274a2.894,2.894,0,0,1,.45-1.419,2.762,2.762,0,0,1,1.024-.934,2.9,2.9,0,0,1,1.387-.336,2.891,2.891,0,0,1,1.386.33,2.523,2.523,0,0,1,.982.932,2.71,2.71,0,0,1,.366,1.434V0Zm4.088,0V-7.125h1.354V0ZM-7.02,0V-4.3a1.628,1.628,0,0,0-.487-1.251,1.716,1.716,0,0,0-1.219-.456,1.9,1.9,0,0,0-.891.206,1.608,1.608,0,0,0-.632.585,1.68,1.68,0,0,0-.236.907l-.562-.274A2.714,2.714,0,0,1-10.689-6a2.522,2.522,0,0,1,.971-.936,2.815,2.815,0,0,1,1.374-.336,2.8,2.8,0,0,1,1.363.33,2.468,2.468,0,0,1,.96.93,2.767,2.767,0,0,1,.354,1.432V0ZM-2.2,0V-4.3a1.628,1.628,0,0,0-.487-1.251,1.716,1.716,0,0,0-1.219-.456,1.907,1.907,0,0,0-.885.206,1.6,1.6,0,0,0-.638.585,1.68,1.68,0,0,0-.236.907l-.776-.274a2.894,2.894,0,0,1,.45-1.419,2.762,2.762,0,0,1,1.024-.934,2.9,2.9,0,0,1,1.387-.336,2.891,2.891,0,0,1,1.386.33,2.523,2.523,0,0,1,.982.932A2.71,2.71,0,0,1-.848-4.579V0Z" transform="translate(105 5484)" fill="#1c3534"/>
      <circle id="楕円形_12" data-name="楕円形 12" cx="5" cy="5" r="5" transform="translate(127 5475)" fill="#c0d5c9"/>
      <path id="パス_1176" data-name="パス 1176" d="M5.932.146A5.091,5.091,0,0,1,3.891-.266,5.141,5.141,0,0,1,2.226-1.41,5.361,5.361,0,0,1,1.112-3.116a5.441,5.441,0,0,1-.4-2.1,5.378,5.378,0,0,1,.4-2.094,5.384,5.384,0,0,1,1.123-1.7,5.083,5.083,0,0,1,1.688-1.142,5.376,5.376,0,0,1,2.1-.407,5.425,5.425,0,0,1,2.3.486A4.65,4.65,0,0,1,10.076-8.7l-.968.967A3.258,3.258,0,0,0,7.8-8.828,4.1,4.1,0,0,0,6.026-9.21a3.928,3.928,0,0,0-2.017.51A3.555,3.555,0,0,0,2.649-7.29a4.307,4.307,0,0,0-.486,2.077,4.294,4.294,0,0,0,.489,2.078A3.66,3.66,0,0,0,3.984-1.719,3.618,3.618,0,0,0,5.9-1.207a4.03,4.03,0,0,0,1.9-.422A2.9,2.9,0,0,0,9.039-2.872a4.278,4.278,0,0,0,.437-2l.855.623h-4.5v-1.29h5.1v.2A6.463,6.463,0,0,1,10.3-2.306,4.322,4.322,0,0,1,8.526-.469,5.326,5.326,0,0,1,5.932.146Zm8.73-4.68V-5.711h2.824a1.963,1.963,0,0,0,1.4-.465,1.658,1.658,0,0,0,.493-1.267,1.689,1.689,0,0,0-.488-1.241,1.879,1.879,0,0,0-1.4-.491H14.663V-10.41h2.872a3.7,3.7,0,0,1,1.729.382A2.8,2.8,0,0,1,20.4-8.981a2.881,2.881,0,0,1,.4,1.515,2.916,2.916,0,0,1-.4,1.543A2.7,2.7,0,0,1,19.264-4.9a3.838,3.838,0,0,1-1.729.366ZM13.714,0V-10.41h1.414V0Zm6,0L15.941-4.665l1.335-.461L21.506,0Zm4.144,0V-10.41h1.414V0Zm.956,0V-1.29h5.974V0Zm0-4.7V-5.944h5.479V-4.7Zm0-4.418v-1.29h5.9v1.29ZM33.6,0V-10.41h1.414V0Zm.956,0V-1.29H40.53V0Zm0-4.7V-5.944h5.479V-4.7Zm0-4.418v-1.29h5.9v1.29ZM43.342,0V-10.41h.99l.424,1.642V0ZM50.55,0l-6.4-8.528.184-1.882,6.4,8.527Zm0,0-.424-1.541V-10.41H51.54V0ZM83.929,0V-1.234h3.142a1.871,1.871,0,0,0,1.416-.532A1.784,1.784,0,0,0,89-3.049a1.859,1.859,0,0,0-.227-.911,1.683,1.683,0,0,0-.651-.656,1.982,1.982,0,0,0-1-.244H83.929V-6.086h2.977a1.733,1.733,0,0,0,1.2-.4,1.457,1.457,0,0,0,.446-1.146,1.426,1.426,0,0,0-.465-1.148,1.845,1.845,0,0,0-1.241-.4H83.929V-10.41H86.88a3.585,3.585,0,0,1,1.7.368,2.539,2.539,0,0,1,1.035.967,2.6,2.6,0,0,1,.347,1.324,2.44,2.44,0,0,1-.456,1.472,2.976,2.976,0,0,1-1.333.984l.12-.45a3.362,3.362,0,0,1,1.558,1.091,2.732,2.732,0,0,1,.561,1.718,2.817,2.817,0,0,1-.4,1.481A2.844,2.844,0,0,1,88.854-.4,4,4,0,0,1,87,0ZM82.98,0V-10.41h1.414V0ZM93.229,0V-10.41h1.414V0Zm.956,0V-1.29h5.587V0ZM105.96.15a4.1,4.1,0,0,1-2.068-.521,3.837,3.837,0,0,1-1.44-1.428,4,4,0,0,1-.527-2.049V-10.41h1.414v6.529a2.816,2.816,0,0,0,.345,1.42,2.391,2.391,0,0,0,.94.93,2.727,2.727,0,0,0,1.335.327,2.673,2.673,0,0,0,1.333-.326,2.385,2.385,0,0,0,.921-.929,2.817,2.817,0,0,0,.34-1.407V-10.41h1.414v6.578a3.991,3.991,0,0,1-.522,2.042,3.836,3.836,0,0,1-1.425,1.42A4.044,4.044,0,0,1,105.96.15ZM113.194,0V-10.41h1.414V0Zm.956,0V-1.29h5.974V0Zm0-4.7V-5.944h5.479V-4.7Zm0-4.418v-1.29h5.895v1.29Z" transform="translate(143 5485)" fill="#1c3534"/>
      <circle id="楕円形_14" data-name="楕円形 14" cx="5" cy="5" r="5" transform="translate(211 5475)" fill="#bdd4e0"/>
    </g>
  </g>
</svg>
