<svg xmlns="http://www.w3.org/2000/svg" width="238.502" height="70.04" viewBox="0 0 238.502 70.04">
  <g id="グループ_3154" data-name="グループ 3154" transform="translate(-64.86 -6227.506)">
    <path id="パス_1166" data-name="パス 1166" d="M-115.451.22a7.7,7.7,0,0,1-3.055-.6,7.423,7.423,0,0,1-2.45-1.68A7.636,7.636,0,0,1-122.57-4.57a8.221,8.221,0,0,1-.569-3.069,8.25,8.25,0,0,1,.567-3.072,7.476,7.476,0,0,1,1.609-2.494,7.619,7.619,0,0,1,2.442-1.675,7.561,7.561,0,0,1,3.044-.608,7.669,7.669,0,0,1,3.173.616,7.866,7.866,0,0,1,2.415,1.683l-1.413,1.413a5.087,5.087,0,0,0-1.782-1.27,5.95,5.95,0,0,0-2.392-.457,5.616,5.616,0,0,0-2.219.429,5.165,5.165,0,0,0-1.755,1.218A5.5,5.5,0,0,0-120.6-9.991a6.631,6.631,0,0,0-.4,2.351,6.613,6.613,0,0,0,.407,2.354,5.584,5.584,0,0,0,1.15,1.87,5.105,5.105,0,0,0,1.757,1.221,5.656,5.656,0,0,0,2.225.429,6.1,6.1,0,0,0,2.486-.467,5.2,5.2,0,0,0,1.788-1.281L-109.78-2.1a7.549,7.549,0,0,1-2.459,1.7A7.96,7.96,0,0,1-115.451.22ZM-103.944,0V-15.268h2.074V0Zm1.4,0V-1.892h8.761V0Zm0-6.9V-8.718h8.035V-6.9Zm0-6.479v-1.892H-93.9v1.892Zm16.258,6.726V-8.377h4.141a2.88,2.88,0,0,0,2.054-.682,2.432,2.432,0,0,0,.723-1.859,2.478,2.478,0,0,0-.715-1.82,2.756,2.756,0,0,0-2.046-.72h-4.158v-1.809h4.213a5.421,5.421,0,0,1,2.535.561,4.1,4.1,0,0,1,1.664,1.535,4.225,4.225,0,0,1,.586,2.222,4.277,4.277,0,0,1-.586,2.263,3.954,3.954,0,0,1-1.664,1.5,5.629,5.629,0,0,1-2.535.536ZM-87.675,0V-15.268H-85.6V0Zm8.8,0-5.533-6.842,1.958-.676L-76.246,0Zm6.446,0,6.265-15.268h1.485L-58.46,0H-60.7l-5.131-12.92h.775L-70.229,0Zm2.976-3.454v-1.81h8.041v1.81ZM-52.866,0V-15.268h1.452l6.468,10.631h-.979l6.468-10.631H-38V0h-2.074V-11.638l.473.127-5.1,8.382h-1.452l-5.1-8.382.473-.127V0Zm21.758,0V-15.268h2.073V0Zm15.9.22a7.7,7.7,0,0,1-3.055-.6,7.423,7.423,0,0,1-2.45-1.68A7.636,7.636,0,0,1-22.327-4.57,8.221,8.221,0,0,1-22.9-7.64a8.25,8.25,0,0,1,.566-3.072,7.476,7.476,0,0,1,1.609-2.494,7.619,7.619,0,0,1,2.442-1.675,7.561,7.561,0,0,1,3.044-.608,7.669,7.669,0,0,1,3.173.616,7.866,7.866,0,0,1,2.415,1.683l-1.413,1.413a5.087,5.087,0,0,0-1.782-1.27,5.95,5.95,0,0,0-2.392-.457,5.616,5.616,0,0,0-2.219.429,5.165,5.165,0,0,0-1.755,1.218,5.5,5.5,0,0,0-1.149,1.865,6.631,6.631,0,0,0-.4,2.351,6.613,6.613,0,0,0,.407,2.354,5.584,5.584,0,0,0,1.149,1.87,5.105,5.105,0,0,0,1.757,1.221,5.656,5.656,0,0,0,2.225.429,6.1,6.1,0,0,0,2.486-.467,5.2,5.2,0,0,0,1.788-1.281L-9.537-2.1A7.549,7.549,0,0,1-12-.4,7.96,7.96,0,0,1-15.208.22Zm26.3,0a7.7,7.7,0,0,1-3.055-.6,7.423,7.423,0,0,1-2.45-1.68A7.636,7.636,0,0,1,3.974-4.57,8.221,8.221,0,0,1,3.4-7.64a8.25,8.25,0,0,1,.566-3.072A7.476,7.476,0,0,1,5.58-13.205,7.619,7.619,0,0,1,8.022-14.88a7.561,7.561,0,0,1,3.044-.608,7.669,7.669,0,0,1,3.173.616,7.866,7.866,0,0,1,2.415,1.683L15.24-11.776a5.087,5.087,0,0,0-1.782-1.27,5.95,5.95,0,0,0-2.392-.457,5.616,5.616,0,0,0-2.219.429,5.165,5.165,0,0,0-1.755,1.218A5.5,5.5,0,0,0,5.943-9.991a6.631,6.631,0,0,0-.4,2.351,6.613,6.613,0,0,0,.407,2.354,5.584,5.584,0,0,0,1.149,1.87A5.105,5.105,0,0,0,8.852-2.194a5.656,5.656,0,0,0,2.225.429,6.1,6.1,0,0,0,2.486-.467A5.2,5.2,0,0,0,15.35-3.514L16.764-2.1A7.549,7.549,0,0,1,14.305-.4,7.96,7.96,0,0,1,11.093.22Zm17.242,0A6.009,6.009,0,0,1,25.3-.544a5.627,5.627,0,0,1-2.112-2.094,5.869,5.869,0,0,1-.773-3.005v-9.625h2.073v9.576A4.129,4.129,0,0,0,25-3.609a3.508,3.508,0,0,0,1.379,1.364,4,4,0,0,0,1.958.479,3.92,3.92,0,0,0,1.955-.479,3.5,3.5,0,0,0,1.35-1.363,4.131,4.131,0,0,0,.5-2.063v-9.6H34.21v9.647a5.854,5.854,0,0,1-.766,2.994,5.626,5.626,0,0,1-2.09,2.083A5.931,5.931,0,0,1,28.336.22ZM42.317-6.649V-8.377h4.142a2.88,2.88,0,0,0,2.054-.682,2.432,2.432,0,0,0,.723-1.859,2.478,2.478,0,0,0-.715-1.82,2.756,2.756,0,0,0-2.046-.72H42.317v-1.809H46.53a5.421,5.421,0,0,1,2.535.561,4.1,4.1,0,0,1,1.664,1.535,4.225,4.225,0,0,1,.586,2.222,4.277,4.277,0,0,1-.586,2.263,3.954,3.954,0,0,1-1.664,1.5,5.629,5.629,0,0,1-2.535.536ZM40.925,0V-15.268H43V0Zm8.8,0L44.192-6.842l1.958-.676L52.354,0Zm8.057,0V-15.268h2.074V0Zm1.4,0V-1.892H67.38V0ZM73.227,0V-15.268H75.3V0ZM82.2,0V-15.268H83.65l.621,2.409V0ZM92.769,0,83.38-12.507l.27-2.761L93.038-2.761Zm0,0-.621-2.26V-15.268h2.074V0ZM108.02.215a7.467,7.467,0,0,1-2.995-.605,7.54,7.54,0,0,1-2.442-1.677,7.863,7.863,0,0,1-1.633-2.5,7.981,7.981,0,0,1-.591-3.08,7.887,7.887,0,0,1,.594-3.072,7.9,7.9,0,0,1,1.647-2.5,7.455,7.455,0,0,1,2.475-1.675,7.884,7.884,0,0,1,3.083-.6,7.957,7.957,0,0,1,3.371.712,6.82,6.82,0,0,1,2.569,2.027l-1.419,1.419a4.778,4.778,0,0,0-1.922-1.611,6.02,6.02,0,0,0-2.6-.561,5.761,5.761,0,0,0-2.959.748,5.215,5.215,0,0,0-1.994,2.068,6.317,6.317,0,0,0-.712,3.047A6.3,6.3,0,0,0,103.21-4.6a5.368,5.368,0,0,0,1.952,2.076,5.307,5.307,0,0,0,2.813.751,5.911,5.911,0,0,0,2.791-.619,4.248,4.248,0,0,0,1.81-1.823,6.275,6.275,0,0,0,.641-2.937l1.254.913h-6.594V-8.129h7.486v.3a9.479,9.479,0,0,1-.943,4.45,6.339,6.339,0,0,1-2.6,2.7A7.811,7.811,0,0,1,108.02.215ZM-64.823,24V8.732h2.074V24Zm9.856,0V8.732h2.074V24Zm-8.453-6.946V15.161h8.954v1.892ZM-47.124,24l6.264-15.268h1.485L-33.154,24h-2.238l-5.132-12.92h.776L-44.924,24Zm2.975-3.454V18.736h8.041v1.809ZM-27.56,24V8.732h2.073V24ZM-17.2,17.351V15.623h4.141A2.88,2.88,0,0,0-11,14.942a2.432,2.432,0,0,0,.723-1.859,2.478,2.478,0,0,0-.715-1.82,2.756,2.756,0,0,0-2.046-.72H-17.2V8.732h4.213a5.421,5.421,0,0,1,2.536.561,4.1,4.1,0,0,1,1.664,1.535A4.225,4.225,0,0,1-8.2,13.049a4.277,4.277,0,0,1-.586,2.263,3.954,3.954,0,0,1-1.664,1.5,5.629,5.629,0,0,1-2.536.536ZM-18.59,24V8.732h2.073V24Zm8.8,0-5.533-6.842,1.958-.677L-7.161,24ZM6.44,24V8.732H8.514V24ZM16.8,17.351V15.623h4.141A2.88,2.88,0,0,0,23,14.942a2.432,2.432,0,0,0,.723-1.859,2.478,2.478,0,0,0-.715-1.82,2.756,2.756,0,0,0-2.046-.72H16.8V8.732h4.213a5.421,5.421,0,0,1,2.535.561,4.1,4.1,0,0,1,1.664,1.535,4.225,4.225,0,0,1,.586,2.222,4.277,4.277,0,0,1-.586,2.263,3.954,3.954,0,0,1-1.664,1.5,5.629,5.629,0,0,1-2.535.536ZM15.411,24V8.732h2.073V24Zm8.8,0-5.533-6.842,1.958-.677L26.84,24Zm14.784.22a7.558,7.558,0,0,1-3.033-.608A7.654,7.654,0,0,1,33.5,21.924a7.844,7.844,0,0,1-1.647-2.511,8.264,8.264,0,0,1,0-6.132,7.842,7.842,0,0,1,1.636-2.494,7.667,7.667,0,0,1,10.939,0,7.8,7.8,0,0,1,1.645,2.505,8.293,8.293,0,0,1,0,6.143A7.7,7.7,0,0,1,42,23.612,7.42,7.42,0,0,1,38.995,24.22Zm-.044-1.985a5.462,5.462,0,0,0,2.89-.759,5.384,5.384,0,0,0,1.969-2.087,6.3,6.3,0,0,0,.718-3.044A6.446,6.446,0,0,0,44.115,14a5.6,5.6,0,0,0-1.16-1.856,5.18,5.18,0,0,0-1.763-1.218,5.7,5.7,0,0,0-2.241-.429,5.492,5.492,0,0,0-2.874.748,5.3,5.3,0,0,0-1.966,2.065,6.258,6.258,0,0,0-.715,3.033,6.6,6.6,0,0,0,.412,2.362,5.569,5.569,0,0,0,1.152,1.87A5.209,5.209,0,0,0,36.723,21.8,5.608,5.608,0,0,0,38.951,22.235ZM52.8,24V8.732h1.452l.622,2.409V24Zm10.571,0L53.983,11.493l.27-2.761,9.389,12.507Zm0,0-.621-2.26V8.732h2.074V24Z" transform="translate(188 6243)" fill="#1c3534"/>
    <path id="パス_1167" data-name="パス 1167" d="M-112.5-7.42l-1.778.238c-.476.056-.966.1-1.2.1h-.21l.126,1.05a8.964,8.964,0,0,1,1.372-.238l1.694-.238v3.374c0,1.428.1,1.862.518,2.31.448.462,1.26.658,2.856.658A24.935,24.935,0,0,0-105.81-.42c.378-.042.462-.056.84-.07l-.07-1.134a15.918,15.918,0,0,1-4.074.49c-1.148,0-1.736-.1-2.03-.35s-.35-.546-.35-1.848v-3.3c1.6-.224,3.388-.476,5.348-.742.084-.014.112-.014.168-.028.14-.028.2-.042.322-.07a7.747,7.747,0,0,1-3.178,3.248,2.381,2.381,0,0,1,.84.672,10.734,10.734,0,0,0,2.38-2.184,9.432,9.432,0,0,0,1.064-1.792,4.314,4.314,0,0,1,.224-.392l-.686-.574a1.561,1.561,0,0,1-.8.2l-5.684.756V-9.59a8.026,8.026,0,0,1,.07-1.288h-1.134A8.028,8.028,0,0,1-112.5-9.59Zm14.938-2.1a9.33,9.33,0,0,1,1.456-.07h4.7a9.33,9.33,0,0,1,1.456.07V-10.6a6.424,6.424,0,0,1-1.47.1h-4.676a6.424,6.424,0,0,1-1.47-.1Zm-1.2,3.22a12.887,12.887,0,0,1,1.624-.07h7.308A8.626,8.626,0,0,1-92.1-2.7,9.61,9.61,0,0,1-96.262-.574a3.045,3.045,0,0,1,.6.966c3.626-1.218,5.558-3.01,6.748-6.272a4.061,4.061,0,0,1,.392-.882l-.518-.6a2.364,2.364,0,0,1-.91.1H-97.13a10.073,10.073,0,0,1-1.638-.084Zm17.64-3.654a36,36,0,0,1,7.1,1.624l.364-1.022a44.068,44.068,0,0,0-7.056-1.54Zm-.252,3.822a32.732,32.732,0,0,1,6.944,1.708l.364-1.008a44.616,44.616,0,0,0-6.9-1.638ZM-82.486-2.2a41.9,41.9,0,0,1,4.228.854A23.9,23.9,0,0,1-73.512.224L-73.12-.8a42.4,42.4,0,0,0-8.946-2.338Zm16.6-5.194a11.549,11.549,0,0,1,1.316,3.136l.952-.322A15.374,15.374,0,0,0-65-7.686ZM-63-7.98A12.282,12.282,0,0,1-61.71-4.914l.924-.322a14.039,14.039,0,0,0-1.358-3.01Zm4.858-.014v.14a5.884,5.884,0,0,1-.154.952,10.563,10.563,0,0,1-1.19,3.01A8.986,8.986,0,0,1-63.922-.238a2.832,2.832,0,0,1,.644.784A10.149,10.149,0,0,0-58.644-3.5a12.6,12.6,0,0,0,1.232-3.136A8.261,8.261,0,0,1-57.1-7.77Zm11.69-3.416a6.349,6.349,0,0,1-.882,2.044A10.372,10.372,0,0,1-50.846-5.53a2.082,2.082,0,0,1,.784.728,13.5,13.5,0,0,0,3.346-3.64L-42-8.526a12.864,12.864,0,0,1-2.408,4.69A11.908,11.908,0,0,1-49.348-.294a2.111,2.111,0,0,1,.7.826,13.709,13.709,0,0,0,4.872-3.5,14.811,14.811,0,0,0,2.8-5.264c.154-.5.154-.518.28-.686l-.6-.588a1.375,1.375,0,0,1-.728.1c-4.046.07-4.046.07-4.228.112a13.392,13.392,0,0,0,.644-1.246,2.675,2.675,0,0,1,.308-.574Zm13.538,2.968a7.712,7.712,0,0,1-1.512-.1l.014,1.064a8.44,8.44,0,0,1,1.484-.07l2.548-.014a9.109,9.109,0,0,1-.868,3.332,8.189,8.189,0,0,1-3.64,3.682,2.9,2.9,0,0,1,.714.826A10.11,10.11,0,0,0-30.5-3.43a10.557,10.557,0,0,0,1.12-4.13l3.92-.014a30.826,30.826,0,0,1-.35,4.97C-26.08-1.218-26.3-.882-26.99-.882A5.911,5.911,0,0,1-28.8-1.246a2.3,2.3,0,0,1,.154.882V-.2a7.968,7.968,0,0,0,1.736.238c1.26,0,1.68-.5,2.03-2.422a38.191,38.191,0,0,0,.392-4.9,2.1,2.1,0,0,1,.112-.84l-.518-.448a2.237,2.237,0,0,1-.924.1l-3.5.014c.042-.392.042-.56.07-.994a11.689,11.689,0,0,1,.112-1.806l-1.134-.028a3.753,3.753,0,0,1,.056.728c0,.616-.028,1.386-.084,2.1Zm13.93,3.64a15.294,15.294,0,0,1,1.736-.056h8.12A16.015,16.015,0,0,1-7.418-4.8V-5.936a11.042,11.042,0,0,1-1.694.07h-8.134a9.9,9.9,0,0,1-1.736-.084ZM-.894-10.668a6.227,6.227,0,0,1,.056.994,19.1,19.1,0,0,1-.63,6.006A6.926,6.926,0,0,1-3.834-.448a2.586,2.586,0,0,1,.84.756A8.558,8.558,0,0,0-.572-3.15C-.04-4.564.072-5.6.184-9.394a6.974,6.974,0,0,1,.084-1.2Zm3.486-.1A5.617,5.617,0,0,1,2.648-9.52L2.564-1.33a2.359,2.359,0,0,1-.1.952l.56.644A2.332,2.332,0,0,1,3.348.112c.2-.07.2-.07.448-.168a9.228,9.228,0,0,0,2-1.022,7.954,7.954,0,0,0,2.814-3.6,3.915,3.915,0,0,1-.784-.812,6.923,6.923,0,0,1-1.652,2.8,6.47,6.47,0,0,1-2.6,1.624L3.656-9.52a5.428,5.428,0,0,1,.084-1.232ZM18.956-3.374c.182-.238.294-.378.392-.49.9-1.036,1.988-2.38,2.534-3.122.616-.826.686-.9.966-.9s.336.042,1.26,1.036A55.987,55.987,0,0,0,28.854-2.2c.924.784.938.8,1.246,1.078l.532-1.148a6.582,6.582,0,0,1-1.162-.84,45.041,45.041,0,0,1-4.788-4.578c-1.022-1.12-1.246-1.288-1.806-1.288-.63,0-.98.266-1.778,1.33-.686.91-1.974,2.464-2.394,2.87a2.232,2.232,0,0,1-.462.35Zm26.782-6.958c-.252.1-.252.1-1.19.1H37.03a10.261,10.261,0,0,1-1.666-.1v1.078a13.518,13.518,0,0,1,1.652-.07h7.952A7.427,7.427,0,0,1,43.4-7.238a6.061,6.061,0,0,1-2.212,1.33,2.75,2.75,0,0,1,.686.8A8.379,8.379,0,0,0,45.962-9.1a2.513,2.513,0,0,1,.336-.56ZM39.634-7.9a3.7,3.7,0,0,1,.056.756c0,2.73-.546,4.158-2.03,5.348A6.579,6.579,0,0,1,35.1-.5a2.738,2.738,0,0,1,.644.938,7.626,7.626,0,0,0,3.584-2.422c.952-1.2,1.344-2.59,1.386-4.928a5.078,5.078,0,0,1,.056-.98Zm22.2-2.436c-.252.1-.252.1-1.19.1H53.13a10.261,10.261,0,0,1-1.666-.1v1.078a13.518,13.518,0,0,1,1.652-.07h7.952A7.427,7.427,0,0,1,59.5-7.238a6.061,6.061,0,0,1-2.212,1.33,2.75,2.75,0,0,1,.686.8A8.379,8.379,0,0,0,62.062-9.1a2.513,2.513,0,0,1,.336-.56ZM55.734-7.9a3.7,3.7,0,0,1,.056.756c0,2.73-.546,4.158-2.03,5.348A6.579,6.579,0,0,1,51.2-.5a2.738,2.738,0,0,1,.644.938,7.626,7.626,0,0,0,3.584-2.422c.952-1.2,1.344-2.59,1.386-4.928a5.078,5.078,0,0,1,.056-.98Zm19.838-3.22A11.752,11.752,0,0,1,72.9-8.47a19.713,19.713,0,0,1-7.266,3.626,3.241,3.241,0,0,1,.546.938,21.886,21.886,0,0,0,5.4-2.45v5.32A7.3,7.3,0,0,1,71.5.42h1.218a9.3,9.3,0,0,1-.07-1.484V-7.028a24.658,24.658,0,0,0,3.276-2.814,3.169,3.169,0,0,1,.616-.588Zm15.89,9.968v.994h1.064c-.028-.294-.042-.658-.042-1.078V-8.806A7.593,7.593,0,0,1,92.526-9.9a7.285,7.285,0,0,1-1.092.042H83.972A10.084,10.084,0,0,1,82.88-9.9a7.181,7.181,0,0,1,.056,1.092v7.6a7.274,7.274,0,0,1-.056,1.05h1.078v-.994Zm0-.91h-7.5V-8.932h7.5Zm7.532-7.084A15.459,15.459,0,0,1,102.326-6.4l.728-.868A18.238,18.238,0,0,0,99.68-9.9Zm.1,9.1a7.356,7.356,0,0,1,.84-.224,14.115,14.115,0,0,0,5.222-2.086,12.279,12.279,0,0,0,4.27-5.348,2.8,2.8,0,0,1-.854-.826,10.579,10.579,0,0,1-5.712,6.23,12.186,12.186,0,0,1-4.074,1.078Z" transform="translate(188 6297)" fill="#1c3534"/>
  </g>
</svg>
