<svg xmlns="http://www.w3.org/2000/svg" width="265.958" height="40.928" viewBox="0 0 265.958 40.928">
  <g id="グループ_3151" data-name="グループ 3151" transform="translate(-55.601 -6293.506)">
    <path id="パス_1150" data-name="パス 1150" d="M-132.4,0V-15.268h2.074V0Zm9.856,0V-15.268h2.073V0ZM-131-6.946V-8.839h8.954v1.892ZM-114.7,0l6.265-15.268h1.485L-100.73,0h-2.238L-108.1-12.92h.775L-112.5,0Zm2.976-3.454v-1.81h8.041v1.81ZM-95.136,0V-15.268h2.074V0Zm10.362-6.649V-8.377h4.141a2.88,2.88,0,0,0,2.054-.682,2.432,2.432,0,0,0,.723-1.859,2.478,2.478,0,0,0-.715-1.82,2.756,2.756,0,0,0-2.046-.72h-4.158v-1.809h4.213a5.421,5.421,0,0,1,2.535.561,4.1,4.1,0,0,1,1.664,1.535,4.225,4.225,0,0,1,.586,2.222,4.277,4.277,0,0,1-.586,2.263,3.954,3.954,0,0,1-1.664,1.5,5.629,5.629,0,0,1-2.535.536ZM-86.166,0V-15.268h2.074V0Zm8.8,0L-82.9-6.842l1.958-.676L-74.737,0Zm20.471.22a6.6,6.6,0,0,1-3.075-.663A6.969,6.969,0,0,1-62.23-2.354l1.414-1.408a4.961,4.961,0,0,0,1.661,1.529,4.8,4.8,0,0,0,2.338.523A3.68,3.68,0,0,0-54.626-2.3,1.907,1.907,0,0,0-53.8-3.944a2.2,2.2,0,0,0-.4-1.372A3.121,3.121,0,0,0-55.27-6.19,10.456,10.456,0,0,0-56.727-6.8q-.795-.269-1.59-.588a6.743,6.743,0,0,1-1.457-.8,3.588,3.588,0,0,1-1.067-1.243,4.115,4.115,0,0,1-.4-1.939,3.8,3.8,0,0,1,.632-2.211A4.077,4.077,0,0,1-58.891-15a5.891,5.891,0,0,1,2.453-.492,5.96,5.96,0,0,1,2.676.583,5.623,5.623,0,0,1,1.939,1.535l-1.414,1.408a4.872,4.872,0,0,0-1.458-1.2,3.868,3.868,0,0,0-1.793-.4,3.2,3.2,0,0,0-1.955.539,1.772,1.772,0,0,0-.723,1.507,1.877,1.877,0,0,0,.4,1.254,3.231,3.231,0,0,0,1.067.8,12.607,12.607,0,0,0,1.458.6q.795.272,1.59.6a6.432,6.432,0,0,1,1.457.839,3.755,3.755,0,0,1,1.067,1.309,4.454,4.454,0,0,1,.4,2.016,3.872,3.872,0,0,1-1.4,3.165A5.777,5.777,0,0,1-56.895.22ZM-42.3,0V-14.833h2.074V0Zm-5.175-13.376v-1.892h12.424v1.892Zm19.58,6.726V-8.377h4.141A2.88,2.88,0,0,0-21.7-9.058a2.432,2.432,0,0,0,.723-1.859,2.478,2.478,0,0,0-.715-1.82,2.756,2.756,0,0,0-2.046-.72h-4.158v-1.809h4.213a5.421,5.421,0,0,1,2.535.561,4.1,4.1,0,0,1,1.664,1.535,4.225,4.225,0,0,1,.586,2.222,4.277,4.277,0,0,1-.586,2.263,3.954,3.954,0,0,1-1.664,1.5,5.629,5.629,0,0,1-2.535.536ZM-29.285,0V-15.268h2.073V0Zm8.8,0-5.533-6.842,1.958-.676L-17.856,0Zm6.446,0,6.265-15.268h1.485L-.069,0H-2.307L-7.439-12.92h.776L-11.839,0Zm2.976-3.454v-1.81h8.041v1.81ZM5.525,0V-15.268H7.6V0ZM21.4.215A7.467,7.467,0,0,1,18.4-.391a7.54,7.54,0,0,1-2.442-1.677,7.863,7.863,0,0,1-1.634-2.5,7.981,7.981,0,0,1-.591-3.08,7.888,7.888,0,0,1,.594-3.072,7.9,7.9,0,0,1,1.647-2.5A7.455,7.455,0,0,1,18.452-14.9a7.884,7.884,0,0,1,3.083-.6,7.957,7.957,0,0,1,3.371.712,6.82,6.82,0,0,1,2.569,2.027l-1.419,1.419a4.778,4.778,0,0,0-1.922-1.611,6.02,6.02,0,0,0-2.6-.561,5.761,5.761,0,0,0-2.959.748,5.215,5.215,0,0,0-1.994,2.068,6.317,6.317,0,0,0-.712,3.047A6.3,6.3,0,0,0,16.588-4.6,5.368,5.368,0,0,0,18.54-2.522a5.307,5.307,0,0,0,2.813.751,5.911,5.911,0,0,0,2.791-.619,4.248,4.248,0,0,0,1.81-1.823A6.275,6.275,0,0,0,26.6-7.15l1.254.913H21.255V-8.129H28.74v.3a9.479,9.479,0,0,1-.943,4.45,6.339,6.339,0,0,1-2.6,2.7A7.811,7.811,0,0,1,21.4.215ZM34.79,0V-15.268h2.074V0Zm9.856,0V-15.268H46.72V0ZM36.193-6.946V-8.839h8.954v1.892ZM57.659,0V-14.833h2.074V0ZM52.484-13.376v-1.892H64.908v1.892ZM70.672,0V-15.268h2.074V0Zm1.4,0V-1.892h8.761V0Zm0-6.9V-8.718H80.11V-6.9Zm0-6.479v-1.892h8.646v1.892ZM86.941,0V-15.268h1.452l.621,2.409V0ZM97.512,0,88.124-12.507l.27-2.761L97.782-2.761Zm0,0-.621-2.26V-15.268h2.074V0Zm8.349,0V-15.268h2.074V0Zm1.4,0V-1.892h8.761V0Zm0-6.9V-8.718H115.3V-6.9Zm0-6.479v-1.892h8.646v1.892Zm16.258,6.726V-8.377h4.141a2.88,2.88,0,0,0,2.054-.682,2.432,2.432,0,0,0,.723-1.859,2.478,2.478,0,0,0-.715-1.82,2.756,2.756,0,0,0-2.046-.72h-4.158v-1.809h4.213a5.421,5.421,0,0,1,2.536.561,4.1,4.1,0,0,1,1.664,1.535,4.225,4.225,0,0,1,.586,2.222,4.277,4.277,0,0,1-.586,2.263,3.954,3.954,0,0,1-1.664,1.5,5.629,5.629,0,0,1-2.536.536ZM122.13,0V-15.268H124.2V0Zm8.8,0L125.4-6.842l1.958-.676L133.559,0Z" transform="translate(188 6309)" fill="#1c3534"/>
    <path id="パス_1151" data-name="パス 1151" d="M-74.326-.756a34.817,34.817,0,0,0-4.662-4.2,16.93,16.93,0,0,0,2.31-3.92,2.613,2.613,0,0,1,.392-.686l-.588-.6a2.611,2.611,0,0,1-.9.112l-5,.056h-.364a6.579,6.579,0,0,1-1.106-.07l.028,1.134a9.42,9.42,0,0,1,1.442-.112l4.676-.07a2.378,2.378,0,0,0,.336-.014.3.3,0,0,1-.042.1c-.028.07-.042.084-.07.168a15.174,15.174,0,0,1-5,6.314,11.27,11.27,0,0,1-2.842,1.61,3.116,3.116,0,0,1,.686.924,18.028,18.028,0,0,0,2.744-1.68A15.2,15.2,0,0,0-79.6-4.2,26.039,26.039,0,0,1-75.124.126Zm8.834,1.19a9.522,9.522,0,0,1-.07-1.484V-5.264a4.89,4.89,0,0,0-.056-.826l.028-.014a1.545,1.545,0,0,0,.434.238,28.544,28.544,0,0,1,5.222,2.772l.6-1.036a34.721,34.721,0,0,0-6.23-2.954V-9.7a8.788,8.788,0,0,1,.07-1.456h-1.2a8.3,8.3,0,0,1,.084,1.428v8.694A9,9,0,0,1-66.7.434Zm13.944-11.186a7.236,7.236,0,0,1,.042.756v.518l-.028,8.022a2.687,2.687,0,0,1-.1.91l.56.7a3.517,3.517,0,0,1,.812-.21c3.738-.728,5.8-2.03,7.714-4.886a3.565,3.565,0,0,1-.77-.882,8.475,8.475,0,0,1-3.15,3.36,10.57,10.57,0,0,1-4,1.4l.042-8.442a8.625,8.625,0,0,1,.07-1.246ZM-37.422-4.8a15.294,15.294,0,0,1,1.736-.056h8.12a16.015,16.015,0,0,1,1.708.056V-5.936a11.042,11.042,0,0,1-1.694.07h-8.134a9.9,9.9,0,0,1-1.736-.084ZM-17.192.434a9.522,9.522,0,0,1-.07-1.484V-5.264a4.89,4.89,0,0,0-.056-.826l.028-.014a1.545,1.545,0,0,0,.434.238,28.544,28.544,0,0,1,5.222,2.772l.6-1.036a34.721,34.721,0,0,0-6.23-2.954V-9.7a8.788,8.788,0,0,1,.07-1.456h-1.2a8.3,8.3,0,0,1,.084,1.428v8.694A9,9,0,0,1-18.4.434ZM-4.914-3.374c.182-.238.294-.378.392-.49.9-1.036,1.988-2.38,2.534-3.122.616-.826.686-.9.966-.9s.336.042,1.26,1.036A55.987,55.987,0,0,0,4.984-2.2c.924.784.938.8,1.246,1.078l.532-1.148A6.582,6.582,0,0,1,5.6-3.108,45.041,45.041,0,0,1,.812-7.686C-.21-8.806-.434-8.974-.994-8.974c-.63,0-.98.266-1.778,1.33-.686.91-1.974,2.464-2.394,2.87a2.232,2.232,0,0,1-.462.35Zm26.782-6.958c-.252.1-.252.1-1.19.1H13.16a10.261,10.261,0,0,1-1.666-.1v1.078a13.518,13.518,0,0,1,1.652-.07H21.1A7.427,7.427,0,0,1,19.53-7.238a6.061,6.061,0,0,1-2.212,1.33,2.75,2.75,0,0,1,.686.8A8.379,8.379,0,0,0,22.092-9.1a2.512,2.512,0,0,1,.336-.56ZM15.764-7.9a3.7,3.7,0,0,1,.056.756c0,2.73-.546,4.158-2.03,5.348A6.579,6.579,0,0,1,11.228-.5a2.738,2.738,0,0,1,.644.938,7.626,7.626,0,0,0,3.584-2.422c.952-1.2,1.344-2.59,1.386-4.928A5.078,5.078,0,0,1,16.9-7.9Zm22.2-2.436c-.252.1-.252.1-1.19.1H29.26a10.261,10.261,0,0,1-1.666-.1v1.078a13.518,13.518,0,0,1,1.652-.07H37.2A7.427,7.427,0,0,1,35.63-7.238a6.061,6.061,0,0,1-2.212,1.33,2.75,2.75,0,0,1,.686.8A8.379,8.379,0,0,0,38.192-9.1a2.513,2.513,0,0,1,.336-.56ZM31.864-7.9a3.7,3.7,0,0,1,.056.756c0,2.73-.546,4.158-2.03,5.348A6.579,6.579,0,0,1,27.328-.5a2.738,2.738,0,0,1,.644.938,7.626,7.626,0,0,0,3.584-2.422c.952-1.2,1.344-2.59,1.386-4.928A5.078,5.078,0,0,1,33-7.9ZM51.7-11.116A11.752,11.752,0,0,1,49.028-8.47a19.713,19.713,0,0,1-7.266,3.626,3.241,3.241,0,0,1,.546.938,21.885,21.885,0,0,0,5.4-2.45v5.32A7.3,7.3,0,0,1,47.628.42h1.218a9.3,9.3,0,0,1-.07-1.484V-7.028a24.657,24.657,0,0,0,3.276-2.814,3.169,3.169,0,0,1,.616-.588Zm15.89,9.968v.994h1.064c-.028-.294-.042-.658-.042-1.078V-8.806A7.593,7.593,0,0,1,68.656-9.9a7.285,7.285,0,0,1-1.092.042H60.1A10.084,10.084,0,0,1,59.01-9.9a7.18,7.18,0,0,1,.056,1.092v7.6a7.273,7.273,0,0,1-.056,1.05h1.078v-.994Zm0-.91h-7.5V-8.932h7.5Zm7.532-7.084A15.459,15.459,0,0,1,78.456-6.4l.728-.868A18.238,18.238,0,0,0,75.81-9.9Zm.1,9.1a7.356,7.356,0,0,1,.84-.224,14.115,14.115,0,0,0,5.222-2.086A12.279,12.279,0,0,0,85.554-7.7a2.8,2.8,0,0,1-.854-.826A10.579,10.579,0,0,1,78.988-2.3a12.186,12.186,0,0,1-4.074,1.078Z" transform="translate(188 6334)" fill="#1c3534"/>
  </g>
</svg>
