<svg xmlns="http://www.w3.org/2000/svg" width="249.041" height="86.44" viewBox="0 0 249.041 86.44">
  <path id="パス_1159" data-name="パス 1159" d="M-239.88-11.78c0,.12.04.5.04,1.48v1.8c0,1.02-.04,1.38-.04,1.52,0,.2.02.22.22.22.12,0,.62-.04,2.08-.04h2.92v5.7c0,.58-.16.74-.8.74a10.424,10.424,0,0,1-1.44-.1A5.432,5.432,0,0,1-236.46.9c.12.6.12.6.74.6,1.56,0,2.16-.16,2.52-.48a1.947,1.947,0,0,0,.56-1.68c0-.9-.08-2.34-.08-3.64V-9.64c0-1.38.04-2.02.04-2.14,0-.22-.02-.24-.22-.24-.12,0-.62.04-2.1.04h-.84l1.22-.32c.24-.06.3-.1.2-.28a10.619,10.619,0,0,0-.64-1.06h.68c1.9,0,2.56.04,2.66.04.2,0,.22-.02.22-.22v-1.2c0-.2-.02-.22-.22-.22-.1,0-.76.04-2.66.04h-3l.06-.16c.12-.32.16-.46.28-.54.16-.1.24-.18.24-.34,0-.14-.1-.2-.32-.26-.5-.12-1.08-.26-1.72-.36a6.327,6.327,0,0,1-.32,1.08,9.258,9.258,0,0,1-1.96,3.06,3.5,3.5,0,0,1,1.08.66,1.206,1.206,0,0,0,.16.16Zm2.3-.2c-.82,0-1.34,0-1.66-.02l.08-.1a8.853,8.853,0,0,0,1.06-1.54h1.12a10.2,10.2,0,0,1,.74,1.48c.02.08.04.16.08.18Zm2.92,1.28v.72h-3.36v-.72Zm-3.36,2.64v-.72h3.36v.72ZM-248.18-1.5c0,1.88-.04,2.74-.04,2.86,0,.2.02.22.22.22h1.58c.22,0,.24-.02.24-.22,0-.12-.04-.98-.04-2.86V-6.8h2.9c1.24,0,1.74.04,1.86.04.22,0,.24-.02.24-.22,0-.12-.04-.6-.04-1.66v-1.52c0-1.04.04-1.5.04-1.62,0-.22-.02-.24-.24-.24-.12,0-.62.04-1.86.04h-2.44c-.78,0-1.34,0-1.7-.02a12.486,12.486,0,0,0,1.28-1.64h1a8.332,8.332,0,0,1,.58,1.44c.06.22.1.24.4.18l1.3-.3c.28-.06.3-.1.2-.3-.2-.36-.36-.68-.58-1.02h.08c1.7,0,2.28.04,2.4.04.2,0,.22-.02.22-.22v-1.2c0-.2-.02-.22-.22-.22-.12,0-.7.04-2.4.04h-2.1l.12-.28c.12-.3.18-.4.3-.48.14-.1.24-.18.24-.34s-.08-.22-.3-.28c-.6-.12-1.14-.22-1.86-.32a4.208,4.208,0,0,1-.38,1.06,10.411,10.411,0,0,1-2.64,3.36,5.99,5.99,0,0,1,1.14.82c.24.22.36.34.48.34,0,.44.02,1.24.02,2.46Zm5.1-9.2v.72h-3.14v-.72Zm0,2.64h-3.14v-.72h3.14Zm.7,8.92c.2,0,.22-.02.22-.22v-.7h3.36V.42c0,.2.02.22.22.22h1.36c.2,0,.22-.02.22-.22,0-.12-.04-.6-.04-3.04V-4.1c0-1.02.04-1.54.04-1.66,0-.2-.02-.22-.22-.22-.12,0-.58.04-2.04.04h-2.46c-1.46,0-1.9-.04-2.04-.04-.2,0-.22.02-.22.22,0,.12.04.64.04,1.96v1.32c0,2.52-.04,2.98-.04,3.12,0,.2.02.22.22.22Zm.22-2.26v-1h3.36v1Zm0-3.18h3.36v.96h-3.36Zm23.74,3v.44c0,1.64-.04,2.38-.04,2.5,0,.2.02.22.2.22h1.7c.2,0,.22-.02.22-.22,0-.1-.04-.86-.04-2.5v-.44h5.32c1.78,0,2.38.04,2.5.04.2,0,.2-.02.2-.22v-1.5c0-.2,0-.22-.2-.22-.12,0-.72.04-2.5.04h-5.32V-4.8h2.78c1.96,0,2.66.04,2.78.04.2,0,.22-.02.22-.22,0-.12-.04-.68-.04-1.98v-3.52c0-1.3.04-1.86.04-1.98,0-.18-.02-.2-.22-.2-.12,0-.82.04-2.78.04h-7.38c-1.96,0-2.66-.04-2.8-.04-.2,0-.22.02-.22.2,0,.14.04.68.04,1.98v3.52c0,1.3-.04,1.86-.04,1.98,0,.2.02.22.22.22.14,0,.84-.04,2.8-.04h2.56v1.36h-5.08c-1.78,0-2.38-.04-2.5-.04-.2,0-.2.02-.2.22v1.5c0,.2,0,.22.2.22.12,0,.72-.04,2.5-.04Zm5.76-4.88h-3.72v-1.5h3.72Zm0-4.52v1.44h-3.72v-1.44Zm-9.28,4.52v-1.5h3.52v1.5Zm0-3.08v-1.44h3.52v1.44Zm7.74-3.88a12.094,12.094,0,0,1,1.38.42,1.492,1.492,0,0,0,.48.12c.16,0,.26-.08.4-.26.4-.54.82-1.16,1.16-1.7a1.793,1.793,0,0,1,.4-.46c.08-.08.22-.2.22-.34,0-.12-.1-.22-.24-.3-.56-.24-1.26-.5-1.9-.7a5.327,5.327,0,0,1-.52,1.22A12.772,12.772,0,0,1-214.2-13.42Zm-10.24-2.48c-.24.1-.28.16-.14.32a13.488,13.488,0,0,1,1.5,2.46c.1.2.16.2.42.1l1.46-.62c.22-.1.24-.14.16-.3a16.112,16.112,0,0,0-1.56-2.42c-.14-.16-.2-.16-.42-.08Zm5.38-.38c-.26.08-.3.14-.18.32A11.789,11.789,0,0,1-218-13.28c.08.22.1.24.4.12l1.4-.54c.24-.1.26-.12.18-.32a10.548,10.548,0,0,0-1.3-2.6c-.12-.18-.16-.18-.42-.1Zm18.66,1.04a16.136,16.136,0,0,1-.36,2.98,38.18,38.18,0,0,0-.68,6.56,18.749,18.749,0,0,0,.92,5.96c.04.14.12.24.26.22a9.927,9.927,0,0,0,1.64-.32c.18-.04.26-.12.26-.26,0-.16-.04-.32-.04-.56a2.271,2.271,0,0,1,.06-.62A19.55,19.55,0,0,1-197.2-4.3a.553.553,0,0,0,.1-.32.8.8,0,0,0-.14-.3,5.192,5.192,0,0,1-.7-1.26c-.58,1.4-.94,2.06-1.36,2.98a19.286,19.286,0,0,1-.12-2.34,32.407,32.407,0,0,1,.84-6.46,4.725,4.725,0,0,1,.48-1.42c.26-.4.3-.46.3-.6,0-.18-.12-.3-.46-.48A8.851,8.851,0,0,0-200.4-15.24Zm4.6,10.32a4.406,4.406,0,0,0,.7,2.6c.86,1.18,2.24,1.66,5.2,1.66a26.853,26.853,0,0,0,3.26-.22c.34-.04.34-.06.34-.3a14.819,14.819,0,0,0-.12-1.72c-.04-.26-.08-.28-.28-.26a28.669,28.669,0,0,1-3.82.26c-2.18,0-3.14-.5-3.26-1.88,0-.22-.04-.32-.2-.3Zm.64-5.68a24.451,24.451,0,0,1,4.54-.46c1.02,0,2.06.04,3.26.12.18.02.24-.06.26-.24.04-.56.04-1.1.04-1.7,0-.2-.04-.24-.46-.26-.84-.08-1.76-.12-2.96-.12a31.932,31.932,0,0,0-4.34.36c-.2.04-.26.1-.28.34C-195.14-12.22-195.14-11.72-195.16-10.6Zm30.68-2.68a75.4,75.4,0,0,1-.66,10.72c-.22,1.24-.62,1.62-1.42,1.62a12.425,12.425,0,0,1-2.08-.2A4.935,4.935,0,0,1-168.2.5c.06.54.08.54.6.58s.9.06,1.28.06c1.94,0,2.86-.8,3.22-2.86a73.185,73.185,0,0,0,.72-11.5c0-.54,0-1.12.04-1.78,0-.2-.04-.24-.22-.24-.12,0-.74.04-2.58.04h-4.74c-1.84,0-2.44-.04-2.56-.04-.2,0-.22.02-.22.22v1.56c0,.2.02.22.22.22.12,0,.72-.04,2.56-.04h.32c-.02,3.42-.12,5.78-.94,7.98-.9,2.34-2.52,3.9-5.56,5.2a5.624,5.624,0,0,1,1.34,1.12c.22.24.32.36.44.36a1.74,1.74,0,0,0,.54-.24,10.327,10.327,0,0,0,5.22-5.8,26.737,26.737,0,0,0,1.06-8.62Zm-11.38,3.54,1.6-.34c1.58-.3,2.12-.38,2.3-.42.22-.04.24-.06.22-.26l-.16-1.6c-.02-.2-.02-.22-.22-.18-.18.02-.7.18-2.26.48l-1.48.28v-1.86a5.2,5.2,0,0,1,.14-1.84.867.867,0,0,0,.12-.42c0-.12-.12-.2-.38-.24-.66-.08-1.28-.12-2.06-.14a15.947,15.947,0,0,1,.12,2.64v2.24c-1.48.28-2,.36-2.2.4-.18.04-.2.04-.18.26l.2,1.64c.02.2.04.22.24.18l1.94-.4v4.58c0,1.06.24,1.46.74,1.72a4.378,4.378,0,0,0,1.96.3,4.076,4.076,0,0,0,2.26-.5c.64-.42,1-1.04,1.12-2.96.04-.52.04-.54-.48-.72a6.026,6.026,0,0,1-1.34-.68c-.04,1.98-.12,2.4-.44,2.68a1.2,1.2,0,0,1-.86.24,1.391,1.391,0,0,1-.72-.14c-.14-.1-.18-.26-.18-.66Zm23.7-6.26a18.506,18.506,0,0,1-.16,2.28,42.275,42.275,0,0,0-.48,4.98,12.8,12.8,0,0,0,.6,4.06c.04.14.14.28.28.26.5-.06,1.36-.18,1.6-.24a.281.281,0,0,0,.26-.32,2.5,2.5,0,0,1,.1-.6,16.375,16.375,0,0,1,1.18-2.56.942.942,0,0,0,.2-.5.46.46,0,0,0-.12-.32,4.146,4.146,0,0,1-.62-1.3c-.54,1.02-.96,1.78-1.4,2.56a20.2,20.2,0,0,1,.06-2.2c.12-1.04.28-2.46.56-3.82a2.308,2.308,0,0,1,.36-.94.458.458,0,0,0,.14-.32c0-.18-.12-.3-.38-.4A10.481,10.481,0,0,0-152.16-16Zm6.4.04a9.581,9.581,0,0,1,.42,2.18c.14,1.28.24,3.36.24,4.78,0,3.16-.52,4.8-1.68,6.38a9.9,9.9,0,0,1-3.4,2.68,4.641,4.641,0,0,1,1.7.92.58.58,0,0,0,.42.22.693.693,0,0,0,.4-.14,11.021,11.021,0,0,0,3.3-3.22,13.138,13.138,0,0,0,1.52-6.94c0-1.44-.14-3.26-.28-5.16a7.079,7.079,0,0,1,.04-.92c.04-.34,0-.44-.4-.54A11.549,11.549,0,0,0-145.76-15.96Zm27.1,2.52c1.54,0,2.06.04,2.18.04.2,0,.22-.02.22-.22v-1.16c0-.2-.02-.22-.22-.22-.12,0-.64.04-2.18.04h-.84v-.06a3.026,3.026,0,0,1,.1-1,1.129,1.129,0,0,0,.12-.4c0-.12-.12-.2-.32-.22-.62-.06-1.22-.08-1.86-.1a8.137,8.137,0,0,1,.1,1.78h-.18c-1.58,0-2.06-.04-2.18-.04-.2,0-.22.02-.22.22v1.16c0,.2.02.22.22.22.12,0,.6-.04,2.18-.04h.14a8.085,8.085,0,0,1-.14,1.28h-.18c-1.68,0-2.22-.04-2.36-.04-.2,0-.22.02-.22.24v1.18c0,.2.02.22.22.22.12,0,.62-.02,2.02-.04a5.963,5.963,0,0,1-2.78,2.32,4.843,4.843,0,0,1,.94.98l.16.24h-3.62c-1.88,0-2.54-.04-2.66-.04-.22,0-.24.02-.24.22,0,.14.04.72.04,2.62v1.88c0,3.06-.04,3.62-.04,3.74,0,.2.02.22.24.22h1.6c.2,0,.22-.02.22-.22V.6h7.46v.68c0,.18.02.2.22.2h1.62c.2,0,.22-.02.22-.2,0-.12-.04-.68-.04-3.74V-4.58c0-1.6.04-2.18.04-2.3,0-.2-.02-.22-.22-.22-.14,0-.78.04-2.68.04h-1.58l.12-.08a7.819,7.819,0,0,0,2.56-2.58,9.561,9.561,0,0,0,3.54,3.24,1.248,1.248,0,0,0,.46.18c.16,0,.26-.12.38-.42a5.72,5.72,0,0,1,.78-1.24,9.657,9.657,0,0,1-3.86-2.64h.96c1.66,0,2.24.04,2.36.04.2,0,.22-.02.22-.22v-1.18c0-.22-.02-.24-.22-.24-.12,0-.7.04-2.36.04h-1.46c.06-.4.1-.82.14-1.28ZM-128.2-1.06V-2.5h7.46v1.44Zm0-4.34h7.46v1.32h-7.46Zm.72-8.04c1.52,0,2,.04,2.1.04.2,0,.22-.02.22-.22v-1.16c0-.2-.02-.22-.22-.22-.1,0-.58.04-2.1.04h-.2V-15a2.214,2.214,0,0,1,.14-1,1.224,1.224,0,0,0,.12-.42c0-.12-.12-.2-.36-.22-.64-.06-1.22-.08-1.84-.1a10.871,10.871,0,0,1,.1,1.74v.04h-.68c-1.52,0-2-.04-2.12-.04-.22,0-.24.02-.24.22v1.16c0,.2.02.22.24.22.12,0,.6-.04,2.12-.04h.64a11.763,11.763,0,0,1-.16,1.28h-1.04c-1.64,0-2.18-.04-2.3-.04-.22,0-.24.02-.24.24v1.18c0,.2.02.22.24.22.12,0,.66-.04,2.3-.04h.58a6.66,6.66,0,0,1-3.36,3.02,6.089,6.089,0,0,1,.92,1.08c.18.28.26.42.4.42.1,0,.24-.1.46-.26a9.828,9.828,0,0,0,3.04-3.2,8.842,8.842,0,0,0,2.12,2.02,1.107,1.107,0,0,0,.46.22c.14,0,.24-.14.42-.48A3.883,3.883,0,0,1-125-8.8a8.29,8.29,0,0,1-2.68-1.8h.26c1.64,0,2.16.04,2.3.04.2,0,.22-.02.22-.22v-1.18c0-.22-.02-.24-.22-.24-.14,0-.66.04-2.3.04h-.46c.06-.4.1-.82.14-1.28Zm23.56-3.06a17.672,17.672,0,0,0-.68,1.86.266.266,0,0,0,.18.36,30.813,30.813,0,0,0,5.58,1.68.287.287,0,0,0,.34-.22,12.125,12.125,0,0,0,.54-1.64c.06-.28-.02-.4-.22-.44A36.428,36.428,0,0,1-103.92-16.5Zm-4.02,6.22a14.14,14.14,0,0,0,.8,2.24c.1.24.2.34.34.34a.9.9,0,0,0,.42-.12,7.738,7.738,0,0,1,1.08-.36c1.32-.34,2.66-.66,4.16-1.06-2.14,2.3-3.18,3.46-3.96,4.26l-3.78,3.84a.49.49,0,0,0-.16.32.318.318,0,0,0,.1.2A10.929,10.929,0,0,0-107.54.6a.372.372,0,0,0,.22.08.35.35,0,0,0,.28-.14c.68-.84,2.14-2.6,3.04-3.52a2.846,2.846,0,0,1,1.88-1c.7,0,.94.56,1.26,1.92C-100.44-.08-99.48.7-96.54.7A17.474,17.474,0,0,0-93.6.44c.26-.04.36-.12.36-.32a10.436,10.436,0,0,0-.14-1.76c-.04-.22-.14-.34-.36-.3a13.46,13.46,0,0,1-3.1.36c-1.48,0-1.8-.32-2.2-1.96a2.276,2.276,0,0,0-2.18-2.02,2.482,2.482,0,0,0-.72.1c1.34-1.44,2.16-2.28,3.64-3.68a3.078,3.078,0,0,1,.64-.46.539.539,0,0,0,.36-.46.749.749,0,0,0-.22-.46,4.7,4.7,0,0,0-1.18-1.06c-.16-.1-.22-.14-.34-.14a.762.762,0,0,0-.44.14,2.907,2.907,0,0,1-.8.32c-.82.18-1.94.4-3.48.64A22.255,22.255,0,0,1-107.94-10.28Zm23.42-.46c.12-1.82.9-2.76,2.16-2.76a1.9,1.9,0,0,1,2,2.12c0,1.26-.44,2.06-2.44,3.98a19.314,19.314,0,0,0-4.36,5.66V.04h9.46v-2h-6.86A14.923,14.923,0,0,1-80.84-6.2c2.34-2.18,3.08-3.46,3.08-5.16,0-2.64-1.82-4.12-4.56-4.12a4.471,4.471,0,0,0-4.7,4.22Zm28.92-4.74h-2.58l-1.2,7.26c-.3,1.92-.48,3.5-.78,5.58h-.28c-.22-2.06-.46-3.7-.76-5.46l-1.3-7.38h-3.46l-1.26,7.14c-.34,1.86-.54,3.76-.82,5.7h-.28c-.24-1.98-.5-3.86-.78-5.76l-1.12-7.08h-2.74L-69.94.04h3.32l1.26-7.3c.36-1.98.58-3.7.86-5.74h.28c.28,2.02.48,3.74.86,5.82L-62.02.04h3.32Zm11.24,0h-3.26L-52.38.04h2.56l1.34-4.56h4.76L-42.4.04h2.82Zm.16,8.96H-48l.84-3.16c.34-1.2.62-2.32.96-3.8h.18c.34,1.46.58,2.6.92,3.82Zm20.54-8.96h-2.76L-29.4-9.72c-.22.38-.32.58-.5.96-.18-.36-.28-.58-.48-.94l-3.08-5.78h-3l5,9.1V.04h2.72V-6.38Zm14.88,3.52c-2.42,1.58-3.84,3.5-3.84,6.34,0,4.16,3.86,6.18,7.38,6.18.24,0,.32-.12.38-.42a7.114,7.114,0,0,0,.22-1.72c0-.22-.12-.3-.44-.3C-8.56-2.1-10.4-3.5-10.4-6.08c0-2.4,1.7-4.74,5.1-5.9a8.924,8.924,0,0,1,2.44-.44c.26,0,.38-.06.38-.3a11.426,11.426,0,0,0-.22-1.76c-.02-.14-.12-.26-.42-.22-5.16.68-9.56,1.34-12.02,1.7a27.591,27.591,0,0,1-3.18.34,13.937,13.937,0,0,0,.74,2.16.468.468,0,0,0,.38.3,1.168,1.168,0,0,0,.44-.16c.3-.1.5-.14,1.26-.32,2.14-.44,4.28-.86,6.72-1.32Zm2.9,2.86A9.924,9.924,0,0,1-3.86-6.78a.209.209,0,0,0,.34.06l.84-.62a.2.2,0,0,0,.06-.32A9.205,9.205,0,0,0-4.52-9.8c-.12-.1-.2-.12-.3-.04Zm1.84-1.32a9.461,9.461,0,0,1,2,2.3.205.205,0,0,0,.34.06l.8-.62a.231.231,0,0,0,.06-.36,8.352,8.352,0,0,0-1.9-2.06c-.12-.1-.18-.12-.3-.04ZM-221.88,20.1c-1.3,0-2.3,0-3.38-.08a11.651,11.651,0,0,0,.18,2.08c.04.22.1.36.26.34,1.08-.08,2.12-.12,3.16-.12l5.16-.02a24.532,24.532,0,0,1-3.76,5.02,24.294,24.294,0,0,1-7.04,5.1,5.479,5.479,0,0,1,1.68,1.3.447.447,0,0,0,.34.18,1.266,1.266,0,0,0,.46-.16,28.774,28.774,0,0,0,6.72-5.28,36.405,36.405,0,0,1,5.2,4.96.411.411,0,0,0,.28.16.346.346,0,0,0,.24-.12,10.716,10.716,0,0,0,1.34-1.36.5.5,0,0,0,.14-.3.455.455,0,0,0-.16-.28,47.025,47.025,0,0,0-5.54-4.84,31.559,31.559,0,0,0,2.56-3.74,3.663,3.663,0,0,1,.74-.88.552.552,0,0,0,.26-.4.533.533,0,0,0-.1-.26,7.291,7.291,0,0,0-1.3-1.4.661.661,0,0,0-.34-.16.333.333,0,0,0-.22.08,2.937,2.937,0,0,1-1.38.18Zm25.62.76a5.209,5.209,0,0,1,.14-1.88,1.052,1.052,0,0,0,.16-.46c0-.16-.1-.28-.38-.34a14.763,14.763,0,0,0-2.5-.32,15.261,15.261,0,0,1,.2,2.96v9.84c0,1.28-.02,2.46-.08,3.94,0,.24.1.3.38.3a13.218,13.218,0,0,0,1.78,0c.28,0,.38-.06.36-.3-.04-1.44-.08-2.62-.08-3.92V26.26a22.151,22.151,0,0,1,5.26,2.56.307.307,0,0,0,.22.1c.1,0,.18-.08.26-.22a11.754,11.754,0,0,0,.86-1.74c.1-.26,0-.4-.22-.52a28.211,28.211,0,0,0-6.36-2.72Zm20.7,2.28a8.229,8.229,0,0,1,.22-2.48,1.528,1.528,0,0,0,.1-.42.384.384,0,0,0-.32-.38,20.348,20.348,0,0,0-2.6-.44,18.914,18.914,0,0,1,.22,3.48l-.04,7.52a3.945,3.945,0,0,1-.08,1.14.812.812,0,0,0-.1.34.49.49,0,0,0,.12.32,6.169,6.169,0,0,0,1.22,1.36.534.534,0,0,0,.34.16.58.58,0,0,0,.36-.16,4.613,4.613,0,0,1,1.12-.64,44.743,44.743,0,0,0,4.9-2.48,32.362,32.362,0,0,0,5-3.44.631.631,0,0,0,.2-.8,9,9,0,0,1-.32-2.32,24.715,24.715,0,0,1-5.3,4.08,32.886,32.886,0,0,1-5.1,2.52Zm29.36,4.68c1.48,0,2.96.02,4.46.04.28.02.36-.06.36-.3a14.744,14.744,0,0,0,0-1.88c0-.24-.06-.3-.36-.28-1.54.02-3.08.06-4.6.06h-6.44a25.694,25.694,0,0,1-4.32-.24,21.706,21.706,0,0,0,.3,2.42c.06.3.22.42.46.42a15.993,15.993,0,0,1,2.94-.24Zm19.54-6.96a5.208,5.208,0,0,1,.14-1.88,1.052,1.052,0,0,0,.16-.46c0-.16-.1-.28-.38-.34a14.763,14.763,0,0,0-2.5-.32,15.261,15.261,0,0,1,.2,2.96v9.84c0,1.28-.02,2.46-.08,3.94,0,.24.1.3.38.3a13.218,13.218,0,0,0,1.78,0c.28,0,.38-.06.36-.3-.04-1.44-.08-2.62-.08-3.92V26.26a22.151,22.151,0,0,1,5.26,2.56.307.307,0,0,0,.22.1c.1,0,.18-.08.26-.22a11.754,11.754,0,0,0,.86-1.74c.1-.26,0-.4-.22-.52a28.211,28.211,0,0,0-6.36-2.72Zm22.1,7.94c1.02.02,2.06.02,3.06-.06.2,0,.26-.08.28-.32a13.48,13.48,0,0,0,.1-1.5c0-.18-.06-.26-.32-.22-.96.06-1.78.08-2.84.06.12-.8.32-2.16.44-2.86a19.718,19.718,0,0,0,2.66-.1c.24-.02.32-.08.32-.3a9.337,9.337,0,0,0,.04-1.5c0-.14-.06-.24-.2-.24a11.4,11.4,0,0,1-2.46.12c.1-.74.22-1.42.32-1.88a1.961,1.961,0,0,1,.36-.86.585.585,0,0,0,.16-.38c0-.18-.16-.36-.44-.46a11.889,11.889,0,0,0-2.4-.56,9.406,9.406,0,0,1,.02,1.68c-.04.6-.1,1.14-.26,2.3a16.258,16.258,0,0,1-3.62-.76c0,.72.04,1.38.06,1.86,0,.18.08.28.32.34a13.986,13.986,0,0,0,2.88.56c-.08.82-.24,2.12-.34,2.86a12.506,12.506,0,0,1-3.24-.78,11.559,11.559,0,0,0,.04,1.86c.02.24.08.34.22.38a15.756,15.756,0,0,0,2.72.6c-.08.9-.14,1.46-.14,1.88,0,2.92,1.5,4.52,5.04,4.52,3.44,0,5.76-1.84,5.76-4.68a5.213,5.213,0,0,0-1.7-3.76.458.458,0,0,0-.42-.08,6.379,6.379,0,0,1-2.04.12c1.52,1.6,1.8,2.52,1.8,3.64,0,1.8-1.3,2.7-3.64,2.7-1.86,0-2.66-.72-2.66-2.56A12.321,12.321,0,0,1-104.56,28.8Zm21.12-6.44c-1.16,0-2.06,0-3.32-.08.04.74.08,1.46.16,1.94.02.24.1.36.3.34.94-.06,1.9-.1,2.88-.1h1.8a11.653,11.653,0,0,1-1.44,4.32,11.134,11.134,0,0,1-4.7,4.08,5.1,5.1,0,0,1,1.68,1.16.514.514,0,0,0,.38.2.911.911,0,0,0,.46-.16A12.892,12.892,0,0,0-81,29.94a14.88,14.88,0,0,0,1.78-5.54h4.04a28.013,28.013,0,0,1-.6,6c-.24.9-.5,1.22-1.04,1.4a8.164,8.164,0,0,1-2.72.18,4.185,4.185,0,0,1,1.16,1.82.486.486,0,0,0,.48.4,8.454,8.454,0,0,0,2.02-.22c1.28-.32,1.96-1.16,2.36-2.7a34.092,34.092,0,0,0,.74-6.58c.04-1.06.08-1.86.08-2.12,0-.22-.1-.28-.42-.28-.92,0-1.86.04-2.78.04h-3.04c.1-.98.12-1.46.18-2.1a1.863,1.863,0,0,1,.26-.94.9.9,0,0,0,.1-.38.413.413,0,0,0-.34-.42,15.662,15.662,0,0,0-2.6-.42,7.69,7.69,0,0,1,.14,1.58c-.02,1.08-.06,1.72-.14,2.7Zm30.04,5.46c1.48,0,2.96.02,4.46.04.28.02.36-.06.36-.3a14.741,14.741,0,0,0,0-1.88c0-.24-.06-.3-.36-.28-1.54.02-3.08.06-4.6.06h-6.44a25.694,25.694,0,0,1-4.32-.24,21.707,21.707,0,0,0,.3,2.42c.06.3.22.42.46.42a15.993,15.993,0,0,1,2.94-.24Zm22.24-4.72a5.534,5.534,0,0,1,.18-2.22,1.28,1.28,0,0,0,.16-.5c0-.16-.1-.28-.36-.34a19.086,19.086,0,0,0-2.5-.42,15.97,15.97,0,0,1,.2,3.48v6.26c0,1.02.02,1.26-.12,1.52a.614.614,0,0,0-.08.3.8.8,0,0,0,.18.42,5.775,5.775,0,0,0,1.2,1.22.853.853,0,0,0,.42.16.635.635,0,0,0,.4-.16,6.641,6.641,0,0,1,.58-.42A33.214,33.214,0,0,0-27.34,30a25.281,25.281,0,0,0,2.96-2.62c.22-.22.3-.36.3-.5a1,1,0,0,0-.12-.34,5.765,5.765,0,0,1-.62-2.02,19.193,19.193,0,0,1-3.5,3.4,20.332,20.332,0,0,1-2.84,1.86Zm-6.98-2.22a5.38,5.38,0,0,1,.2,1.68c-.02,3.2-.28,4.3-.84,5.66A9.929,9.929,0,0,1-42.1,32.2a7.087,7.087,0,0,1,1.7.84.68.68,0,0,0,.38.16.907.907,0,0,0,.52-.26,10.3,10.3,0,0,0,2.84-3.76,14.968,14.968,0,0,0,1.08-5.88,2.885,2.885,0,0,1,.24-1.36c.12-.28.08-.52-.26-.62A16.169,16.169,0,0,0-38.14,20.88Zm26.38,7.92c1.02.02,2.06.02,3.06-.06.2,0,.26-.08.28-.32a13.479,13.479,0,0,0,.1-1.5c0-.18-.06-.26-.32-.22-.96.06-1.78.08-2.84.06.12-.8.32-2.16.44-2.86a19.718,19.718,0,0,0,2.66-.1c.24-.02.32-.08.32-.3A9.337,9.337,0,0,0-8.02,22c0-.14-.06-.24-.2-.24a11.4,11.4,0,0,1-2.46.12c.1-.74.22-1.42.32-1.88a1.961,1.961,0,0,1,.36-.86.585.585,0,0,0,.16-.38c0-.18-.16-.36-.44-.46a11.889,11.889,0,0,0-2.4-.56,9.406,9.406,0,0,1,.02,1.68c-.04.6-.1,1.14-.26,2.3a16.258,16.258,0,0,1-3.62-.76c0,.72.04,1.38.06,1.86,0,.18.08.28.32.34a13.986,13.986,0,0,0,2.88.56c-.08.82-.24,2.12-.34,2.86a12.506,12.506,0,0,1-3.24-.78,11.559,11.559,0,0,0,.04,1.86c.02.24.08.34.22.38a15.756,15.756,0,0,0,2.72.6c-.08.9-.14,1.46-.14,1.88,0,2.92,1.5,4.52,5.04,4.52,3.44,0,5.76-1.84,5.76-4.68a5.213,5.213,0,0,0-1.7-3.76.458.458,0,0,0-.42-.08,6.379,6.379,0,0,1-2.04.12c1.52,1.6,1.8,2.52,1.8,3.64,0,1.8-1.3,2.7-3.64,2.7-1.86,0-2.66-.72-2.66-2.56A12.322,12.322,0,0,1-11.76,28.8ZM-130.74,69.44c.2,0,.22-.02.22-.22v-.94h9.02v.9c0,.2.02.22.22.22h1.78c.2,0,.22-.02.22-.22,0-.1-.04-1.16-.04-6.5V58.46c0-3.18.04-4.3.04-4.42,0-.2-.02-.22-.22-.22-.14,0-.84.04-2.78.04h-3.9a15.678,15.678,0,0,0,.7-1.5,1.375,1.375,0,0,1,.3-.48.4.4,0,0,0,.16-.28c0-.1-.1-.22-.28-.26-.58-.1-1.46-.24-2.14-.3a4.665,4.665,0,0,1-.22.94,13.132,13.132,0,0,1-.74,1.88h-1.3c-1.94,0-2.64-.04-2.78-.04-.2,0-.22.02-.22.22,0,.14.04,1.24.04,4.96v3.7c0,5.34-.04,6.4-.04,6.52,0,.2.02.22.22.22Zm.22-3.08v-2.4h9.02v2.4Zm0-4.28V59.84h9.02v2.24Zm0-6.3h9.02v2.18h-9.02Zm21.82,13.68c.2,0,.22-.02.22-.2v-.92h11.4v.84c0,.18.02.2.22.2h1.74c.2,0,.22-.02.22-.2,0-.12-.04-1.04-.04-5.8v-3.9c0-2.94.04-3.9.04-4.02,0-.2-.02-.22-.22-.22-.14,0-.8.04-2.72.04h-3.98V54.2a9.709,9.709,0,0,1,.1-2,1.855,1.855,0,0,0,.12-.48.275.275,0,0,0-.3-.24c-.7-.08-1.48-.12-2.24-.14a18.078,18.078,0,0,1,.16,2.88v1.06h-3.72c-1.92,0-2.58-.04-2.72-.04-.2,0-.22.02-.22.22,0,.12.04,1.08.04,4.48v3.48c0,4.78-.04,5.7-.04,5.84,0,.18.02.2.22.2Zm6.88-3.06V62.64h4.74V66.4Zm-6.66,0V62.64h4.5V66.4Zm11.4-9.18v3.52h-4.74V57.22Zm-11.4,0h4.5v3.52h-4.5Zm22.56-4.46a16.136,16.136,0,0,1-.36,2.98,38.18,38.18,0,0,0-.68,6.56,18.749,18.749,0,0,0,.92,5.96c.04.14.12.24.26.22a9.928,9.928,0,0,0,1.64-.32c.18-.04.26-.12.26-.26,0-.16-.04-.32-.04-.56a2.271,2.271,0,0,1,.06-.62,19.553,19.553,0,0,1,1.14-3.02.553.553,0,0,0,.1-.32.8.8,0,0,0-.14-.3,5.192,5.192,0,0,1-.7-1.26c-.58,1.4-.94,2.06-1.36,2.98a19.286,19.286,0,0,1-.12-2.34A32.408,32.408,0,0,1-84.1,56a4.725,4.725,0,0,1,.48-1.42c.26-.4.3-.46.3-.6,0-.18-.12-.3-.46-.48A8.851,8.851,0,0,0-85.92,52.76Zm4.6,10.32a4.406,4.406,0,0,0,.7,2.6c.86,1.18,2.24,1.66,5.2,1.66a26.853,26.853,0,0,0,3.26-.22c.34-.04.34-.06.34-.3a14.817,14.817,0,0,0-.12-1.72c-.04-.26-.08-.28-.28-.26a28.669,28.669,0,0,1-3.82.26c-2.18,0-3.14-.5-3.26-1.88,0-.22-.04-.32-.2-.3Zm.64-5.68a24.451,24.451,0,0,1,4.54-.46c1.02,0,2.06.04,3.26.12.18.02.24-.06.26-.24.04-.56.04-1.1.04-1.7,0-.2-.04-.24-.46-.26-.84-.08-1.76-.12-2.96-.12a31.932,31.932,0,0,0-4.34.36c-.2.04-.26.1-.28.34C-80.66,55.78-80.66,56.28-80.68,57.4Zm21.76,6.7a15.1,15.1,0,0,1-6.64,3.24,4.69,4.69,0,0,1,.78,1.26c.18.38.24.52.4.52a2.1,2.1,0,0,0,.48-.14,15.522,15.522,0,0,0,6.38-4.02c-.02,2.54-.08,3.96-.08,4.36,0,.2.02.22.22.22h1.74c.2,0,.22-.02.22-.22,0-.42-.1-1.94-.1-4.5a15.329,15.329,0,0,0,6.68,4.16,1.621,1.621,0,0,0,.48.12c.18,0,.24-.14.4-.5a5.2,5.2,0,0,1,.82-1.3,16.275,16.275,0,0,1-6.92-3.2h3.6c1.8,0,2.42.04,2.54.04.22,0,.24-.02.24-.22v-1.4c0-.22-.02-.24-.24-.24-.12,0-.74.04-2.54.04h-5.02a1.784,1.784,0,0,1,.1-.64c.02-.12.12-.22.12-.34,0-.1-.1-.2-.3-.22-.68-.04-1.4-.1-2.14-.12a9.92,9.92,0,0,1,.14,1.32h-4.72c-1.82,0-2.44-.04-2.56-.04-.2,0-.22.02-.22.24v1.4c0,.2.02.22.22.22.12,0,.74-.04,2.56-.04Zm3.02-10.78c.14-.28.26-.58.38-.88a1.21,1.21,0,0,1,.26-.46.375.375,0,0,0,.16-.28c0-.12-.08-.2-.26-.24-.56-.1-1.34-.18-1.94-.24a4.462,4.462,0,0,1-.2.98c-.14.42-.26.74-.42,1.12-1.26,0-1.7-.04-1.8-.04-.22,0-.24.02-.24.22,0,.12.04.66.04,1.92V58.6c0,1.24-.04,1.78-.04,1.9,0,.2.02.22.24.22.12,0,.58-.04,2.04-.04h2.48c1.48,0,1.92.04,2.06.04.2,0,.22-.02.22-.22,0-.12-.04-.66-.04-1.9V55.42c0-1.26.04-1.8.04-1.92,0-.2-.02-.22-.22-.22-.14,0-.58.04-2.06.04Zm1.14,5.84h-3.36V57.7h3.36Zm0-4.34v1.4h-3.36v-1.4ZM-61,56.84a20.54,20.54,0,0,1-3.08,1.88,9.712,9.712,0,0,1-1.26.5,11.722,11.722,0,0,0,.82,1.86c.1.16.18.2.28.2A.307.307,0,0,0-64,61.1a1.454,1.454,0,0,1,.54-.44c.9-.52,1.7-1.02,2.54-1.6.3-.2.42-.28.42-.46a1.711,1.711,0,0,0-.12-.5C-60.74,57.72-60.94,57.14-61,56.84Zm8.66,1.4a.341.341,0,0,0-.1.22c0,.06.04.1.14.16a21.966,21.966,0,0,1,3.52,2.34.27.27,0,0,0,.18.1c.06,0,.12-.06.2-.2l.78-1.26c.14-.22.12-.28-.02-.4a25.021,25.021,0,0,0-3.54-2.18c-.18-.1-.22-.1-.36.12Zm-.2-2.96a5.375,5.375,0,0,1,.98.88c.22.26.32.38.44.38s.24-.1.46-.3a18.91,18.91,0,0,0,2-1.84,1.792,1.792,0,0,1,.56-.44c.14-.06.26-.16.26-.28s-.1-.2-.26-.36a11.691,11.691,0,0,0-1.44-1.1,4.081,4.081,0,0,1-.6.86A13.016,13.016,0,0,1-52.54,55.28Zm-12.24-1.74c-.1.1-.16.16-.16.22,0,.04.06.1.14.16a16.068,16.068,0,0,1,2.54,2.28c.14.18.2.16.38-.06l.96-1.1c.2-.24.18-.28.04-.42a15.127,15.127,0,0,0-2.56-2.16c-.18-.12-.18-.12-.4.1Zm26.92-1.32a13.3,13.3,0,0,1,.2,3.66c-.1,2.4-.28,5.28-.28,8.64,0,3.06,1.2,4.08,3.76,4.08a11.426,11.426,0,0,0,7.58-3c.32-.28.4-.44.4-.62a1.315,1.315,0,0,0-.16-.48,6.953,6.953,0,0,1-.46-1.9c-2.44,2.6-5.22,3.68-7,3.68-1.6,0-1.84-.46-1.84-2.48,0-2.62.1-4.66.3-7.74a11.988,11.988,0,0,1,.28-2.44,1.94,1.94,0,0,0,.2-.66c0-.2-.14-.3-.48-.38A20.684,20.684,0,0,0-37.86,52.22Zm23.68,2.92a29.4,29.4,0,0,1-3.78-.02c.06.7.12,1.28.18,1.68.02.22.08.3.26.3.98.02,2.08.02,3.34-.04,0,.66-.02,1.28-.04,1.94a2.952,2.952,0,0,0-1.06-.16,2.894,2.894,0,0,0-2.66,3.14,2.643,2.643,0,0,0,2.4,2.88,1.517,1.517,0,0,0,.32-.02,3.986,3.986,0,0,0-.2,1.32c0,1.94,1.52,2.84,5.06,2.84,4.6,0,6.62-1.42,6.62-3.94a7.758,7.758,0,0,0-.3-2.2.494.494,0,0,0-.4-.36,6.779,6.779,0,0,1-2.02-.58,8.39,8.39,0,0,1,.42,2.64c0,1.6-1.56,2.36-4.6,2.36-2.22,0-2.62-.52-2.62-1.3a2.5,2.5,0,0,1,.28-1.2,3.439,3.439,0,0,0,.96-2.6,4.171,4.171,0,0,0-.18-1.34c.04-1.4.06-2.16.12-3.6a27.955,27.955,0,0,0,3.1-.54c.16-.04.24-.08.24-.32a11.888,11.888,0,0,0-.1-1.44c-.02-.26-.04-.32-.38-.24-.98.24-1.84.4-2.76.54.02-.64.02-.96.04-1.34a1.7,1.7,0,0,1,.16-.68.957.957,0,0,0,.16-.46c0-.16-.16-.28-.42-.34a13.128,13.128,0,0,0-2.38-.34,5.257,5.257,0,0,1,.24,1.64Zm-.94,5.34a1.071,1.071,0,0,1,1.08,1.22c.02.88-.4,1.44-1.02,1.46-.74.02-1.16-.48-1.16-1.32C-16.22,61.04-15.84,60.48-15.12,60.48ZM-6.74,57a12.269,12.269,0,0,1,3.9,3.02c.08.1.16.16.22.16a.308.308,0,0,0,.22-.12,9.969,9.969,0,0,0,1.14-1.38.422.422,0,0,0,.1-.22.27.27,0,0,0-.1-.2,12.7,12.7,0,0,0-3.78-2.74.3.3,0,0,0-.42.08C-5.74,55.88-6.24,56.42-6.74,57Z" transform="translate(249.82 16.9)" fill="#1c3534"/>
</svg>
