<svg xmlns="http://www.w3.org/2000/svg" width="226.919" height="51.867" viewBox="0 0 226.919 51.867">
  <path id="パス_1149" data-name="パス 1149" d="M10.74,1.5c.2,0,.22-.02.22-.2V.38H15.8v.86c0,.18.02.2.22.2h1.6c.22,0,.24-.02.24-.2,0-.12-.04-.72-.04-3.96V-5.1c0-1.8.04-2.44.04-2.56,0-.2-.02-.22-.24-.22-.12,0-.7.04-2.42.04H11.54c-1.7,0-2.28-.04-2.42-.04-.18,0-.2.02-.2.22,0,.14.04.76.04,2.88V-2.7c0,3.26-.04,3.86-.04,4,0,.18.02.2.2.2Zm.22-2.9V-2.94H15.8V-1.4Zm0-4.66H15.8v1.44H10.96Zm-5.18.04,1.56-.64c.6-.24.6-.24.58-.88A13.2,13.2,0,0,1,8-8.92c-.68.3-1.46.6-2.22.88v-3c1.32,0,1.78.04,1.9.04.2,0,.22-.02.22-.22v-1.52c0-.2-.02-.22-.22-.22-.12,0-.58.04-1.9.04v-.98a6.137,6.137,0,0,1,.12-2.02,1.018,1.018,0,0,0,.12-.42c0-.1-.12-.2-.32-.22-.66-.08-1.34-.12-2.1-.14a16.739,16.739,0,0,1,.16,2.84v.94H3.32c-1.42,0-1.86-.04-1.98-.04-.22,0-.24.02-.24.22v1.52c0,.2.02.22.24.22.12,0,.56-.04,1.98-.04h.44v3.66c-.34.1-.66.2-.94.26a17.768,17.768,0,0,1-1.84.38c.14.7.3,1.42.46,1.96.06.18.14.24.26.24a.7.7,0,0,0,.32-.12,2.213,2.213,0,0,1,.66-.32l1.08-.34v4.1c0,.5-.12.6-.54.6-.72,0-1.24-.02-1.78-.06A5.309,5.309,0,0,1,1.98.82c.14.62.14.62.76.62a3.991,3.991,0,0,0,2.4-.42C5.68.64,5.8.12,5.8-.9c0-.98-.02-2.64-.02-4.04Zm4.98-6.48a31.992,31.992,0,0,0,5.82-1.38,6.749,6.749,0,0,1,.98-.28c.26-.02.4-.08.4-.26,0-.12-.06-.2-.18-.36a11.484,11.484,0,0,0-1.16-1.38,4.732,4.732,0,0,1-1.26.68,25.913,25.913,0,0,1-4.6,1.24v-.66c0-.76.04-.88.12-1.04a.691.691,0,0,0,.1-.36c0-.12-.1-.2-.36-.22-.64-.06-1.32-.12-1.96-.14a13.335,13.335,0,0,1,.1,1.96v3.78a1.669,1.669,0,0,0,.94,1.6c.56.34,1.36.32,3.82.32,2.2,0,3.7-.1,4.34-.5.6-.38.92-.94,1.06-2.16.06-.54.06-.56-.44-.7a5.392,5.392,0,0,1-1.44-.58c-.04,1.08-.12,1.52-.46,1.78a6.4,6.4,0,0,1-2.82.32A10.5,10.5,0,0,1,11.24-11a.661.661,0,0,1-.48-.72ZM41.2-9.62c0-1.62.04-2.44.04-2.56,0-.2-.02-.22-.22-.22-.14,0-.8.04-2.7.04h-.74c.82-.58,1.48-1.1,2.18-1.7a2.05,2.05,0,0,1,.76-.5c.22-.08.34-.2.34-.38,0-.2-.14-.4-.62-.86-.48-.44-.66-.58-.82-.58a.672.672,0,0,0-.3.08,1.508,1.508,0,0,1-.52.06H32.66c-1.88,0-2.5-.04-2.62-.04-.2,0-.22.02-.22.24v1.34c0,.18.02.2.22.2.12,0,.74-.04,2.62-.04h.74l-.98.66c-.1.08-.16.14-.16.2s.04.1.12.16a16.115,16.115,0,0,1,1.72,1.16H33.02c-1.88,0-2.56-.04-2.66-.04-.22,0-.24.02-.24.22,0,.14.04.82.04,2.38v5.62c0,1.54-.04,2.2-.04,2.34,0,.2.02.22.24.22h1.46c.2,0,.22-.02.22-.22,0-.12-.04-.84-.04-2.36v-.76h2.6v.54c0,1.52-.04,2.2-.04,2.32,0,.22.02.24.22.24h1.48c.18,0,.2-.02.2-.24,0-.12-.04-.8-.04-2.32v-.54H39.3V-4c0,.44-.14.58-.54.58-.34,0-.78-.02-1.26-.06a3.065,3.065,0,0,1,.52,1.38c.1.46.08.46.68.46a3.012,3.012,0,0,0,2.04-.48,1.9,1.9,0,0,0,.5-1.58c0-.68-.04-1.62-.04-2.84ZM36.42-6.48V-7.9H39.3v1.42Zm2.88-4.34V-9.4H36.42v-1.42ZM32-9.4v-1.42h2.6V-9.4Zm0,2.92V-7.9h2.6v1.42Zm5.8-8.06a17.728,17.728,0,0,1-2,1.58,16.27,16.27,0,0,0-2.02-1.58ZM28.62-7.12c0-1.22.04-1.78.04-1.9,0-.2-.02-.22-.22-.22-.1,0-.4.04-1.44.04H25.84c-1.04,0-1.3-.04-1.4-.04-.22,0-.24.02-.24.22V-7.5c0,.22.02.24.24.24.1,0,.36-.04,1.4-.04h.84v4.46A9.736,9.736,0,0,1,25.14-1.6a10.068,10.068,0,0,1-1.16.64A17.473,17.473,0,0,0,24.8.92c.08.16.2.26.28.26.12,0,.2-.06.28-.2a3.586,3.586,0,0,1,.4-.4C26.38,0,27.04-.6,27.66-1.2A4.369,4.369,0,0,0,29.68.62a14.056,14.056,0,0,0,4.7.56c2.1,0,4.54-.06,7.1-.22.64-.02.64-.02.74-.66a3.9,3.9,0,0,1,.54-1.58,75.115,75.115,0,0,1-8.68.5,11.636,11.636,0,0,1-3.76-.42,3.139,3.139,0,0,1-1.7-1.66ZM24.7-15.3c-.22.14-.24.2-.08.34a15.112,15.112,0,0,1,2.4,3.12c.06.1.1.16.16.16s.14-.06.26-.14l1.12-.86c.24-.18.24-.22.12-.4a14.765,14.765,0,0,0-2.46-2.94c-.08-.08-.14-.12-.2-.12a.554.554,0,0,0-.24.1ZM51.92-16a18.506,18.506,0,0,1-.16,2.28,42.274,42.274,0,0,0-.48,4.98,12.8,12.8,0,0,0,.6,4.06c.04.14.14.28.28.26.5-.06,1.36-.18,1.6-.24a.281.281,0,0,0,.26-.32,2.5,2.5,0,0,1,.1-.6A16.374,16.374,0,0,1,55.3-8.14a.942.942,0,0,0,.2-.5.46.46,0,0,0-.12-.32,4.146,4.146,0,0,1-.62-1.3c-.54,1.02-.96,1.78-1.4,2.56a20.2,20.2,0,0,1,.06-2.2c.12-1.04.28-2.46.56-3.82a2.308,2.308,0,0,1,.36-.94.458.458,0,0,0,.14-.32c0-.18-.12-.3-.38-.4A10.481,10.481,0,0,0,51.92-16Zm6.4.04a9.582,9.582,0,0,1,.42,2.18c.14,1.28.24,3.36.24,4.78,0,3.16-.52,4.8-1.68,6.38A9.9,9.9,0,0,1,53.9.06a4.641,4.641,0,0,1,1.7.92.58.58,0,0,0,.42.22.693.693,0,0,0,.4-.14,11.021,11.021,0,0,0,3.3-3.22A13.138,13.138,0,0,0,61.24-9.1c0-1.44-.14-3.26-.28-5.16a7.081,7.081,0,0,1,.04-.92c.04-.34,0-.44-.4-.54A11.549,11.549,0,0,0,58.32-15.96Zm23,11.5a10.307,10.307,0,0,0-1.58-.12c-2.26,0-3.7,1.18-3.7,2.92,0,1.72,1.48,2.84,3.68,2.84,2.28,0,3.72-.92,3.72-2.92A14.876,14.876,0,0,1,85.88-.06c.08.08.14.12.2.12s.12-.04.18-.14a12.306,12.306,0,0,0,.92-1.62c.1-.2.08-.28-.12-.42a15.682,15.682,0,0,0-3.6-1.86,26.119,26.119,0,0,1-.22-3.4,2.078,2.078,0,0,1,.08-.82,2.507,2.507,0,0,0,.12-.42.307.307,0,0,0-.28-.32,10.811,10.811,0,0,0-2.18-.38,7.024,7.024,0,0,1,.16,1.42C81.16-6.96,81.2-5.74,81.32-4.46Zm.04,1.9a2.3,2.3,0,0,1,.02.4c0,.84-.66,1.42-1.74,1.42-1.14,0-1.7-.32-1.7-.96,0-.76.78-1.16,1.78-1.16A5.1,5.1,0,0,1,81.36-2.56ZM78.1-12.82c.18-.6.34-1.22.48-1.7a2.2,2.2,0,0,1,.32-.74.493.493,0,0,0,.18-.38c0-.14-.12-.26-.32-.3a18.5,18.5,0,0,0-2.34-.42,7.74,7.74,0,0,1-.12,1.62c-.14.72-.28,1.4-.52,2.24-.92.08-1.52.1-2.3.1-.58,0-1.04-.02-1.86-.08a10.45,10.45,0,0,0,.2,1.7c.04.26.08.32.28.32.5.02.66.02,1.1.02.62,0,1.24,0,2-.04A40.348,40.348,0,0,1,71.74-3.5a.383.383,0,0,0-.1.24c0,.08.04.14.14.22a9.494,9.494,0,0,0,1.38,1.02.554.554,0,0,0,.24.1c.08,0,.14-.06.22-.2a55.264,55.264,0,0,0,3.9-8.58c1.24-.18,2.22-.32,3.3-.54.16-.02.24-.06.24-.24a10.852,10.852,0,0,0-.18-1.62c-.04-.22-.12-.22-.3-.16A21.5,21.5,0,0,1,78.1-12.82Zm4.44,1.9a17.284,17.284,0,0,1,4.14,2.18.279.279,0,0,0,.18.08c.06,0,.12-.04.18-.14a12.163,12.163,0,0,0,.84-1.48.477.477,0,0,0,.08-.24c0-.08-.06-.14-.18-.22a15.6,15.6,0,0,0-3.92-1.88.279.279,0,0,0-.42.14C83.18-12.12,82.88-11.52,82.54-10.92Zm20.84-.98a11.449,11.449,0,0,0-4.08,1.14c-.12-.48-.18-.84-.28-1.42a6.508,6.508,0,0,1-.08-1.14c0-.36-.06-.5-.38-.58a8.683,8.683,0,0,0-2.26-.32,9.053,9.053,0,0,1,.6,1.88c.2.88.4,1.88.62,2.64a7.628,7.628,0,0,0-2.84,5.74c0,2,1.1,3.24,2.62,3.24,1.08,0,2.04-.52,3.34-1.9.22.26.38.42.54.58a.432.432,0,0,0,.28.12.478.478,0,0,0,.28-.1,5.729,5.729,0,0,0,1.24-1.22,7.06,7.06,0,0,1-.86-1.02,36.007,36.007,0,0,0,2.92-5.84,3.734,3.734,0,0,1,3.6,3.78c0,3.48-3.26,4.72-5.98,5.28a4.09,4.09,0,0,1,1.3,1.32c.24.38.38.44.82.34,3.98-.98,6.14-3.12,6.14-6.68,0-3.18-2.18-5.3-5.34-5.8.26-.8.44-1.28.56-1.6a3.3,3.3,0,0,1,.4-.74.685.685,0,0,0,.14-.34c0-.14-.1-.26-.32-.36a8.28,8.28,0,0,0-2.36-.8,5.167,5.167,0,0,1-.04,1.36A15.218,15.218,0,0,1,103.38-11.9Zm-3.6,2.94a7.845,7.845,0,0,1,3.02-1.12,24.09,24.09,0,0,1-1.9,4.04A14.979,14.979,0,0,1,99.78-8.96ZM98.14-7.64A20.671,20.671,0,0,0,99.52-4.4c-.84,1.02-1.48,1.46-2.08,1.46-.42,0-.7-.54-.7-1.22A5.6,5.6,0,0,1,98.14-7.64Zm23.78-7.08a15.953,15.953,0,0,1,4.04,2.6c.1.1.16.14.24.14.06,0,.14-.06.22-.16a13.1,13.1,0,0,0,1.02-1.4.554.554,0,0,0,.1-.24c0-.08-.04-.14-.14-.22a13.119,13.119,0,0,0-3.92-2.38.334.334,0,0,0-.38.1A10.955,10.955,0,0,0,121.92-14.72Zm-1.4,2.78a12.462,12.462,0,0,1-.18,1.8c-.24,1.78-.5,4.14-.62,6.46,0,.28.08.32.28.4a13.75,13.75,0,0,0,1.36.54c.26.06.34.06.46-.14a5.473,5.473,0,0,1,.86-1.1c1.88-1.9,4-3.04,5.76-3.04,1.72,0,2.4.98,2.4,2.06,0,1.28-.74,2.32-2.36,3.02a16.6,16.6,0,0,1-5.5,1.12,5.117,5.117,0,0,1,1.36,1.7c.18.3.36.32.8.26a17.341,17.341,0,0,0,5.12-1.38,4.9,4.9,0,0,0,3.02-4.48c0-2.58-1.74-4.28-4.66-4.28a9.75,9.75,0,0,0-6.68,3.16,33.378,33.378,0,0,1,.48-3.64,3.75,3.75,0,0,1,.4-1.06.6.6,0,0,0,.1-.3c0-.16-.1-.28-.32-.38A11.252,11.252,0,0,0,120.52-11.94Zm25.36.76c-.78.12-1.52.22-2.36.3-.88.08-1.76.14-2.64.14a18.271,18.271,0,0,0,.62,2.06.438.438,0,0,0,.64.26,5.877,5.877,0,0,1,1.1-.32c.54-.1,1.18-.22,1.96-.34a42.172,42.172,0,0,1-3.66,7.84.372.372,0,0,0-.08.22.411.411,0,0,0,.16.3A9.1,9.1,0,0,0,143,.16a.328.328,0,0,0,.52-.18,55.234,55.234,0,0,0,4.02-9.4,13.248,13.248,0,0,1,1.68-.14c.88,0,1.14.44,1.14,1.86a15.409,15.409,0,0,1-.78,4.96c-.32.82-.62,1.06-1.28,1.06a6,6,0,0,1-2.2-.44,5.715,5.715,0,0,1,.38,1.86.519.519,0,0,0,.36.56,6.53,6.53,0,0,0,1.98.22,2.863,2.863,0,0,0,2.7-1.88,17.175,17.175,0,0,0,1.08-6.42c0-2.42-1.02-3.7-2.9-3.7a15.082,15.082,0,0,0-1.56.08c.26-.84.46-1.58.72-2.4a2.53,2.53,0,0,1,.4-.76.417.417,0,0,0,.14-.3.421.421,0,0,0-.32-.4,14.638,14.638,0,0,0-2.4-.66,13.613,13.613,0,0,1-.2,2.22C146.34-13.02,146.2-12.32,145.88-11.18Zm7.12-.16a13.539,13.539,0,0,1,3.28,5.18c.06.24.26.26.46.16a8.162,8.162,0,0,0,1.5-1,.286.286,0,0,0,.08-.4A13.385,13.385,0,0,0,155-12.26c-.14-.14-.24-.18-.38-.1A16.96,16.96,0,0,0,153-11.34Zm21.12,6.88a10.307,10.307,0,0,0-1.58-.12c-2.26,0-3.7,1.18-3.7,2.92,0,1.72,1.48,2.84,3.68,2.84,2.28,0,3.72-.92,3.72-2.92a14.876,14.876,0,0,1,2.44,1.68c.08.08.14.12.2.12s.12-.04.18-.14a12.307,12.307,0,0,0,.92-1.62c.1-.2.08-.28-.12-.42a15.682,15.682,0,0,0-3.6-1.86,26.119,26.119,0,0,1-.22-3.4,2.078,2.078,0,0,1,.08-.82,2.507,2.507,0,0,0,.12-.42.307.307,0,0,0-.28-.32,10.811,10.811,0,0,0-2.18-.38,7.025,7.025,0,0,1,.16,1.42C173.96-6.96,174-5.74,174.12-4.46Zm.04,1.9a2.3,2.3,0,0,1,.02.4c0,.84-.66,1.42-1.74,1.42-1.14,0-1.7-.32-1.7-.96,0-.76.78-1.16,1.78-1.16A5.1,5.1,0,0,1,174.16-2.56ZM170.9-12.82c.18-.6.34-1.22.48-1.7a2.2,2.2,0,0,1,.32-.74.493.493,0,0,0,.18-.38c0-.14-.12-.26-.32-.3a18.5,18.5,0,0,0-2.34-.42,7.74,7.74,0,0,1-.12,1.62c-.14.72-.28,1.4-.52,2.24-.92.08-1.52.1-2.3.1-.58,0-1.04-.02-1.86-.08a10.448,10.448,0,0,0,.2,1.7c.04.26.08.32.28.32.5.02.66.02,1.1.02.62,0,1.24,0,2-.04a40.349,40.349,0,0,1-3.46,6.98.383.383,0,0,0-.1.24c0,.08.04.14.14.22a9.5,9.5,0,0,0,1.38,1.02.554.554,0,0,0,.24.1c.08,0,.14-.06.22-.2a55.264,55.264,0,0,0,3.9-8.58c1.24-.18,2.22-.32,3.3-.54.16-.02.24-.06.24-.24a10.852,10.852,0,0,0-.18-1.62c-.04-.22-.12-.22-.3-.16A21.5,21.5,0,0,1,170.9-12.82Zm4.44,1.9a17.284,17.284,0,0,1,4.14,2.18.279.279,0,0,0,.18.08c.06,0,.12-.04.18-.14a12.164,12.164,0,0,0,.84-1.48.477.477,0,0,0,.08-.24c0-.08-.06-.14-.18-.22a15.6,15.6,0,0,0-3.92-1.88.279.279,0,0,0-.42.14C175.98-12.12,175.68-11.52,175.34-10.92Zm11.14,8.44c-.1.12-.14.18-.14.24s.06.12.18.2a14.932,14.932,0,0,1,3.78,3.82c.1.16.18.2.28.2.06,0,.14-.06.28-.18L192.08.76c.16-.14.2-.22.2-.32,0-.08-.02-.14-.14-.3a14.891,14.891,0,0,0-3.98-3.66.4.4,0,0,0-.26-.12.427.427,0,0,0-.3.16ZM9.1,21.82a27.454,27.454,0,0,1-3.16.38,24.863,24.863,0,0,1-2.5.02,15.644,15.644,0,0,0,.46,1.8c.06.24.14.36.32.36.5,0,1.42-.06,1.96-.1,1.44-.12,2.6-.28,3.86-.5a12.862,12.862,0,0,0,2.58,3.54,10.206,10.206,0,0,0-3.56-.54c-3.3,0-5.26,1.6-5.26,3.88,0,2.64,2.54,4.14,7.26,4.14a17.855,17.855,0,0,0,2.22-.14c.24-.04.32-.08.38-.28a12.219,12.219,0,0,0,.42-2.14,19.784,19.784,0,0,1-3.2.28c-3.14,0-4.96-.62-4.96-2.12,0-1.26,1.26-1.88,3.34-1.88a9.146,9.146,0,0,1,4.24,1.02,6.593,6.593,0,0,1,.82.52c.16.12.22.16.32.16.14,0,.24-.08.4-.3a7.993,7.993,0,0,0,.78-1.3.632.632,0,0,0,.12-.34c0-.1-.08-.16-.2-.26a5.493,5.493,0,0,1-.52-.44,22.778,22.778,0,0,1-3.06-4.22,31.923,31.923,0,0,0,3.98-1.16c.14-.04.22-.14.16-.34a8.684,8.684,0,0,0-.5-1.54c-.12-.22-.18-.24-.38-.14a30.782,30.782,0,0,1-4.18,1.24c-.26-.54-.44-1.02-.68-1.62a8.619,8.619,0,0,1-.32-1,2.626,2.626,0,0,1-.02-.56c0-.28-.16-.42-.68-.42a15.743,15.743,0,0,0-2.38.32,6.6,6.6,0,0,1,1,1.62C8.48,20.52,8.76,21.1,9.1,21.82Zm20.02-2.54a15.953,15.953,0,0,1,4.04,2.6c.1.1.16.14.24.14.06,0,.14-.06.22-.16a13.1,13.1,0,0,0,1.02-1.4.554.554,0,0,0,.1-.24c0-.08-.04-.14-.14-.22a13.119,13.119,0,0,0-3.92-2.38.334.334,0,0,0-.38.1A10.954,10.954,0,0,0,29.12,19.28Zm-1.4,2.78a12.463,12.463,0,0,1-.18,1.8c-.24,1.78-.5,4.14-.62,6.46,0,.28.08.32.28.4a13.75,13.75,0,0,0,1.36.54c.26.06.34.06.46-.14a5.473,5.473,0,0,1,.86-1.1c1.88-1.9,4-3.04,5.76-3.04,1.72,0,2.4.98,2.4,2.06,0,1.28-.74,2.32-2.36,3.02a16.6,16.6,0,0,1-5.5,1.12,5.117,5.117,0,0,1,1.36,1.7c.18.3.36.32.8.26a17.341,17.341,0,0,0,5.12-1.38,4.9,4.9,0,0,0,3.02-4.48c0-2.58-1.74-4.28-4.66-4.28a9.75,9.75,0,0,0-6.68,3.16,33.379,33.379,0,0,1,.48-3.64,3.75,3.75,0,0,1,.4-1.06.6.6,0,0,0,.1-.3c0-.16-.1-.28-.32-.38A11.252,11.252,0,0,0,27.72,22.06Zm27.78-.24a27.454,27.454,0,0,1-3.16.38,24.863,24.863,0,0,1-2.5.02,15.644,15.644,0,0,0,.46,1.8c.06.24.14.36.32.36.5,0,1.42-.06,1.96-.1,1.44-.12,2.6-.28,3.86-.5a12.862,12.862,0,0,0,2.58,3.54,10.206,10.206,0,0,0-3.56-.54c-3.3,0-5.26,1.6-5.26,3.88,0,2.64,2.54,4.14,7.26,4.14a17.855,17.855,0,0,0,2.22-.14c.24-.04.32-.08.38-.28a12.219,12.219,0,0,0,.42-2.14,19.784,19.784,0,0,1-3.2.28c-3.14,0-4.96-.62-4.96-2.12,0-1.26,1.26-1.88,3.34-1.88a9.146,9.146,0,0,1,4.24,1.02,6.593,6.593,0,0,1,.82.52c.16.12.22.16.32.16.14,0,.24-.08.4-.3a7.993,7.993,0,0,0,.78-1.3.632.632,0,0,0,.12-.34c0-.1-.08-.16-.2-.26a5.492,5.492,0,0,1-.52-.44,22.778,22.778,0,0,1-3.06-4.22,31.923,31.923,0,0,0,3.98-1.16c.14-.04.22-.14.16-.34a8.684,8.684,0,0,0-.5-1.54c-.12-.22-.18-.24-.38-.14a30.782,30.782,0,0,1-4.18,1.24c-.26-.54-.44-1.02-.68-1.62a8.619,8.619,0,0,1-.32-1,2.626,2.626,0,0,1-.02-.56c0-.28-.16-.42-.68-.42a15.743,15.743,0,0,0-2.38.32,6.6,6.6,0,0,1,1,1.62C54.88,20.52,55.16,21.1,55.5,21.82Zm20.02-2.54a15.953,15.953,0,0,1,4.04,2.6c.1.1.16.14.24.14.06,0,.14-.06.22-.16a13.1,13.1,0,0,0,1.02-1.4.554.554,0,0,0,.1-.24c0-.08-.04-.14-.14-.22a13.119,13.119,0,0,0-3.92-2.38.334.334,0,0,0-.38.1A10.955,10.955,0,0,0,75.52,19.28Zm-1.4,2.78a12.462,12.462,0,0,1-.18,1.8c-.24,1.78-.5,4.14-.62,6.46,0,.28.08.32.28.4a13.75,13.75,0,0,0,1.36.54c.26.06.34.06.46-.14a5.473,5.473,0,0,1,.86-1.1c1.88-1.9,4-3.04,5.76-3.04,1.72,0,2.4.98,2.4,2.06,0,1.28-.74,2.32-2.36,3.02a16.6,16.6,0,0,1-5.5,1.12,5.117,5.117,0,0,1,1.36,1.7c.18.3.36.32.8.26a17.341,17.341,0,0,0,5.12-1.38,4.9,4.9,0,0,0,3.02-4.48c0-2.58-1.74-4.28-4.66-4.28a9.75,9.75,0,0,0-6.68,3.16,33.378,33.378,0,0,1,.48-3.64,3.75,3.75,0,0,1,.4-1.06.6.6,0,0,0,.1-.3c0-.16-.1-.28-.32-.38A11.252,11.252,0,0,0,74.12,22.06Zm25.6-1.96c-1.3,0-2.3,0-3.38-.08a11.652,11.652,0,0,0,.18,2.08c.04.22.1.36.26.34,1.08-.08,2.12-.12,3.16-.12l5.16-.02a24.532,24.532,0,0,1-3.76,5.02,24.294,24.294,0,0,1-7.04,5.1,5.479,5.479,0,0,1,1.68,1.3.447.447,0,0,0,.34.18,1.266,1.266,0,0,0,.46-.16,28.774,28.774,0,0,0,6.72-5.28,36.405,36.405,0,0,1,5.2,4.96.411.411,0,0,0,.28.16.346.346,0,0,0,.24-.12,10.716,10.716,0,0,0,1.34-1.36.5.5,0,0,0,.14-.3.455.455,0,0,0-.16-.28A47.024,47.024,0,0,0,105,26.68a31.56,31.56,0,0,0,2.56-3.74,3.663,3.663,0,0,1,.74-.88.552.552,0,0,0,.26-.4.533.533,0,0,0-.1-.26,7.291,7.291,0,0,0-1.3-1.4.661.661,0,0,0-.34-.16.333.333,0,0,0-.22.08,2.937,2.937,0,0,1-1.38.18Zm25.62.76a5.208,5.208,0,0,1,.14-1.88,1.052,1.052,0,0,0,.16-.46c0-.16-.1-.28-.38-.34a14.763,14.763,0,0,0-2.5-.32,15.261,15.261,0,0,1,.2,2.96v9.84c0,1.28-.02,2.46-.08,3.94,0,.24.1.3.38.3a13.218,13.218,0,0,0,1.78,0c.28,0,.38-.06.36-.3-.04-1.44-.08-2.62-.08-3.92V26.26a22.151,22.151,0,0,1,5.26,2.56.307.307,0,0,0,.22.1c.1,0,.18-.08.26-.22a11.754,11.754,0,0,0,.86-1.74c.1-.26,0-.4-.22-.52a28.211,28.211,0,0,0-6.36-2.72Zm20.7,2.28a8.229,8.229,0,0,1,.22-2.48,1.528,1.528,0,0,0,.1-.42.384.384,0,0,0-.32-.38,20.348,20.348,0,0,0-2.6-.44,18.914,18.914,0,0,1,.22,3.48l-.04,7.52a3.945,3.945,0,0,1-.08,1.14.812.812,0,0,0-.1.34.49.49,0,0,0,.12.32,6.169,6.169,0,0,0,1.22,1.36.534.534,0,0,0,.34.16.58.58,0,0,0,.36-.16,4.613,4.613,0,0,1,1.12-.64,44.743,44.743,0,0,0,4.9-2.48,32.362,32.362,0,0,0,5-3.44.631.631,0,0,0,.2-.8,9,9,0,0,1-.32-2.32,24.715,24.715,0,0,1-5.3,4.08,32.887,32.887,0,0,1-5.1,2.52Zm29.36,4.68c1.48,0,2.96.02,4.46.04.28.02.36-.06.36-.3a14.744,14.744,0,0,0,0-1.88c0-.24-.06-.3-.36-.28-1.54.02-3.08.06-4.6.06h-6.44a25.694,25.694,0,0,1-4.32-.24,21.706,21.706,0,0,0,.3,2.42c.06.3.22.42.46.42a15.993,15.993,0,0,1,2.94-.24Zm19.54-6.96a5.209,5.209,0,0,1,.14-1.88,1.052,1.052,0,0,0,.16-.46c0-.16-.1-.28-.38-.34a14.763,14.763,0,0,0-2.5-.32,15.261,15.261,0,0,1,.2,2.96v9.84c0,1.28-.02,2.46-.08,3.94,0,.24.1.3.38.3a13.218,13.218,0,0,0,1.78,0c.28,0,.38-.06.36-.3-.04-1.44-.08-2.62-.08-3.92V26.26a22.151,22.151,0,0,1,5.26,2.56.307.307,0,0,0,.22.1c.1,0,.18-.08.26-.22a11.754,11.754,0,0,0,.86-1.74c.1-.26,0-.4-.22-.52a28.211,28.211,0,0,0-6.36-2.72Zm14.86,5.88a18.45,18.45,0,0,0,1.64,2.08.524.524,0,0,0,.38.18.428.428,0,0,0,.36-.24,4.951,4.951,0,0,1,.72-.88c.94-.94,2.38-2.32,3.36-3.3.26-.24.46-.42.68-.42a1.283,1.283,0,0,1,.88.46c1.32,1.18,2.76,2.46,4.2,3.54,1.18.92,3.36,2.52,4.32,3.08a.476.476,0,0,0,.28.1c.08,0,.16-.06.26-.2a8.41,8.41,0,0,0,.98-1.88c.1-.18,0-.34-.2-.42a46.087,46.087,0,0,1-4.72-2.94c-1.96-1.44-2.82-2.24-4.32-3.44a2.393,2.393,0,0,0-1.74-.74,2.518,2.518,0,0,0-1.74.84c-1.48,1.34-2.92,2.58-3.58,3.1A6.861,6.861,0,0,1,209.8,26.74Z" transform="translate(-0.98 16.7)" fill="#1c3534"/>
</svg>
