<svg xmlns="http://www.w3.org/2000/svg" width="226.161" height="86.32" viewBox="0 0 226.161 86.32">
  <path id="パス_1157" data-name="パス 1157" d="M-222.58-12.66c-1.38,0-3,0-4.36-.14a18.42,18.42,0,0,0,.24,2.14c.04.24.1.36.36.36,1.08-.1,2.56-.14,3.72-.14l8.42-.04a44.83,44.83,0,0,1-4.62,4.72A31.245,31.245,0,0,0-221.66-8a.6.6,0,0,0-.28-.14.422.422,0,0,0-.22.1c-.36.32-1.04.96-1.44,1.34a29.979,29.979,0,0,1,6.42,6.22q.12.18.24.18a.533.533,0,0,0,.26-.1,14.7,14.7,0,0,0,1.3-1.18.481.481,0,0,0,.18-.32.452.452,0,0,0-.14-.3,21.313,21.313,0,0,0-1.76-2,71.5,71.5,0,0,0,5.38-5.36,5.948,5.948,0,0,1,.96-.76.5.5,0,0,0,.26-.42.849.849,0,0,0-.16-.44,9.224,9.224,0,0,0-1.44-1.6.493.493,0,0,0-.34-.16.6.6,0,0,0-.28.1,3.678,3.678,0,0,1-1.66.18Zm29.26,2.3a31.657,31.657,0,0,0,2.34-2.52,6.589,6.589,0,0,1,1.2-1.1.572.572,0,0,0,.28-.44.354.354,0,0,0-.16-.3,17.794,17.794,0,0,0-2.22-1.4,5.8,5.8,0,0,1-1.26,2.06,32.449,32.449,0,0,1-4.26,4.18,32.1,32.1,0,0,1-6.3,4.1,7.486,7.486,0,0,1,1.72,1.18.557.557,0,0,0,.42.2.564.564,0,0,0,.3-.08,34.6,34.6,0,0,0,5.5-3.84v4.66c0,1.36-.06,2.66-.08,4.1-.02.24.06.32.28.32a16.682,16.682,0,0,0,2,0c.22,0,.32-.08.3-.34-.04-1.6-.06-2.78-.06-4.16Zm22.52-.5c.02-1.14.02-1.8.02-2.74a3.751,3.751,0,0,1,.16-1.22,1.214,1.214,0,0,0,.14-.44c0-.14-.08-.22-.3-.28a15.074,15.074,0,0,0-2.66-.28,8.621,8.621,0,0,1,.24,2.02c.02.88.02,1.96.02,2.96h-3.94c-.98,0-2.1,0-3.4-.1.04.74.08,1.58.14,1.98.04.3.1.4.36.38.76-.02,1.9-.1,2.88-.1h3.86a8.593,8.593,0,0,1-1.22,4.62,10.122,10.122,0,0,1-4.54,3.62,5.563,5.563,0,0,1,1.68,1.1.6.6,0,0,0,.44.2.822.822,0,0,0,.46-.14,11.1,11.1,0,0,0,4.26-3.94c.86-1.42,1.16-2.56,1.36-5.46H-168c1.12,0,2.64.08,3.36.08.3,0,.38-.06.38-.38a10.157,10.157,0,0,0,0-1.56c-.02-.34-.1-.38-.38-.36-1.04.02-2.36.04-3.48.04Zm18.52-3.04c-1.3,0-2.3,0-3.38-.08a11.651,11.651,0,0,0,.18,2.08c.04.22.1.36.26.34,1.08-.08,2.12-.12,3.16-.12l5.16-.02a24.532,24.532,0,0,1-3.76,5.02,24.294,24.294,0,0,1-7.04,5.1,5.479,5.479,0,0,1,1.68,1.3.447.447,0,0,0,.34.18,1.266,1.266,0,0,0,.46-.16,28.774,28.774,0,0,0,6.72-5.28,36.4,36.4,0,0,1,5.2,4.96.411.411,0,0,0,.28.16.346.346,0,0,0,.24-.12,10.716,10.716,0,0,0,1.34-1.36.5.5,0,0,0,.14-.3.455.455,0,0,0-.16-.28A47.026,47.026,0,0,0-147-7.32a31.559,31.559,0,0,0,2.56-3.74,3.663,3.663,0,0,1,.74-.88.552.552,0,0,0,.26-.4.533.533,0,0,0-.1-.26,7.291,7.291,0,0,0-1.3-1.4.661.661,0,0,0-.34-.16.333.333,0,0,0-.22.08,2.937,2.937,0,0,1-1.38.18Zm28.56,3.54a31.66,31.66,0,0,0,2.34-2.52,6.589,6.589,0,0,1,1.2-1.1.572.572,0,0,0,.28-.44.354.354,0,0,0-.16-.3,17.793,17.793,0,0,0-2.22-1.4,5.8,5.8,0,0,1-1.26,2.06,32.449,32.449,0,0,1-4.26,4.18,32.1,32.1,0,0,1-6.3,4.1,7.486,7.486,0,0,1,1.72,1.18.557.557,0,0,0,.42.2.564.564,0,0,0,.3-.08,34.6,34.6,0,0,0,5.5-3.84v4.66c0,1.36-.06,2.66-.08,4.1-.02.24.06.32.28.32a16.682,16.682,0,0,0,2,0c.22,0,.32-.08.3-.34-.04-1.6-.06-2.78-.06-4.16Zm21.62,7.52c.04.88-.12,1.08-.58,1.18a14.337,14.337,0,0,1-2.82.2A4.057,4.057,0,0,1-104.1.32c.1.26.24.34.62.34a6.126,6.126,0,0,0,2.76-.7,2.1,2.1,0,0,0,.96-2.12l-.36-7.52h1.62c1.24,0,2.38.04,3.84.1a.253.253,0,0,0,.28-.28c.02-.56.02-1.18,0-1.74,0-.14-.1-.24-.3-.24-1.48.06-2.48.1-3.88.1h-1.74l-.06-1.52a5.68,5.68,0,0,1,.08-1.84,1.123,1.123,0,0,0,.08-.3c0-.12-.06-.2-.26-.24a17.523,17.523,0,0,0-2.52-.22,10.027,10.027,0,0,1,.32,2.36l.08,1.78h-4.76c-1.2,0-2.38-.02-3.58-.1a17.857,17.857,0,0,0,.16,1.94c.02.22.1.36.28.34,1.04-.06,2.16-.1,3.2-.1l3.5-.02a19.225,19.225,0,0,1-2.94,3.1,23.567,23.567,0,0,1-4.66,3.16,4.525,4.525,0,0,1,1.64,1.18.417.417,0,0,0,.34.2.843.843,0,0,0,.46-.18A22.552,22.552,0,0,0-105.16-5a16.564,16.564,0,0,0,2.82-3.08Zm15.18-9.62A21.171,21.171,0,0,1-82.84-9.2c.1.1.18.16.26.16s.14-.06.24-.16c.28-.3.94-1.1,1.24-1.5a.43.43,0,0,0,.12-.26c0-.08-.06-.16-.18-.28a20.855,20.855,0,0,0-3.82-2.84.533.533,0,0,0-.26-.1.375.375,0,0,0-.28.16C-85.9-13.62-86.48-13-86.92-12.46Zm.44,9.98a13.858,13.858,0,0,0,1.6,2.22.518.518,0,0,0,.34.22.553.553,0,0,0,.36-.2,6.9,6.9,0,0,1,1.34-.92A43,43,0,0,0-76.8-5.08a32.69,32.69,0,0,0,4.6-4.24c.22-.26.32-.42.32-.6a.978.978,0,0,0-.1-.38,8.928,8.928,0,0,1-.56-2.34A30.047,30.047,0,0,1-78.02-7.2a29.645,29.645,0,0,1-5.76,3.72A12.048,12.048,0,0,1-86.48-2.48Zm34.32-2.68h1.96c1.94,0,2.6.04,2.72.04.22,0,.24-.02.24-.22V-6.66c0-.2-.02-.22-.24-.22-.12,0-.68.04-2.16.04l.54-.46c.08-.06.14-.12.14-.18s-.04-.12-.14-.2a9.769,9.769,0,0,0-1.04-.8l1.54-.22.16.58c.04.22.08.24.34.14l.72-.3c.22-.1.28-.12.22-.3a17.547,17.547,0,0,0-.96-2.5c-.1-.2-.12-.24-.36-.14l-.66.26c-.26.1-.28.12-.2.32l.34.76c-.58.06-1.16.12-1.7.16.72-.8,1.54-1.76,2.24-2.68.32-.38.44-.58.62-.66.16-.06.22-.12.22-.24,0-.08-.04-.16-.18-.26a9.192,9.192,0,0,0-1.32-.78,5.833,5.833,0,0,1-.5,1c-.2.3-.42.62-.66.94-.2-.26-.42-.54-.66-.82A18.986,18.986,0,0,0-49.6-15.1a.967.967,0,0,1,.32-.36c.1-.06.18-.12.18-.22s-.04-.16-.2-.26a13.5,13.5,0,0,0-1.32-.66,3.947,3.947,0,0,1-.32.76,10.49,10.49,0,0,1-.98,1.56l-.24-.24c-.16-.14-.16-.16-.34.02l-.72.86v-.08a8.237,8.237,0,0,1,.08-2.26.931.931,0,0,0,.12-.4c0-.12-.16-.2-.36-.22a18.029,18.029,0,0,0-1.86-.14,21.142,21.142,0,0,1,.22,3.08v.36a12.872,12.872,0,0,0-1.26-.72,3.677,3.677,0,0,1-.38.8l-.64.94c-.2-.26-.4-.52-.64-.78a18.887,18.887,0,0,0,1.32-1.98,1.189,1.189,0,0,1,.34-.36c.1-.06.18-.12.18-.22s-.04-.18-.18-.26a8.768,8.768,0,0,0-1.38-.64,4.629,4.629,0,0,1-.3.76,12.653,12.653,0,0,1-1,1.62l-.32-.3c-.16-.14-.22-.12-.34.04l-.66.76c-.08.1-.12.16-.12.22a.242.242,0,0,0,.12.18,15.945,15.945,0,0,1,2.02,2.26c-.46.58-.92,1.16-1.38,1.68a4.88,4.88,0,0,1-.52-.02c.08.46.18,1,.28,1.42.04.16.14.26.26.26a.533.533,0,0,0,.26-.1,1.9,1.9,0,0,1,.64-.16c.94-.1,1.84-.22,2.84-.38l.1.54c.04.22.08.24.32.14l.58-.26c.22-.1.26-.12.2-.34a15.119,15.119,0,0,0-.76-2.48c-.08-.2-.12-.22-.32-.14l-.52.2c-.24.1-.28.1-.2.32a7.08,7.08,0,0,1,.28.78l-1.62.14c.64-.72,1.5-1.8,2.2-2.72a1.8,1.8,0,0,1,.64-.66,46.632,46.632,0,0,0,.64,5.92h-2.94c-1.96,0-2.62-.04-2.74-.04-.2,0-.22.02-.22.22v1.32c0,.2.02.22.22.22.08,0,.38-.02,1.1-.02-.16,2.58-.9,4.2-2.26,5.34a3.921,3.921,0,0,1,1.04.84c.22.24.34.36.44.36s.2-.12.4-.34a8.625,8.625,0,0,0,1.92-3.98,10.563,10.563,0,0,1,1.96,1.4q.12.12.18.12c.08,0,.14-.06.22-.2l.6-.88c.12-.16.14-.24-.02-.36a12.672,12.672,0,0,0-1.88-1.24c-.2-.1-.28-.06-.4.1l-.62.84a18.045,18.045,0,0,0,.3-2.02H-54a15.621,15.621,0,0,0,.42,1.54,9.921,9.921,0,0,0,.6,1.64,14.075,14.075,0,0,1-4.34,2,3.881,3.881,0,0,1,.76,1c.16.34.24.46.4.46a2.1,2.1,0,0,0,.48-.14A15.067,15.067,0,0,0-52.12-.52,3.966,3.966,0,0,0-49.16,1.4c1.06,0,1.64-.76,1.96-2.68.12-.62.12-.62-.46-.92a5.018,5.018,0,0,1-.94-.6c-.12,1.68-.38,2.22-.84,2.22-.34,0-.82-.36-1.28-1.04a12.492,12.492,0,0,0,1.5-1.6,1.782,1.782,0,0,1,.58-.52c.14-.08.22-.16.22-.28,0-.1-.04-.16-.2-.3a8.777,8.777,0,0,0-1.44-.78,4.49,4.49,0,0,1-.56.94,8.508,8.508,0,0,1-.92,1,11.205,11.205,0,0,1-.44-1.38Zm-.52-4.56a9.111,9.111,0,0,0,.26,1.36c.04.16.12.26.24.26a.735.735,0,0,0,.32-.1,1.6,1.6,0,0,1,.6-.16l.54-.06-.46.34c-.14.1-.2.16-.2.22,0,.04.06.1.16.18a7.681,7.681,0,0,1,1,.84h-2.3a43.049,43.049,0,0,1-.7-6.62,13.662,13.662,0,0,1,2.04,2.28c-.42.54-.84,1.04-1.22,1.48ZM-61.8,1.56c.2,0,.22-.02.22-.22,0-.32-.12-4.52-.14-9.8a12.7,12.7,0,0,0,.74,2.18q.15.36.24.36c.08,0,.14-.12.2-.34a8.225,8.225,0,0,1,.64-1.4,11.138,11.138,0,0,1-1.66-3.26c.9.02,1.2.04,1.32.04.2,0,.22-.02.22-.22v-1.44c0-.18-.02-.2-.22-.2-.12,0-.44.04-1.42.04v-1.42a5.365,5.365,0,0,1,.14-1.86,1.293,1.293,0,0,0,.08-.4c0-.12-.1-.2-.3-.22a16.832,16.832,0,0,0-1.88-.14,13.839,13.839,0,0,1,.16,2.64v1.4h-.14c-1.24,0-1.6-.04-1.72-.04-.18,0-.2.02-.2.2v1.44c0,.2.02.22.2.22.12,0,.48-.04,1.7-.04h.04A18.407,18.407,0,0,1-66-4.94a5.526,5.526,0,0,1,.7,1.46c.08.22.14.32.2.32.08,0,.16-.12.28-.34a16.193,16.193,0,0,0,1.4-3.8c-.04,4.6-.12,8.34-.12,8.64,0,.2.02.22.2.22Zm27.84-8.58c0-1.68.04-2.56.04-2.68,0-.2-.02-.22-.22-.22-.12,0-.62.04-2.1.04h-2.5c-1.48,0-1.98-.04-2.12-.04-.2,0-.22.02-.22.22,0,.14.04.88.04,2.5v6c0,1.62-.04,2.32-.04,2.46,0,.18.02.2.22.2h1.52c.2,0,.22-.02.22-.2,0-.12-.04-.88-.04-2.46V-2.5h3.32V-1c0,.44-.18.6-.66.6a7.889,7.889,0,0,1-1.2-.08A4.071,4.071,0,0,1-37.3.7c.12.6.12.6.74.6,1.5-.02,1.88-.16,2.2-.44a1.977,1.977,0,0,0,.44-1.58c0-.62-.04-1.7-.04-2.72Zm-1.88-1.24v1.34h-3.32V-8.26Zm-3.32,4.22V-5.38h3.32v1.34Zm8.82,1.1a42,42,0,0,0,4.36-1.9,3.041,3.041,0,0,1,.9-.36c.18-.02.32-.12.32-.24,0-.1-.06-.2-.2-.38a10.622,10.622,0,0,0-1.24-1.3,4.94,4.94,0,0,1-1.08.84,18.89,18.89,0,0,1-3.06,1.46v-.96c0-.78.02-.9.1-1.06a.771.771,0,0,0,.12-.36c0-.14-.12-.2-.34-.24-.66-.08-1.36-.12-2-.14a10.529,10.529,0,0,1,.12,1.94V-.6a1.444,1.444,0,0,0,.7,1.46,8.226,8.226,0,0,0,3.16.36A6.608,6.608,0,0,0-25.16.6c.56-.4.8-.98.94-2.22.06-.52.06-.54-.44-.66a5.839,5.839,0,0,1-1.44-.56c-.04,1.08-.04,1.54-.34,1.86a3.657,3.657,0,0,1-1.94.36,5.177,5.177,0,0,1-1.6-.14c-.3-.14-.36-.3-.36-.68Zm-.02-11.88a2.649,2.649,0,0,1,.1-1.1.7.7,0,0,0,.12-.34c0-.12-.12-.2-.34-.22-.66-.08-1.36-.12-2-.14a10.765,10.765,0,0,1,.12,1.96v4.74c0,.74.22,1.12.68,1.3a8.651,8.651,0,0,0,3.06.34,6.563,6.563,0,0,0,3.34-.52c.56-.38.78-.94.92-2.14.02-.54.02-.54-.46-.68a6.244,6.244,0,0,1-1.4-.58c-.04,1.1-.04,1.5-.28,1.74-.24.26-.94.36-2,.36a5.718,5.718,0,0,1-1.52-.12c-.28-.1-.34-.24-.34-.6V-12a31.156,31.156,0,0,0,4.24-1.72,3.8,3.8,0,0,1,.92-.36c.16-.04.28-.12.28-.24a.473.473,0,0,0-.18-.34,10.207,10.207,0,0,0-1.22-1.28,4.5,4.5,0,0,1-1.1.82,23.981,23.981,0,0,1-2.94,1.28Zm-5.9.16c-.22.1-.26.16-.14.34.28.42.54.84.8,1.28-1,.12-2.06.2-3.14.28.4-.76.84-1.7,1.16-2.4a1.6,1.6,0,0,1,.36-.58A.5.5,0,0,0-37-16.1c0-.14-.1-.22-.32-.3a12.417,12.417,0,0,0-1.9-.36,7.893,7.893,0,0,1-.36,1.36,24.7,24.7,0,0,1-1.18,2.78c-.52.02-1.12.02-1.64.02.06.58.16,1.2.26,1.74.06.24.14.32.26.32a.741.741,0,0,0,.3-.08,2.493,2.493,0,0,1,.8-.18c2.02-.18,4.1-.4,5.98-.68l.36.88c.1.22.16.24.38.1l1.14-.62c.22-.12.24-.2.14-.4a25.439,25.439,0,0,0-2.1-3.58c-.12-.16-.2-.22-.42-.1Zm27.48,2.7c-2.42,1.58-3.84,3.5-3.84,6.34,0,4.16,3.86,6.18,7.38,6.18.24,0,.32-.12.38-.42a7.114,7.114,0,0,0,.22-1.72c0-.22-.12-.3-.44-.3C-8.56-2.1-10.4-3.5-10.4-6.08c0-2.4,1.7-4.74,5.1-5.9a8.924,8.924,0,0,1,2.44-.44c.26,0,.38-.06.38-.3a11.426,11.426,0,0,0-.22-1.76c-.02-.14-.12-.26-.42-.22-5.16.68-9.56,1.34-12.02,1.7a27.591,27.591,0,0,1-3.18.34,13.937,13.937,0,0,0,.74,2.16.468.468,0,0,0,.38.3,1.168,1.168,0,0,0,.44-.16c.3-.1.5-.14,1.26-.32,2.14-.44,4.28-.86,6.72-1.32Zm2.9,2.86A9.924,9.924,0,0,1-3.86-6.78a.209.209,0,0,0,.34.06l.84-.62a.2.2,0,0,0,.06-.32A9.205,9.205,0,0,0-4.52-9.8c-.12-.1-.2-.12-.3-.04Zm1.84-1.32a9.461,9.461,0,0,1,2,2.3.205.205,0,0,0,.34.06l.8-.62a.231.231,0,0,0,.06-.36,8.352,8.352,0,0,0-1.9-2.06c-.12-.1-.18-.12-.3-.04ZM-201.78,28.44c-.24,1.22-.52,2.44-.82,3.56a12.154,12.154,0,0,1-.48,1.58c-.08.24-.1.34.28.38l1.5.16c.3.04.36-.06.42-.3l.24-.98h8.32a.938.938,0,0,1-1.1.84c-.48,0-1.04-.02-1.66-.08a3.438,3.438,0,0,1,.48,1.26c.14.62.14.64.54.66.26.02.58,0,.84,0,1.86,0,2.72-.74,2.96-2.58v-.1c1.72,0,2.38.04,2.5.04.2,0,.22-.02.22-.22v-1.4c0-.18-.02-.2-.22-.2-.12,0-.74.04-2.3.04.1-.86.18-1.76.24-2.66h.36c1.76,0,2.36.04,2.48.04.18,0,.2-.02.2-.22V26.82c0-.2-.02-.22-.2-.22-.12,0-.72.04-2.48.04h-.22l.12-2.36c.02-.5.04-1.12.08-1.68,0-.2-.04-.24-.24-.24-.12,0-.8.04-2.7.04h-5.62c-1.9,0-2.54-.04-2.66-.04-.2,0-.24.04-.24.24-.02.48-.04.9-.1,1.36-.12.84-.24,1.74-.4,2.68h-.66c-1.76,0-2.36-.04-2.48-.04-.18,0-.2.02-.2.22v1.44c0,.2.02.22.2.22.12,0,.72-.04,2.48-.04Zm9.98,0c-.08.94-.18,1.84-.26,2.66h-3.26c.16-.88.3-1.76.42-2.66Zm-8.42,2.66c.2-.9.36-1.78.52-2.66h2.86c-.14.88-.28,1.76-.44,2.66Zm8.68-6.96c-.04.8-.08,1.64-.14,2.5h-3c.1-.82.16-1.64.24-2.5Zm-4.8,0c-.08.84-.16,1.68-.26,2.5h-2.8c.12-.84.24-1.68.34-2.5Zm5.84-2.94c1.96,0,2.64.04,2.76.04.2,0,.22-.02.22-.22V19.54c0-.22-.02-.22-.22-.22-.12,0-.8.02-2.76.02h-8.72l.3-.62a1.574,1.574,0,0,1,.42-.68.5.5,0,0,0,.22-.38c0-.12-.14-.22-.34-.28-.42-.1-1.22-.28-1.9-.4a5.271,5.271,0,0,1-.3,1.08,11.883,11.883,0,0,1-3.74,4.88,4.738,4.738,0,0,1,1.12,1.08c.2.28.3.42.4.42s.22-.12.42-.34a17.1,17.1,0,0,0,2.36-2.9Zm13.7,14.06c.2,0,.22-.02.22-.22V33.96h8.38v.98c0,.2.02.22.22.22h1.78c.2,0,.22-.02.22-.22,0-.12-.04-1.3-.04-7.04V23.46c0-3.28.04-4.5.04-4.62,0-.22-.02-.24-.22-.24-.12,0-.82.04-2.76.04h-6.86c-1.94,0-2.62-.04-2.76-.04-.2,0-.22.02-.22.24,0,.12.04,1.34.04,5.22v3.86c0,5.8-.04,6.98-.04,7.12,0,.2.02.22.22.22Zm.22-3.28V27.14h8.38v4.84Zm0-11.36h8.38v4.56h-8.38Zm28.74,1.12a4.543,4.543,0,0,1,4.48,4.64c0,3.78-2.66,5.18-6.04,5.98a4.242,4.242,0,0,1,1.4,1.26c.26.4.44.48.86.36,4.06-1.22,6.16-3.56,6.16-7.28,0-3.98-2.82-6.94-7.62-6.94a8.752,8.752,0,0,0-6.5,2.56,7.369,7.369,0,0,0-2.26,5.2c0,3.26,1.78,5.14,3.54,5.14a3.8,3.8,0,0,0,3.4-2.3,25.043,25.043,0,0,0,2.5-8.62Zm-2.4.12a22.851,22.851,0,0,1-2.12,7.16c-.54.96-.98,1.22-1.5,1.22-.62,0-1.36-1.02-1.36-2.86a5.759,5.759,0,0,1,1.56-3.7A6.024,6.024,0,0,1-150.24,21.86Zm23.14-1a5.209,5.209,0,0,1,.14-1.88,1.052,1.052,0,0,0,.16-.46c0-.16-.1-.28-.38-.34a14.763,14.763,0,0,0-2.5-.32,15.261,15.261,0,0,1,.2,2.96v9.84c0,1.28-.02,2.46-.08,3.94,0,.24.1.3.38.3a13.217,13.217,0,0,0,1.78,0c.28,0,.38-.06.36-.3-.04-1.44-.08-2.62-.08-3.92V26.26a22.151,22.151,0,0,1,5.26,2.56.307.307,0,0,0,.22.1c.1,0,.18-.08.26-.22a11.754,11.754,0,0,0,.86-1.74c.1-.26,0-.4-.22-.52a28.212,28.212,0,0,0-6.36-2.72Zm3.6-1.32a9.924,9.924,0,0,1,2.02,2.32.209.209,0,0,0,.34.06l.84-.62a.2.2,0,0,0,.06-.32,9.205,9.205,0,0,0-1.9-2.14c-.12-.1-.2-.12-.3-.04Zm1.84-1.32a9.461,9.461,0,0,1,2,2.3.205.205,0,0,0,.34.06l.8-.62a.231.231,0,0,0,.06-.36,8.352,8.352,0,0,0-1.9-2.06c-.12-.1-.18-.12-.3-.04Zm20.88,2.7c1.22,0,2.16.04,2.82.04.3.02.36-.06.36-.4a10.155,10.155,0,0,0,0-1.56c0-.22-.06-.32-.24-.32-.78.04-1.84.1-3.14.1h-3.6a27.555,27.555,0,0,1-3.28-.14,17.432,17.432,0,0,0,.1,1.92c.02.32.08.44.28.44.84-.06,1.84-.08,2.74-.08Zm1.52,4.28c-1.44,3.86-4.7,6.62-8.4,8.34a5.863,5.863,0,0,1,1.86,1.04.653.653,0,0,0,.44.24.961.961,0,0,0,.4-.14,17.481,17.481,0,0,0,8.16-8.84,2.291,2.291,0,0,1,.68-.94.482.482,0,0,0,.22-.38.589.589,0,0,0-.2-.42,11.8,11.8,0,0,0-1.34-1.24.515.515,0,0,0-.3-.14.43.43,0,0,0-.26.12,2.2,2.2,0,0,1-1.06.22h-6.86a35.394,35.394,0,0,1-3.68-.16,15.163,15.163,0,0,0,.22,2.02c.04.26.12.38.3.38,1-.06,2-.08,3-.08Zm21.94-1.56a31.659,31.659,0,0,0,2.34-2.52,6.589,6.589,0,0,1,1.2-1.1.572.572,0,0,0,.28-.44.354.354,0,0,0-.16-.3,17.793,17.793,0,0,0-2.22-1.4,5.8,5.8,0,0,1-1.26,2.06,32.449,32.449,0,0,1-4.26,4.18,32.1,32.1,0,0,1-6.3,4.1,7.486,7.486,0,0,1,1.72,1.18.557.557,0,0,0,.42.2.564.564,0,0,0,.3-.08,34.6,34.6,0,0,0,5.5-3.84v4.66c0,1.36-.06,2.66-.08,4.1-.02.24.06.32.28.32a16.681,16.681,0,0,0,2,0c.22,0,.32-.08.3-.34-.04-1.6-.06-2.78-.06-4.16Zm25.16.76c1.22,0,2.84.04,3.66.08.2,0,.28-.12.28-.32q.03-.81,0-1.62c0-.26-.08-.36-.32-.36-1.26.02-2.6.1-3.84.1H-58.8c.26-.5.62-1.22.92-1.92a1.983,1.983,0,0,1,.6-.82.453.453,0,0,0,.22-.38.359.359,0,0,0-.24-.34,14.63,14.63,0,0,0-2.4-.92,8.412,8.412,0,0,1-.8,2.76,21.132,21.132,0,0,1-4.72,6.52,6,6,0,0,1,1.86.72.478.478,0,0,0,.28.1.493.493,0,0,0,.34-.16,19.264,19.264,0,0,0,2.78-3.44h4.12a11.161,11.161,0,0,1-1.38,5.24,11.1,11.1,0,0,1-4.52,4.3,7.536,7.536,0,0,1,2.06.88.5.5,0,0,0,.34.14.688.688,0,0,0,.42-.16,11.666,11.666,0,0,0,3.96-4.28,13.382,13.382,0,0,0,1.62-6.12Zm24.04-2.66a14.226,14.226,0,0,1-3.58,3.5,4.612,4.612,0,0,1,1.66.82.782.782,0,0,0,.48.2.576.576,0,0,0,.42-.18,17.005,17.005,0,0,0,3.52-3.86,2.484,2.484,0,0,1,.54-.58.522.522,0,0,0,.28-.42.58.58,0,0,0-.16-.36,10.251,10.251,0,0,0-1.2-1.26.68.68,0,0,0-.46-.28,1.463,1.463,0,0,0-.38.14,4.213,4.213,0,0,1-1.38.12h-8.58c-1.6,0-2.7-.04-4.06-.14a18.712,18.712,0,0,0,.36,2.16c.04.18.12.32.36.3,1.18-.08,2.4-.16,3.54-.16Zm-11.7,11.62A5.628,5.628,0,0,1-38,34.38a.566.566,0,0,0,.4.18,1.006,1.006,0,0,0,.56-.2,10.41,10.41,0,0,0,3.64-3.98,12.226,12.226,0,0,0,1.18-5.5,1.829,1.829,0,0,1,.18-.82.815.815,0,0,0,.1-.36c0-.18-.08-.32-.34-.38a22.2,22.2,0,0,0-2.58-.38,7.23,7.23,0,0,1,.2,1.88,9.248,9.248,0,0,1-.98,4.72A8.856,8.856,0,0,1-39.82,33.36ZM-7.84,27.9c1.7-.7,3-1.14,4.3-1.6A6.4,6.4,0,0,1-2.32,26c.2-.04.3-.12.3-.28a.791.791,0,0,0-.16-.44,12.32,12.32,0,0,0-1.4-1.76A6.015,6.015,0,0,1-5.1,24.6c-1.02.52-2.16,1.04-2.94,1.4a2.209,2.209,0,0,0-2.44-2.16,3.98,3.98,0,0,0-2,.62l-.02-.04A20.639,20.639,0,0,0-11,22.2c1.46-.16,3.18-.38,4.68-.6.28-.04.36-.12.34-.32a6.744,6.744,0,0,0-.2-1.44c-.04-.18-.1-.24-.32-.2a32.174,32.174,0,0,1-3.64.62c.24-.54.34-.8.46-1.08a1.558,1.558,0,0,1,.34-.48.386.386,0,0,0,.14-.3.359.359,0,0,0-.24-.34,12.628,12.628,0,0,0-2.28-.56,4.868,4.868,0,0,1-.14,1.22,15.411,15.411,0,0,1-.6,1.72,44.114,44.114,0,0,1-4.6.02c.06.6.14,1.34.2,1.66.04.22.1.32.28.32,1.18,0,2.26-.02,3.2-.06a20.438,20.438,0,0,1-4.18,4.96c-.1.08-.14.14-.14.22a.325.325,0,0,0,.08.18,9.513,9.513,0,0,0,1.14,1.32.4.4,0,0,0,.22.14c.08,0,.14-.06.24-.18a26.952,26.952,0,0,1,2-2.18,4.828,4.828,0,0,1,2.76-1.44c.9-.04,1.14.36,1.2,1.38-3.02,1.56-4.22,2.96-4.22,4.88,0,2.32,1.74,3.3,5.02,3.3A35.573,35.573,0,0,0-4.3,34.7c.16,0,.24-.14.22-.38a8.951,8.951,0,0,0-.18-1.64c-.02-.18-.1-.24-.28-.22a34.18,34.18,0,0,1-4.98.4c-2.1,0-2.78-.54-2.78-1.38,0-.96.64-1.74,2.42-2.66-.02.72-.02,1.72-.02,2.44,0,.2.08.32.26.32a10.819,10.819,0,0,0,1.42-.1c.26-.04.38-.14.38-.36Zm-49.6,35.62v2.82c0,.5-.16.74-.84.74a16.674,16.674,0,0,1-2.3-.12,5.224,5.224,0,0,1,.54,1.58c.12.64.16.64.76.62,2.04,0,2.96-.14,3.42-.5a1.943,1.943,0,0,0,.64-1.76c0-.86-.06-1.78-.06-2.72v-.66h4.98c1.78,0,2.4.04,2.52.04.2,0,.22-.02.22-.22v-1.6c0-.2-.02-.22-.22-.22-.12,0-.74.04-2.52.04h-4.98v-2.4h3.4c1.94,0,2.6.04,2.72.04.2,0,.22-.02.22-.24v-1.6c0-.18-.02-.2-.22-.2-.12,0-.78.04-2.72.04h-3.4V54.52a38.944,38.944,0,0,0,4.46-.92,4.342,4.342,0,0,1,.94-.16c.22,0,.34-.1.34-.2a.524.524,0,0,0-.18-.38,12.075,12.075,0,0,0-1.42-1.48,12.183,12.183,0,0,1-1.78.62,37.647,37.647,0,0,1-4.36.82,60.081,60.081,0,0,1-6.7.52,6.164,6.164,0,0,1,.6,1.36c.18.6.18.6.82.58,1.76-.12,3.44-.26,5.12-.46V57.2h-3.32c-1.96,0-2.62-.04-2.74-.04-.2,0-.22.02-.22.2v1.6c0,.22.02.24.22.24.12,0,.78-.04,2.74-.04h3.32v2.4h-5.08c-1.78,0-2.4-.04-2.52-.04-.2,0-.22.02-.22.22v1.6c0,.2.02.22.22.22.12,0,.74-.04,2.52-.04Zm26.58-11.16c-1.7,0-2.28-.04-2.4-.04-.22,0-.24.02-.24.22v1.4c0,.2.02.22.24.22.04,0,.18,0,.46-.02a12.76,12.76,0,0,0,2.38,3.48,15.531,15.531,0,0,1-3.82,1.94v-1.3c0-1.2.04-1.74.04-1.86,0-.2-.02-.22-.22-.22-.14,0-.68.04-2.2.04h-.36V54.94h.48c1.68,0,2.28.04,2.4.04.18,0,.2-.02.2-.22v-1.3c0-.18-.02-.2-.2-.2-.12,0-.72.04-2.4.04h-.48v-.06a3.23,3.23,0,0,1,.14-1.3.893.893,0,0,0,.1-.36c0-.1-.1-.16-.32-.2a16.851,16.851,0,0,0-1.9-.14,12.339,12.339,0,0,1,.14,2.06h-.86c-1.68,0-2.24-.04-2.36-.04-.2,0-.22.02-.22.2v1.3c0,.2.02.22.22.22.12,0,.68-.04,2.36-.04h.86v1.28h-.38c-1.52,0-2.06-.04-2.18-.04-.2,0-.22.02-.22.22,0,.12.04.66.04,1.86v3.1c0,1.22-.04,1.74-.04,1.88,0,.18.02.2.22.2.12,0,.66-.04,2.18-.04h.36v1.3h-.88c-1.74,0-2.32-.04-2.44-.04-.2,0-.22.02-.22.22v1.28c0,.2.02.22.22.22.12,0,.7-.04,2.44-.04h.88c-.02,1.88-.04,2.9-.04,3,0,.2.02.22.22.22h1.48c.2,0,.22-.02.22-.22,0-.08-.04-1.12-.04-3h.5c1.74,0,2.36.04,2.48.04.18,0,.2-.02.2-.22V64.88c0-.2-.02-.22-.2-.22-.12,0-.74.04-2.48.04H-37V63.4h.38c1.52,0,2.06.04,2.2.04.2,0,.22-.02.22-.2,0-.12-.04-.66-.04-1.88V59.6a6.7,6.7,0,0,1,.64,1.08c.16.38.22.54.38.54a1.441,1.441,0,0,0,.48-.16A19.115,19.115,0,0,0-29,58.9a15.794,15.794,0,0,0,3.86,2.12,1.775,1.775,0,0,0,.46.14c.18,0,.22-.16.38-.54a4.547,4.547,0,0,1,.68-1.24,17.127,17.127,0,0,1-3.92-1.76,15.607,15.607,0,0,0,2.14-2.76,2.977,2.977,0,0,1,.64-.86c.2-.16.24-.26.24-.4,0-.18-.04-.26-.6-.84-.54-.54-.66-.58-.82-.58a.567.567,0,0,0-.26.08,1.043,1.043,0,0,1-.5.1Zm3.66,1.76a11.18,11.18,0,0,1-1.82,2.34,9.859,9.859,0,0,1-1.8-2.34Zm-8.68,7.84h-1.18v-1.5h1.18Zm-4.04,0v-1.5h1.18v1.5Zm0-2.86V57.66h1.18V59.1Zm4.04-1.44V59.1h-1.18V57.66Zm7.66,4.98v-.12A4.292,4.292,0,0,1-28.1,61a1.044,1.044,0,0,0,.08-.42c0-.12-.1-.2-.3-.22-.68-.06-1.3-.12-2.02-.14a13.631,13.631,0,0,1,.14,2.32v.1h-.6c-1.68,0-2.24-.04-2.36-.04-.2,0-.22.02-.22.22v1.42c0,.2.02.22.22.22.12,0,.68-.04,2.36-.04h.6v2.7h-1.36c-1.86,0-2.46-.04-2.58-.04-.2,0-.22.02-.22.22v1.42c0,.22.02.24.22.24.12,0,.72-.04,2.58-.04h4.84c1.86,0,2.48.04,2.6.04.18,0,.2-.02.2-.24V67.3c0-.2-.02-.22-.2-.22-.12,0-.74.04-2.6.04h-1.5v-2.7h.92c1.68,0,2.24.04,2.38.04.2,0,.22-.02.22-.22V62.82c0-.2-.02-.22-.22-.22-.14,0-.7.04-2.38.04Zm11.9-9.88a16.136,16.136,0,0,1-.36,2.98,38.18,38.18,0,0,0-.68,6.56,18.749,18.749,0,0,0,.92,5.96c.04.14.12.24.26.22a9.928,9.928,0,0,0,1.64-.32c.18-.04.26-.12.26-.26,0-.16-.04-.32-.04-.56a2.271,2.271,0,0,1,.06-.62,19.552,19.552,0,0,1,1.14-3.02.553.553,0,0,0,.1-.32.8.8,0,0,0-.14-.3,5.192,5.192,0,0,1-.7-1.26c-.58,1.4-.94,2.06-1.36,2.98a19.287,19.287,0,0,1-.12-2.34A32.407,32.407,0,0,1-14.5,56a4.725,4.725,0,0,1,.48-1.42c.26-.4.3-.46.3-.6,0-.18-.12-.3-.46-.48A8.851,8.851,0,0,0-16.32,52.76Zm4.6,10.32a4.406,4.406,0,0,0,.7,2.6c.86,1.18,2.24,1.66,5.2,1.66a26.853,26.853,0,0,0,3.26-.22c.34-.04.34-.06.34-.3a14.818,14.818,0,0,0-.12-1.72c-.04-.26-.08-.28-.28-.26a28.669,28.669,0,0,1-3.82.26c-2.18,0-3.14-.5-3.26-1.88,0-.22-.04-.32-.2-.3Zm.64-5.68a24.451,24.451,0,0,1,4.54-.46c1.02,0,2.06.04,3.26.12.18.02.24-.06.26-.24.04-.56.04-1.1.04-1.7,0-.2-.04-.24-.46-.26-.84-.08-1.76-.12-2.96-.12a31.932,31.932,0,0,0-4.34.36c-.2.04-.26.1-.28.34C-11.06,55.78-11.06,56.28-11.08,57.4Z" transform="translate(226.94 16.76)" fill="#1c3534"/>
</svg>
