<svg xmlns="http://www.w3.org/2000/svg" width="247.439" height="41.202" viewBox="0 0 247.439 41.202">
  <g id="グループ_3152" data-name="グループ 3152" transform="translate(-64.313 -6227.512)">
    <path id="パス_1160" data-name="パス 1160" d="M-118.352.22a6.6,6.6,0,0,1-3.075-.663,6.969,6.969,0,0,1-2.26-1.911l1.413-1.408a4.961,4.961,0,0,0,1.661,1.529,4.8,4.8,0,0,0,2.337.523,3.68,3.68,0,0,0,2.192-.594,1.907,1.907,0,0,0,.828-1.639,2.2,2.2,0,0,0-.4-1.372,3.121,3.121,0,0,0-1.067-.874,10.456,10.456,0,0,0-1.458-.613q-.795-.269-1.59-.588a6.743,6.743,0,0,1-1.457-.8A3.588,3.588,0,0,1-122.3-9.435a4.115,4.115,0,0,1-.4-1.939,3.8,3.8,0,0,1,.632-2.211A4.077,4.077,0,0,1-120.348-15a5.891,5.891,0,0,1,2.453-.492,5.96,5.96,0,0,1,2.676.583,5.624,5.624,0,0,1,1.939,1.535l-1.413,1.408a4.872,4.872,0,0,0-1.458-1.2,3.868,3.868,0,0,0-1.793-.4,3.2,3.2,0,0,0-1.955.539,1.772,1.772,0,0,0-.723,1.507,1.877,1.877,0,0,0,.4,1.254,3.231,3.231,0,0,0,1.067.8,12.606,12.606,0,0,0,1.458.6q.795.272,1.59.6a6.432,6.432,0,0,1,1.457.839,3.755,3.755,0,0,1,1.067,1.309,4.454,4.454,0,0,1,.4,2.016,3.872,3.872,0,0,1-1.4,3.165A5.777,5.777,0,0,1-118.352.22Zm12.661-6.16V-7.75h4.152A3.3,3.3,0,0,0-100-8.1a2.613,2.613,0,0,0,1.06-.986,2.882,2.882,0,0,0,.388-1.522,2.882,2.882,0,0,0-.388-1.522,2.613,2.613,0,0,0-1.06-.986,3.3,3.3,0,0,0-1.533-.346h-4.152v-1.809h4.279a5.4,5.4,0,0,1,2.522.577,4.44,4.44,0,0,1,1.763,1.622,4.568,4.568,0,0,1,.649,2.461,4.584,4.584,0,0,1-.649,2.464A4.433,4.433,0,0,1-98.89-6.517a5.4,5.4,0,0,1-2.522.577ZM-107.082,0V-15.268h2.074V0Zm16.439,0V-15.268h2.074V0Zm1.4,0V-1.892h8.762V0Zm0-6.9V-8.718H-81.2V-6.9Zm0-6.479v-1.892h8.646v1.892ZM-74.374,0V-15.268H-72.3V0Zm1.4,0V-1.892h8.762V0Zm0-6.9V-8.718h8.036V-6.9Zm0-6.479v-1.892h8.646v1.892ZM-56.741,0V-1.9h4.252a5.875,5.875,0,0,0,2.965-.731,5.178,5.178,0,0,0,2-2.03,6.093,6.093,0,0,0,.718-3,5.945,5.945,0,0,0-.726-2.967,5.231,5.231,0,0,0-2.007-2.019,5.859,5.859,0,0,0-2.948-.729h-4.229v-1.9h4.279a8.1,8.1,0,0,1,3.08.575,7.552,7.552,0,0,1,2.467,1.606,7.308,7.308,0,0,1,1.636,2.42,7.758,7.758,0,0,1,.583,3.033,7.761,7.761,0,0,1-.583,3.019,7.4,7.4,0,0,1-1.625,2.431A7.407,7.407,0,0,1-49.338-.575,8.041,8.041,0,0,1-52.4,0ZM-58.1,0V-15.268h2.074V0Zm24.4-6.2-6.006-9.064H-37.3l4.84,7.414h-1.078l4.856-7.414h2.36L-32.37-6.2ZM-34.042,0V-7.573h2.074V0Zm20.691,0V-15.268h2.073V0ZM2.577.22A7.559,7.559,0,0,1-.456-.388,7.654,7.654,0,0,1-2.918-2.076,7.844,7.844,0,0,1-4.565-4.587a7.952,7.952,0,0,1-.591-3.069,7.917,7.917,0,0,1,.589-3.063,7.842,7.842,0,0,1,1.636-2.494A7.525,7.525,0,0,1-.489-14.889a7.569,7.569,0,0,1,3.022-.6,7.589,7.589,0,0,1,3.025.6,7.58,7.58,0,0,1,2.45,1.675,7.8,7.8,0,0,1,1.644,2.505,7.966,7.966,0,0,1,.591,3.075,7.985,7.985,0,0,1-.589,3.069,7.747,7.747,0,0,1-1.636,2.5A7.687,7.687,0,0,1,5.58-.388,7.42,7.42,0,0,1,2.577.22ZM2.533-1.766a5.462,5.462,0,0,0,2.89-.759A5.384,5.384,0,0,0,7.392-4.612,6.3,6.3,0,0,0,8.11-7.656,6.446,6.446,0,0,0,7.7-10a5.6,5.6,0,0,0-1.16-1.856,5.18,5.18,0,0,0-1.763-1.218A5.7,5.7,0,0,0,2.533-13.5a5.492,5.492,0,0,0-2.874.748,5.3,5.3,0,0,0-1.966,2.065,6.258,6.258,0,0,0-.715,3.033A6.6,6.6,0,0,0-2.61-5.294a5.569,5.569,0,0,0,1.152,1.87A5.209,5.209,0,0,0,.305-2.2,5.608,5.608,0,0,0,2.533-1.766ZM16.382,0V-15.268h1.452l.622,2.409V0ZM26.953,0,17.564-12.507l.27-2.761L27.222-2.761Zm0,0-.622-2.26V-15.268H28.4V0ZM44.531,0V-1.9h4.252a5.875,5.875,0,0,0,2.965-.731,5.178,5.178,0,0,0,2-2.03,6.093,6.093,0,0,0,.718-3,5.945,5.945,0,0,0-.726-2.967,5.231,5.231,0,0,0-2.007-2.019,5.859,5.859,0,0,0-2.948-.729H44.553v-1.9h4.279a8.1,8.1,0,0,1,3.08.575,7.552,7.552,0,0,1,2.467,1.606,7.308,7.308,0,0,1,1.636,2.42A7.758,7.758,0,0,1,56.6-7.634a7.761,7.761,0,0,1-.583,3.019A7.4,7.4,0,0,1,54.39-2.184,7.407,7.407,0,0,1,51.934-.575,8.041,8.041,0,0,1,48.876,0ZM43.167,0V-15.268H45.24V0ZM64.127-6.649V-8.377h4.141a2.88,2.88,0,0,0,2.054-.682,2.432,2.432,0,0,0,.723-1.859,2.478,2.478,0,0,0-.715-1.82,2.756,2.756,0,0,0-2.046-.72H64.127v-1.809H68.34a5.421,5.421,0,0,1,2.535.561,4.1,4.1,0,0,1,1.664,1.535,4.225,4.225,0,0,1,.586,2.222,4.277,4.277,0,0,1-.586,2.263,3.954,3.954,0,0,1-1.664,1.5,5.629,5.629,0,0,1-2.535.536ZM62.736,0V-15.268h2.074V0Zm8.8,0L66-6.842l1.958-.676L74.165,0ZM83.482-6.2l-6.006-9.064h2.409l4.84,7.414H83.647L88.5-15.268h2.359L84.813-6.2ZM83.141,0V-7.573h2.074V0ZM96.055,0V-15.268h2.074V0Zm1.4,0V-1.892h8.761V0Zm0-6.9V-8.718h8.035V-6.9Zm0-6.479v-1.892H106.1v1.892Zm16.258,6.726V-8.377h4.141a2.88,2.88,0,0,0,2.054-.682,2.432,2.432,0,0,0,.723-1.859,2.478,2.478,0,0,0-.715-1.82,2.756,2.756,0,0,0-2.046-.72h-4.158v-1.809h4.213a5.421,5.421,0,0,1,2.535.561,4.1,4.1,0,0,1,1.664,1.535,4.225,4.225,0,0,1,.586,2.222,4.277,4.277,0,0,1-.586,2.263,3.954,3.954,0,0,1-1.664,1.5,5.629,5.629,0,0,1-2.535.536ZM112.324,0V-15.268H114.4V0Zm8.8,0-5.533-6.842,1.958-.676L123.753,0Z" transform="translate(188 6243)" fill="#1c3534"/>
    <path id="パス_1161" data-name="パス 1161" d="M-97.566-.756a34.817,34.817,0,0,0-4.662-4.2,16.93,16.93,0,0,0,2.31-3.92,2.613,2.613,0,0,1,.392-.686l-.588-.6a2.611,2.611,0,0,1-.9.112l-5,.056h-.364a6.579,6.579,0,0,1-1.106-.07l.028,1.134a9.42,9.42,0,0,1,1.442-.112l4.676-.07A2.378,2.378,0,0,0-101-9.128a.3.3,0,0,1-.042.1c-.028.07-.042.084-.07.168a15.174,15.174,0,0,1-5,6.314,11.27,11.27,0,0,1-2.842,1.61,3.116,3.116,0,0,1,.686.924,18.028,18.028,0,0,0,2.744-1.68A15.2,15.2,0,0,0-102.844-4.2,26.039,26.039,0,0,1-98.364.126Zm7.392-8.764A6.2,6.2,0,0,1-90.1-10.7h-1.148A7.768,7.768,0,0,1-91.2-9.534V-3.08c0,.588.014.868.028,1.092a1.859,1.859,0,0,0,.574,1.344c.49.406,1.414.574,3.066.574.966,0,2.814-.1,3.71-.2l.672-.07.182-.014c.21-.028.252-.028.462-.042l-.084-1.12a6.745,6.745,0,0,1-1.386.28,27.7,27.7,0,0,1-3.206.224,14.6,14.6,0,0,1-1.652-.084,1.681,1.681,0,0,1-1.064-.364c-.238-.238-.294-.56-.294-1.54V-3.15l.014-.084V-5.278a21.462,21.462,0,0,0,6.622-2.338,6.176,6.176,0,0,1,.616-.308l-.714-.952c-.98.938-4.312,2.3-6.524,2.674Zm8.3-2.366a1.592,1.592,0,0,0-1.6,1.582,1.592,1.592,0,0,0,1.6,1.582A1.589,1.589,0,0,0-80.29-10.3,1.572,1.572,0,0,0-81.872-11.886Zm0,.588a1,1,0,0,1,.994.994,1,1,0,0,1-.994.994A1,1,0,0,1-82.88-10.3,1,1,0,0,1-81.872-11.3Zm3.71,6.5a15.294,15.294,0,0,1,1.736-.056h8.12A16.015,16.015,0,0,1-66.6-4.8V-5.936a11.042,11.042,0,0,1-1.694.07h-8.134a9.9,9.9,0,0,1-1.736-.084ZM-52.22-6.1a11,11,0,0,1,1.61.07V-7.07a9.191,9.191,0,0,1-1.624.084h-8.19a9.288,9.288,0,0,1-1.624-.084v1.036a11,11,0,0,1,1.61-.07h3.794c-.112,3.192-1.2,4.69-4.1,5.656a2.448,2.448,0,0,1,.658.91c3.164-1.232,4.34-2.94,4.508-6.566Zm-8.414-3.374a9.754,9.754,0,0,1,1.6-.07h4.256q1.323.021,1.6.042v-1.008a12.645,12.645,0,0,1-1.61.07h-4.228a7.27,7.27,0,0,1-1.61-.1Zm7.5-1.9a10.668,10.668,0,0,1,1.358,2.268l.714-.392a10.894,10.894,0,0,0-1.372-2.212Zm1.722-.518A10.964,10.964,0,0,1-50.05-9.646l.714-.392a11.653,11.653,0,0,0-1.372-2.212Zm13.286,3.276a4.56,4.56,0,0,1-.784.91,15.394,15.394,0,0,1-4,2.912A13.816,13.816,0,0,1-46.158-3.57a2.585,2.585,0,0,1,.49.84,16.313,16.313,0,0,0,4.3-1.932V-.5A8.04,8.04,0,0,1-41.426.714h1.092A7.482,7.482,0,0,1-40.4-.518V-5.25A23.4,23.4,0,0,0-37.59-7.714a1.786,1.786,0,0,1,.336-.322Zm7.14,3.822a15.294,15.294,0,0,1,1.736-.056h8.12a16.015,16.015,0,0,1,1.708.056V-5.936a11.042,11.042,0,0,1-1.694.07h-8.134a9.9,9.9,0,0,1-1.736-.084Zm25.844-6.314A11.752,11.752,0,0,1-7.812-8.47a19.713,19.713,0,0,1-7.266,3.626,3.241,3.241,0,0,1,.546.938,21.886,21.886,0,0,0,5.4-2.45v5.32A7.3,7.3,0,0,1-9.212.42h1.218a9.3,9.3,0,0,1-.07-1.484V-7.028A24.657,24.657,0,0,0-4.788-9.842a3.169,3.169,0,0,1,.616-.588Zm13.454,5v.084L8.372-.882v.308A8.275,8.275,0,0,1,8.316.532H9.45A12.712,12.712,0,0,1,9.38-.9l-.1-6.818h2.086a11.455,11.455,0,0,1,1.162.042V-8.694a7.075,7.075,0,0,1-1.4.084H9.282l-.028-1.4v-.336a5.377,5.377,0,0,1,.056-.77H8.19a6.671,6.671,0,0,1,.07,1.134L8.274-8.61l-5.1.028A7.912,7.912,0,0,1,1.6-8.68v1.05A11,11,0,0,1,3.15-7.686l4.592-.028A13.5,13.5,0,0,1,5.726-5.166,15.893,15.893,0,0,1,.98-1.82a2.257,2.257,0,0,1,.7.84A21.537,21.537,0,0,0,3.99-2.422,16.338,16.338,0,0,0,7.308-5.516a8.719,8.719,0,0,0,1.05-1.568c-.028.6-.042.812-.042.91Zm9.968-3.024A15.459,15.459,0,0,1,21.616-6.4l.728-.868A18.238,18.238,0,0,0,18.97-9.9Zm.1,9.1a7.356,7.356,0,0,1,.84-.224,14.115,14.115,0,0,0,5.222-2.086A12.279,12.279,0,0,0,28.714-7.7a2.8,2.8,0,0,1-.854-.826A10.579,10.579,0,0,1,22.148-2.3a12.186,12.186,0,0,1-4.074,1.078ZM37.548.434a8.66,8.66,0,0,1-.07-1.484V-5.264a4.682,4.682,0,0,0-.056-.826L37.45-6.1a1.774,1.774,0,0,0,.434.238,29.157,29.157,0,0,1,5.222,2.772l.6-1.036a36.756,36.756,0,0,0-6.23-2.954V-9.7a7.967,7.967,0,0,1,.07-1.456h-1.2a8.228,8.228,0,0,1,.084,1.428v8.694a9.288,9.288,0,0,1-.084,1.47ZM41.02-10.234a10.368,10.368,0,0,1,1.442,2.226l.7-.42A10.628,10.628,0,0,0,41.72-10.6Zm1.6-.756a10.216,10.216,0,0,1,1.428,2.212l.7-.406A11.793,11.793,0,0,0,43.3-11.368Zm8.82,1.47a9.33,9.33,0,0,1,1.456-.07h4.7a9.33,9.33,0,0,1,1.456.07V-10.6a6.424,6.424,0,0,1-1.47.1H52.906a6.424,6.424,0,0,1-1.47-.1Zm-1.2,3.22a12.887,12.887,0,0,1,1.624-.07h7.308A8.626,8.626,0,0,1,56.9-2.7,9.61,9.61,0,0,1,52.738-.574a3.045,3.045,0,0,1,.6.966C56.966-.826,58.9-2.618,60.088-5.88a4.061,4.061,0,0,1,.392-.882l-.518-.6a2.364,2.364,0,0,1-.91.1H51.87a10.073,10.073,0,0,1-1.638-.084Zm25.13-4.816A11.752,11.752,0,0,1,72.688-8.47a19.713,19.713,0,0,1-7.266,3.626,3.241,3.241,0,0,1,.546.938,21.886,21.886,0,0,0,5.4-2.45v5.32A7.3,7.3,0,0,1,71.288.42h1.218a9.3,9.3,0,0,1-.07-1.484V-7.028a24.658,24.658,0,0,0,3.276-2.814,3.169,3.169,0,0,1,.616-.588ZM92.246-9.688a1.456,1.456,0,0,1-.616.182l-6.076.994-.322-1.736a5.609,5.609,0,0,1-.14-1.106l-1.148.168a4.975,4.975,0,0,1,.28,1.148l.308,1.694-1.848.308a11.151,11.151,0,0,1-1.428.14l.182,1.078a9.646,9.646,0,0,1,1.4-.308L84.7-7.434l1.274,6.79a11.741,11.741,0,0,1,.168,1.26l1.12-.224a8.527,8.527,0,0,1-.308-1.274L85.722-7.6l5.516-.924c.112-.014.2-.042.322-.07a1.657,1.657,0,0,1-.084.182,6.789,6.789,0,0,1-1.12,1.82,7.556,7.556,0,0,1-2.044,1.666,2.611,2.611,0,0,1,.84.672,9.926,9.926,0,0,0,1.6-1.372A9.275,9.275,0,0,0,92.54-8.372a2.393,2.393,0,0,1,.364-.714ZM97.4-4.8a15.294,15.294,0,0,1,1.736-.056h8.12a16.015,16.015,0,0,1,1.708.056V-5.936a11.042,11.042,0,0,1-1.694.07H99.134A9.9,9.9,0,0,1,97.4-5.95Z" transform="translate(188 6268)" fill="#1c3534"/>
  </g>
</svg>
