<svg xmlns="http://www.w3.org/2000/svg" width="164.922" height="47.324" viewBox="0 0 164.922 47.324">
  <g id="グループ_3153" data-name="グループ 3153" transform="translate(-126.063 -4704.436)">
    <g id="グループ_554" data-name="グループ 554" transform="translate(124.592 4730.893)">
      <path id="パス_1164" data-name="パス 1164" d="M1.885-3.51V-4.579H4.339a1.951,1.951,0,0,0,.906-.2,1.544,1.544,0,0,0,.626-.583,1.7,1.7,0,0,0,.229-.9,1.7,1.7,0,0,0-.229-.9,1.544,1.544,0,0,0-.626-.583,1.951,1.951,0,0,0-.906-.2H1.885V-9.022H4.414a3.189,3.189,0,0,1,1.49.341,2.624,2.624,0,0,1,1.042.958,2.7,2.7,0,0,1,.384,1.454,2.709,2.709,0,0,1-.384,1.456,2.619,2.619,0,0,1-1.042.96,3.189,3.189,0,0,1-1.49.341ZM1.063,0V-9.022H2.288V0Zm9.366-3.929V-4.95h2.447a1.7,1.7,0,0,0,1.214-.4,1.437,1.437,0,0,0,.427-1.1A1.464,1.464,0,0,0,14.1-7.527a1.629,1.629,0,0,0-1.209-.426H10.429V-9.022h2.489a3.2,3.2,0,0,1,1.5.332,2.423,2.423,0,0,1,.983.907,2.5,2.5,0,0,1,.346,1.313A2.527,2.527,0,0,1,15.4-5.133a2.336,2.336,0,0,1-.983.887,3.326,3.326,0,0,1-1.5.317ZM9.607,0V-9.022h1.225V0Zm5.2,0L11.537-4.043l1.157-.4L16.361,0ZM18.4,0V-9.022h1.225V0Zm8.226.13a4.553,4.553,0,0,1-1.805-.354,4.386,4.386,0,0,1-1.448-.993A4.512,4.512,0,0,1,22.417-2.7a4.858,4.858,0,0,1-.336-1.814,4.875,4.875,0,0,1,.335-1.815A4.418,4.418,0,0,1,23.366-7.8a4.5,4.5,0,0,1,1.443-.99,4.468,4.468,0,0,1,1.8-.359,4.532,4.532,0,0,1,1.875.364,4.648,4.648,0,0,1,1.427.995l-.835.835a3.006,3.006,0,0,0-1.053-.751,3.516,3.516,0,0,0-1.414-.27,3.318,3.318,0,0,0-1.311.253,3.052,3.052,0,0,0-1.037.72,3.251,3.251,0,0,0-.679,1.1,3.918,3.918,0,0,0-.239,1.389,3.908,3.908,0,0,0,.24,1.391,3.3,3.3,0,0,0,.679,1.105A3.017,3.017,0,0,0,25.3-1.3a3.342,3.342,0,0,0,1.315.253,3.6,3.6,0,0,0,1.469-.276,3.071,3.071,0,0,0,1.056-.757l.835.835A4.461,4.461,0,0,1,28.522-.236,4.7,4.7,0,0,1,26.624.13ZM32.253,0V-9.022h1.225V0Zm.829,0V-1.118h5.177V0Zm0-4.076V-5.151H37.83v1.076Zm0-3.828V-9.022h5.109V-7.9ZM41.387.13a.794.794,0,0,1-.6-.25.842.842,0,0,1-.237-.6.842.842,0,0,1,.237-.614.807.807,0,0,1,.6-.242.814.814,0,0,1,.6.242.838.838,0,0,1,.239.614.838.838,0,0,1-.239.6A.8.8,0,0,1,41.387.13Zm0-4.053a.794.794,0,0,1-.6-.25.842.842,0,0,1-.237-.6.842.842,0,0,1,.237-.614.807.807,0,0,1,.6-.242.814.814,0,0,1,.6.242.838.838,0,0,1,.239.614.838.838,0,0,1-.239.6A.8.8,0,0,1,41.387-3.923Z" transform="translate(0.408 17.107)" fill="#1c3534"/>
      <path id="パス_1165" data-name="パス 1165" d="M2.87,1.511A5.569,5.569,0,0,1,1.648.031,7.663,7.663,0,0,1,.869-1.887,8.518,8.518,0,0,1,.6-4.043,8.518,8.518,0,0,1,.869-6.2a7.663,7.663,0,0,1,.778-1.917A5.569,5.569,0,0,1,2.87-9.6l.679.611A5.263,5.263,0,0,0,2.125-6.9a7.805,7.805,0,0,0-.5,2.855,7.8,7.8,0,0,0,.5,2.849A5.286,5.286,0,0,0,3.549.9ZM8.164,0V-8.765H9.389V0ZM5.106-7.9V-9.022h7.342V-7.9ZM15.4.13a2.869,2.869,0,0,1-1.541-.424,3.05,3.05,0,0,1-1.084-1.151,3.334,3.334,0,0,1-.4-1.63,3.364,3.364,0,0,1,.4-1.641,3.1,3.1,0,0,1,1.082-1.159,2.823,2.823,0,0,1,1.536-.431,2.654,2.654,0,0,1,1.261.293,2.36,2.36,0,0,1,.889.809,2.364,2.364,0,0,1,.372,1.186v1.856a2.427,2.427,0,0,1-.37,1.188,2.314,2.314,0,0,1-.886.811A2.657,2.657,0,0,1,15.4.13Zm.188-1.108a1.805,1.805,0,0,0,1.406-.587,2.176,2.176,0,0,0,.531-1.519,2.4,2.4,0,0,0-.242-1.1A1.81,1.81,0,0,0,16.6-4.93,1.924,1.924,0,0,0,15.58-5.2a1.966,1.966,0,0,0-1.033.27,1.921,1.921,0,0,0-.707.746,2.256,2.256,0,0,0-.258,1.094,2.256,2.256,0,0,0,.258,1.094,1.913,1.913,0,0,0,.71.746A1.983,1.983,0,0,0,15.587-.978ZM17.452,0V-1.658l.215-1.511-.215-1.492V-6.175h1.173V0Zm7.722,0L23.254-2.707l-.224-.2L20.592-6.175h1.427l1.752,2.408.215.185L26.591,0Zm-4.7,0,2.548-3.426.67.852L21.853,0Zm3.6-2.925L23.4-3.76l1.713-2.415h1.365ZM31.931,0V-6.175H33.1V0Zm.585-7.407a.7.7,0,0,1-.525-.218.739.739,0,0,1-.21-.533.732.732,0,0,1,.21-.533.7.7,0,0,1,.525-.214.709.709,0,0,1,.535.214.739.739,0,0,1,.206.533.746.746,0,0,1-.206.533A.7.7,0,0,1,32.516-7.407ZM39.972,0V-3.594a1.6,1.6,0,0,0-.437-1.164A1.511,1.511,0,0,0,38.4-5.21,1.676,1.676,0,0,0,37.557-5a1.486,1.486,0,0,0-.571.57,1.664,1.664,0,0,0-.206.835l-.487-.273a2.456,2.456,0,0,1,.317-1.253,2.316,2.316,0,0,1,.872-.864,2.487,2.487,0,0,1,1.256-.317,2.256,2.256,0,0,1,1.246.349,2.483,2.483,0,0,1,.853.917,2.494,2.494,0,0,1,.309,1.211V0ZM35.607,0V-6.175H36.78V0Zm8.105,1.511L43.033.9a5.286,5.286,0,0,0,1.424-2.095,7.8,7.8,0,0,0,.5-2.849,7.805,7.805,0,0,0-.5-2.855,5.263,5.263,0,0,0-1.424-2.088l.679-.611a5.569,5.569,0,0,1,1.222,1.48A7.663,7.663,0,0,1,45.713-6.2a8.518,8.518,0,0,1,.271,2.156,8.518,8.518,0,0,1-.271,2.156A7.663,7.663,0,0,1,44.935.031,5.569,5.569,0,0,1,43.713,1.511Z" transform="translate(120.408 17.107)" fill="#1c3534"/>
      <path id="パス_1163" data-name="パス 1163" d="M5.82-5.49,1.135-13.88H3.32L6.95-6.765H5.97L9.61-13.88h2.145L7.03-5.49ZM5.51,0V-6.585H7.395V0ZM4.57-9.445l.545,1.49H1.56v-1.49ZM1.56-4.46V-5.95h9.77v1.49ZM7.875-7.955l.695-1.49h2.76v1.49ZM19.04.2a5.963,5.963,0,0,1-2.523-.512,4.971,4.971,0,0,1-1.872-1.493L15.92-3.08a3.207,3.207,0,0,0,1.27,1.107,3.993,3.993,0,0,0,1.82.408,3.628,3.628,0,0,0,1.648-.355,2.723,2.723,0,0,0,1.115-1.01,2.865,2.865,0,0,0,.408-1.545,2.912,2.912,0,0,0-.4-1.562,2.6,2.6,0,0,0-1.062-.972,3.225,3.225,0,0,0-1.467-.335,5.124,5.124,0,0,0-1.5.2,3.747,3.747,0,0,0-1.262.68l.015-1.2a3.017,3.017,0,0,1,.78-.68,3.576,3.576,0,0,1,1-.4,5.47,5.47,0,0,1,1.292-.138,4.65,4.65,0,0,1,2.438.6,4.022,4.022,0,0,1,1.53,1.618A4.859,4.859,0,0,1,24.08-4.38a4.353,4.353,0,0,1-.648,2.363A4.532,4.532,0,0,1,21.65-.393,5.558,5.558,0,0,1,19.04.2ZM16.5-6.46l-1.02-1.025.61-6.4H17.81l-.695,6.59Zm-.025-5.735-.385-1.685h7.3v1.685ZM26.96,2.2,28.21-.18l.625-.16a1.162,1.162,0,0,1-.25.358A.51.51,0,0,1,28.22.16a1.074,1.074,0,0,1-.77-.348,1.185,1.185,0,0,1-.35-.878,1.333,1.333,0,0,1,.385-.962,1.27,1.27,0,0,1,.95-.4,1.271,1.271,0,0,1,.927.4,1.311,1.311,0,0,1,.4.962,1.977,1.977,0,0,1-.09.54,4.7,4.7,0,0,1-.34.795L28,2.76Zm5.29-6.98,5.055-9.1H39.43l-5.165,9.1Zm0,1.16V-4.78l.8-.525h9.84V-3.62ZM39.035,0V-9.17h1.85V0ZM46.57,0l5.195-12.77,1.85.05L48.535,0ZM44.38-12.195V-13.88h9.235v1.16l-.81.525ZM60.52.2a5.4,5.4,0,0,1-2.435-.52,3.988,3.988,0,0,1-1.63-1.44,3.8,3.8,0,0,1-.585-2.085,3.978,3.978,0,0,1,.368-1.712A3.693,3.693,0,0,1,57.3-6.892a4.135,4.135,0,0,1,1.64-.778l.05.53a3.378,3.378,0,0,1-1.358-.71,3.211,3.211,0,0,1-.845-1.162A3.569,3.569,0,0,1,56.5-10.43a3.506,3.506,0,0,1,.518-1.907,3.573,3.573,0,0,1,1.432-1.29,4.484,4.484,0,0,1,2.07-.467,4.472,4.472,0,0,1,2.077.467,3.584,3.584,0,0,1,1.425,1.29,3.506,3.506,0,0,1,.518,1.907,3.569,3.569,0,0,1-.287,1.418,3.251,3.251,0,0,1-.838,1.162,3.313,3.313,0,0,1-1.365.71l.05-.53a4.05,4.05,0,0,1,1.645.778A3.763,3.763,0,0,1,64.8-5.557a3.955,3.955,0,0,1,.37,1.712,3.839,3.839,0,0,1-.577,2.085A3.929,3.929,0,0,1,62.965-.32,5.444,5.444,0,0,1,60.52.2Zm0-1.695a3.128,3.128,0,0,0,1.467-.332,2.565,2.565,0,0,0,1.005-.915A2.435,2.435,0,0,0,63.36-4.07,2.4,2.4,0,0,0,62.993-5.4a2.611,2.611,0,0,0-1.005-.908A3.108,3.108,0,0,0,60.52-6.64a3.112,3.112,0,0,0-1.465.335,2.606,2.606,0,0,0-1.007.908A2.4,2.4,0,0,0,57.68-4.07a2.435,2.435,0,0,0,.368,1.328,2.565,2.565,0,0,0,1.005.915A3.128,3.128,0,0,0,60.52-1.5Zm0-6.61a2.252,2.252,0,0,0,1.635-.615,2.115,2.115,0,0,0,.635-1.59,2.077,2.077,0,0,0-.635-1.575,2.273,2.273,0,0,0-1.635-.6,2.28,2.28,0,0,0-1.627.6,2.064,2.064,0,0,0-.643,1.575,2.1,2.1,0,0,0,.643,1.59A2.259,2.259,0,0,0,60.52-8.105Z" transform="translate(46.408 18.107)" fill="#1c3534"/>
    </g>
    <g id="グループ_556" data-name="グループ 556" transform="translate(40.5 -770)">
      <circle id="楕円形_12" data-name="楕円形 12" cx="5" cy="5" r="5" transform="translate(127 5475)" fill="#c0d5c9"/>
      <path id="パス_1162" data-name="パス 1162" d="M5.932.146A5.091,5.091,0,0,1,3.891-.266,5.141,5.141,0,0,1,2.226-1.41,5.361,5.361,0,0,1,1.112-3.116a5.441,5.441,0,0,1-.4-2.1,5.378,5.378,0,0,1,.4-2.094,5.384,5.384,0,0,1,1.123-1.7,5.083,5.083,0,0,1,1.688-1.142,5.376,5.376,0,0,1,2.1-.407,5.425,5.425,0,0,1,2.3.486A4.65,4.65,0,0,1,10.076-8.7l-.968.967A3.258,3.258,0,0,0,7.8-8.828,4.1,4.1,0,0,0,6.026-9.21a3.928,3.928,0,0,0-2.017.51A3.555,3.555,0,0,0,2.649-7.29a4.307,4.307,0,0,0-.486,2.077,4.294,4.294,0,0,0,.489,2.078A3.66,3.66,0,0,0,3.984-1.719,3.618,3.618,0,0,0,5.9-1.207a4.03,4.03,0,0,0,1.9-.422A2.9,2.9,0,0,0,9.039-2.872a4.278,4.278,0,0,0,.437-2l.855.623h-4.5v-1.29h5.1v.2A6.463,6.463,0,0,1,10.3-2.306,4.322,4.322,0,0,1,8.526-.469,5.326,5.326,0,0,1,5.932.146Zm8.73-4.68V-5.711h2.824a1.963,1.963,0,0,0,1.4-.465,1.658,1.658,0,0,0,.493-1.267,1.689,1.689,0,0,0-.488-1.241,1.879,1.879,0,0,0-1.4-.491H14.663V-10.41h2.872a3.7,3.7,0,0,1,1.729.382A2.8,2.8,0,0,1,20.4-8.981a2.881,2.881,0,0,1,.4,1.515,2.916,2.916,0,0,1-.4,1.543A2.7,2.7,0,0,1,19.264-4.9a3.838,3.838,0,0,1-1.729.366ZM13.714,0V-10.41h1.414V0Zm6,0L15.941-4.665l1.335-.461L21.506,0Zm4.144,0V-10.41h1.414V0Zm.956,0V-1.29h5.974V0Zm0-4.7V-5.944h5.479V-4.7Zm0-4.418v-1.29h5.9v1.29ZM33.6,0V-10.41h1.414V0Zm.956,0V-1.29H40.53V0Zm0-4.7V-5.944h5.479V-4.7Zm0-4.418v-1.29h5.9v1.29ZM43.342,0V-10.41h.99l.424,1.642V0ZM50.55,0l-6.4-8.528.184-1.882,6.4,8.527Zm0,0-.424-1.541V-10.41H51.54V0Z" transform="translate(143 5485)" fill="#1c3534"/>
    </g>
  </g>
</svg>
