<svg xmlns="http://www.w3.org/2000/svg" width="203.666" height="85.88" viewBox="0 0 203.666 85.88">
  <path id="パス_1158" data-name="パス 1158" d="M6.16-11.64c-1.16,0-2.06,0-3.32-.08.04.74.08,1.46.16,1.94.02.24.1.36.3.34.94-.06,1.9-.1,2.88-.1h1.8A11.654,11.654,0,0,1,6.54-5.22a11.134,11.134,0,0,1-4.7,4.08A5.1,5.1,0,0,1,3.52.02a.514.514,0,0,0,.38.2A.911.911,0,0,0,4.36.06,12.892,12.892,0,0,0,8.6-4.06,14.88,14.88,0,0,0,10.38-9.6h4.04a28.013,28.013,0,0,1-.6,6c-.24.9-.5,1.22-1.04,1.4a8.164,8.164,0,0,1-2.72.18A4.185,4.185,0,0,1,11.22-.2a.486.486,0,0,0,.48.4,8.454,8.454,0,0,0,2.02-.22c1.28-.32,1.96-1.16,2.36-2.7a34.092,34.092,0,0,0,.74-6.58c.04-1.06.08-1.86.08-2.12,0-.22-.1-.28-.42-.28-.92,0-1.86.04-2.78.04H10.66c.1-.98.12-1.46.18-2.1a1.863,1.863,0,0,1,.26-.94.9.9,0,0,0,.1-.38.413.413,0,0,0-.34-.42,15.662,15.662,0,0,0-2.6-.42,7.69,7.69,0,0,1,.14,1.58c-.02,1.08-.06,1.72-.14,2.7ZM36.2-6.18c1.48,0,2.96.02,4.46.04.28.02.36-.06.36-.3a14.741,14.741,0,0,0,0-1.88c0-.24-.06-.3-.36-.28-1.54.02-3.08.06-4.6.06H29.62a25.694,25.694,0,0,1-4.32-.24,21.707,21.707,0,0,0,.3,2.42c.06.3.22.42.46.42A15.993,15.993,0,0,1,29-6.18ZM58.44-10.9a5.534,5.534,0,0,1,.18-2.22,1.28,1.28,0,0,0,.16-.5c0-.16-.1-.28-.36-.34a19.085,19.085,0,0,0-2.5-.42,15.97,15.97,0,0,1,.2,3.48v6.26c0,1.02.02,1.26-.12,1.52a.614.614,0,0,0-.08.3.8.8,0,0,0,.18.42,5.775,5.775,0,0,0,1.2,1.22.853.853,0,0,0,.42.16.635.635,0,0,0,.4-.16,6.641,6.641,0,0,1,.58-.42A33.213,33.213,0,0,0,62.26-4a25.281,25.281,0,0,0,2.96-2.62c.22-.22.3-.36.3-.5a1,1,0,0,0-.12-.34,5.765,5.765,0,0,1-.62-2.02,19.192,19.192,0,0,1-3.5,3.4,20.332,20.332,0,0,1-2.84,1.86Zm-6.98-2.22a5.38,5.38,0,0,1,.2,1.68c-.02,3.2-.28,4.3-.84,5.66A9.929,9.929,0,0,1,47.5-1.8a7.087,7.087,0,0,1,1.7.84.68.68,0,0,0,.38.16.907.907,0,0,0,.52-.26,10.3,10.3,0,0,0,2.84-3.76,14.968,14.968,0,0,0,1.08-5.88,2.885,2.885,0,0,1,.24-1.36c.12-.28.08-.52-.26-.62A16.169,16.169,0,0,0,51.46-13.12Zm25.06-.78c-1.3,0-2.3,0-3.38-.08a11.652,11.652,0,0,0,.18,2.08c.04.22.1.36.26.34,1.08-.08,2.12-.12,3.16-.12l5.16-.02a24.532,24.532,0,0,1-3.76,5.02,24.294,24.294,0,0,1-7.04,5.1,5.479,5.479,0,0,1,1.68,1.3.447.447,0,0,0,.34.18,1.266,1.266,0,0,0,.46-.16A28.774,28.774,0,0,0,80.3-5.54,36.406,36.406,0,0,1,85.5-.58a.411.411,0,0,0,.28.16.346.346,0,0,0,.24-.12A10.717,10.717,0,0,0,87.36-1.9a.5.5,0,0,0,.14-.3.455.455,0,0,0-.16-.28A47.024,47.024,0,0,0,81.8-7.32a31.562,31.562,0,0,0,2.56-3.74,3.663,3.663,0,0,1,.74-.88.552.552,0,0,0,.26-.4.533.533,0,0,0-.1-.26,7.291,7.291,0,0,0-1.3-1.4.661.661,0,0,0-.34-.16.333.333,0,0,0-.22.08,2.937,2.937,0,0,1-1.38.18Zm26.52.68c.34-.52.46-.72.62-1a1.672,1.672,0,0,1,.42-.42.54.54,0,0,0,.24-.4.351.351,0,0,0-.22-.32,12.6,12.6,0,0,0-2.34-.98,7.377,7.377,0,0,1-1.08,2.46A22.314,22.314,0,0,1,95.02-7.6a8.333,8.333,0,0,1,1.68.92.458.458,0,0,0,.32.14.717.717,0,0,0,.4-.18,24.152,24.152,0,0,0,4.28-4.5l4.96-.1a19.281,19.281,0,0,1-2.34,3.96,20.053,20.053,0,0,0-2.58-1.6.519.519,0,0,0-.2-.08.378.378,0,0,0-.26.14c-.46.42-.88.94-1.32,1.42a16.72,16.72,0,0,1,2.88,1.88A24.253,24.253,0,0,1,95.48-.18,5.683,5.683,0,0,1,97.38.84a.6.6,0,0,0,.38.18,1.089,1.089,0,0,0,.5-.18,24.373,24.373,0,0,0,6.38-5,22.164,22.164,0,0,1,1.94,1.94.347.347,0,0,0,.22.12.415.415,0,0,0,.24-.1,12.293,12.293,0,0,0,1.24-1.26.387.387,0,0,0,.12-.26.4.4,0,0,0-.12-.28,17.779,17.779,0,0,0-2.16-2.02,31.217,31.217,0,0,0,2.94-4.84,2.508,2.508,0,0,1,.6-.76.512.512,0,0,0,.22-.38.489.489,0,0,0-.16-.36,6.479,6.479,0,0,0-1.36-1.22.688.688,0,0,0-.36-.16.585.585,0,0,0-.34.14,1.957,1.957,0,0,1-1.1.3Zm24.44,2.86a31.657,31.657,0,0,0,2.34-2.52,6.59,6.59,0,0,1,1.2-1.1.572.572,0,0,0,.28-.44.354.354,0,0,0-.16-.3,17.794,17.794,0,0,0-2.22-1.4,5.8,5.8,0,0,1-1.26,2.06,32.449,32.449,0,0,1-4.26,4.18,32.1,32.1,0,0,1-6.3,4.1,7.486,7.486,0,0,1,1.72,1.18.557.557,0,0,0,.42.2.564.564,0,0,0,.3-.08,34.6,34.6,0,0,0,5.5-3.84v4.66c0,1.36-.06,2.66-.08,4.1-.02.24.06.32.28.32a16.682,16.682,0,0,0,2,0c.22,0,.32-.08.3-.34-.04-1.6-.06-2.78-.06-4.16Zm21.96-.54a5.534,5.534,0,0,1,.18-2.22,1.28,1.28,0,0,0,.16-.5c0-.16-.1-.28-.36-.34a19.085,19.085,0,0,0-2.5-.42,15.97,15.97,0,0,1,.2,3.48v6.26c0,1.02.02,1.26-.12,1.52a.614.614,0,0,0-.08.3.8.8,0,0,0,.18.42,5.776,5.776,0,0,0,1.2,1.22.853.853,0,0,0,.42.16.635.635,0,0,0,.4-.16,6.64,6.64,0,0,1,.58-.42A33.213,33.213,0,0,0,153.26-4a25.281,25.281,0,0,0,2.96-2.62c.22-.22.3-.36.3-.5a1,1,0,0,0-.12-.34,5.765,5.765,0,0,1-.62-2.02,19.193,19.193,0,0,1-3.5,3.4,20.332,20.332,0,0,1-2.84,1.86Zm-6.98-2.22a5.379,5.379,0,0,1,.2,1.68c-.02,3.2-.28,4.3-.84,5.66A9.929,9.929,0,0,1,138.5-1.8a7.087,7.087,0,0,1,1.7.84.68.68,0,0,0,.38.16.907.907,0,0,0,.52-.26,10.3,10.3,0,0,0,2.84-3.76,14.968,14.968,0,0,0,1.08-5.88,2.885,2.885,0,0,1,.24-1.36c.12-.28.08-.52-.26-.62A16.17,16.17,0,0,0,142.46-13.12Zm29.5.86a4.543,4.543,0,0,1,4.48,4.64c0,3.78-2.66,5.18-6.04,5.98a4.242,4.242,0,0,1,1.4,1.26c.26.4.44.48.86.36,4.06-1.22,6.16-3.56,6.16-7.28,0-3.98-2.82-6.94-7.62-6.94a8.752,8.752,0,0,0-6.5,2.56,7.369,7.369,0,0,0-2.26,5.2c0,3.26,1.78,5.14,3.54,5.14a3.8,3.8,0,0,0,3.4-2.3,25.043,25.043,0,0,0,2.5-8.62Zm-2.4.12a22.851,22.851,0,0,1-2.12,7.16c-.54.96-.98,1.22-1.5,1.22-.62,0-1.36-1.02-1.36-2.86a5.759,5.759,0,0,1,1.56-3.7A6.024,6.024,0,0,1,169.56-12.14ZM15.08,21.74a14.226,14.226,0,0,1-3.58,3.5,4.612,4.612,0,0,1,1.66.82.782.782,0,0,0,.48.2.576.576,0,0,0,.42-.18,17.005,17.005,0,0,0,3.52-3.86,2.484,2.484,0,0,1,.54-.58.522.522,0,0,0,.28-.42.58.58,0,0,0-.16-.36,10.251,10.251,0,0,0-1.2-1.26.68.68,0,0,0-.46-.28,1.463,1.463,0,0,0-.38.14,4.213,4.213,0,0,1-1.38.12H6.24c-1.6,0-2.7-.04-4.06-.14a18.712,18.712,0,0,0,.36,2.16c.04.18.12.32.36.3,1.18-.08,2.4-.16,3.54-.16ZM3.38,33.36A5.628,5.628,0,0,1,5.2,34.38a.566.566,0,0,0,.4.18,1.006,1.006,0,0,0,.56-.2A10.41,10.41,0,0,0,9.8,30.38a12.226,12.226,0,0,0,1.18-5.5,1.829,1.829,0,0,1,.18-.82.815.815,0,0,0,.1-.36c0-.18-.08-.32-.34-.38a22.2,22.2,0,0,0-2.58-.38,7.23,7.23,0,0,1,.2,1.88,9.248,9.248,0,0,1-.98,4.72A8.856,8.856,0,0,1,3.38,33.36ZM30.04,23.14a8.229,8.229,0,0,1,.22-2.48,1.528,1.528,0,0,0,.1-.42.384.384,0,0,0-.32-.38,20.348,20.348,0,0,0-2.6-.44,18.913,18.913,0,0,1,.22,3.48l-.04,7.52a3.945,3.945,0,0,1-.08,1.14.812.812,0,0,0-.1.34.49.49,0,0,0,.12.32,6.169,6.169,0,0,0,1.22,1.36.534.534,0,0,0,.34.16.58.58,0,0,0,.36-.16,4.613,4.613,0,0,1,1.12-.64,44.743,44.743,0,0,0,4.9-2.48,32.362,32.362,0,0,0,5-3.44.631.631,0,0,0,.2-.8,9,9,0,0,1-.32-2.32,24.715,24.715,0,0,1-5.3,4.08,32.886,32.886,0,0,1-5.1,2.52Zm19.04-1.6a21.171,21.171,0,0,1,4.08,3.26c.1.1.18.16.26.16s.14-.06.24-.16c.28-.3.94-1.1,1.24-1.5a.43.43,0,0,0,.12-.26c0-.08-.06-.16-.18-.28a20.855,20.855,0,0,0-3.82-2.84.533.533,0,0,0-.26-.1.375.375,0,0,0-.28.16C50.1,20.38,49.52,21,49.08,21.54Zm.44,9.98a13.858,13.858,0,0,0,1.6,2.22.518.518,0,0,0,.34.22.553.553,0,0,0,.36-.2,6.9,6.9,0,0,1,1.34-.92,43,43,0,0,0,6.04-3.92,32.69,32.69,0,0,0,4.6-4.24c.22-.26.32-.42.32-.6a.978.978,0,0,0-.1-.38,8.927,8.927,0,0,1-.56-2.34,30.047,30.047,0,0,1-5.48,5.44,29.645,29.645,0,0,1-5.76,3.72A12.048,12.048,0,0,1,49.52,31.52ZM71.58,25.5a17.537,17.537,0,0,1,4.04,2.18.387.387,0,0,0,.24.12c.08,0,.16-.08.26-.2A8.143,8.143,0,0,0,77,26.08a.593.593,0,0,0,.08-.22c0-.12-.08-.2-.22-.3a13.88,13.88,0,0,0-3.84-1.96c-.18-.04-.28.06-.38.2C72.4,24.12,72.08,24.7,71.58,25.5ZM74,20.8a19.343,19.343,0,0,1,3.88,2.46.515.515,0,0,0,.3.14.223.223,0,0,0,.2-.12,8.561,8.561,0,0,0,1.02-1.5.484.484,0,0,0,.08-.26.317.317,0,0,0-.16-.26,13.6,13.6,0,0,0-3.76-2.22c-.24-.12-.36-.08-.5.16C74.72,19.72,74.34,20.28,74,20.8Zm-.84,11.4a12.631,12.631,0,0,0,1.48,2.04.515.515,0,0,0,.4.24.443.443,0,0,0,.32-.16,6.572,6.572,0,0,1,1.16-.68,46.432,46.432,0,0,0,5.98-3.76,37.261,37.261,0,0,0,5.08-4.62.622.622,0,0,0,.22-.46.978.978,0,0,0-.1-.38,9.988,9.988,0,0,1-.58-2.24,36.4,36.4,0,0,1-5.76,5.58,33.5,33.5,0,0,1-5.48,3.46A9.247,9.247,0,0,1,73.16,32.2Zm10-12.88a9.924,9.924,0,0,1,2.02,2.32.209.209,0,0,0,.34.06l.84-.62a.2.2,0,0,0,.06-.32,9.2,9.2,0,0,0-1.9-2.14c-.12-.1-.2-.12-.3-.04ZM85,18a9.461,9.461,0,0,1,2,2.3.205.205,0,0,0,.34.06l.8-.62a.231.231,0,0,0,.06-.36,8.352,8.352,0,0,0-1.9-2.06c-.12-.1-.18-.12-.3-.04Zm19.96,9.9c1.7-.7,3-1.14,4.3-1.6a6.4,6.4,0,0,1,1.22-.3c.2-.04.3-.12.3-.28a.791.791,0,0,0-.16-.44,12.32,12.32,0,0,0-1.4-1.76,6.015,6.015,0,0,1-1.52,1.08c-1.02.52-2.16,1.04-2.94,1.4a2.209,2.209,0,0,0-2.44-2.16,3.98,3.98,0,0,0-2,.62l-.02-.04a20.639,20.639,0,0,0,1.5-2.22c1.46-.16,3.18-.38,4.68-.6.28-.04.36-.12.34-.32a6.743,6.743,0,0,0-.2-1.44c-.04-.18-.1-.24-.32-.2a32.174,32.174,0,0,1-3.64.62c.24-.54.34-.8.46-1.08a1.558,1.558,0,0,1,.34-.48.386.386,0,0,0,.14-.3.359.359,0,0,0-.24-.34,12.628,12.628,0,0,0-2.28-.56,4.868,4.868,0,0,1-.14,1.22,15.41,15.41,0,0,1-.6,1.72,44.114,44.114,0,0,1-4.6.02c.06.6.14,1.34.2,1.66.04.22.1.32.28.32,1.18,0,2.26-.02,3.2-.06a20.438,20.438,0,0,1-4.18,4.96c-.1.08-.14.14-.14.22a.325.325,0,0,0,.08.18,9.513,9.513,0,0,0,1.14,1.32.4.4,0,0,0,.22.14c.08,0,.14-.06.24-.18a26.951,26.951,0,0,1,2-2.18,4.828,4.828,0,0,1,2.76-1.44c.9-.04,1.14.36,1.2,1.38-3.02,1.56-4.22,2.96-4.22,4.88,0,2.32,1.74,3.3,5.02,3.3a35.573,35.573,0,0,0,4.96-.26c.16,0,.24-.14.22-.38a8.951,8.951,0,0,0-.18-1.64c-.02-.18-.1-.24-.28-.22a34.18,34.18,0,0,1-4.98.4c-2.1,0-2.78-.54-2.78-1.38,0-.96.64-1.74,2.42-2.66-.02.72-.02,1.72-.02,2.44,0,.2.08.32.26.32a10.819,10.819,0,0,0,1.42-.1c.26-.04.38-.14.38-.36ZM6.16,52.14c-1.94,0-2.64-.04-2.78-.04-.2,0-.22.02-.22.22,0,.12.04.74.04,2.12v4.28c0,1.38-.04,2-.04,2.12,0,.22.02.24.22.24.14,0,.84-.04,2.78-.04h7.68c1.94,0,2.64.04,2.78.04.2,0,.22-.02.22-.24,0-.12-.04-.74-.04-2.12V54.44c0-1.38.04-2,.04-2.12,0-.2-.02-.22-.22-.22-.14,0-.84.04-2.78.04Zm8.58,7.2H10.92V57.38h3.82Zm0-5.46v1.9H10.92v-1.9ZM5.26,59.34V57.38H8.9v1.96Zm0-3.56v-1.9H8.9v1.9Zm2.68,8.16a2.043,2.043,0,0,1,.12-.86.6.6,0,0,0,.1-.34c0-.1-.1-.2-.36-.24-.6-.06-1.38-.12-2.04-.12a11.559,11.559,0,0,1,.1,1.66v2.94c0,1,.3,1.44.7,1.7a7.242,7.242,0,0,0,3.34.46c2.14,0,3.28-.1,4.04-.54.62-.36.98-1.04,1.18-2.48.06-.52.04-.54-.46-.68a6.87,6.87,0,0,1-1.54-.6c-.02,1.08-.2,1.74-.54,2a4.457,4.457,0,0,1-2.52.4,4.376,4.376,0,0,1-1.82-.22c-.24-.14-.3-.36-.3-.82ZM3.08,62.9c-.26-.1-.28-.12-.34.1A11.285,11.285,0,0,1,.86,66.84c-.14.18-.12.26.14.42l1.3.84a.5.5,0,0,0,.22.1c.06,0,.1-.04.16-.14a15.276,15.276,0,0,0,1.98-4.4c.06-.16.02-.24-.24-.32Zm12.02.42c-.24.14-.24.16-.14.32a17.878,17.878,0,0,1,2.24,3.94c.04.1.08.14.14.14a.725.725,0,0,0,.26-.1l1.34-.72c.22-.12.24-.2.16-.38a20.489,20.489,0,0,0-2.34-3.8c-.12-.16-.18-.18-.4-.06ZM8.76,62.06c-.12.08-.16.14-.16.2s.02.1.1.18A13.589,13.589,0,0,1,10.98,65c.12.16.18.14.4-.02l1.1-.88c.2-.16.24-.24.12-.4a15.088,15.088,0,0,0-2.42-2.38c-.16-.12-.24-.14-.42,0ZM25.54,54.1a10.721,10.721,0,0,1,.24,2.62,36.259,36.259,0,0,0,.48,5.82c.54,3.38,2.18,5.22,3.74,5.22,1.4,0,2.64-1.08,3.4-3.12a.612.612,0,0,0-.14-.74,7.645,7.645,0,0,1-1.28-1.54c-.78,2.08-1.28,2.78-1.92,2.78-.84,0-1.36-1.36-1.64-2.94a25.188,25.188,0,0,1-.36-4.56,8.986,8.986,0,0,1,.18-1.96,1.742,1.742,0,0,0,.16-.56c0-.14-.14-.28-.32-.36A8.657,8.657,0,0,0,25.54,54.1Zm10.24,2.84a13.476,13.476,0,0,1,3.74,6.98c.04.24.18.3.42.22a6.787,6.787,0,0,0,1.56-.8c.16-.1.28-.18.22-.44a13.225,13.225,0,0,0-3.92-6.84.308.308,0,0,0-.22-.12.593.593,0,0,0-.22.08C37.04,56.18,36.54,56.46,35.78,56.94Zm21.98-1.2a4.543,4.543,0,0,1,4.48,4.64c0,3.78-2.66,5.18-6.04,5.98a4.242,4.242,0,0,1,1.4,1.26c.26.4.44.48.86.36,4.06-1.22,6.16-3.56,6.16-7.28,0-3.98-2.82-6.94-7.62-6.94a8.752,8.752,0,0,0-6.5,2.56,7.369,7.369,0,0,0-2.26,5.2c0,3.26,1.78,5.14,3.54,5.14a3.8,3.8,0,0,0,3.4-2.3,25.043,25.043,0,0,0,2.5-8.62Zm-2.4.12a22.851,22.851,0,0,1-2.12,7.16c-.54.96-.98,1.22-1.5,1.22-.62,0-1.36-1.02-1.36-2.86a5.759,5.759,0,0,1,1.56-3.7A6.023,6.023,0,0,1,55.36,55.86ZM78.78,63.6c-.94-.08-1.42-.08-1.92-.08-2.42,0-4,1.22-4,2.84,0,1.66,1.48,2.8,4.08,2.8,2.74,0,4.04-.88,4.06-3.04a15.87,15.87,0,0,1,3.98,2.28.307.307,0,0,0,.22.1.294.294,0,0,0,.26-.16,6.016,6.016,0,0,0,.88-1.48c.06-.24.06-.3-.14-.48a17.832,17.832,0,0,0-5.3-2.42c-.06-.92-.1-1.9-.14-2.82a36.223,36.223,0,0,0,3.92-.48c.22-.02.3-.08.3-.28,0-.6-.04-1.26-.06-1.64-.02-.18-.08-.22-.32-.16-1.44.22-2.4.42-3.92.52,0-.72-.02-1.46-.02-2.26a40.914,40.914,0,0,0,4.62-.52c.16-.02.22-.06.22-.32a10.687,10.687,0,0,0-.1-1.46c-.02-.24-.1-.3-.34-.24a33.653,33.653,0,0,1-4.38.6c.02-.6.02-.88.04-1.28a2.57,2.57,0,0,1,.3-.96.408.408,0,0,0-.22-.6,11.589,11.589,0,0,0-2.52-.36,5.753,5.753,0,0,1,.24,1.34c.02.68.04,1.2.04,1.94a45.726,45.726,0,0,1-5.24-.2c.04.82.08,1.3.14,1.8.02.2.12.28.34.28a32.913,32.913,0,0,0,4.78.1c.02.76.02,1.54.04,2.3a28.14,28.14,0,0,1-4.5-.16,11.936,11.936,0,0,0,.12,1.7c.02.26.1.34.32.34a35.414,35.414,0,0,0,4.12.08C78.7,61.9,78.74,62.72,78.78,63.6Zm.04,1.9a1.919,1.919,0,0,1-.22,1.12,2.47,2.47,0,0,1-1.82.6c-1.38,0-1.98-.38-1.98-.9,0-.64.7-1.06,2.16-1.06A8.626,8.626,0,0,1,78.82,65.5Zm23.16-1.9c-.94-.08-1.42-.08-1.92-.08-2.42,0-4,1.22-4,2.84,0,1.66,1.48,2.8,4.08,2.8,2.74,0,4.04-.88,4.06-3.04a15.869,15.869,0,0,1,3.98,2.28.307.307,0,0,0,.22.1.294.294,0,0,0,.26-.16,6.016,6.016,0,0,0,.88-1.48c.06-.24.06-.3-.14-.48a17.832,17.832,0,0,0-5.3-2.42c-.06-.92-.1-1.9-.14-2.82a36.223,36.223,0,0,0,3.92-.48c.22-.02.3-.08.3-.28,0-.6-.04-1.26-.06-1.64-.02-.18-.08-.22-.32-.16-1.44.22-2.4.42-3.92.52,0-.72-.02-1.46-.02-2.26a40.914,40.914,0,0,0,4.62-.52c.16-.02.22-.06.22-.32a10.685,10.685,0,0,0-.1-1.46c-.02-.24-.1-.3-.34-.24a33.653,33.653,0,0,1-4.38.6c.02-.6.02-.88.04-1.28a2.57,2.57,0,0,1,.3-.96.408.408,0,0,0-.22-.6,11.589,11.589,0,0,0-2.52-.36,5.753,5.753,0,0,1,.24,1.34c.02.68.04,1.2.04,1.94a45.726,45.726,0,0,1-5.24-.2c.04.82.08,1.3.14,1.8.02.2.12.28.34.28a32.913,32.913,0,0,0,4.78.1c.02.76.02,1.54.04,2.3a28.14,28.14,0,0,1-4.5-.16,11.936,11.936,0,0,0,.12,1.7c.02.26.1.34.32.34a35.414,35.414,0,0,0,4.12.08C101.9,61.9,101.94,62.72,101.98,63.6Zm.04,1.9a1.919,1.919,0,0,1-.22,1.12,2.47,2.47,0,0,1-1.82.6c-1.38,0-1.98-.38-1.98-.9,0-.64.7-1.06,2.16-1.06A8.626,8.626,0,0,1,102.02,65.5Zm17.66-12.74a16.136,16.136,0,0,1-.36,2.98,38.18,38.18,0,0,0-.68,6.56,18.749,18.749,0,0,0,.92,5.96c.04.14.12.24.26.22a9.928,9.928,0,0,0,1.64-.32c.18-.04.26-.12.26-.26,0-.16-.04-.32-.04-.56a2.271,2.271,0,0,1,.06-.62,19.553,19.553,0,0,1,1.14-3.02.553.553,0,0,0,.1-.32.8.8,0,0,0-.14-.3,5.192,5.192,0,0,1-.7-1.26c-.58,1.4-.94,2.06-1.36,2.98a19.286,19.286,0,0,1-.12-2.34A32.407,32.407,0,0,1,121.5,56a4.725,4.725,0,0,1,.48-1.42c.26-.4.3-.46.3-.6,0-.18-.12-.3-.46-.48A8.851,8.851,0,0,0,119.68,52.76Zm4.6,10.32a4.406,4.406,0,0,0,.7,2.6c.86,1.18,2.24,1.66,5.2,1.66a26.854,26.854,0,0,0,3.26-.22c.34-.04.34-.06.34-.3a14.819,14.819,0,0,0-.12-1.72c-.04-.26-.08-.28-.28-.26a28.669,28.669,0,0,1-3.82.26c-2.18,0-3.14-.5-3.26-1.88,0-.22-.04-.32-.2-.3Zm.64-5.68a24.451,24.451,0,0,1,4.54-.46c1.02,0,2.06.04,3.26.12.18.02.24-.06.26-.24.04-.56.04-1.1.04-1.7,0-.2-.04-.24-.46-.26-.84-.08-1.76-.12-2.96-.12a31.932,31.932,0,0,0-4.34.36c-.2.04-.26.1-.28.34C124.94,55.78,124.94,56.28,124.92,57.4Zm21.76,6.7a15.1,15.1,0,0,1-6.64,3.24,4.69,4.69,0,0,1,.78,1.26c.18.38.24.52.4.52a2.1,2.1,0,0,0,.48-.14,15.522,15.522,0,0,0,6.38-4.02c-.02,2.54-.08,3.96-.08,4.36,0,.2.02.22.22.22h1.74c.2,0,.22-.02.22-.22,0-.42-.1-1.94-.1-4.5a15.329,15.329,0,0,0,6.68,4.16,1.621,1.621,0,0,0,.48.12c.18,0,.24-.14.4-.5a5.2,5.2,0,0,1,.82-1.3,16.275,16.275,0,0,1-6.92-3.2h3.6c1.8,0,2.42.04,2.54.04.22,0,.24-.02.24-.22v-1.4c0-.22-.02-.24-.24-.24-.12,0-.74.04-2.54.04h-5.02a1.784,1.784,0,0,1,.1-.64c.02-.12.12-.22.12-.34,0-.1-.1-.2-.3-.22-.68-.04-1.4-.1-2.14-.12a9.917,9.917,0,0,1,.14,1.32h-4.72c-1.82,0-2.44-.04-2.56-.04-.2,0-.22.02-.22.24v1.4c0,.2.02.22.22.22.12,0,.74-.04,2.56-.04Zm3.02-10.78c.14-.28.26-.58.38-.88a1.21,1.21,0,0,1,.26-.46.375.375,0,0,0,.16-.28c0-.12-.08-.2-.26-.24-.56-.1-1.34-.18-1.94-.24a4.462,4.462,0,0,1-.2.98c-.14.42-.26.74-.42,1.12-1.26,0-1.7-.04-1.8-.04-.22,0-.24.02-.24.22,0,.12.04.66.04,1.92V58.6c0,1.24-.04,1.78-.04,1.9,0,.2.02.22.24.22.12,0,.58-.04,2.04-.04h2.48c1.48,0,1.92.04,2.06.04.2,0,.22-.02.22-.22,0-.12-.04-.66-.04-1.9V55.42c0-1.26.04-1.8.04-1.92,0-.2-.02-.22-.22-.22-.14,0-.58.04-2.06.04Zm1.14,5.84h-3.36V57.7h3.36Zm0-4.34v1.4h-3.36v-1.4Zm-6.24,2.02a20.54,20.54,0,0,1-3.08,1.88,9.713,9.713,0,0,1-1.26.5,11.721,11.721,0,0,0,.82,1.86c.1.16.18.2.28.2a.307.307,0,0,0,.24-.18,1.454,1.454,0,0,1,.54-.44c.9-.52,1.7-1.02,2.54-1.6.3-.2.42-.28.42-.46a1.711,1.711,0,0,0-.12-.5C144.86,57.72,144.66,57.14,144.6,56.84Zm8.66,1.4a.341.341,0,0,0-.1.22c0,.06.04.1.14.16a21.966,21.966,0,0,1,3.52,2.34.27.27,0,0,0,.18.1c.06,0,.12-.06.2-.2l.78-1.26c.14-.22.12-.28-.02-.4a25.02,25.02,0,0,0-3.54-2.18c-.18-.1-.22-.1-.36.12Zm-.2-2.96a5.375,5.375,0,0,1,.98.88c.22.26.32.38.44.38s.24-.1.46-.3a18.912,18.912,0,0,0,2-1.84,1.792,1.792,0,0,1,.56-.44c.14-.06.26-.16.26-.28s-.1-.2-.26-.36a11.692,11.692,0,0,0-1.44-1.1,4.081,4.081,0,0,1-.6.86A13.015,13.015,0,0,1,153.06,55.28Zm-12.24-1.74c-.1.1-.16.16-.16.22,0,.04.06.1.14.16a16.068,16.068,0,0,1,2.54,2.28c.14.18.2.16.38-.06l.96-1.1c.2-.24.18-.28.04-.42a15.127,15.127,0,0,0-2.56-2.16c-.18-.12-.18-.12-.4.1Zm26.92-1.32a13.3,13.3,0,0,1,.2,3.66c-.1,2.4-.28,5.28-.28,8.64,0,3.06,1.2,4.08,3.76,4.08a11.426,11.426,0,0,0,7.58-3c.32-.28.4-.44.4-.62a1.314,1.314,0,0,0-.16-.48,6.953,6.953,0,0,1-.46-1.9c-2.44,2.6-5.22,3.68-7,3.68-1.6,0-1.84-.46-1.84-2.48,0-2.62.1-4.66.3-7.74a11.989,11.989,0,0,1,.28-2.44,1.94,1.94,0,0,0,.2-.66c0-.2-.14-.3-.48-.38A20.684,20.684,0,0,0,167.74,52.22Zm23.68,2.92a29.4,29.4,0,0,1-3.78-.02c.06.7.12,1.28.18,1.68.02.22.08.3.26.3.98.02,2.08.02,3.34-.04,0,.66-.02,1.28-.04,1.94a2.952,2.952,0,0,0-1.06-.16,2.894,2.894,0,0,0-2.66,3.14,2.643,2.643,0,0,0,2.4,2.88,1.517,1.517,0,0,0,.32-.02,3.986,3.986,0,0,0-.2,1.32c0,1.94,1.52,2.84,5.06,2.84,4.6,0,6.62-1.42,6.62-3.94a7.758,7.758,0,0,0-.3-2.2.494.494,0,0,0-.4-.36,6.779,6.779,0,0,1-2.02-.58,8.389,8.389,0,0,1,.42,2.64c0,1.6-1.56,2.36-4.6,2.36-2.22,0-2.62-.52-2.62-1.3a2.5,2.5,0,0,1,.28-1.2,3.439,3.439,0,0,0,.96-2.6,4.171,4.171,0,0,0-.18-1.34c.04-1.4.06-2.16.12-3.6a27.955,27.955,0,0,0,3.1-.54c.16-.04.24-.08.24-.32a11.888,11.888,0,0,0-.1-1.44c-.02-.26-.04-.32-.38-.24-.98.24-1.84.4-2.76.54.02-.64.02-.96.04-1.34a1.7,1.7,0,0,1,.16-.68.957.957,0,0,0,.16-.46c0-.16-.16-.28-.42-.34a13.128,13.128,0,0,0-2.38-.34,5.257,5.257,0,0,1,.24,1.64Zm-.94,5.34a1.071,1.071,0,0,1,1.08,1.22c.02.88-.4,1.44-1.02,1.46-.74.02-1.16-.48-1.16-1.32C189.38,61.04,189.76,60.48,190.48,60.48ZM198.86,57a12.268,12.268,0,0,1,3.9,3.02c.08.1.16.16.22.16a.308.308,0,0,0,.22-.12,9.969,9.969,0,0,0,1.14-1.38.422.422,0,0,0,.1-.22.27.27,0,0,0-.1-.2,12.7,12.7,0,0,0-3.78-2.74.3.3,0,0,0-.42.08C199.86,55.88,199.36,56.42,198.86,57Z" transform="translate(-0.774 16.34)" fill="#1c3534"/>
</svg>
