<svg xmlns="http://www.w3.org/2000/svg" width="8.568" height="108.318" viewBox="0 0 8.568 108.318">
  <path id="パス_1147" data-name="パス 1147" d="M3.294.12A3.6,3.6,0,0,1,1.617-.241,3.8,3.8,0,0,1,.384-1.284l.771-.768a2.706,2.706,0,0,0,.906.834,2.618,2.618,0,0,0,1.275.285,2.008,2.008,0,0,0,1.2-.324,1.04,1.04,0,0,0,.451-.894,1.2,1.2,0,0,0-.22-.748,1.7,1.7,0,0,0-.582-.477,5.7,5.7,0,0,0-.8-.335q-.433-.147-.867-.321a3.678,3.678,0,0,1-.8-.437,1.957,1.957,0,0,1-.582-.678A2.244,2.244,0,0,1,.921-6.2,2.074,2.074,0,0,1,1.266-7.41,2.224,2.224,0,0,1,2.2-8.18a3.213,3.213,0,0,1,1.338-.268A3.251,3.251,0,0,1,5-8.13a3.067,3.067,0,0,1,1.057.837l-.771.768a2.657,2.657,0,0,0-.8-.653,2.11,2.11,0,0,0-.978-.217A1.746,1.746,0,0,0,2.45-7.1a.966.966,0,0,0-.395.822,1.024,1.024,0,0,0,.22.684,1.762,1.762,0,0,0,.582.438,6.876,6.876,0,0,0,.795.326q.434.148.867.328a3.508,3.508,0,0,1,.8.458,2.048,2.048,0,0,1,.582.714,2.429,2.429,0,0,1,.22,1.1A2.112,2.112,0,0,1,5.355-.506,3.151,3.151,0,0,1,3.294.12Zm10.557,0a4.2,4.2,0,0,1-1.667-.327,4.049,4.049,0,0,1-1.336-.917,4.165,4.165,0,0,1-.881-1.37,4.484,4.484,0,0,1-.31-1.674,4.5,4.5,0,0,1,.309-1.675A4.078,4.078,0,0,1,10.844-7.2a4.156,4.156,0,0,1,1.332-.913,4.124,4.124,0,0,1,1.661-.332,4.183,4.183,0,0,1,1.731.336,4.29,4.29,0,0,1,1.317.918l-.771.771a2.775,2.775,0,0,0-.972-.693,3.245,3.245,0,0,0-1.3-.249,3.063,3.063,0,0,0-1.211.234,2.817,2.817,0,0,0-.957.665,3,3,0,0,0-.627,1.017,3.617,3.617,0,0,0-.22,1.282,3.607,3.607,0,0,0,.222,1.284,3.046,3.046,0,0,0,.627,1.02,2.785,2.785,0,0,0,.958.666,3.085,3.085,0,0,0,1.214.234A3.328,3.328,0,0,0,15.2-1.218a2.835,2.835,0,0,0,.975-.7l.771.771A4.118,4.118,0,0,1,15.6-.218,4.342,4.342,0,0,1,13.851.12Zm7.635-3.747v-.942h2.259a1.571,1.571,0,0,0,1.121-.372,1.327,1.327,0,0,0,.394-1.014,1.351,1.351,0,0,0-.39-.993,1.5,1.5,0,0,0-1.116-.393H21.486v-.987h2.3a2.957,2.957,0,0,1,1.383.306,2.236,2.236,0,0,1,.908.837,2.3,2.3,0,0,1,.319,1.212,2.333,2.333,0,0,1-.319,1.235,2.157,2.157,0,0,1-.908.819,3.07,3.07,0,0,1-1.383.293ZM20.727,0V-8.328h1.131V0Zm4.8,0L22.509-3.732,23.577-4.1,26.961,0Zm8.664.12a4.123,4.123,0,0,1-1.655-.332,4.175,4.175,0,0,1-1.342-.921A4.278,4.278,0,0,1,30.3-2.5a4.337,4.337,0,0,1-.323-1.674,4.318,4.318,0,0,1,.321-1.671,4.278,4.278,0,0,1,.892-1.36,4.1,4.1,0,0,1,1.332-.914,4.129,4.129,0,0,1,1.648-.327,4.139,4.139,0,0,1,1.65.327,4.134,4.134,0,0,1,1.336.914,4.256,4.256,0,0,1,.9,1.366,4.345,4.345,0,0,1,.323,1.677,4.355,4.355,0,0,1-.321,1.674,4.225,4.225,0,0,1-.893,1.363,4.193,4.193,0,0,1-1.33.915A4.047,4.047,0,0,1,34.191.12ZM34.167-.963a2.979,2.979,0,0,0,1.576-.414,2.937,2.937,0,0,0,1.074-1.139,3.438,3.438,0,0,0,.391-1.66,3.516,3.516,0,0,0-.225-1.278,3.056,3.056,0,0,0-.633-1.012,2.826,2.826,0,0,0-.962-.665,3.109,3.109,0,0,0-1.222-.234,3,3,0,0,0-1.567.408,2.893,2.893,0,0,0-1.073,1.126,3.413,3.413,0,0,0-.39,1.655,3.6,3.6,0,0,0,.225,1.288,3.038,3.038,0,0,0,.628,1.02,2.841,2.841,0,0,0,.961.666A3.059,3.059,0,0,0,34.167-.963ZM42.321,0V-8.328h1.131V0Zm.765,0V-1.032h4.47V0Zm8.259,0V-8.328h1.131V0Zm.765,0V-1.032h4.47V0Zm13.8,0V-1.035h2.319a3.2,3.2,0,0,0,1.617-.4,2.824,2.824,0,0,0,1.09-1.107,3.323,3.323,0,0,0,.391-1.635,3.243,3.243,0,0,0-.4-1.619,2.854,2.854,0,0,0-1.1-1.1,3.2,3.2,0,0,0-1.608-.4H65.919V-8.328h2.334a4.418,4.418,0,0,1,1.68.314,4.119,4.119,0,0,1,1.345.876,3.986,3.986,0,0,1,.893,1.32,4.232,4.232,0,0,1,.318,1.655,4.233,4.233,0,0,1-.318,1.647,4.036,4.036,0,0,1-.886,1.326,4.04,4.04,0,0,1-1.34.877A4.386,4.386,0,0,1,68.277,0Zm-.744,0V-8.328h1.131V0ZM80.232.12a4.123,4.123,0,0,1-1.655-.332,4.175,4.175,0,0,1-1.342-.921,4.278,4.278,0,0,1-.9-1.369,4.337,4.337,0,0,1-.323-1.674,4.318,4.318,0,0,1,.321-1.671,4.277,4.277,0,0,1,.893-1.36,4.1,4.1,0,0,1,1.332-.914,4.129,4.129,0,0,1,1.648-.327,4.139,4.139,0,0,1,1.65.327,4.134,4.134,0,0,1,1.337.914,4.256,4.256,0,0,1,.9,1.366,4.345,4.345,0,0,1,.323,1.677,4.355,4.355,0,0,1-.321,1.674A4.225,4.225,0,0,1,83.2-1.127a4.193,4.193,0,0,1-1.33.915A4.047,4.047,0,0,1,80.232.12ZM80.208-.963a2.979,2.979,0,0,0,1.576-.414,2.937,2.937,0,0,0,1.074-1.139,3.438,3.438,0,0,0,.391-1.66,3.516,3.516,0,0,0-.225-1.278,3.056,3.056,0,0,0-.633-1.012,2.825,2.825,0,0,0-.961-.665,3.109,3.109,0,0,0-1.223-.234,3,3,0,0,0-1.567.408,2.893,2.893,0,0,0-1.073,1.126,3.413,3.413,0,0,0-.39,1.655A3.6,3.6,0,0,0,77.4-2.887a3.038,3.038,0,0,0,.629,1.02,2.841,2.841,0,0,0,.962.666A3.059,3.059,0,0,0,80.208-.963ZM90.1,0,87.384-8.328H88.5l2.16,6.789h-.315l2.124-6.789h.813l2.127,6.789h-.318l2.163-6.789h1.119L95.661,0h-.8L92.724-6.774h.309L90.9,0Zm12.045,0V-8.328h.792l.339,1.314V0Zm5.766,0-5.121-6.822.147-1.506,5.121,6.822Zm0,0-.339-1.233v-7.1H108.7V0Z" transform="translate(0.12 -0.384) rotate(90)" fill="#1c3534"/>
</svg>
