<svg xmlns="http://www.w3.org/2000/svg" width="56.954" height="42.374" viewBox="0 0 56.954 42.374">
  <path id="パス_848" data-name="パス 848" d="M107.569,156.874c21.506,0,33.266-16.306,33.266-30.438,0-.466,0-.932-.024-1.375a22.935,22.935,0,0,0,5.843-5.546,25.473,25.473,0,0,1-6.716,1.686,10.917,10.917,0,0,0,5.14-5.923,25.049,25.049,0,0,1-7.419,2.6,12.164,12.164,0,0,0-8.535-3.372c-6.449,0-11.687,4.792-11.687,10.693a9.013,9.013,0,0,0,.315,2.44,34.278,34.278,0,0,1-24.1-11.181,10.041,10.041,0,0,0-1.576,5.369,10.448,10.448,0,0,0,5.213,8.9A12.309,12.309,0,0,1,92,129.386v.133c0,5.191,4.025,9.5,9.383,10.494a12.675,12.675,0,0,1-3.079.377,12.161,12.161,0,0,1-2.206-.2,11.591,11.591,0,0,0,10.911,7.432,24.924,24.924,0,0,1-14.523,4.57,23.228,23.228,0,0,1-2.788-.155,34.791,34.791,0,0,0,17.869,4.836" transform="translate(-89.7 -114.5)" fill="#fff"/>
</svg>
